M48
METRIC,000.000
T46C0.300
T45C1.600
T44C1.500
T43C1.450
T42C1.550
T41C1.000
%
T46
X008300Y040600
X008300Y031400
X008300Y016600
X008300Y007400
X008600Y041400
X008600Y017400
X008700Y030600
X008700Y006600
X009000Y040600
X009000Y031400
X009000Y016600
X009000Y007400
X009300Y041400
X009300Y017400
X009400Y030600
X009400Y006600
X009700Y040600
X009700Y031400
X009700Y016600
X009700Y007400
X010000Y041400
X010000Y017400
X010100Y030600
X010100Y006600
X010400Y040600
X010400Y031400
X010400Y016600
X010400Y007400
X010700Y041400
X010700Y017400
X010800Y030600
X010800Y006600
X011100Y040600
X011100Y031400
X011100Y016600
X011100Y007400
X011400Y041400
X011400Y017400
X011500Y030600
X011500Y006600
X011800Y040600
X011800Y031400
X011800Y016600
X011800Y007400
X012100Y041400
X012100Y017400
X012200Y030600
X012200Y006600
X012500Y040600
X012500Y031400
X012500Y016600
X012500Y007400
X012800Y041400
X012800Y017400
X012900Y030600
X012900Y006600
X013200Y040600
X013200Y031400
X013200Y016600
X013200Y007400
X013500Y041400
X013500Y017400
X013600Y030600
X013600Y006600
X013900Y040600
X013900Y031400
X013900Y016600
X013900Y007400
X016800Y065200
X016800Y064500
X016800Y063800
X016800Y063100
X016800Y062400
X016800Y061700
X016800Y061000
X016800Y060300
X019700Y065700
X019700Y060300
X020400Y065700
X020400Y060300
X021100Y065700
X021100Y060300
X021800Y065700
X021800Y060300
X023000Y066500
X038100Y016600
X038100Y007400
X038200Y040600
X038200Y031400
X038400Y017400
X038500Y041400
X038500Y006600
X038600Y030600
X038800Y016600
X038800Y007400
X038900Y040600
X038900Y031400
X039100Y017400
X039200Y041400
X039200Y006600
X039300Y030600
X039500Y016600
X039500Y007400
X039600Y040600
X039600Y031400
X039800Y017400
X039900Y041400
X039900Y006600
X040000Y030600
X040200Y016600
X040200Y007400
X040300Y040600
X040300Y031400
X040500Y017400
X040600Y041400
X040600Y006600
X040700Y030600
X040900Y016600
X040900Y007400
X041000Y040600
X041000Y031400
X041200Y017400
X041300Y041400
X041300Y006600
X041400Y030600
X041600Y016600
X041600Y007400
X041700Y040600
X041700Y031400
X041900Y017400
X042000Y041400
X042000Y006600
X042100Y030600
X042300Y016600
X042300Y007400
X042400Y040600
X042400Y031400
X042600Y017400
X042700Y041400
X042700Y006600
X042800Y030600
X043000Y016600
X043000Y007400
X043100Y040600
X043100Y031400
X043300Y017400
X043400Y041400
X043400Y006600
X043500Y030600
X043700Y016600
X043700Y007400
X043800Y040600
X043800Y031400
X044500Y064100
X044500Y063400
X044500Y062700
X044500Y062000
X044500Y061300
X044500Y060600
X044500Y059900
X044500Y056000
X044500Y055300
X044500Y054600
X044500Y053900
X044500Y053200
X044500Y052500
X044500Y051800
X048300Y064100
X048300Y063400
X048300Y062700
X048300Y062000
X048300Y061300
X048300Y060600
X048300Y059900
X048300Y056000
X048300Y055300
X048300Y054600
X048300Y053900
X048300Y053200
X048300Y052500
X048300Y051800
T41
X022000Y043160
X022000Y040620
X022000Y038080
X022000Y035540
X022000Y033000
X022000Y030460
X022000Y027920
X022000Y025380
X022000Y019160
X022000Y016620
X022000Y014080
X022000Y011540
X022000Y009000
X022000Y006460
X022000Y003920
X022000Y001380
X026000Y045540
X026000Y043000
X026000Y040460
X026000Y037920
X026000Y033080
X026000Y030540
X026000Y028000
X026000Y025460
X026000Y021540
X026000Y019000
X026000Y016460
X026000Y013920
X026000Y009000
X026000Y006460
X026000Y003920
X026000Y001380
X030000Y045700
X030000Y043160
X030000Y040620
X030000Y038080
X030000Y035540
X030000Y033000
X030000Y030460
X030000Y027920
X030000Y021700
X030000Y019160
X030000Y016620
X030000Y014080
X030000Y011540
X030000Y009000
X030000Y006460
X030000Y003920
T43
X033060Y066740
X033060Y064200
X033060Y061660
X035600Y066740
X035600Y064200
X035600Y061660
X038140Y066740
X038140Y064200
X038140Y061660
T44
X010160Y066740
X010160Y064200
X010160Y061660
X012700Y066740
X012700Y064200
X012700Y061660
X015240Y066740
X015240Y064200
X015240Y061660
T42
X001560Y066740
X001560Y064200
X001560Y061660
X004100Y066740
X004100Y064200
X004100Y061660
X006640Y066740
X006640Y064200
X006640Y061660
X031790Y056810
X031790Y054270
X031790Y051730
X031790Y049190
X039410Y056810
X039410Y054270
X039410Y051730
X039410Y049190
T45
X001790Y056810
X001790Y049190
X004330Y056810
X004330Y049190
X006870Y056810
X006870Y049190
X009410Y056810
X009410Y049190
M30
