<?xml version="1.0" encoding="UTF-8" standalone="no"?>
<!-- Created with Inkscape (http://www.inkscape.org/) -->

<svg
   xmlns:dc="http://purl.org/dc/elements/1.1/"
   xmlns:cc="http://creativecommons.org/ns#"
   xmlns:rdf="http://www.w3.org/1999/02/22-rdf-syntax-ns#"
   xmlns:svg="http://www.w3.org/2000/svg"
   xmlns="http://www.w3.org/2000/svg"
   xmlns:sodipodi="http://sodipodi.sourceforge.net/DTD/sodipodi-0.dtd"
   xmlns:inkscape="http://www.inkscape.org/namespaces/inkscape"
   width="35.433071"
   height="42.519684"
   id="svg2"
   version="1.1"
   inkscape:version="0.48.3.1 r9886"
   sodipodi:docname="labels.svg">
  <defs
     id="defs4" />
  <sodipodi:namedview
     id="base"
     pagecolor="#ffffff"
     bordercolor="#666666"
     borderopacity="1.0"
     inkscape:pageopacity="0.0"
     inkscape:pageshadow="2"
     inkscape:zoom="7.919596"
     inkscape:cx="20.081478"
     inkscape:cy="23.295828"
     inkscape:document-units="mm"
     inkscape:current-layer="layer1"
     showgrid="true"
     inkscape:window-width="1280"
     inkscape:window-height="745"
     inkscape:window-x="0"
     inkscape:window-y="25"
     inkscape:window-maximized="1"
     units="mm">
    <inkscape:grid
       type="xygrid"
       id="grid3004"
       empspacing="5"
       visible="true"
       enabled="true"
       snapvisiblegridlinesonly="true"
       units="mm"
       spacingx="0.1mm"
       spacingy="0.1mm" />
  </sodipodi:namedview>
  <metadata
     id="metadata7">
    <rdf:RDF>
      <cc:Work
         rdf:about="">
        <dc:format>image/svg+xml</dc:format>
        <dc:type
           rdf:resource="http://purl.org/dc/dcmitype/StillImage" />
        <dc:title />
      </cc:Work>
    </rdf:RDF>
  </metadata>
  <g
     inkscape:label="Layer 1"
     inkscape:groupmode="layer"
     id="layer1"
     transform="translate(0,-1009.8425)">
    <path
       style="fill:#000000;fill-opacity:1;stroke:none"
       d="m 10.21875,2.15625 0.40625,1.78125 -0.8125,0 0.40625,-1.78125 z m 3.0625,-0.0625 0.40625,0 c 0.238279,3.6e-6 0.398435,0.033207 0.5,0.125 0.10156,0.0918 0.156248,0.2558626 0.15625,0.46875 -2e-6,0.2128935 -0.05274,0.3437527 -0.15625,0.4375 -0.101565,0.091799 -0.263674,0.1562525 -0.5,0.15625 l -0.40625,0 0,-1.1875 z m 2.625,-0.75 0,0.75 1.09375,0 0,3.625 0.875,0 0,-3.625 1.09375,0 0,-0.75 -3.0625,0 z m -3.5,0 0,4.375 0.875,0 0,-1.71875 0.28125,0 c 0.208983,1.7e-6 0.376951,0.1699234 0.53125,0.5 0.02539,0.054689 0.04687,0.093751 0.0625,0.125 l 0.53125,1.09375 0.9375,0 -0.78125,-1.5625 c -0.0918,-0.183592 -0.18555,-0.3124981 -0.25,-0.375 -0.0625,-0.064451 -0.132815,-0.1074198 -0.21875,-0.125 0.275388,-0.035154 0.509763,-0.1347634 0.65625,-0.3125 C 15.177731,3.1660182 15.249997,2.9257841 15.25,2.625 15.249997,2.1757848 15.121091,1.8554726 14.875,1.65625 14.630857,1.4570355 14.218748,1.3437544 13.65625,1.34375 l -1.25,0 z m -2.71875,0 -1.1875,4.375 0.875,0 0.25,-1.0625 1.15625,0 0.28125,1.0625 0.875,0 -1.1875,-4.375 -1.0625,0 z m -4.625,0 0,0.75 1.125,0 0,3.625 0.84375,0 0,-3.625 1.125,0 0,-0.75 -3.09375,0 z M 3,1.28125 C 2.5566393,1.2812545 2.1914052,1.3984418 1.9375,1.625 1.6835932,1.8515664 1.5624996,2.1660192 1.5625,2.5625 c -4e-7,0.3085966 0.095703,0.5351589 0.25,0.71875 0.1542961,0.1816429 0.4394521,0.3652365 0.875,0.53125 L 3.125,3.96875 c 0.1484354,0.056642 0.2343728,0.1503922 0.3125,0.25 0.078123,0.097658 0.1249976,0.1816419 0.125,0.3125 -2.4e-6,0.1738291 -0.039065,0.3398446 -0.15625,0.4375 -0.1171896,0.095704 -0.2871113,0.1250006 -0.5,0.125 C 2.695311,5.0937506 2.4667956,5.0488288 2.25,4.96875 2.0351554,4.8886727 1.8242181,4.7890635 1.59375,4.625 l 0,0.875 C 1.7968744,5.6015626 2.0019523,5.6679688 2.21875,5.71875 2.4374988,5.7714843 2.6582017,5.8124999 2.875,5.8125 3.4023415,5.8124999 3.8027318,5.7167969 4.0625,5.5 4.3242156,5.2812505 4.4374967,4.941407 4.4375,4.5 4.4374967,4.1757828 4.3535125,3.9003924 4.1875,3.6875 4.0214815,3.4746116 3.7578099,3.3164087 3.40625,3.1875 L 3.0625,3.03125 C 2.8046859,2.9355497 2.6132798,2.8593779 2.53125,2.78125 2.4511706,2.7011749 2.4062488,2.5898469 2.40625,2.46875 2.4062488,2.3125034 2.4824206,2.2089879 2.59375,2.125 2.7050766,2.0410193 2.853514,2.0000037 3.0625,2 c 0.1874979,3.7e-6 0.3710915,0.025394 0.5625,0.09375 0.1914036,0.068363 0.3769503,0.1503941 0.5625,0.28125 l 0,-0.84375 C 3.9902316,1.4414105 3.7949193,1.3886762 3.59375,1.34375 3.3925759,1.2968794 3.2011699,1.2812545 3,1.28125 z M 1.78125,0 l 17,0 c 0.981496,0 1.78125,0.79975394 1.78125,1.78125 l 0,3.53125 c 0,0.9814961 -0.799754,1.78125 -1.78125,1.78125 l -17,0 C 0.79975394,7.09375 0,6.2939961 0,5.3125 L 0,1.78125 C 0,0.79975394 0.79975394,0 1.78125,0 z"
       transform="translate(0,1009.8425)"
       id="rect3859" />
    <path
       style="fill:#000000;fill-opacity:1;stroke:none"
       d="m 30.115404,1045.2997 c 0.981496,0 1.75,0.7685 1.75,1.75 l 0,3.5625 c 0,0.9815 -0.768504,1.75 -1.75,1.75 l -28.3437505,0 c -0.98149595,0 -1.78124993,-0.7685 -1.78124993,-1.75 l 0,-3.5625 c 0,-0.9815 0.79975398,-1.75 1.78124993,-1.75 z m -28.2500005,5.4375 0.875,0 0,-1.625 0.3125,0 c 0.6035133,0 1.0488254,-0.1288 1.3125,-0.3437 0.2656218,-0.2148 0.3749966,-0.5489 0.375,-1.0313 -3.4e-6,-0.4824 -0.1093782,-0.8476 -0.375,-1.0625 -0.2636746,-0.2148 -0.7089867,-0.3125 -1.3125,-0.3125 l -1.1875,0 z m 3.6875,0 0.78125,0 0.46875,-2.2812 0.5,2.2812 0.8125,0 0.5,-4.375 -0.75,0 -0.25,3.2188 -0.4375,-2.0938 -0.71875,0 -0.375,2.0938 -0.3125,-3.2188 -0.78125,0 z m 3.4375,0 0.875,0 0,-1.7187 0.2812505,0 c 0.208982,0 0.376951,0.1699 0.53125,0.5 0.02539,0.055 0.04687,0.094 0.0625,0.125 l 0.53125,1.0937 0.9375,0 -0.78125,-1.5625 c -0.0918,-0.1835 -0.1543,-0.313 -0.21875,-0.375 -0.0625,-0.064 -0.16407,-0.108 -0.25,-0.125 0.275388,-0.035 0.509763,-0.1347 0.65625,-0.3125 0.146477,-0.1777 0.218747,-0.4179 0.21875,-0.7187 -3e-6,-0.4492 -0.128909,-0.7696 -0.375,-0.9688 -0.244143,-0.1988 -0.656252,-0.3125 -1.21875,-0.3125 l -1.2500005,0 z m 7.3750005,0 0.875,0 0,-1.9062 1.6875,0 0,-0.75 -1.6875,0 0,-0.9688 1.84375,0 0,-0.75 -2.71875,0 z m 3.71875,0 2.71875,0 0,-0.75 -1.84375,0 0,-3.625 -0.875,0 z m 3.0625,0 0.875,0 0.25,-1.0937 1.15625,0 0.28125,1.0937 0.84375,0 -1.15625,-4.375 -1.0625,0 z m 3.78125,-3.625 1.09375,0 0,3.625 0.875,0 0,-3.625 1.09375,0 0,-0.75 -3.0625,0 z m -13.34375,4.3438 0.90625,0 0,-4.9063 -0.90625,0 z m -10.5000005,-4.375 c 0.2832012,0 0.4804666,0.06 0.59375,0.1562 0.1152325,0.096 0.1874976,0.2637 0.1875,0.5 -2.4e-6,0.2364 -0.072268,0.404 -0.1875,0.5 -0.1132834,0.095 -0.3105488,0.125 -0.59375,0.125 l -0.34375,0 0,-1.2812 z m 7.1875005,0 c 0.238279,0 0.398436,0.064 0.5,0.1562 0.101564,0.092 0.156248,0.2246 0.15625,0.4375 -2e-6,0.2128 -0.05274,0.3748 -0.15625,0.4688 -0.101565,0.092 -0.263674,0.1562 -0.5,0.1562 l -0.4062505,0 0,-1.2187 z m 15,1.875 -0.8125,0 0.40625,-1.8125 z"
       id="rect3279"
       inkscape:connector-curvature="0"
       sodipodi:nodetypes="ssssssssscccscccscccccccccccccccccccsccccccccccscccccccccccccccccccccccccccccccccccccccccccscccsccsscccsccscccc" />
    <path
       style="fill:#000000;fill-opacity:1;stroke:none"
       d="m 7.09375,29.75 c -0.1015642,3e-6 -0.1796891,0.02344 -0.25,0.09375 -0.070314,0.07032 -0.093751,0.177737 -0.09375,0.28125 -1.4e-6,0.103518 0.023436,0.179689 0.09375,0.25 0.070311,0.06836 0.1484358,0.09375 0.25,0.09375 0.1035137,2e-6 0.1796855,-0.02344 0.25,-0.09375 0.07031,-0.07031 0.1249978,-0.148435 0.125,-0.25 -2.2e-6,-0.103513 -0.05469,-0.210935 -0.125,-0.28125 -0.070315,-0.07031 -0.1464863,-0.09375 -0.25,-0.09375 z m 0,-1.15625 c 0.2011699,4e-6 0.345701,0.09961 0.4375,0.34375 0.091794,0.244144 0.1562476,0.650393 0.15625,1.1875 -2.4e-6,0.535158 -0.064456,0.912111 -0.15625,1.15625 -0.091799,0.244141 -0.2363301,0.375001 -0.4375,0.375 -0.1992204,1e-6 -0.3457046,-0.130859 -0.4375,-0.375 -0.091798,-0.244139 -0.1250012,-0.621092 -0.125,-1.15625 -1.2e-6,-0.537107 0.033202,-0.943356 0.125,-1.1875 0.091795,-0.244137 0.2382796,-0.343746 0.4375,-0.34375 z m -5,-0.65625 0,4.375 0.84375,0 0,-1.96875 1.09375,0 0,1.96875 0.875,0 0,-4.375 -0.875,0 0,1.65625 -1.09375,0 0,-1.65625 -0.84375,0 z m 5,-0.09375 C 6.6113268,27.843754 6.2402334,28.027348 6,28.40625 5.7597651,28.783207 5.6562496,29.36719 5.65625,30.125 c -4e-7,0.755861 0.1035151,1.308595 0.34375,1.6875 0.2402334,0.376953 0.6113268,0.5625 1.09375,0.5625 0.4843727,0 0.853513,-0.185547 1.09375,-0.5625 C 8.4277312,31.435548 8.5312467,30.882814 8.53125,30.125 8.5312467,29.365237 8.4277312,28.783207 8.1875,28.40625 7.947263,28.029301 7.5781227,27.843754 7.09375,27.84375 z m -5.3125,-1.28125 7.0625,0 c 0.9814961,0 1.78125,0.799754 1.78125,1.78125 l 0,3.53125 c 0,0.981496 -0.7997539,1.78125 -1.78125,1.78125 l -7.0625,0 C 0.79975394,33.65625 0,32.856496 0,31.875 L 0,28.34375 C 0,27.362254 0.79975394,26.5625 1.78125,26.5625 z"
       transform="translate(0,1009.8425)"
       id="rect2986" />
    <path
       style="fill:#000000;fill-opacity:1;stroke:none"
       d="m 19.1875,27.9375 -0.90625,0.21875 0,0.78125 0.90625,-0.21875 0,2.8125 -0.96875,0 0,0.78125 2.75,0 0,-0.78125 -0.9375,0 0,-3.59375 -0.84375,0 z m -4.75,0 0,4.375 0.875,0 0,-1.9375 1.09375,0 0,1.9375 0.84375,0 0,-4.375 -0.84375,0 0,1.65625 -1.09375,0 0,-1.65625 -0.875,0 z m -0.25,-1.375 7.0625,0 c 0.981496,0 1.78125,0.799754 1.78125,1.78125 l 0,3.53125 c 0,0.981496 -0.799754,1.78125 -1.78125,1.78125 l -7.0625,0 c -0.981496,0 -1.78125,-0.799754 -1.78125,-1.78125 l 0,-3.53125 c 0,-0.981496 0.799754,-1.78125 1.78125,-1.78125 z"
       transform="translate(0,1009.8425)"
       id="rect3760" />
    <path
       style="fill:#000000;fill-opacity:1;stroke:none"
       d="M 6.65625,19.0625 5.75,19.28125 l 0,0.78125 0.90625,-0.21875 0,2.84375 -0.96875,0 0,0.75 2.75,0 0,-0.75 -0.9375,0 0,-3.625 -0.84375,0 z m -4.46875,0 0,4.375 2.6875,0 0,-0.75 -1.84375,0 0,-3.625 -0.84375,0 z m -0.40625,-1.34375 7.0625,0 c 0.9814961,0 1.78125,0.799754 1.78125,1.78125 l 0,3.53125 c 0,0.981496 -0.7997539,1.78125 -1.78125,1.78125 l -7.0625,0 C 0.79975394,24.8125 0,24.012746 0,23.03125 L 0,19.5 c 0,-0.981496 0.79975394,-1.78125 1.78125,-1.78125 z"
       transform="translate(0,1009.8425)"
       id="rect2986-8" />
    <path
       style="fill:#000000;fill-opacity:1;stroke:none"
       d="m 14.6875,19.125 0,4.375 2.71875,0 0,-0.78125 -1.84375,0 0,-3.59375 -0.875,0 z M 19.25,19.03125 c -0.183595,4e-6 -0.361329,0.02149 -0.5625,0.0625 -0.19922,0.03907 -0.416016,0.111332 -0.625,0.1875 l 0,0.78125 c 0.208984,-0.117184 0.402343,-0.18945 0.59375,-0.25 0.193358,-0.0625 0.376952,-0.09375 0.53125,-0.09375 0.216795,4e-6 0.382811,0.04883 0.5,0.15625 0.119138,0.105472 0.187498,0.242191 0.1875,0.4375 -2e-6,0.126956 -0.0293,0.275394 -0.09375,0.40625 -0.06445,0.128909 -0.166018,0.269534 -0.3125,0.4375 -0.119142,0.136721 -0.474611,0.501955 -1.03125,1.09375 l -0.46875,0.5 0,0.75 2.78125,0 0,-0.78125 -1.84375,0 C 19.054686,22.56836 19.248045,22.376954 19.5,22.125 c 0.464841,-0.464842 0.740232,-0.773435 0.84375,-0.90625 0.140622,-0.183591 0.255856,-0.349607 0.3125,-0.5 0.05859,-0.150388 0.09375,-0.296872 0.09375,-0.46875 -3e-6,-0.373043 -0.140628,-0.691402 -0.40625,-0.90625 -0.263674,-0.216793 -0.630861,-0.312496 -1.09375,-0.3125 z m -5.0625,-1.3125 7.0625,0 c 0.981496,0 1.78125,0.799754 1.78125,1.78125 l 0,3.53125 c 0,0.981496 -0.799754,1.78125 -1.78125,1.78125 l -7.0625,0 c -0.981496,0 -1.78125,-0.799754 -1.78125,-1.78125 l 0,-3.53125 c 0,-0.981496 0.799754,-1.78125 1.78125,-1.78125 z"
       transform="translate(0,1009.8425)"
       id="rect3760-4" />
    <path
       style="fill:#000000;fill-opacity:1;stroke:none"
       d="m 27.03125,19.0625 0,4.375 2.71875,0 0,-0.75 -1.84375,0 0,-3.625 -0.875,0 z M 31.625,19 c -0.179689,4e-6 -0.367189,-0.0019 -0.5625,0.03125 -0.195313,0.03125 -0.392579,0.09571 -0.59375,0.15625 l 0,0.78125 c 0.201171,-0.07812 0.406249,-0.146481 0.59375,-0.1875 0.187499,-0.04101 0.367186,-0.0625 0.53125,-0.0625 0.214842,4e-6 0.382811,0.06446 0.5,0.15625 0.119138,0.08985 0.187498,0.212894 0.1875,0.375 -2e-6,0.1543 -0.06836,0.257815 -0.1875,0.34375 -0.117189,0.08399 -0.285158,0.125003 -0.5,0.125 l -0.46875,0 0,0.78125 0.46875,0 c 0.249998,2e-6 0.425779,0.0332 0.5625,0.15625 0.136716,0.121095 0.218748,0.306642 0.21875,0.53125 -2e-6,0.183595 -0.08203,0.328126 -0.21875,0.4375 -0.136721,0.107423 -0.296877,0.156251 -0.53125,0.15625 -0.234376,1e-6 -0.474611,-0.01562 -0.6875,-0.0625 C 30.724609,22.669923 30.527343,22.591798 30.34375,22.5 l 0,0.8125 c 0.195312,0.07031 0.412109,0.119141 0.625,0.15625 0.214843,0.03711 0.435545,0.0625 0.65625,0.0625 0.517576,0 0.916013,-0.121094 1.1875,-0.34375 0.271481,-0.222656 0.406247,-0.544921 0.40625,-0.96875 -3e-6,-0.316405 -0.08594,-0.556639 -0.25,-0.75 -0.164065,-0.19531 -0.406253,-0.32031 -0.71875,-0.375 0.275388,-0.05078 0.47656,-0.179685 0.625,-0.34375 0.148434,-0.166013 0.218747,-0.365231 0.21875,-0.625 -3e-6,-0.353512 -0.11719,-0.642574 -0.375,-0.84375 C 32.460935,19.080082 32.085935,19.000004 31.625,19 z m -5.0625,-1.28125 7.09375,0 c 0.981496,0 1.78125,0.799754 1.78125,1.78125 l 0,3.53125 c 0,0.981496 -0.799754,1.78125 -1.78125,1.78125 l -7.09375,0 c -0.981496,0 -1.75,-0.799754 -1.75,-1.78125 l 0,-3.53125 c 0,-0.981496 0.768504,-1.78125 1.75,-1.78125 z"
       transform="translate(0,1009.8425)"
       id="rect3799" />
    <path
       style="fill:#000000;fill-opacity:1;stroke:none"
       d="m 31.78125,29.75 c -0.101564,3e-6 -0.210939,0.02344 -0.28125,0.09375 -0.07031,0.07032 -0.09375,0.177737 -0.09375,0.28125 -1e-6,0.103518 0.02344,0.179689 0.09375,0.25 0.07031,0.06836 0.179686,0.09375 0.28125,0.09375 0.103514,2e-6 0.179686,-0.02344 0.25,-0.09375 0.07031,-0.07031 0.09375,-0.148435 0.09375,-0.25 -2e-6,-0.103513 -0.02344,-0.210935 -0.09375,-0.28125 -0.07031,-0.07031 -0.146486,-0.09375 -0.25,-0.09375 z m 0,-1.15625 c 0.20117,4e-6 0.345701,0.09961 0.4375,0.34375 0.09179,0.244144 0.124998,0.650393 0.125,1.1875 -2e-6,0.535158 -0.03321,0.912111 -0.125,1.15625 -0.0918,0.244141 -0.23633,0.375001 -0.4375,0.375 -0.19922,1e-6 -0.345705,-0.130859 -0.4375,-0.375 -0.0918,-0.244139 -0.156251,-0.621092 -0.15625,-1.15625 -1e-6,-0.537107 0.06445,-0.943356 0.15625,-1.1875 0.0918,-0.244137 0.23828,-0.343746 0.4375,-0.34375 z m -4.75,-0.65625 0,4.375 2.6875,0 0,-0.78125 -1.84375,0 0,-3.59375 -0.84375,0 z m 4.75,-0.09375 c -0.482423,4e-6 -0.853517,0.183598 -1.09375,0.5625 -0.240235,0.376957 -0.375,0.96094 -0.375,1.71875 0,0.755861 0.134765,1.308595 0.375,1.6875 0.240233,0.376953 0.611327,0.5625 1.09375,0.5625 0.484373,0 0.822263,-0.185547 1.0625,-0.5625 0.240231,-0.376952 0.374997,-0.929686 0.375,-1.6875 -3e-6,-0.759763 -0.134769,-1.341793 -0.375,-1.71875 -0.240237,-0.376949 -0.578127,-0.562496 -1.0625,-0.5625 z m -5.21875,-1.28125 7.09375,0 c 0.981496,0 1.78125,0.799754 1.78125,1.78125 l 0,3.53125 c 0,0.981496 -0.799754,1.78125 -1.78125,1.78125 l -7.09375,0 c -0.981496,0 -1.75,-0.799754 -1.75,-1.78125 l 0,-3.53125 c 0,-0.981496 0.768504,-1.78125 1.75,-1.78125 z"
       transform="translate(0,1009.8425)"
       id="rect3805" />
    <path
       style="fill:#000000;fill-opacity:1;stroke:none"
       d="m 4.8125,10.34375 1.0625,4.375 1.1875,0 1.03125,-4.375 -0.875,0 L 6.46875,14 5.6875,10.34375 l -0.875,0 z m -3.1875,0 0,2.4375 c 0.1582024,-0.07617 0.3144522,-0.119139 0.46875,-0.15625 0.1562488,-0.03906 0.2832018,-0.0625 0.4375,-0.0625 0.261717,2e-6 0.499998,0.08008 0.65625,0.21875 0.1582008,0.136721 0.2187476,0.302736 0.21875,0.53125 -2.4e-6,0.248048 -0.060549,0.431642 -0.21875,0.5625 -0.1582051,0.128907 -0.4140642,0.218751 -0.71875,0.21875 -0.1718763,10e-7 -0.3281261,-0.02344 -0.5,-0.0625 -0.1699226,-0.04101 -0.3378912,-0.107421 -0.5,-0.1875 l 0,0.78125 c 0.1992181,0.0625 0.4023429,0.09375 0.59375,0.125 0.1914051,0.03125 0.3749986,0.0625 0.5625,0.0625 0.5039042,0 0.8964819,-0.140625 1.1875,-0.40625 C 4.1054657,14.138672 4.2499968,13.771485 4.25,13.3125 4.2499968,12.875002 4.1132782,12.52344 3.84375,12.25 3.5742162,11.976565 3.2148416,11.843753 2.78125,11.84375 c -0.089845,3e-6 -0.1699234,0.01758 -0.25,0.03125 -0.08008,0.01172 -0.1484388,0.03516 -0.21875,0.0625 l 0,-0.8125 1.6875,0 0,-0.78125 -2.375,0 z m 0.15625,-1.125 6,0 c 0.9814961,0 1.78125,0.7685039 1.78125,1.75 l 0,3.21875 c 0,0.981496 -0.7997539,1.75 -1.78125,1.75 l -6,0 C 0.79975394,15.9375 0,15.168996 0,14.1875 l 0,-3.21875 c 0,-0.9814961 0.79975394,-1.75 1.78125,-1.75 z"
       transform="translate(0,1009.8425)"
       id="rect2986-8-0" />
    <path
       style="fill:#000000;fill-opacity:1;stroke:none"
       d="m 25.59375,10.59375 c 0.222654,4e-6 0.367185,0.107425 0.46875,0.34375 0.10156,0.234378 0.156248,0.630862 0.15625,1.15625 -2e-6,0.523439 -0.05469,0.888673 -0.15625,1.125 -0.101565,0.234376 -0.246096,0.343751 -0.46875,0.34375 -0.220705,10e-7 -0.398439,-0.109374 -0.5,-0.34375 -0.101564,-0.236327 -0.156251,-0.601561 -0.15625,-1.125 -1e-6,-0.525388 0.05469,-0.921872 0.15625,-1.15625 0.101561,-0.236325 0.279295,-0.343746 0.5,-0.34375 z m -10.84375,0 c 0.222654,4e-6 0.398435,0.107425 0.5,0.34375 0.10156,0.234378 0.156248,0.630862 0.15625,1.15625 -2e-6,0.523439 -0.05469,0.888673 -0.15625,1.125 -0.101565,0.234376 -0.277346,0.343751 -0.5,0.34375 -0.220705,10e-7 -0.367189,-0.109374 -0.46875,-0.34375 -0.101564,-0.236327 -0.156251,-0.601561 -0.15625,-1.125 -10e-7,-0.525388 0.05469,-0.921872 0.15625,-1.15625 0.101561,-0.236325 0.248045,-0.343746 0.46875,-0.34375 z m 6.78125,-0.53125 0,4.9375 0.90625,0 0,-4.9375 -0.90625,0 z m 10,-0.15625 0,4.375 0.875,0 0,-1.90625 1.6875,0 0,-0.78125 -1.6875,0 0,-0.9375 1.84375,0 0,-0.75 -2.71875,0 z m -3.59375,0 0,4.375 0.84375,0 0,-1.90625 1.6875,0 0,-0.78125 -1.6875,0 0,-0.9375 1.875,0 0,-0.75 -2.71875,0 z m -11.03125,0 0,4.375 0.78125,0 0,-3.1875 1.21875,3.1875 0.90625,0 0,-4.375 -0.75,0 0,3.15625 -1.21875,-3.15625 -0.9375,0 z m 8.6875,-0.09375 c -0.505861,4.5e-6 -0.896485,0.1796918 -1.15625,0.5625 -0.257813,0.382816 -0.375,0.970706 -0.375,1.71875 0,0.746095 0.117187,1.304688 0.375,1.6875 0.259765,0.382813 0.650389,0.5625 1.15625,0.5625 0.50781,0 0.867185,-0.179687 1.125,-0.5625 0.259762,-0.382812 0.406247,-0.941405 0.40625,-1.6875 -3e-6,-0.748044 -0.146488,-1.335934 -0.40625,-1.71875 -0.257815,-0.3828082 -0.61719,-0.5624955 -1.125,-0.5625 z m -10.84375,0 c -0.505861,4.5e-6 -0.896485,0.1796918 -1.15625,0.5625 -0.257813,0.382816 -0.375,0.970706 -0.375,1.71875 0,0.746095 0.117187,1.304688 0.375,1.6875 0.259765,0.382813 0.650389,0.5625 1.15625,0.5625 0.50781,0 0.898435,-0.179687 1.15625,-0.5625 0.259762,-0.382812 0.374997,-0.941405 0.375,-1.6875 -3e-6,-0.748044 -0.115238,-1.335934 -0.375,-1.71875 C 15.648435,9.9921918 15.25781,9.8125045 14.75,9.8125 z m -0.9375,-0.96875 19.84375,0 c 0.981496,0 1.78125,0.7997539 1.78125,1.78125 l 0,3.5625 c 0,0.981496 -0.799754,1.75 -1.78125,1.75 l -19.84375,0 c -0.981496,0 -1.75,-0.768504 -1.75,-1.75 l 0,-3.5625 c 0,-0.9814961 0.768504,-1.78125 1.75,-1.78125 z"
       transform="translate(0,1009.8425)"
       id="rect3853" />
  </g>
</svg>
