G04 start of page 13 for group -4078 idx -4078 *
G04 Title: (unknown), bottomsilk *
G04 Creator: pcb 1.99z *
G04 CreationDate: Tue 11 Feb 2014 00:02:27 GMT UTC *
G04 For: rbarlow *
G04 Format: Gerber/RS-274X *
G04 PCB-Dimensions (mm): 85.00 105.00 *
G04 PCB-Coordinate-Origin: lower left *
%MOMM*%
%FSLAX43Y43*%
%LNBOTTOMSILK*%
%ADD204C,0.150*%
%ADD203C,0.200*%
%ADD202C,0.002*%
G54D202*G36*
X47138Y13748D02*X47287Y14145D01*
X47508D01*
X46808Y12264D01*
X46664D01*
Y12451D01*
X47078Y13587D01*
X46664D01*
Y13748D01*
X47138D01*
G37*
G36*
X46664Y12264D02*X46510D01*
X45821Y14145D01*
X46042D01*
X46190Y13748D01*
X46664D01*
Y13587D01*
X46251D01*
X46659Y12436D01*
X46664Y12451D01*
Y12264D01*
G37*
G36*
X44939Y14167D02*X45168Y14156D01*
X45350Y14123D01*
X45485Y14068D01*
X45573Y13990D01*
X45617Y13889D01*
X45650Y13723D01*
X45671Y13494D01*
X45678Y13202D01*
X45669Y12896D01*
X45649Y12658D01*
X45614Y12489D01*
X45568Y12385D01*
X45488Y12323D01*
X45357Y12279D01*
X45173Y12252D01*
X44939Y12243D01*
Y12425D01*
X45253Y12450D01*
X45402Y12528D01*
X45454Y12748D01*
X45474Y13202D01*
X45468Y13461D01*
X45454Y13661D01*
X45432Y13803D01*
X45402Y13885D01*
X45253Y13959D01*
X44939Y13984D01*
Y14167D01*
G37*
G36*
X44939Y12243D02*X44526Y12278D01*
X44311Y12381D01*
X44261Y12479D01*
X44227Y12637D01*
X44206Y12856D01*
X44200Y13135D01*
X44206Y13457D01*
X44225Y13707D01*
X44258Y13885D01*
X44305Y13990D01*
X44393Y14068D01*
X44528Y14123D01*
X44710Y14156D01*
X44939Y14167D01*
X44939Y14167D01*
Y13984D01*
X44939Y13984D01*
X44622Y13959D01*
X44470Y13885D01*
X44442Y13803D01*
X44421Y13661D01*
X44408Y13461D01*
X44404Y13202D01*
X44421Y12748D01*
X44470Y12528D01*
X44622Y12450D01*
X44939Y12425D01*
X44939Y12425D01*
Y12243D01*
X44939Y12243D01*
G37*
G36*
X43682Y12264D02*X43357D01*
X43032Y12679D01*
Y12960D01*
X43467Y12396D01*
X43473D01*
Y13532D01*
X43032D01*
Y13708D01*
X43473D01*
Y14145D01*
X43682D01*
Y13708D01*
X43964D01*
Y13532D01*
X43682D01*
Y12264D01*
G37*
G36*
X43032Y12679D02*X42420Y13461D01*
Y13708D01*
X43032D01*
Y13532D01*
X42591D01*
X43032Y12960D01*
Y12679D01*
G37*
G36*
X41422Y12264D02*X40932Y13688D01*
X40838Y13973D01*
X40832D01*
X40788Y13831D01*
X40739Y13682D01*
X40237Y12264D01*
X40006D01*
X40684Y14145D01*
X40987D01*
X41648Y12264D01*
X41422D01*
G37*
G36*
X39802Y13963D02*X38655D01*
Y13902D01*
X38672Y13664D01*
X38722Y13543D01*
X38863Y13485D01*
X39151Y13444D01*
X39486Y13383D01*
X39681Y13290D01*
X39774Y13118D01*
X39807Y12837D01*
X39774Y12542D01*
X39675Y12364D01*
X39481Y12272D01*
X39162Y12243D01*
X38803Y12271D01*
X38589Y12359D01*
X38484Y12526D01*
X38451Y12806D01*
X38446Y12905D01*
X38655D01*
Y12761D01*
X38676Y12582D01*
X38743Y12484D01*
X38892Y12439D01*
X39168Y12425D01*
X39392Y12443D01*
X39521Y12497D01*
X39582Y12610D01*
X39603Y12810D01*
X39584Y13034D01*
X39532Y13153D01*
X39390Y13212D01*
X39113Y13257D01*
X38756Y13317D01*
X38562Y13399D01*
X38475Y13546D01*
X38446Y13792D01*
Y14145D01*
X39802D01*
Y13963D01*
G37*
G36*
X37680Y12264D02*X37371D01*
X36853Y12826D01*
X36985Y12954D01*
X37465Y12420D01*
Y14145D01*
X37680D01*
Y12264D01*
G37*
G36*
X48542Y35446D02*Y40445D01*
X66542D01*
Y35446D01*
X48542D01*
G37*
G36*
X51076Y33071D02*X51043Y32798D01*
X50944Y32643D01*
X50743Y32567D01*
X50398Y32542D01*
X50048Y32570D01*
X49842Y32654D01*
X49737Y32812D01*
X49704Y33078D01*
X49733Y33282D01*
X49821Y33432D01*
X49970Y33530D01*
X50178Y33573D01*
X50387Y33584D01*
X50608Y33596D01*
X50757Y33620D01*
X50845Y33668D01*
X50889Y33751D01*
X50906Y33893D01*
X50885Y34110D01*
X50823Y34225D01*
X50667Y34269D01*
X50371Y34285D01*
X50115Y34269D01*
X49980Y34225D01*
X49920Y34116D01*
X49902Y33909D01*
Y33861D01*
X49687D01*
X49693Y33949D01*
X49726Y34207D01*
X49825Y34363D01*
X50025Y34440D01*
X50365Y34466D01*
X50750Y34440D01*
X50972Y34363D01*
X51074Y34196D01*
X51110Y33909D01*
X51078Y33649D01*
X50988Y33501D01*
X50790Y33426D01*
X50431Y33387D01*
X50130Y33361D01*
X49980Y33319D01*
X49920Y33227D01*
X49902Y33044D01*
X49924Y32877D01*
X49996Y32786D01*
X50153Y32740D01*
X50431Y32725D01*
X50659Y32740D01*
X50784Y32786D01*
X50841Y32888D01*
X50861Y33071D01*
X51076D01*
G37*
G36*
X52093Y33685D02*X52289D01*
X52413Y33704D01*
X52503Y33764D01*
X52556Y33866D01*
X52576Y34010D01*
Y34445D01*
X52785D01*
Y33966D01*
X52766Y33814D01*
X52711Y33702D01*
X52617Y33631D01*
X52488Y33601D01*
Y33596D01*
X52647Y33545D01*
X52747Y33464D01*
X52796Y33321D01*
X52813Y33099D01*
X52780Y32847D01*
X52686Y32687D01*
X52518Y32596D01*
X52261Y32566D01*
X52093D01*
Y32742D01*
X52267D01*
X52442Y32761D01*
X52543Y32819D01*
X52592Y32940D01*
X52608Y33148D01*
X52585Y33321D01*
X52520Y33431D01*
X52393Y33483D01*
X52190Y33501D01*
X52093D01*
Y33685D01*
G37*
G36*
X51368Y34445D02*X51578D01*
Y33685D01*
X52093D01*
Y33501D01*
X51578D01*
Y32742D01*
X52093D01*
Y32566D01*
X51368D01*
Y34445D01*
G37*
G36*
X54384Y34455D02*X54450Y34466D01*
X54687Y34430D01*
X54841Y34323D01*
X54928Y34119D01*
X54957Y33804D01*
X54928Y33465D01*
X54847Y33255D01*
X54690Y33142D01*
X54444Y33104D01*
X54384Y33115D01*
Y33265D01*
X54389Y33264D01*
X54580Y33289D01*
X54687Y33364D01*
X54736Y33523D01*
X54753Y33800D01*
X54734Y34057D01*
X54681Y34207D01*
X54575Y34278D01*
X54395Y34302D01*
X54384Y34300D01*
Y34455D01*
G37*
G36*
X53822Y33128D02*Y35012D01*
X54014D01*
Y34289D01*
X54020D01*
X54178Y34422D01*
X54384Y34455D01*
Y34300D01*
X54204Y34276D01*
X54092Y34201D01*
X54032Y34050D01*
X54014Y33793D01*
X54031Y33525D01*
X54086Y33369D01*
X54196Y33290D01*
X54384Y33265D01*
Y33115D01*
X54166Y33153D01*
X54009Y33299D01*
X54003Y33292D01*
X54014Y33128D01*
X53822D01*
G37*
G36*
X55786Y33262D02*X55817Y33260D01*
X55988Y33275D01*
X56087Y33325D01*
X56131Y33431D01*
X56148Y33617D01*
Y33777D01*
X56142D01*
X56006Y33675D01*
X55786Y33648D01*
Y33794D01*
X55960Y33807D01*
X56076Y33848D01*
X56138Y33924D01*
X56158Y34054D01*
X56132Y34161D01*
X56055Y34239D01*
X55928Y34285D01*
X55786Y34298D01*
Y34455D01*
X55990Y34424D01*
X56158Y34302D01*
X56164D01*
X56148Y34445D01*
X56340D01*
Y33573D01*
X56312Y33346D01*
X56225Y33204D01*
X56055Y33129D01*
X55786Y33105D01*
Y33262D01*
G37*
G36*
Y33648D02*X55728Y33640D01*
X55479Y33664D01*
X55321Y33733D01*
X55237Y33860D01*
X55210Y34065D01*
X55241Y34240D01*
X55335Y34365D01*
X55491Y34440D01*
X55712Y34466D01*
X55786Y34455D01*
Y34298D01*
X55751Y34302D01*
X55580Y34288D01*
X55481Y34251D01*
X55431Y34174D01*
X55414Y34042D01*
X55431Y33916D01*
X55481Y33844D01*
X55585Y33806D01*
X55773Y33793D01*
X55786Y33794D01*
Y33648D01*
G37*
G36*
X55458Y33496D02*Y33457D01*
X55481Y33370D01*
X55547Y33308D01*
X55658Y33271D01*
X55786Y33262D01*
Y33105D01*
X55778Y33104D01*
X55523Y33125D01*
X55370Y33187D01*
X55296Y33304D01*
X55271Y33496D01*
X55458D01*
G37*
G36*
X56715Y33128D02*Y34445D01*
X56908D01*
Y33657D01*
X56927Y33481D01*
X56988Y33355D01*
X57090Y33280D01*
X57234Y33255D01*
X57397Y33304D01*
X57454Y33457D01*
X57448Y33529D01*
X57443Y33563D01*
X57636D01*
Y33468D01*
X57612Y33304D01*
X57545Y33187D01*
X57431Y33117D01*
X57272Y33095D01*
X57045Y33142D01*
X56897Y33281D01*
X56892Y33275D01*
X56908Y33128D01*
X56715D01*
G37*
G36*
X58523D02*X58016D01*
Y32807D01*
X57823D01*
Y33128D01*
X57636D01*
Y33288D01*
X57823D01*
Y34142D01*
X57847Y34284D01*
X57918Y34385D01*
X58037Y34445D01*
X58204Y34466D01*
X58364Y34441D01*
X58479Y34368D01*
X58549Y34245D01*
X58573Y34074D01*
Y33977D01*
X58391D01*
Y34048D01*
X58385Y34113D01*
X58340Y34255D01*
X58204Y34302D01*
X58062Y34248D01*
X58016Y34092D01*
Y33288D01*
X58523D01*
Y33128D01*
G37*
G36*
X60353Y33970D02*X60337Y34146D01*
X60293Y34245D01*
X60195Y34288D01*
X60017Y34302D01*
X59799Y34280D01*
X59681Y34214D01*
X59631Y34064D01*
X59615Y33793D01*
X59628Y33518D01*
X59675Y33364D01*
X59774Y33289D01*
X59957Y33264D01*
X60142Y33278D01*
X60254Y33319D01*
X60311Y33395D01*
X60331Y33525D01*
Y33556D01*
X60524D01*
X60495Y33340D01*
X60408Y33204D01*
X60239Y33129D01*
X59968Y33104D01*
X59694Y33140D01*
X59527Y33248D01*
X59440Y33450D01*
X59411Y33777D01*
X59437Y34126D01*
X59521Y34334D01*
X59696Y34433D01*
X59995Y34466D01*
X60235Y34438D01*
X60407Y34360D01*
X60510Y34227D01*
X60546Y34042D01*
Y33970D01*
X60353D01*
G37*
G36*
X61362Y34466D02*X61660Y34434D01*
X61831Y34339D01*
X61912Y34134D01*
X61941Y33783D01*
X61912Y33432D01*
X61831Y33231D01*
X61660Y33136D01*
X61362Y33105D01*
Y33264D01*
X61566Y33286D01*
X61676Y33352D01*
X61726Y33501D01*
X61742Y33783D01*
X61726Y34068D01*
X61676Y34218D01*
X61566Y34280D01*
X61362Y34302D01*
Y34466D01*
G37*
G36*
X61362Y33104D02*X61060Y33136D01*
X60888Y33231D01*
X60804Y33432D01*
X60778Y33783D01*
X60804Y34134D01*
X60888Y34339D01*
X61060Y34434D01*
X61362Y34466D01*
X61362Y34466D01*
Y34302D01*
X61362Y34302D01*
X61151Y34280D01*
X61042Y34218D01*
X60996Y34068D01*
X60982Y33783D01*
X60996Y33501D01*
X61042Y33352D01*
X61151Y33286D01*
X61362Y33264D01*
X61362Y33264D01*
Y33105D01*
X61362Y33104D01*
G37*
G36*
X63346Y32566D02*X63153D01*
Y33292D01*
X63148D01*
X63003Y33151D01*
X62779Y33114D01*
Y33266D01*
X62954Y33289D01*
X63071Y33364D01*
X63127Y33508D01*
X63148Y33745D01*
X63129Y34035D01*
X63076Y34201D01*
X62962Y34276D01*
X62779Y34300D01*
Y34458D01*
X63003Y34418D01*
X63153Y34274D01*
X63159D01*
X63153Y34445D01*
X63346D01*
Y32566D01*
G37*
G36*
X62779Y33114D02*X62718Y33104D01*
X62472Y33142D01*
X62316Y33255D01*
X62232Y33454D01*
X62206Y33766D01*
X62232Y34105D01*
X62316Y34318D01*
X62477Y34429D01*
X62735Y34466D01*
X62779Y34458D01*
Y34300D01*
X62768Y34302D01*
X62583Y34276D01*
X62476Y34201D01*
X62426Y34040D01*
X62410Y33766D01*
X62426Y33515D01*
X62481Y33364D01*
X62586Y33289D01*
X62762Y33264D01*
X62779Y33266D01*
Y33114D01*
G37*
G36*
X64223Y33821D02*X64796D01*
Y33716D01*
X64767Y33406D01*
X64680Y33227D01*
X64505Y33135D01*
X64223Y33106D01*
Y33264D01*
X64413Y33281D01*
X64526Y33332D01*
X64578Y33432D01*
X64598Y33607D01*
Y33672D01*
X64223D01*
Y33821D01*
G37*
G36*
X64598Y34048D02*Y34085D01*
X64578Y34200D01*
X64526Y34262D01*
X64419Y34292D01*
X64228Y34302D01*
X64223Y34301D01*
Y34465D01*
X64234Y34466D01*
X64499Y34445D01*
X64669Y34383D01*
X64763Y34269D01*
X64796Y34092D01*
Y34048D01*
X64598D01*
G37*
G36*
X64223Y34301D02*X64026Y34280D01*
X63914Y34218D01*
X63865Y34074D01*
X63848Y33821D01*
X64223D01*
Y33672D01*
X63848D01*
X63865Y33464D01*
X63920Y33343D01*
X64030Y33284D01*
X64223Y33264D01*
X64223Y33264D01*
Y33106D01*
X64206Y33104D01*
X63924Y33139D01*
X63754Y33244D01*
X63670Y33442D01*
X63644Y33773D01*
X63670Y34126D01*
X63754Y34334D01*
X63932Y34433D01*
X64223Y34465D01*
Y34301D01*
G37*
G36*
X65308Y34190D02*X65099D01*
Y34445D01*
X65308D01*
Y34190D01*
G37*
G36*
Y33128D02*X65099D01*
Y33380D01*
X65308D01*
Y33128D01*
G37*
G36*
X19965Y37520D02*X20125D01*
X20472Y37482D01*
X20687Y37371D01*
X20802Y37157D01*
X20842Y36818D01*
X20804Y36466D01*
X20693Y36245D01*
X20485Y36130D01*
X20153Y36092D01*
X19965D01*
Y36317D01*
X20158D01*
X20385Y36340D01*
X20511Y36412D01*
X20568Y36562D01*
X20588Y36842D01*
X20559Y37080D01*
X20472Y37215D01*
X20290Y37274D01*
X19971Y37294D01*
X19965D01*
Y37520D01*
G37*
G36*
X19078Y38446D02*X19342D01*
Y37520D01*
X19965D01*
Y37294D01*
X19342D01*
Y36317D01*
X19965D01*
Y36092D01*
X19078D01*
Y38446D01*
G37*
G36*
X21743Y38466D02*X22118Y38428D01*
X22332Y38314D01*
X22435Y38060D01*
X22470Y37623D01*
X22435Y37184D01*
X22332Y36934D01*
X22118Y36814D01*
X21743Y36774D01*
Y36974D01*
X22000Y36999D01*
X22140Y37079D01*
X22196Y37266D01*
X22217Y37623D01*
X22196Y37976D01*
X22140Y38165D01*
X22000Y38243D01*
X21743Y38269D01*
Y38466D01*
G37*
G36*
X21743Y36774D02*X21364Y36814D01*
X21148Y36934D01*
X21048Y37184D01*
X21015Y37623D01*
X21048Y38060D01*
X21148Y38314D01*
X21364Y38428D01*
X21743Y38466D01*
X21743Y38466D01*
Y38269D01*
X21743Y38269D01*
X21482Y38243D01*
X21346Y38165D01*
X21287Y37976D01*
X21269Y37623D01*
X21287Y37266D01*
X21346Y37079D01*
X21482Y36999D01*
X21743Y36974D01*
X21743Y36974D01*
Y36774D01*
X21743Y36774D01*
G37*
G36*
X24916Y36798D02*X24657D01*
X24426Y37711D01*
X24354Y37992D01*
X24288Y38281D01*
X24282D01*
X24250Y38137D01*
X24216Y37999D01*
X24145Y37711D01*
X23924Y36798D01*
X23572D01*
X23346Y37711D01*
X23274Y37992D01*
X23208Y38281D01*
X23202D01*
X23169Y38137D01*
X23131Y37992D01*
X23059Y37711D01*
X22827Y36798D01*
X22574D01*
X23020Y38446D01*
X23384D01*
X23610Y37531D01*
X23676Y37250D01*
X23742Y36974D01*
X23748D01*
X23781Y37110D01*
X23808Y37250D01*
X23875Y37531D01*
X24095Y38446D01*
X24453D01*
X24916Y36798D01*
G37*
G36*
X25721Y37667D02*X26435D01*
Y37535D01*
X26398Y37149D01*
X26292Y36923D01*
X26073Y36811D01*
X25721Y36777D01*
Y36974D01*
X25958Y36993D01*
X26099Y37055D01*
X26164Y37182D01*
X26187Y37403D01*
Y37480D01*
X25721D01*
Y37667D01*
G37*
G36*
X26187Y37948D02*Y37999D01*
X26164Y38139D01*
X26099Y38220D01*
X25962Y38257D01*
X25724Y38269D01*
X25721Y38269D01*
Y38465D01*
X25735Y38466D01*
X26066Y38442D01*
X26281Y38369D01*
X26395Y38227D01*
X26435Y38009D01*
Y37948D01*
X26187D01*
G37*
G36*
X25721Y38269D02*X25470Y38243D01*
X25332Y38165D01*
X25270Y37986D01*
X25250Y37667D01*
X25721D01*
Y37480D01*
X25256D01*
X25276Y37218D01*
X25338Y37066D01*
X25476Y36998D01*
X25719Y36974D01*
X25721Y36974D01*
Y36777D01*
X25696Y36774D01*
X25349Y36817D01*
X25140Y36947D01*
X25031Y37192D01*
X24996Y37602D01*
X25030Y38045D01*
X25134Y38301D01*
X25355Y38425D01*
X25721Y38465D01*
Y38269D01*
G37*
G36*
X26769Y36798D02*Y38446D01*
X27011D01*
Y37459D01*
X27036Y37240D01*
X27110Y37086D01*
X27237Y36992D01*
X27414Y36962D01*
X27619Y37025D01*
X27689Y37215D01*
X27683Y37299D01*
X27678Y37343D01*
X27915D01*
Y37226D01*
X27886Y37021D01*
X27801Y36875D01*
X27660Y36787D01*
X27463Y36758D01*
X27178Y36817D01*
X26989Y36995D01*
X26984Y36990D01*
X27011Y36798D01*
X26769D01*
G37*
G36*
X29864Y38446D02*X30106D01*
X30414Y38409D01*
X30613Y38297D01*
X30725Y38088D01*
X30762Y37768D01*
X30739Y37558D01*
X30668Y37397D01*
X30553Y37283D01*
X30393Y37215D01*
Y37211D01*
X30522Y37139D01*
X30616Y37035D01*
X30671Y36892D01*
X30690Y36714D01*
X30657Y36398D01*
X30558Y36212D01*
X30349Y36123D01*
X29990Y36092D01*
X29864D01*
Y36317D01*
X29985D01*
X30219Y36335D01*
X30354Y36388D01*
X30416Y36497D01*
X30437Y36693D01*
X30412Y36919D01*
X30343Y37050D01*
X30188Y37108D01*
X29913Y37127D01*
X29864D01*
Y37354D01*
X29902D01*
X30238Y37371D01*
X30415Y37426D01*
X30484Y37554D01*
X30508Y37812D01*
X30484Y38020D01*
X30415Y38141D01*
X30268Y38201D01*
X30018Y38220D01*
X29864D01*
Y38446D01*
G37*
G36*
X28954D02*X29864D01*
Y38220D01*
X29219D01*
Y37354D01*
X29864D01*
Y37127D01*
X29219D01*
Y36317D01*
X29864D01*
Y36092D01*
X28954D01*
Y38446D01*
G37*
G36*
X33402Y36964D02*X33436Y36962D01*
X33652Y36982D01*
X33777Y37046D01*
X33834Y37177D01*
X33854Y37408D01*
Y37612D01*
X33849D01*
X33674Y37485D01*
X33402Y37452D01*
Y37630D01*
X33619Y37647D01*
X33766Y37700D01*
X33841Y37798D01*
X33865Y37961D01*
X33832Y38096D01*
X33737Y38192D01*
X33579Y38250D01*
X33402Y38266D01*
Y38453D01*
X33660Y38416D01*
X33871Y38264D01*
Y38269D01*
X33854Y38446D01*
X34097D01*
Y37359D01*
X34060Y37072D01*
X33948Y36897D01*
X33737Y36805D01*
X33402Y36775D01*
Y36964D01*
G37*
G36*
Y37452D02*X33331Y37443D01*
X33018Y37470D01*
X32824Y37558D01*
X32719Y37715D01*
X32686Y37965D01*
X32724Y38184D01*
X32840Y38341D01*
X33035Y38435D01*
X33309Y38466D01*
X33402Y38453D01*
Y38266D01*
X33358Y38269D01*
X33146Y38254D01*
X33022Y38209D01*
X32960Y38108D01*
X32939Y37937D01*
X32960Y37779D01*
X33022Y37691D01*
X33152Y37644D01*
X33380Y37629D01*
X33402Y37630D01*
Y37452D01*
G37*
G36*
X32994Y37259D02*Y37211D01*
X33021Y37102D01*
X33103Y37024D01*
X33241Y36977D01*
X33402Y36964D01*
Y36775D01*
X33397Y36774D01*
X33078Y36799D01*
X32884Y36873D01*
X32788Y37019D01*
X32757Y37259D01*
X32994D01*
G37*
G36*
X34494Y36798D02*Y38446D01*
X34736D01*
Y37459D01*
X34761Y37240D01*
X34836Y37086D01*
X34962Y36992D01*
X35139Y36962D01*
X35344Y37025D01*
X35414Y37215D01*
X35409Y37299D01*
X35403Y37343D01*
X35640D01*
Y37226D01*
X35611Y37021D01*
X35526Y36875D01*
X35385Y36787D01*
X35188Y36758D01*
X34903Y36817D01*
X34714Y36995D01*
X34709Y36990D01*
X34736Y36798D01*
X34494D01*
G37*
G36*
X37195Y36092D02*X36952D01*
Y37002D01*
X36947Y37006D01*
X36882Y36904D01*
X36770Y36832D01*
X36613Y36788D01*
X36489Y36780D01*
Y36976D01*
X36708Y37006D01*
X36853Y37100D01*
X36927Y37280D01*
X36952Y37575D01*
X36929Y37933D01*
X36864Y38141D01*
X36722Y38236D01*
X36489Y38268D01*
Y38456D01*
X36769Y38407D01*
X36958Y38230D01*
X36969D01*
X36952Y38446D01*
X37195D01*
Y36092D01*
G37*
G36*
X36489Y36780D02*X36412Y36774D01*
X36106Y36820D01*
X35911Y36958D01*
X35806Y37204D01*
X35773Y37596D01*
X35806Y38020D01*
X35911Y38285D01*
X36110Y38421D01*
X36428Y38466D01*
X36489Y38456D01*
Y38268D01*
X36478Y38269D01*
X36248Y38236D01*
X36114Y38141D01*
X36047Y37939D01*
X36026Y37596D01*
X36047Y37284D01*
X36114Y37100D01*
X36247Y37006D01*
X36473Y36974D01*
X36489Y36976D01*
Y36780D01*
G37*
G36*
X23373Y40326D02*X22756Y42106D01*
X22640Y42463D01*
X22629D01*
X22574Y42282D01*
X22513Y42106D01*
X21885Y40326D01*
X21604D01*
X22442Y42679D01*
X22822D01*
X23654Y40326D01*
X23373D01*
G37*
G36*
X25234D02*X24820D01*
X24420Y40838D01*
Y41200D01*
X24963Y40495D01*
X24969D01*
Y41913D01*
X24420D01*
Y42138D01*
X24969D01*
Y42679D01*
X25234D01*
Y42138D01*
X25586D01*
Y41913D01*
X25234D01*
Y40326D01*
G37*
G36*
X24420Y40838D02*X23652Y41825D01*
Y42138D01*
X24420D01*
Y41913D01*
X23872D01*
X24420Y41200D01*
Y40838D01*
G37*
G36*
X27618Y41724D02*X27860D01*
X28016Y41749D01*
X28127Y41827D01*
X28195Y41956D01*
X28218Y42138D01*
Y42679D01*
X28483D01*
Y42077D01*
X28458Y41887D01*
X28388Y41748D01*
X28270Y41660D01*
X28108Y41621D01*
Y41615D01*
X28305Y41557D01*
X28428Y41456D01*
X28492Y41274D01*
X28516Y40998D01*
X28476Y40682D01*
X28362Y40478D01*
X28149Y40363D01*
X27827Y40326D01*
X27618D01*
Y40550D01*
X27827D01*
X28049Y40575D01*
X28180Y40651D01*
X28242Y40801D01*
X28262Y41063D01*
X28234Y41278D01*
X28152Y41411D01*
X27992Y41480D01*
X27739Y41504D01*
X27618D01*
Y41724D01*
G37*
G36*
X26708Y42679D02*X26973D01*
Y41724D01*
X27618D01*
Y41504D01*
X26973D01*
Y40550D01*
X27618D01*
Y40326D01*
X26708D01*
Y42679D01*
G37*
G36*
X29482Y41901D02*X30196D01*
Y41768D01*
X30158Y41382D01*
X30052Y41156D01*
X29833Y41045D01*
X29482Y41010D01*
Y41208D01*
X29719Y41227D01*
X29860Y41289D01*
X29924Y41415D01*
X29948Y41636D01*
Y41713D01*
X29482D01*
Y41901D01*
G37*
G36*
X29948Y42182D02*Y42233D01*
X29924Y42372D01*
X29860Y42453D01*
X29723Y42490D01*
X29485Y42503D01*
X29482Y42503D01*
Y42698D01*
X29496Y42700D01*
X29826Y42675D01*
X30041Y42602D01*
X30156Y42460D01*
X30196Y42242D01*
Y42182D01*
X29948D01*
G37*
G36*
X29482Y42503D02*X29231Y42477D01*
X29093Y42398D01*
X29031Y42219D01*
X29011Y41901D01*
X29482D01*
Y41713D01*
X29016D01*
X29037Y41451D01*
X29099Y41300D01*
X29236Y41231D01*
X29479Y41207D01*
X29482Y41208D01*
Y41010D01*
X29457Y41008D01*
X29110Y41050D01*
X28900Y41180D01*
X28792Y41425D01*
X28757Y41836D01*
X28790Y42278D01*
X28895Y42535D01*
X29115Y42658D01*
X29482Y42698D01*
Y42503D01*
G37*
G36*
X31725Y41031D02*X31455D01*
X31174Y41930D01*
X31086Y42209D01*
X31047Y42354D01*
X31003Y42490D01*
X30998D01*
X30954Y42347D01*
X30910Y42209D01*
X30822Y41930D01*
X30529Y41031D01*
X30281D01*
X30827Y42679D01*
X31174D01*
X31725Y41031D01*
G37*
G36*
X34172Y42182D02*X34353Y42679D01*
X34629D01*
X33752Y40326D01*
X33576D01*
Y40561D01*
X34094Y41978D01*
X33576D01*
Y42182D01*
X34172D01*
G37*
G36*
X33576Y40326D02*X33378D01*
X32518Y42679D01*
X32799D01*
X32981Y42182D01*
X33576D01*
Y41978D01*
X33058D01*
X33570Y40546D01*
X33576Y40561D01*
Y40326D01*
G37*
G36*
X31710Y36774D02*Y36974D01*
X31968Y36999D01*
X32107Y37079D01*
X32164Y37266D01*
X32184Y37623D01*
X32164Y37976D01*
X32107Y38165D01*
X31968Y38243D01*
X31710Y38269D01*
Y38466D01*
X32085Y38428D01*
X32300Y38314D01*
X32402Y38060D01*
X32438Y37623D01*
X32402Y37184D01*
X32300Y36934D01*
X32085Y36814D01*
X31710Y36774D01*
G37*
G36*
Y36774D02*X31331Y36814D01*
X31115Y36934D01*
X31016Y37184D01*
X30982Y37623D01*
X31016Y38060D01*
X31115Y38314D01*
X31331Y38428D01*
X31710Y38466D01*
Y38269D01*
X31450Y38243D01*
X31313Y38165D01*
X31254Y37976D01*
X31236Y37623D01*
X31254Y37266D01*
X31313Y37079D01*
X31450Y36999D01*
X31710Y36974D01*
Y36774D01*
G37*
G36*
X34054Y54975D02*X33795D01*
X33564Y55889D01*
X33492Y56170D01*
X33426Y56458D01*
X33420D01*
X33388Y56313D01*
X33354Y56177D01*
X33283Y55889D01*
X33062Y54975D01*
X32710D01*
X32484Y55889D01*
X32412Y56170D01*
X32346Y56458D01*
X32340D01*
X32307Y56313D01*
X32269Y56170D01*
X32197Y55889D01*
X31965Y54975D01*
X31526D01*
X31294Y55889D01*
X31223Y56170D01*
X31156Y56458D01*
X31151D01*
X31118Y56313D01*
X31085Y56177D01*
X31013Y55889D01*
X30793Y54975D01*
X30440D01*
X30214Y55889D01*
X30142Y56170D01*
X30076Y56458D01*
X30070D01*
X30038Y56313D01*
X29999Y56170D01*
X29927Y55889D01*
X29696Y54975D01*
X29257D01*
X29026Y55889D01*
X28954Y56170D01*
X28888Y56458D01*
X28882D01*
X28850Y56313D01*
X28816Y56177D01*
X28745Y55889D01*
X28524Y54975D01*
X28172D01*
X27946Y55889D01*
X27874Y56170D01*
X27808Y56458D01*
X27802D01*
X27769Y56313D01*
X27731Y56170D01*
X27659Y55889D01*
X27427Y54975D01*
X27174D01*
X27620Y56622D01*
X27984D01*
X28210Y55708D01*
X28276Y55427D01*
X28342Y55151D01*
X28348D01*
X28381Y55288D01*
X28409Y55427D01*
X28475Y55708D01*
X28695Y56622D01*
X29054D01*
X29479Y55110D01*
X29889Y56622D01*
X30252D01*
X30478Y55708D01*
X30544Y55427D01*
X30611Y55151D01*
X30616D01*
X30649Y55288D01*
X30677Y55427D01*
X30743Y55708D01*
X30964Y56622D01*
X31322D01*
X31748Y55107D01*
X32158Y56622D01*
X32522D01*
X32748Y55708D01*
X32814Y55427D01*
X32880Y55151D01*
X32886D01*
X32919Y55288D01*
X32946Y55427D01*
X33013Y55708D01*
X33233Y56622D01*
X33592D01*
X34054Y54975D01*
G37*
G36*
X34448Y56302D02*X34178D01*
Y56622D01*
X34448D01*
Y56302D01*
G37*
G36*
X36119Y55403D02*Y55343D01*
X36077Y55172D01*
X35953Y55049D01*
X35749Y54976D01*
X35463Y54953D01*
X35121Y54976D01*
X34917Y55047D01*
X34818Y55182D01*
X34785Y55416D01*
X34826Y55657D01*
X34956Y55800D01*
X35220Y55866D01*
X35678Y55889D01*
X35854Y55955D01*
X35915Y56153D01*
X35890Y56301D01*
X35821Y56390D01*
X35675Y56431D01*
X35430Y56445D01*
X35226Y56431D01*
X35104Y56390D01*
X35042Y56310D01*
X35022Y56177D01*
X35016Y56099D01*
X34768D01*
Y56188D01*
X34806Y56410D01*
X34917Y56550D01*
X35132Y56622D01*
X35474Y56645D01*
X35809Y56619D01*
X36019Y56546D01*
X36131Y56398D01*
X36168Y56165D01*
X36139Y55968D01*
X36057Y55824D01*
X35916Y55733D01*
X35722Y55696D01*
X35474Y55681D01*
X35281Y55668D01*
X35095Y55598D01*
X35033Y55403D01*
X35049Y55268D01*
X35104Y55195D01*
X35227Y55162D01*
X35446Y55151D01*
X35681Y55162D01*
X35804Y55195D01*
X35857Y55267D01*
X35876Y55403D01*
X36119D01*
G37*
G36*
X36476Y54975D02*Y56622D01*
X36718D01*
Y55636D01*
X36743Y55419D01*
X36818Y55263D01*
X36944Y55169D01*
X37120Y55139D01*
X37326Y55202D01*
X37396Y55394D01*
X37391Y55475D01*
X37385Y55519D01*
X37622D01*
Y55403D01*
X37593Y55198D01*
X37508Y55052D01*
X37367Y54964D01*
X37170Y54935D01*
X36885Y54994D01*
X36696Y55173D01*
X36690Y55166D01*
X36718Y54975D01*
X36476D01*
G37*
G36*
X38481Y54953D02*X38481Y54953D01*
Y55151D01*
X38481Y55151D01*
X38738Y55176D01*
X38877Y55255D01*
X38934Y55443D01*
X38955Y55800D01*
X38934Y56153D01*
X38877Y56342D01*
X38738Y56419D01*
X38481Y56445D01*
X38481Y56445D01*
Y56645D01*
X38481Y56645D01*
X38856Y56605D01*
X39070Y56489D01*
X39173Y56237D01*
X39208Y55800D01*
X39173Y55361D01*
X39070Y55111D01*
X38856Y54992D01*
X38481Y54953D01*
G37*
G36*
X38481Y54953D02*X38102Y54992D01*
X37885Y55111D01*
X37786Y55361D01*
X37753Y55800D01*
X37786Y56237D01*
X37885Y56489D01*
X38102Y56605D01*
X38481Y56645D01*
Y56445D01*
X38220Y56419D01*
X38084Y56342D01*
X38024Y56153D01*
X38007Y55800D01*
X38024Y55443D01*
X38084Y55255D01*
X38220Y55176D01*
X38481Y55151D01*
Y54953D01*
G37*
G36*
X40221Y56637D02*X40265Y56645D01*
X40585Y56601D01*
X40789Y56469D01*
X40900Y56214D01*
X40938Y55817D01*
X40902Y55402D01*
X40800Y55139D01*
X40604Y55000D01*
X40298Y54953D01*
X40221Y54958D01*
Y55153D01*
X40238Y55151D01*
X40464Y55183D01*
X40596Y55278D01*
X40661Y55470D01*
X40684Y55807D01*
X40661Y56131D01*
X40596Y56326D01*
X40468Y56415D01*
X40249Y56445D01*
X40221Y56442D01*
Y56637D01*
G37*
G36*
X39510Y56622D02*X39753D01*
X39742Y56418D01*
X39747D01*
X39942Y56589D01*
X40221Y56637D01*
Y56442D01*
X39990Y56415D01*
X39846Y56326D01*
X39779Y56122D01*
X39758Y55756D01*
X39780Y55453D01*
X39852Y55271D01*
X39997Y55182D01*
X40221Y55153D01*
Y54958D01*
X40092Y54967D01*
X39933Y55012D01*
X39822Y55086D01*
X39758Y55190D01*
X39753Y55183D01*
Y54269D01*
X39510D01*
Y56622D01*
G37*
G36*
X41927Y54953D02*X41927Y54953D01*
Y55151D01*
X41927Y55151D01*
X42185Y55176D01*
X42324Y55255D01*
X42381Y55443D01*
X42401Y55800D01*
X42381Y56153D01*
X42324Y56342D01*
X42185Y56419D01*
X41927Y56445D01*
X41927Y56445D01*
Y56645D01*
X41927Y56645D01*
X42302Y56605D01*
X42517Y56489D01*
X42619Y56237D01*
X42655Y55800D01*
X42619Y55361D01*
X42517Y55111D01*
X42302Y54992D01*
X41927Y54953D01*
G37*
G36*
X41927Y54953D02*X41548Y54992D01*
X41332Y55111D01*
X41232Y55361D01*
X41200Y55800D01*
X41232Y56237D01*
X41332Y56489D01*
X41548Y56605D01*
X41927Y56645D01*
Y56445D01*
X41667Y56419D01*
X41530Y56342D01*
X41471Y56153D01*
X41453Y55800D01*
X41471Y55443D01*
X41530Y55255D01*
X41667Y55176D01*
X41927Y55151D01*
Y54953D01*
G37*
G36*
X43227Y56302D02*X42956D01*
Y56622D01*
X43227D01*
Y56302D01*
G37*
G36*
X44302Y54953D02*X44302Y54953D01*
Y55151D01*
X44302Y55151D01*
X44559Y55176D01*
X44698Y55255D01*
X44755Y55443D01*
X44776Y55800D01*
X44755Y56153D01*
X44698Y56342D01*
X44559Y56419D01*
X44302Y56445D01*
X44302Y56445D01*
Y56645D01*
X44302Y56645D01*
X44676Y56605D01*
X44891Y56489D01*
X44993Y56237D01*
X45029Y55800D01*
X44993Y55361D01*
X44891Y55111D01*
X44676Y54992D01*
X44302Y54953D01*
G37*
G36*
X44302Y54953D02*X43923Y54992D01*
X43706Y55111D01*
X43607Y55361D01*
X43574Y55800D01*
X43607Y56237D01*
X43706Y56489D01*
X43923Y56605D01*
X44302Y56645D01*
Y56445D01*
X44041Y56419D01*
X43905Y56342D01*
X43845Y56153D01*
X43827Y55800D01*
X43845Y55443D01*
X43905Y55255D01*
X44041Y55176D01*
X44302Y55151D01*
Y54953D01*
G37*
G36*
X45358Y54975D02*Y56622D01*
X45601D01*
Y55636D01*
X45626Y55419D01*
X45700Y55263D01*
X45827Y55169D01*
X46003Y55139D01*
X46209Y55202D01*
X46279Y55394D01*
X46273Y55475D01*
X46268Y55519D01*
X46505D01*
Y55403D01*
X46476Y55198D01*
X46391Y55052D01*
X46250Y54964D01*
X46053Y54935D01*
X45768Y54994D01*
X45579Y55173D01*
X45573Y55166D01*
X45601Y54975D01*
X45358D01*
G37*
G36*
X48058D02*X47821D01*
X47832Y55200D01*
X47827D01*
X47630Y55014D01*
X47350Y54962D01*
Y55152D01*
X47577Y55182D01*
X47716Y55271D01*
X47785Y55452D01*
X47810Y55756D01*
X47785Y56108D01*
X47716Y56313D01*
X47577Y56412D01*
X47350Y56444D01*
Y56639D01*
X47475Y56630D01*
X47632Y56589D01*
X47745Y56517D01*
X47816Y56418D01*
X47821D01*
Y56750D01*
X47796Y56951D01*
X47722Y57075D01*
X47581Y57137D01*
X47352Y57158D01*
X47350Y57158D01*
Y57355D01*
X47683Y57320D01*
X47904Y57218D01*
X48018Y57028D01*
X48058Y56726D01*
Y54975D01*
G37*
G36*
X47350Y57158D02*X47133Y57141D01*
X47011Y57092D01*
X46952Y56991D01*
X46934Y56815D01*
X46702D01*
X46735Y57078D01*
X46834Y57239D01*
X47024Y57326D01*
X47336Y57356D01*
X47350Y57355D01*
Y57158D01*
G37*
G36*
Y54962D02*X47297Y54953D01*
X46975Y54998D01*
X46774Y55135D01*
X46669Y55392D01*
X46636Y55807D01*
X46669Y56211D01*
X46774Y56469D01*
X46967Y56601D01*
X47275Y56645D01*
X47350Y56639D01*
Y56444D01*
X47342Y56445D01*
X47107Y56415D01*
X46972Y56326D01*
X46910Y56131D01*
X46890Y55796D01*
X46910Y55464D01*
X46972Y55271D01*
X47107Y55182D01*
X47342Y55151D01*
X47350Y55152D01*
Y54962D01*
G37*
G36*
X50764Y54273D02*X50571D01*
X48498Y57330D01*
X48697D01*
X50764Y54273D01*
G37*
G36*
X51843Y56636D02*X51923Y56648D01*
X52220Y56604D01*
X52413Y56472D01*
X52519Y56218D01*
X52557Y55827D01*
X52521Y55404D01*
X52419Y55142D01*
X52222Y55003D01*
X51912Y54956D01*
X51843Y54968D01*
Y55155D01*
X51846Y55155D01*
X52080Y55186D01*
X52215Y55281D01*
X52280Y55476D01*
X52303Y55820D01*
X52280Y56140D01*
X52215Y56329D01*
X52080Y56418D01*
X51856Y56448D01*
X51843Y56447D01*
Y56636D01*
G37*
G36*
X51134Y54978D02*Y57330D01*
X51377D01*
Y56434D01*
X51382D01*
X51582Y56595D01*
X51843Y56636D01*
Y56447D01*
X51617Y56417D01*
X51476Y56323D01*
X51405Y56132D01*
X51382Y55816D01*
X51403Y55474D01*
X51471Y55281D01*
X51607Y55186D01*
X51843Y55155D01*
Y54968D01*
X51569Y55016D01*
X51372Y55193D01*
X51366Y55186D01*
X51377Y54978D01*
X51134D01*
G37*
G36*
X53572Y56641D02*X53616Y56648D01*
X53936Y56604D01*
X54140Y56472D01*
X54252Y56217D01*
X54289Y55820D01*
X54253Y55405D01*
X54151Y55142D01*
X53955Y55003D01*
X53649Y54956D01*
X53572Y54961D01*
Y55157D01*
X53589Y55155D01*
X53815Y55186D01*
X53947Y55281D01*
X54012Y55473D01*
X54035Y55810D01*
X54012Y56134D01*
X53947Y56329D01*
X53819Y56418D01*
X53600Y56448D01*
X53572Y56445D01*
Y56641D01*
G37*
G36*
X52861Y56625D02*X53104D01*
X53093Y56421D01*
X53098D01*
X53292Y56592D01*
X53572Y56641D01*
Y56445D01*
X53341Y56418D01*
X53197Y56329D01*
X53130Y56125D01*
X53109Y55760D01*
X53131Y55456D01*
X53203Y55274D01*
X53348Y55185D01*
X53572Y55157D01*
Y54961D01*
X53443Y54970D01*
X53284Y55016D01*
X53173Y55090D01*
X53109Y55193D01*
X53104Y55186D01*
Y54273D01*
X52861D01*
Y56625D01*
G37*
G36*
X55818Y54978D02*X55548D01*
X55267Y55875D01*
X55179Y56156D01*
X55140Y56301D01*
X55096Y56438D01*
X55091D01*
X55047Y56296D01*
X55003Y56156D01*
X54914Y55875D01*
X54622Y54978D01*
X54374D01*
X54920Y56625D01*
X55267D01*
X55818Y54978D01*
G37*
G36*
X57423Y54273D02*X57009D01*
X56609Y54785D01*
Y55148D01*
X57152Y54443D01*
X57158D01*
Y55860D01*
X56609D01*
Y56085D01*
X57158D01*
Y56625D01*
X57423D01*
Y56085D01*
X57775D01*
Y55860D01*
X57423D01*
Y54273D01*
G37*
G36*
X56609Y54785D02*X55840Y55772D01*
Y56085D01*
X56609D01*
Y55860D01*
X56061D01*
X56609Y55148D01*
Y54785D01*
G37*
G36*
X47455Y41919D02*X46966Y41464D01*
X46435Y41060D01*
X45868Y40707D01*
X45269Y40411D01*
X44645Y40171D01*
X44003Y39992D01*
X43346Y39874D01*
X42680Y39823D01*
X42488Y39828D01*
Y42807D01*
X42573D01*
X42644Y42825D01*
X42680D01*
X42770Y42859D01*
X42931Y42897D01*
X43144Y42949D01*
X43693Y43110D01*
X44378Y43325D01*
X45145Y43574D01*
X45960Y43864D01*
X46782Y44192D01*
X47575Y44557D01*
X47722Y44651D01*
X47839Y44782D01*
X47918Y44939D01*
X47952Y45111D01*
X47935Y45286D01*
X47871Y45450D01*
X47766Y45592D01*
X47628Y45700D01*
X46933Y46095D01*
X46285Y46442D01*
X45669Y46752D01*
X45074Y47040D01*
X45688Y47338D01*
X46253Y47648D01*
X46546Y47827D01*
X46813Y47999D01*
X47050Y48159D01*
X47254Y48303D01*
X47419Y48421D01*
X47542Y48514D01*
X47619Y48571D01*
X47646Y48593D01*
X47809Y48785D01*
X47886Y49027D01*
X47871Y49282D01*
X47761Y49511D01*
X47562Y49668D01*
X47319Y49737D01*
X47065Y49714D01*
X46843Y49594D01*
X46818Y49574D01*
X46751Y49523D01*
X46640Y49444D01*
X46493Y49339D01*
X46311Y49212D01*
X46098Y49070D01*
X45856Y48916D01*
X45592Y48755D01*
X45005Y48427D01*
X44381Y48132D01*
X43758Y47902D01*
X43180Y47772D01*
X42982Y47706D01*
X42815Y47581D01*
X42694Y47410D01*
X42635Y47210D01*
X42647Y47002D01*
X42726Y46809D01*
X42859Y46649D01*
X43037Y46540D01*
X43762Y46252D01*
X44444Y45939D01*
X45111Y45602D01*
X45789Y45236D01*
X44864Y44871D01*
X43984Y44557D01*
X43329Y44353D01*
X42806Y44199D01*
X42602Y44138D01*
X42488Y44104D01*
Y53685D01*
X43161Y53649D01*
X43834Y53547D01*
X44492Y53381D01*
X45133Y53151D01*
X45748Y52861D01*
X46332Y52512D01*
X46879Y52110D01*
X47385Y51655D01*
X47839Y51150D01*
X48242Y50602D01*
X48590Y50018D01*
X48880Y49404D01*
X49110Y48763D01*
X49277Y48104D01*
X49379Y47433D01*
X49414Y46754D01*
X49381Y46087D01*
X49282Y45425D01*
X49122Y44778D01*
X48900Y44148D01*
X48621Y43540D01*
X48285Y42963D01*
X47894Y42421D01*
X47455Y41919D01*
G37*
G36*
X42488Y39828D02*X41987Y39839D01*
X41301Y39926D01*
X40626Y40078D01*
X39969Y40299D01*
X39337Y40581D01*
X38735Y40924D01*
X38171Y41326D01*
X37650Y41783D01*
X37179Y42290D01*
X36763Y42843D01*
X36403Y43434D01*
X36104Y44057D01*
X35866Y44707D01*
X35692Y45378D01*
X35587Y46062D01*
X35552Y46754D01*
X35586Y47433D01*
X35688Y48104D01*
X35856Y48763D01*
X36086Y49404D01*
X36376Y50018D01*
X36724Y50602D01*
X37127Y51150D01*
X37583Y51655D01*
X38087Y52110D01*
X38634Y52512D01*
X39218Y52861D01*
X39833Y53151D01*
X40474Y53381D01*
X41132Y53547D01*
X41804Y53649D01*
X42483Y53685D01*
X42488Y53685D01*
Y44104D01*
X42447Y44091D01*
X42316Y44130D01*
X42144Y44181D01*
X41620Y44334D01*
X40964Y44538D01*
X40085Y44862D01*
X39161Y45236D01*
X39854Y45614D01*
X40530Y45954D01*
X41210Y46252D01*
X41913Y46503D01*
X42103Y46601D01*
X42252Y46756D01*
X42344Y46951D01*
X42369Y47164D01*
X42315Y47372D01*
X42195Y47552D01*
X42026Y47684D01*
X41823Y47754D01*
X41495Y47823D01*
X41164Y47918D01*
X40835Y48035D01*
X40508Y48168D01*
X40189Y48314D01*
X39880Y48468D01*
X39584Y48627D01*
X39305Y48786D01*
X39048Y48942D01*
X38813Y49091D01*
X38605Y49227D01*
X38427Y49348D01*
X38284Y49449D01*
X38177Y49526D01*
X38110Y49576D01*
X38088Y49594D01*
X37864Y49712D01*
X37612Y49736D01*
X37366Y49668D01*
X37169Y49511D01*
X37058Y49282D01*
X37042Y49027D01*
X37120Y48785D01*
X37285Y48593D01*
X37335Y48552D01*
X37478Y48440D01*
X37707Y48272D01*
X38013Y48059D01*
X38388Y47815D01*
X38823Y47554D01*
X39309Y47293D01*
X39840Y47040D01*
X39250Y46751D01*
X38648Y46437D01*
X38015Y46090D01*
X37339Y45700D01*
X37205Y45593D01*
X37104Y45456D01*
X37041Y45296D01*
X37023Y45126D01*
X37052Y44958D01*
X37124Y44804D01*
X37234Y44672D01*
X37374Y44575D01*
X38166Y44206D01*
X38990Y43867D01*
X39804Y43565D01*
X40572Y43307D01*
X41254Y43101D01*
X41805Y42949D01*
X42014Y42887D01*
X42180Y42843D01*
X42305Y42807D01*
X42488D01*
Y39828D01*
G37*
G54D203*X19100Y76600D02*Y77500D01*
X30400Y66700D02*X31000Y66100D01*
X31400D01*
X30400Y68400D02*X32100D01*
X32300Y68200D01*
X57300Y75100D02*X57800Y75600D01*
X60200D01*
X49900Y61700D02*Y62300D01*
X50700Y63100D01*
X54000Y65300D02*X55300Y64000D01*
Y62600D01*
X56600Y61300D01*
X50300Y66400D02*X50900Y67000D01*
X39800D02*X38200D01*
X38000Y66800D01*
X57200Y68300D02*X56000Y67100D01*
X60700Y68300D02*X57200D01*
X43900Y68000D02*X45400Y69500D01*
X60400Y77000D02*G75*G03X60400Y77000I800J0D01*G01*
Y75100D02*G75*G03X60400Y75100I800J0D01*G01*
X62300D02*G75*G03X62300Y75100I800J0D01*G01*
X59000Y70000D02*G75*G03X59000Y70000I800J0D01*G01*
Y72000D02*G75*G03X59000Y72000I800J0D01*G01*
X70900Y65300D02*G75*G03X70900Y65300I800J0D01*G01*
Y72700D02*G75*G03X70900Y72700I800J0D01*G01*
X55600Y77000D02*G75*G03X55600Y77000I800J0D01*G01*
X44000Y73100D02*G75*G03X44000Y73100I800J0D01*G01*
X41900Y68000D02*G75*G03X41900Y68000I800J0D01*G01*
X40200Y67300D02*G75*G03X40200Y67300I800J0D01*G01*
X40800Y63200D02*G75*G03X40800Y63200I800J0D01*G01*
X37300D02*G75*G03X37300Y63200I800J0D01*G01*
X39800Y73100D02*G75*G03X39800Y73100I800J0D01*G01*
X12500Y54800D02*G75*G03X12500Y54800I800J0D01*G01*
Y47300D02*G75*G03X12500Y47300I800J0D01*G01*
X18300Y73300D02*G75*G03X18300Y73300I800J0D01*G01*
X12500Y72700D02*G75*G03X12500Y72700I800J0D01*G01*
Y65300D02*G75*G03X12500Y65300I800J0D01*G01*
X32500Y81600D02*G75*G03X32500Y81600I800J0D01*G01*
X30700Y58300D02*G75*G03X30700Y58300I800J0D01*G01*
Y44300D02*G75*G03X30700Y44300I800J0D01*G01*
X34400Y69800D02*G75*G03X34400Y69800I800J0D01*G01*
X32300Y67400D02*G75*G03X32300Y67400I800J0D01*G01*
X30500Y64200D02*G75*G03X30500Y64200I800J0D01*G01*
X31650Y65650D02*G75*G03X31650Y65650I800J0D01*G01*
X26800Y14900D02*G75*G03X26800Y14900I800J0D01*G01*
X15400Y17000D02*G75*G03X15400Y17000I800J0D01*G01*
X45300Y29300D02*G75*G03X45300Y29300I800J0D01*G01*
X46600Y24200D02*G75*G03X46600Y24200I800J0D01*G01*
X51300Y29300D02*G75*G03X51300Y29300I800J0D01*G01*
X44700Y17000D02*G75*G03X44700Y17000I800J0D01*G01*
X39300D02*G75*G03X39300Y17000I800J0D01*G01*
X52700Y44300D02*G75*G03X52700Y44300I800J0D01*G01*
X70900Y36700D02*G75*G03X70900Y36700I800J0D01*G01*
Y29200D02*G75*G03X70900Y29200I800J0D01*G01*
X12500Y36700D02*G75*G03X12500Y36700I800J0D01*G01*
Y29300D02*G75*G03X12500Y29300I800J0D01*G01*
X52700Y58300D02*G75*G03X52700Y58300I800J0D01*G01*
X41700Y37200D02*G75*G03X41700Y37200I800J0D01*G01*
X43600D02*G75*G03X43600Y37200I800J0D01*G01*
X35000Y86800D02*G75*G03X35000Y86800I800J0D01*G01*
X16100Y82700D02*G75*G03X16100Y82700I800J0D01*G01*
X18300Y75500D02*G75*G03X18300Y75500I800J0D01*G01*
X16100Y80600D02*G75*G03X16100Y80600I800J0D01*G01*
X15800Y91800D02*G75*G03X15800Y91800I800J0D01*G01*
X35000Y88600D02*G75*G03X35000Y88600I800J0D01*G01*
X70900Y54800D02*G75*G03X70900Y54800I800J0D01*G01*
Y47200D02*G75*G03X70900Y47200I800J0D01*G01*
X52300Y69800D02*G75*G03X52300Y69800I800J0D01*G01*
X52400Y66200D02*G75*G03X52400Y66200I800J0D01*G01*
X54300D02*G75*G03X54300Y66200I800J0D01*G01*
X52400Y64100D02*G75*G03X52400Y64100I800J0D01*G01*
X50500D02*G75*G03X50500Y64100I800J0D01*G01*
X46800Y66200D02*G75*G03X46800Y66200I800J0D01*G01*
X48700Y65600D02*G75*G03X48700Y65600I800J0D01*G01*
X46700Y64300D02*G75*G03X46700Y64300I800J0D01*G01*
X44800Y64700D02*G75*G03X44800Y64700I800J0D01*G01*
G54D204*X48500Y23754D02*X49008D01*
X48754D02*Y24770D01*
X49440Y23754D02*Y24770D01*
X49313Y23754D02*X49821D01*
X49948Y23881D01*
Y24135D01*
X49821Y24262D02*X49948Y24135D01*
X49440Y24262D02*X49821D01*
X50253Y24643D02*X50380Y24770D01*
X50253Y24440D02*Y24643D01*
Y24440D02*X50430Y24262D01*
X50583D01*
X50761Y24440D01*
Y24643D01*
X50634Y24770D02*X50761Y24643D01*
X50380Y24770D02*X50634D01*
X50253Y24084D02*X50430Y24262D01*
X50253Y23881D02*Y24084D01*
Y23881D02*X50380Y23754D01*
X50634D01*
X50761Y23881D01*
Y24084D01*
X50583Y24262D02*X50761Y24084D01*
X43800Y18154D02*X44308D01*
X44054D02*Y19170D01*
X44740Y18154D02*Y19170D01*
X44613Y18154D02*X45121D01*
X45248Y18281D01*
Y18535D01*
X45121Y18662D02*X45248Y18535D01*
X44740Y18662D02*X45121D01*
X45680Y19170D02*X46061Y18662D01*
Y18281D02*Y18662D01*
X45934Y18154D02*X46061Y18281D01*
X45680Y18154D02*X45934D01*
X45553Y18281D02*X45680Y18154D01*
X45553Y18281D02*Y18535D01*
X45680Y18662D01*
X46061D01*
X39700Y18154D02*X40208D01*
X39954D02*Y19170D01*
X40640Y18154D02*Y19170D01*
X40513Y18154D02*X41021D01*
X41148Y18281D01*
Y18535D01*
X41021Y18662D02*X41148Y18535D01*
X40640Y18662D02*X41021D01*
X41580Y19170D02*X42088Y18154D01*
X41453D02*X42088D01*
X27000Y63654D02*X27508D01*
X27254D02*Y64670D01*
X27940Y63654D02*Y64670D01*
X27813Y63654D02*X28321D01*
X28448Y63781D01*
Y64035D01*
X28321Y64162D02*X28448Y64035D01*
X27940Y64162D02*X28321D01*
X28753Y63857D02*X28956Y63654D01*
Y64670D01*
X28753D02*X29134D01*
X29438Y63781D02*X29565Y63654D01*
X29946D01*
X30073Y63781D01*
Y64035D01*
X29438Y64670D02*X30073Y64035D01*
X29438Y64670D02*X30073D01*
X27200Y57754D02*X27708D01*
X27454D02*Y58770D01*
X28140Y57754D02*Y58770D01*
X28013Y57754D02*X28521D01*
X28648Y57881D01*
Y58135D01*
X28521Y58262D02*X28648Y58135D01*
X28140Y58262D02*X28521D01*
X28953Y57881D02*X29080Y57754D01*
X29334D01*
X29461Y57881D01*
X29334Y58770D02*X29461Y58643D01*
X29080Y58770D02*X29334D01*
X28953Y58643D02*X29080Y58770D01*
Y58211D02*X29334D01*
X29461Y57881D02*Y58084D01*
Y58338D02*Y58643D01*
Y58338D02*X29334Y58211D01*
X29461Y58084D02*X29334Y58211D01*
X29765Y58643D02*X29892Y58770D01*
X29765Y58440D02*Y58643D01*
Y58440D02*X29943Y58262D01*
X30096D01*
X30273Y58440D01*
Y58643D01*
X30146Y58770D02*X30273Y58643D01*
X29892Y58770D02*X30146D01*
X29765Y58084D02*X29943Y58262D01*
X29765Y57881D02*Y58084D01*
Y57881D02*X29892Y57754D01*
X30146D01*
X30273Y57881D01*
Y58084D01*
X30096Y58262D02*X30273Y58084D01*
X40750Y34754D02*X41258D01*
X41004D02*Y35770D01*
X41690Y34754D02*Y35770D01*
X41563Y34754D02*X42071D01*
X42198Y34881D01*
Y35135D01*
X42071Y35262D02*X42198Y35135D01*
X41690Y35262D02*X42071D01*
X42884Y34754D02*X43011Y34881D01*
X42630Y34754D02*X42884D01*
X42503Y34881D02*X42630Y34754D01*
X42503Y34881D02*Y35643D01*
X42630Y35770D01*
X42884Y35211D02*X43011Y35338D01*
X42503Y35211D02*X42884D01*
X42630Y35770D02*X42884D01*
X43011Y35643D01*
Y35338D02*Y35643D01*
X45200Y30454D02*X45708D01*
X45454D02*Y31470D01*
X46140Y30454D02*Y31470D01*
X46013Y30454D02*X46521D01*
X46648Y30581D01*
Y30835D01*
X46521Y30962D02*X46648Y30835D01*
X46140Y30962D02*X46521D01*
X46953Y30581D02*X47080Y30454D01*
X47334D01*
X47461Y30581D01*
X47334Y31470D02*X47461Y31343D01*
X47080Y31470D02*X47334D01*
X46953Y31343D02*X47080Y31470D01*
Y30911D02*X47334D01*
X47461Y30581D02*Y30784D01*
Y31038D02*Y31343D01*
Y31038D02*X47334Y30911D01*
X47461Y30784D02*X47334Y30911D01*
X43900Y34754D02*X44408D01*
X44154D02*Y35770D01*
X44840Y34754D02*Y35770D01*
X44713Y34754D02*X45221D01*
X45348Y34881D01*
Y35135D01*
X45221Y35262D02*X45348Y35135D01*
X44840Y35262D02*X45221D01*
X45653Y34754D02*X46161D01*
X45653D02*Y35262D01*
X45780Y35135D01*
X46034D01*
X46161Y35262D01*
Y35643D01*
X46034Y35770D02*X46161Y35643D01*
X45780Y35770D02*X46034D01*
X45653Y35643D02*X45780Y35770D01*
X40400Y61054D02*X40908D01*
X40654D02*Y62070D01*
X41340Y61054D02*Y62070D01*
X41213Y61054D02*X41721D01*
X41848Y61181D01*
Y61435D01*
X41721Y61562D02*X41848Y61435D01*
X41340Y61562D02*X41721D01*
X42153Y61689D02*X42661Y61054D01*
X42153Y61689D02*X42788D01*
X42661Y61054D02*Y62070D01*
X43092Y61054D02*X43600D01*
X43092D02*Y61562D01*
X43219Y61435D01*
X43473D01*
X43600Y61562D01*
Y61943D01*
X43473Y62070D02*X43600Y61943D01*
X43219Y62070D02*X43473D01*
X43092Y61943D02*X43219Y62070D01*
X45900Y61954D02*X46408D01*
X46154D02*Y62970D01*
X46840Y61954D02*Y62970D01*
X46713Y61954D02*X47221D01*
X47348Y62081D01*
Y62335D01*
X47221Y62462D02*X47348Y62335D01*
X46840Y62462D02*X47221D01*
X47653Y62081D02*X47780Y61954D01*
X48034D01*
X48161Y62081D01*
X48034Y62970D02*X48161Y62843D01*
X47780Y62970D02*X48034D01*
X47653Y62843D02*X47780Y62970D01*
Y62411D02*X48034D01*
X48161Y62081D02*Y62284D01*
Y62538D02*Y62843D01*
Y62538D02*X48034Y62411D01*
X48161Y62284D02*X48034Y62411D01*
X48465Y62081D02*X48592Y61954D01*
X48846D01*
X48973Y62081D01*
X48846Y62970D02*X48973Y62843D01*
X48592Y62970D02*X48846D01*
X48465Y62843D02*X48592Y62970D01*
Y62411D02*X48846D01*
X48973Y62081D02*Y62284D01*
Y62538D02*Y62843D01*
Y62538D02*X48846Y62411D01*
X48973Y62284D02*X48846Y62411D01*
X36100Y61054D02*X36608D01*
X36354D02*Y62070D01*
X37040Y61054D02*Y62070D01*
X36913Y61054D02*X37421D01*
X37548Y61181D01*
Y61435D01*
X37421Y61562D02*X37548Y61435D01*
X37040Y61562D02*X37421D01*
X37853Y61181D02*X37980Y61054D01*
X38234D01*
X38361Y61181D01*
X38234Y62070D02*X38361Y61943D01*
X37980Y62070D02*X38234D01*
X37853Y61943D02*X37980Y62070D01*
Y61511D02*X38234D01*
X38361Y61181D02*Y61384D01*
Y61638D02*Y61943D01*
Y61638D02*X38234Y61511D01*
X38361Y61384D02*X38234Y61511D01*
X38792Y62070D02*X39173Y61562D01*
Y61181D02*Y61562D01*
X39046Y61054D02*X39173Y61181D01*
X38792Y61054D02*X39046D01*
X38665Y61181D02*X38792Y61054D01*
X38665Y61181D02*Y61435D01*
X38792Y61562D01*
X39173D01*
X26500Y16054D02*X27008D01*
X26754D02*Y17070D01*
X27440Y16054D02*Y17070D01*
X27313Y16054D02*X27821D01*
X27948Y16181D01*
Y16435D01*
X27821Y16562D02*X27948Y16435D01*
X27440Y16562D02*X27821D01*
X28253Y16257D02*X28456Y16054D01*
Y17070D01*
X28253D02*X28634D01*
X15000Y18154D02*X15508D01*
X15254D02*Y19170D01*
X15940Y18154D02*Y19170D01*
X15813Y18154D02*X16321D01*
X16448Y18281D01*
Y18535D01*
X16321Y18662D02*X16448Y18535D01*
X15940Y18662D02*X16321D01*
X16753Y18789D02*X17261Y18154D01*
X16753Y18789D02*X17388D01*
X17261Y18154D02*Y19170D01*
X27000Y43754D02*X27508D01*
X27254D02*Y44770D01*
X27940Y43754D02*Y44770D01*
X27813Y43754D02*X28321D01*
X28448Y43881D01*
Y44135D01*
X28321Y44262D02*X28448Y44135D01*
X27940Y44262D02*X28321D01*
X28753Y43881D02*X28880Y43754D01*
X29261D01*
X29388Y43881D01*
Y44135D01*
X28753Y44770D02*X29388Y44135D01*
X28753Y44770D02*X29388D01*
X29692Y43881D02*X29819Y43754D01*
X30073D01*
X30200Y43881D01*
X30073Y44770D02*X30200Y44643D01*
X29819Y44770D02*X30073D01*
X29692Y44643D02*X29819Y44770D01*
Y44211D02*X30073D01*
X30200Y43881D02*Y44084D01*
Y44338D02*Y44643D01*
Y44338D02*X30073Y44211D01*
X30200Y44084D02*X30073Y44211D01*
X10900Y37854D02*X11408D01*
X11154D02*Y38870D01*
X11840Y37854D02*Y38870D01*
X11713Y37854D02*X12221D01*
X12348Y37981D01*
Y38235D01*
X12221Y38362D02*X12348Y38235D01*
X11840Y38362D02*X12221D01*
X12653Y37981D02*X12780Y37854D01*
X13161D01*
X13288Y37981D01*
Y38235D01*
X12653Y38870D02*X13288Y38235D01*
X12653Y38870D02*X13288D01*
X13592Y37854D02*X14100D01*
X13592D02*Y38362D01*
X13719Y38235D01*
X13973D01*
X14100Y38362D01*
Y38743D01*
X13973Y38870D02*X14100Y38743D01*
X13719Y38870D02*X13973D01*
X13592Y38743D02*X13719Y38870D01*
X11000Y30454D02*X11508D01*
X11254D02*Y31470D01*
X11940Y30454D02*Y31470D01*
X11813Y30454D02*X12321D01*
X12448Y30581D01*
Y30835D01*
X12321Y30962D02*X12448Y30835D01*
X11940Y30962D02*X12321D01*
X12753Y30581D02*X12880Y30454D01*
X13134D01*
X13261Y30581D01*
X13134Y31470D02*X13261Y31343D01*
X12880Y31470D02*X13134D01*
X12753Y31343D02*X12880Y31470D01*
Y30911D02*X13134D01*
X13261Y30581D02*Y30784D01*
Y31038D02*Y31343D01*
Y31038D02*X13134Y30911D01*
X13261Y30784D02*X13134Y30911D01*
X13565Y31343D02*X13692Y31470D01*
X13565Y30581D02*Y31343D01*
Y30581D02*X13692Y30454D01*
X13946D01*
X14073Y30581D01*
Y31343D01*
X13946Y31470D02*X14073Y31343D01*
X13692Y31470D02*X13946D01*
X13565Y31216D02*X14073Y30708D01*
X11000Y55954D02*X11508D01*
X11254D02*Y56970D01*
X11940Y55954D02*Y56970D01*
X11813Y55954D02*X12321D01*
X12448Y56081D01*
Y56335D01*
X12321Y56462D02*X12448Y56335D01*
X11940Y56462D02*X12321D01*
X12753Y56589D02*X13261Y55954D01*
X12753Y56589D02*X13388D01*
X13261Y55954D02*Y56970D01*
X13692Y56843D02*X13819Y56970D01*
X13692Y56640D02*Y56843D01*
Y56640D02*X13870Y56462D01*
X14023D01*
X14200Y56640D01*
Y56843D01*
X14073Y56970D02*X14200Y56843D01*
X13819Y56970D02*X14073D01*
X13692Y56284D02*X13870Y56462D01*
X13692Y56081D02*Y56284D01*
Y56081D02*X13819Y55954D01*
X14073D01*
X14200Y56081D01*
Y56284D01*
X14023Y56462D02*X14200Y56284D01*
X11000Y48454D02*X11508D01*
X11254D02*Y49470D01*
X11940Y48454D02*Y49470D01*
X11813Y48454D02*X12321D01*
X12448Y48581D01*
Y48835D01*
X12321Y48962D02*X12448Y48835D01*
X11940Y48962D02*X12321D01*
X12753Y49089D02*X13261Y48454D01*
X12753Y49089D02*X13388D01*
X13261Y48454D02*Y49470D01*
X13819D02*X14200Y48962D01*
Y48581D02*Y48962D01*
X14073Y48454D02*X14200Y48581D01*
X13819Y48454D02*X14073D01*
X13692Y48581D02*X13819Y48454D01*
X13692Y48581D02*Y48835D01*
X13819Y48962D01*
X14200D01*
X70800Y55954D02*X71308D01*
X71054D02*Y56970D01*
X71740Y55954D02*Y56970D01*
X71613Y55954D02*X72121D01*
X72248Y56081D01*
Y56335D01*
X72121Y56462D02*X72248Y56335D01*
X71740Y56462D02*X72121D01*
X72553Y56081D02*X72680Y55954D01*
X72934D01*
X73061Y56081D01*
X72934Y56970D02*X73061Y56843D01*
X72680Y56970D02*X72934D01*
X72553Y56843D02*X72680Y56970D01*
Y56411D02*X72934D01*
X73061Y56081D02*Y56284D01*
Y56538D02*Y56843D01*
Y56538D02*X72934Y56411D01*
X73061Y56284D02*X72934Y56411D01*
X73365Y55954D02*X73873D01*
X73365D02*Y56462D01*
X73492Y56335D01*
X73746D01*
X73873Y56462D01*
Y56843D01*
X73746Y56970D02*X73873Y56843D01*
X73492Y56970D02*X73746D01*
X73365Y56843D02*X73492Y56970D01*
X70800Y48354D02*X71308D01*
X71054D02*Y49370D01*
X71740Y48354D02*Y49370D01*
X71613Y48354D02*X72121D01*
X72248Y48481D01*
Y48735D01*
X72121Y48862D02*X72248Y48735D01*
X71740Y48862D02*X72121D01*
X72553Y48481D02*X72680Y48354D01*
X72934D01*
X73061Y48481D01*
X72934Y49370D02*X73061Y49243D01*
X72680Y49370D02*X72934D01*
X72553Y49243D02*X72680Y49370D01*
Y48811D02*X72934D01*
X73061Y48481D02*Y48684D01*
Y48938D02*Y49243D01*
Y48938D02*X72934Y48811D01*
X73061Y48684D02*X72934Y48811D01*
X73365Y48481D02*X73492Y48354D01*
X73873D01*
X74000Y48481D01*
Y48735D01*
X73365Y49370D02*X74000Y48735D01*
X73365Y49370D02*X74000D01*
X56800Y60354D02*X57308D01*
X57054D02*Y61370D01*
X57740Y60354D02*Y61370D01*
X57613Y60354D02*X58121D01*
X58248Y60481D01*
Y60735D01*
X58121Y60862D02*X58248Y60735D01*
X57740Y60862D02*X58121D01*
X58553Y60989D02*X59061Y60354D01*
X58553Y60989D02*X59188D01*
X59061Y60354D02*Y61370D01*
X59492Y60989D02*X60000Y60354D01*
X59492Y60989D02*X60127D01*
X60000Y60354D02*Y61370D01*
X70800Y66454D02*X71308D01*
X71054D02*Y67470D01*
X71740Y66454D02*Y67470D01*
X71613Y66454D02*X72121D01*
X72248Y66581D01*
Y66835D01*
X72121Y66962D02*X72248Y66835D01*
X71740Y66962D02*X72121D01*
X72553Y66581D02*X72680Y66454D01*
X72934D01*
X73061Y66581D01*
X72934Y67470D02*X73061Y67343D01*
X72680Y67470D02*X72934D01*
X72553Y67343D02*X72680Y67470D01*
Y66911D02*X72934D01*
X73061Y66581D02*Y66784D01*
Y67038D02*Y67343D01*
Y67038D02*X72934Y66911D01*
X73061Y66784D02*X72934Y66911D01*
X73492Y67470D02*X74000Y66454D01*
X73365D02*X74000D01*
X45700Y69254D02*X46208D01*
X45954D02*Y70270D01*
X46640Y69254D02*Y70270D01*
X46513Y69254D02*X47021D01*
X47148Y69381D01*
Y69635D01*
X47021Y69762D02*X47148Y69635D01*
X46640Y69762D02*X47021D01*
X47453Y69254D02*X47961D01*
X47453D02*Y69762D01*
X47580Y69635D01*
X47834D01*
X47961Y69762D01*
Y70143D01*
X47834Y70270D02*X47961Y70143D01*
X47580Y70270D02*X47834D01*
X47453Y70143D02*X47580Y70270D01*
X48265Y70143D02*X48392Y70270D01*
X48265Y69940D02*Y70143D01*
Y69940D02*X48443Y69762D01*
X48596D01*
X48773Y69940D01*
Y70143D01*
X48646Y70270D02*X48773Y70143D01*
X48392Y70270D02*X48646D01*
X48265Y69584D02*X48443Y69762D01*
X48265Y69381D02*Y69584D01*
Y69381D02*X48392Y69254D01*
X48646D01*
X48773Y69381D01*
Y69584D01*
X48596Y69762D02*X48773Y69584D01*
X47500Y60354D02*X48008D01*
X47754D02*Y61370D01*
X48440Y60354D02*Y61370D01*
X48313Y60354D02*X48821D01*
X48948Y60481D01*
Y60735D01*
X48821Y60862D02*X48948Y60735D01*
X48440Y60862D02*X48821D01*
X49253Y60989D02*X49761Y60354D01*
X49253Y60989D02*X49888D01*
X49761Y60354D02*Y61370D01*
X50192Y60481D02*X50319Y60354D01*
X50700D01*
X50827Y60481D01*
Y60735D01*
X50192Y61370D02*X50827Y60735D01*
X50192Y61370D02*X50827D01*
X34700Y65754D02*X35208D01*
X34954D02*Y66770D01*
X35640Y65754D02*Y66770D01*
X35513Y65754D02*X36021D01*
X36148Y65881D01*
Y66135D01*
X36021Y66262D02*X36148Y66135D01*
X35640Y66262D02*X36021D01*
X36453Y65754D02*X36961D01*
X36453D02*Y66262D01*
X36580Y66135D01*
X36834D01*
X36961Y66262D01*
Y66643D01*
X36834Y66770D02*X36961Y66643D01*
X36580Y66770D02*X36834D01*
X36453Y66643D02*X36580Y66770D01*
X37392D02*X37900Y65754D01*
X37265D02*X37900D01*
X45500Y67354D02*X46008D01*
X45754D02*Y68370D01*
X46440Y67354D02*Y68370D01*
X46313Y67354D02*X46821D01*
X46948Y67481D01*
Y67735D01*
X46821Y67862D02*X46948Y67735D01*
X46440Y67862D02*X46821D01*
X47253Y67481D02*X47380Y67354D01*
X47761D01*
X47888Y67481D01*
Y67735D01*
X47253Y68370D02*X47888Y67735D01*
X47253Y68370D02*X47888D01*
X48192Y68243D02*X48319Y68370D01*
X48192Y67481D02*Y68243D01*
Y67481D02*X48319Y67354D01*
X48573D01*
X48700Y67481D01*
Y68243D01*
X48573Y68370D02*X48700Y68243D01*
X48319Y68370D02*X48573D01*
X48192Y68116D02*X48700Y67608D01*
X49600Y67354D02*X50108D01*
X49854D02*Y68370D01*
X50540Y67354D02*Y68370D01*
X50413Y67354D02*X50921D01*
X51048Y67481D01*
Y67735D01*
X50921Y67862D02*X51048Y67735D01*
X50540Y67862D02*X50921D01*
X51353Y67481D02*X51480Y67354D01*
X51861D01*
X51988Y67481D01*
Y67735D01*
X51353Y68370D02*X51988Y67735D01*
X51353Y68370D02*X51988D01*
X52673Y67354D02*X52800Y67481D01*
X52419Y67354D02*X52673D01*
X52292Y67481D02*X52419Y67354D01*
X52292Y67481D02*Y68243D01*
X52419Y68370D01*
X52673Y67811D02*X52800Y67938D01*
X52292Y67811D02*X52673D01*
X52419Y68370D02*X52673D01*
X52800Y68243D01*
Y67938D02*Y68243D01*
X42000Y65254D02*X42508D01*
X42254D02*Y66270D01*
X42940Y65254D02*Y66270D01*
X42813Y65254D02*X43321D01*
X43448Y65381D01*
Y65635D01*
X43321Y65762D02*X43448Y65635D01*
X42940Y65762D02*X43321D01*
X43753Y65381D02*X43880Y65254D01*
X44134D01*
X44261Y65381D01*
X44134Y66270D02*X44261Y66143D01*
X43880Y66270D02*X44134D01*
X43753Y66143D02*X43880Y66270D01*
Y65711D02*X44134D01*
X44261Y65381D02*Y65584D01*
Y65838D02*Y66143D01*
Y65838D02*X44134Y65711D01*
X44261Y65584D02*X44134Y65711D01*
X44565Y65457D02*X44769Y65254D01*
Y66270D01*
X44565D02*X44946D01*
X50700Y30454D02*X51208D01*
X50954D02*Y31470D01*
X51640Y30454D02*Y31470D01*
X51513Y30454D02*X52021D01*
X52148Y30581D01*
Y30835D01*
X52021Y30962D02*X52148Y30835D01*
X51640Y30962D02*X52021D01*
X52453Y30581D02*X52580Y30454D01*
X52961D01*
X53088Y30581D01*
Y30835D01*
X52453Y31470D02*X53088Y30835D01*
X52453Y31470D02*X53088D01*
X54600Y43754D02*X55108D01*
X54854D02*Y44770D01*
X55540Y43754D02*Y44770D01*
X55413Y43754D02*X55921D01*
X56048Y43881D01*
Y44135D01*
X55921Y44262D02*X56048Y44135D01*
X55540Y44262D02*X55921D01*
X56353Y43957D02*X56556Y43754D01*
Y44770D01*
X56353D02*X56734D01*
X57038Y44643D02*X57165Y44770D01*
X57038Y44440D02*Y44643D01*
Y44440D02*X57216Y44262D01*
X57369D01*
X57546Y44440D01*
Y44643D01*
X57419Y44770D02*X57546Y44643D01*
X57165Y44770D02*X57419D01*
X57038Y44084D02*X57216Y44262D01*
X57038Y43881D02*Y44084D01*
Y43881D02*X57165Y43754D01*
X57419D01*
X57546Y43881D01*
Y44084D01*
X57369Y44262D02*X57546Y44084D01*
X70800Y37854D02*X71308D01*
X71054D02*Y38870D01*
X71740Y37854D02*Y38870D01*
X71613Y37854D02*X72121D01*
X72248Y37981D01*
Y38235D01*
X72121Y38362D02*X72248Y38235D01*
X71740Y38362D02*X72121D01*
X72553Y37981D02*X72680Y37854D01*
X73061D01*
X73188Y37981D01*
Y38235D01*
X72553Y38870D02*X73188Y38235D01*
X72553Y38870D02*X73188D01*
X73492Y38489D02*X74000Y37854D01*
X73492Y38489D02*X74127D01*
X74000Y37854D02*Y38870D01*
X70800Y30354D02*X71308D01*
X71054D02*Y31370D01*
X71740Y30354D02*Y31370D01*
X71613Y30354D02*X72121D01*
X72248Y30481D01*
Y30735D01*
X72121Y30862D02*X72248Y30735D01*
X71740Y30862D02*X72121D01*
X72553Y30557D02*X72756Y30354D01*
Y31370D01*
X72553D02*X72934D01*
X73365D02*X73746Y30862D01*
Y30481D02*Y30862D01*
X73619Y30354D02*X73746Y30481D01*
X73365Y30354D02*X73619D01*
X73238Y30481D02*X73365Y30354D01*
X73238Y30481D02*Y30735D01*
X73365Y30862D01*
X73746D01*
X51700Y61854D02*X52208D01*
X51954D02*Y62870D01*
X52640Y61854D02*Y62870D01*
X52513Y61854D02*X53021D01*
X53148Y61981D01*
Y62235D01*
X53021Y62362D02*X53148Y62235D01*
X52640Y62362D02*X53021D01*
X53453Y62489D02*X53961Y61854D01*
X53453Y62489D02*X54088D01*
X53961Y61854D02*Y62870D01*
X54392Y62057D02*X54596Y61854D01*
Y62870D01*
X54392D02*X54773D01*
X54600Y57754D02*X55108D01*
X54854D02*Y58770D01*
X55540Y57754D02*Y58770D01*
X55413Y57754D02*X55921D01*
X56048Y57881D01*
Y58135D01*
X55921Y58262D02*X56048Y58135D01*
X55540Y58262D02*X55921D01*
X56353Y57881D02*X56480Y57754D01*
X56861D01*
X56988Y57881D01*
Y58135D01*
X56353Y58770D02*X56988Y58135D01*
X56353Y58770D02*X56988D01*
X57419D02*X57800Y58262D01*
Y57881D02*Y58262D01*
X57673Y57754D02*X57800Y57881D01*
X57419Y57754D02*X57673D01*
X57292Y57881D02*X57419Y57754D01*
X57292Y57881D02*Y58135D01*
X57419Y58262D01*
X57800D01*
X12600Y82154D02*X13108D01*
X12854D02*Y83170D01*
X13540Y82154D02*Y83170D01*
X13413Y82154D02*X13921D01*
X14048Y82281D01*
Y82535D01*
X13921Y82662D02*X14048Y82535D01*
X13540Y82662D02*X13921D01*
X14353Y82154D02*X14861D01*
X14353D02*Y82662D01*
X14480Y82535D01*
X14734D01*
X14861Y82662D01*
Y83043D01*
X14734Y83170D02*X14861Y83043D01*
X14480Y83170D02*X14734D01*
X14353Y83043D02*X14480Y83170D01*
X15165Y83043D02*X15292Y83170D01*
X15165Y82281D02*Y83043D01*
Y82281D02*X15292Y82154D01*
X15546D01*
X15673Y82281D01*
Y83043D01*
X15546Y83170D02*X15673Y83043D01*
X15292Y83170D02*X15546D01*
X15165Y82916D02*X15673Y82408D01*
X12600Y80054D02*X13108D01*
X12854D02*Y81070D01*
X13540Y80054D02*Y81070D01*
X13413Y80054D02*X13921D01*
X14048Y80181D01*
Y80435D01*
X13921Y80562D02*X14048Y80435D01*
X13540Y80562D02*X13921D01*
X14353Y80181D02*X14480Y80054D01*
X14734D01*
X14861Y80181D01*
X14734Y81070D02*X14861Y80943D01*
X14480Y81070D02*X14734D01*
X14353Y80943D02*X14480Y81070D01*
Y80511D02*X14734D01*
X14861Y80181D02*Y80384D01*
Y80638D02*Y80943D01*
Y80638D02*X14734Y80511D01*
X14861Y80384D02*X14734Y80511D01*
X15546Y80054D02*X15673Y80181D01*
X15292Y80054D02*X15546D01*
X15165Y80181D02*X15292Y80054D01*
X15165Y80181D02*Y80943D01*
X15292Y81070D01*
X15546Y80511D02*X15673Y80638D01*
X15165Y80511D02*X15546D01*
X15292Y81070D02*X15546D01*
X15673Y80943D01*
Y80638D02*Y80943D01*
X11000Y73854D02*X11508D01*
X11254D02*Y74870D01*
X11940Y73854D02*Y74870D01*
X11813Y73854D02*X12321D01*
X12448Y73981D01*
Y74235D01*
X12321Y74362D02*X12448Y74235D01*
X11940Y74362D02*X12321D01*
X12753Y74489D02*X13261Y73854D01*
X12753Y74489D02*X13388D01*
X13261Y73854D02*Y74870D01*
X13692Y73981D02*X13819Y73854D01*
X14073D01*
X14200Y73981D01*
X14073Y74870D02*X14200Y74743D01*
X13819Y74870D02*X14073D01*
X13692Y74743D02*X13819Y74870D01*
Y74311D02*X14073D01*
X14200Y73981D02*Y74184D01*
Y74438D02*Y74743D01*
Y74438D02*X14073Y74311D01*
X14200Y74184D02*X14073Y74311D01*
X11000Y66454D02*X11508D01*
X11254D02*Y67470D01*
X11940Y66454D02*Y67470D01*
X11813Y66454D02*X12321D01*
X12448Y66581D01*
Y66835D01*
X12321Y66962D02*X12448Y66835D01*
X11940Y66962D02*X12321D01*
X12753Y67089D02*X13261Y66454D01*
X12753Y67089D02*X13388D01*
X13261Y66454D02*Y67470D01*
X13819D02*X14327Y66454D01*
X13692D02*X14327D01*
X31200Y69254D02*X31708D01*
X31454D02*Y70270D01*
X32140Y69254D02*Y70270D01*
X32013Y69254D02*X32521D01*
X32648Y69381D01*
Y69635D01*
X32521Y69762D02*X32648Y69635D01*
X32140Y69762D02*X32521D01*
X32953Y69457D02*X33156Y69254D01*
Y70270D01*
X32953D02*X33334D01*
X33638Y69457D02*X33842Y69254D01*
Y70270D01*
X33638D02*X34019D01*
X31700Y88054D02*X32208D01*
X31954D02*Y89070D01*
X32640Y88054D02*Y89070D01*
X32513Y88054D02*X33021D01*
X33148Y88181D01*
Y88435D01*
X33021Y88562D02*X33148Y88435D01*
X32640Y88562D02*X33021D01*
X33453Y88257D02*X33656Y88054D01*
Y89070D01*
X33453D02*X33834D01*
X34519Y88054D02*X34646Y88181D01*
X34265Y88054D02*X34519D01*
X34138Y88181D02*X34265Y88054D01*
X34138Y88181D02*Y88943D01*
X34265Y89070D01*
X34519Y88511D02*X34646Y88638D01*
X34138Y88511D02*X34519D01*
X34265Y89070D02*X34519D01*
X34646Y88943D01*
Y88638D02*Y88943D01*
X27100Y67954D02*X27608D01*
X27354D02*Y68970D01*
X28040Y67954D02*Y68970D01*
X27913Y67954D02*X28421D01*
X28548Y68081D01*
Y68335D01*
X28421Y68462D02*X28548Y68335D01*
X28040Y68462D02*X28421D01*
X28853Y68157D02*X29056Y67954D01*
Y68970D01*
X28853D02*X29234D01*
X29538Y68589D02*X30046Y67954D01*
X29538Y68589D02*X30173D01*
X30046Y67954D02*Y68970D01*
X27150Y66204D02*X27658D01*
X27404D02*Y67220D01*
X28090Y66204D02*Y67220D01*
X27963Y66204D02*X28471D01*
X28598Y66331D01*
Y66585D01*
X28471Y66712D02*X28598Y66585D01*
X28090Y66712D02*X28471D01*
X28903Y66407D02*X29106Y66204D01*
Y67220D01*
X28903D02*X29284D01*
X29588Y66331D02*X29715Y66204D01*
X29969D01*
X30096Y66331D01*
X29969Y67220D02*X30096Y67093D01*
X29715Y67220D02*X29969D01*
X29588Y67093D02*X29715Y67220D01*
Y66661D02*X29969D01*
X30096Y66331D02*Y66534D01*
Y66788D02*Y67093D01*
Y66788D02*X29969Y66661D01*
X30096Y66534D02*X29969Y66661D01*
X18300Y77854D02*X18808D01*
X18554D02*Y78870D01*
X19240Y77854D02*Y78870D01*
X19113Y77854D02*X19621D01*
X19748Y77981D01*
Y78235D01*
X19621Y78362D02*X19748Y78235D01*
X19240Y78362D02*X19621D01*
X20053Y77981D02*X20180Y77854D01*
X20561D01*
X20688Y77981D01*
Y78235D01*
X20053Y78870D02*X20688Y78235D01*
X20053Y78870D02*X20688D01*
X20992Y77981D02*X21119Y77854D01*
X21500D01*
X21627Y77981D01*
Y78235D01*
X20992Y78870D02*X21627Y78235D01*
X20992Y78870D02*X21627D01*
X20200Y72754D02*X20708D01*
X20454D02*Y73770D01*
X21140Y72754D02*Y73770D01*
X21013Y72754D02*X21521D01*
X21648Y72881D01*
Y73135D01*
X21521Y73262D02*X21648Y73135D01*
X21140Y73262D02*X21521D01*
X21953Y72881D02*X22080Y72754D01*
X22334D01*
X22461Y72881D01*
X22334Y73770D02*X22461Y73643D01*
X22080Y73770D02*X22334D01*
X21953Y73643D02*X22080Y73770D01*
Y73211D02*X22334D01*
X22461Y72881D02*Y73084D01*
Y73338D02*Y73643D01*
Y73338D02*X22334Y73211D01*
X22461Y73084D02*X22334Y73211D01*
X22765Y73389D02*X23273Y72754D01*
X22765Y73389D02*X23400D01*
X23273Y72754D02*Y73770D01*
X17700Y91254D02*X18208D01*
X17954D02*Y92270D01*
X18640Y91254D02*Y92270D01*
X18513Y91254D02*X19021D01*
X19148Y91381D01*
Y91635D01*
X19021Y91762D02*X19148Y91635D01*
X18640Y91762D02*X19021D01*
X19453Y91457D02*X19656Y91254D01*
Y92270D01*
X19453D02*X19834D01*
X20138Y92143D02*X20265Y92270D01*
X20138Y91381D02*Y92143D01*
Y91381D02*X20265Y91254D01*
X20519D01*
X20646Y91381D01*
Y92143D01*
X20519Y92270D02*X20646Y92143D01*
X20265Y92270D02*X20519D01*
X20138Y92016D02*X20646Y91508D01*
X38100Y74254D02*X38608D01*
X38354D02*Y75270D01*
X39040Y74254D02*Y75270D01*
X38913Y74254D02*X39421D01*
X39548Y74381D01*
Y74635D01*
X39421Y74762D02*X39548Y74635D01*
X39040Y74762D02*X39421D01*
X39853Y74254D02*X40361D01*
X39853D02*Y74762D01*
X39980Y74635D01*
X40234D01*
X40361Y74762D01*
Y75143D01*
X40234Y75270D02*X40361Y75143D01*
X39980Y75270D02*X40234D01*
X39853Y75143D02*X39980Y75270D01*
X40665Y74381D02*X40792Y74254D01*
X41046D01*
X41173Y74381D01*
X41046Y75270D02*X41173Y75143D01*
X40792Y75270D02*X41046D01*
X40665Y75143D02*X40792Y75270D01*
Y74711D02*X41046D01*
X41173Y74381D02*Y74584D01*
Y74838D02*Y75143D01*
Y74838D02*X41046Y74711D01*
X41173Y74584D02*X41046Y74711D01*
X55700Y78154D02*X56208D01*
X55954D02*Y79170D01*
X56640Y78154D02*Y79170D01*
X56513Y78154D02*X57021D01*
X57148Y78281D01*
Y78535D01*
X57021Y78662D02*X57148Y78535D01*
X56640Y78662D02*X57021D01*
X57453Y78154D02*X57961D01*
X57453D02*Y78662D01*
X57580Y78535D01*
X57834D01*
X57961Y78662D01*
Y79043D01*
X57834Y79170D02*X57961Y79043D01*
X57580Y79170D02*X57834D01*
X57453Y79043D02*X57580Y79170D01*
X58265Y78154D02*X58773D01*
X58265D02*Y78662D01*
X58392Y78535D01*
X58646D01*
X58773Y78662D01*
Y79043D01*
X58646Y79170D02*X58773Y79043D01*
X58392Y79170D02*X58646D01*
X58265Y79043D02*X58392Y79170D01*
X54800Y73754D02*X55308D01*
X55054D02*Y74770D01*
X55740Y73754D02*Y74770D01*
X55613Y73754D02*X56121D01*
X56248Y73881D01*
Y74135D01*
X56121Y74262D02*X56248Y74135D01*
X55740Y74262D02*X56121D01*
X56553Y73754D02*X57061D01*
X56553D02*Y74262D01*
X56680Y74135D01*
X56934D01*
X57061Y74262D01*
Y74643D01*
X56934Y74770D02*X57061Y74643D01*
X56680Y74770D02*X56934D01*
X56553Y74643D02*X56680Y74770D01*
X57746Y73754D02*X57873Y73881D01*
X57492Y73754D02*X57746D01*
X57365Y73881D02*X57492Y73754D01*
X57365Y73881D02*Y74643D01*
X57492Y74770D01*
X57746Y74211D02*X57873Y74338D01*
X57365Y74211D02*X57746D01*
X57492Y74770D02*X57746D01*
X57873Y74643D01*
Y74338D02*Y74643D01*
X54200Y69254D02*X54708D01*
X54454D02*Y70270D01*
X55140Y69254D02*Y70270D01*
X55013Y69254D02*X55521D01*
X55648Y69381D01*
Y69635D01*
X55521Y69762D02*X55648Y69635D01*
X55140Y69762D02*X55521D01*
X55953Y69254D02*X56461D01*
X55953D02*Y69762D01*
X56080Y69635D01*
X56334D01*
X56461Y69762D01*
Y70143D01*
X56334Y70270D02*X56461Y70143D01*
X56080Y70270D02*X56334D01*
X55953Y70143D02*X56080Y70270D01*
X56765Y69457D02*X56969Y69254D01*
Y70270D01*
X56765D02*X57146D01*
X61000Y69454D02*X61508D01*
X61254D02*Y70470D01*
X61940Y69454D02*Y70470D01*
X61813Y69454D02*X62321D01*
X62448Y69581D01*
Y69835D01*
X62321Y69962D02*X62448Y69835D01*
X61940Y69962D02*X62321D01*
X62753Y69581D02*X62880Y69454D01*
X63261D01*
X63388Y69581D01*
Y69835D01*
X62753Y70470D02*X63388Y69835D01*
X62753Y70470D02*X63388D01*
X63692Y69657D02*X63896Y69454D01*
Y70470D01*
X63692D02*X64073D01*
X31700Y85554D02*X32208D01*
X31954D02*Y86570D01*
X32640Y85554D02*Y86570D01*
X32513Y85554D02*X33021D01*
X33148Y85681D01*
Y85935D01*
X33021Y86062D02*X33148Y85935D01*
X32640Y86062D02*X33021D01*
X33453Y85757D02*X33656Y85554D01*
Y86570D01*
X33453D02*X33834D01*
X34138Y85554D02*X34646D01*
X34138D02*Y86062D01*
X34265Y85935D01*
X34519D01*
X34646Y86062D01*
Y86443D01*
X34519Y86570D02*X34646Y86443D01*
X34265Y86570D02*X34519D01*
X34138Y86443D02*X34265Y86570D01*
X31800Y82754D02*X32308D01*
X32054D02*Y83770D01*
X32740Y82754D02*Y83770D01*
X32613Y82754D02*X33121D01*
X33248Y82881D01*
Y83135D01*
X33121Y83262D02*X33248Y83135D01*
X32740Y83262D02*X33121D01*
X33553Y82957D02*X33756Y82754D01*
Y83770D01*
X33553D02*X33934D01*
X34365D02*X34873Y82754D01*
X34238D02*X34873D01*
X44200Y74254D02*X44708D01*
X44454D02*Y75270D01*
X45140Y74254D02*Y75270D01*
X45013Y74254D02*X45521D01*
X45648Y74381D01*
Y74635D01*
X45521Y74762D02*X45648Y74635D01*
X45140Y74762D02*X45521D01*
X45953Y74254D02*X46461D01*
X45953D02*Y74762D01*
X46080Y74635D01*
X46334D01*
X46461Y74762D01*
Y75143D01*
X46334Y75270D02*X46461Y75143D01*
X46080Y75270D02*X46334D01*
X45953Y75143D02*X46080Y75270D01*
X46765Y74889D02*X47273Y74254D01*
X46765Y74889D02*X47400D01*
X47273Y74254D02*Y75270D01*
X70800Y73854D02*X71308D01*
X71054D02*Y74870D01*
X71740Y73854D02*Y74870D01*
X71613Y73854D02*X72121D01*
X72248Y73981D01*
Y74235D01*
X72121Y74362D02*X72248Y74235D01*
X71740Y74362D02*X72121D01*
X72553Y74489D02*X73061Y73854D01*
X72553Y74489D02*X73188D01*
X73061Y73854D02*Y74870D01*
X73492Y74743D02*X73619Y74870D01*
X73492Y73981D02*Y74743D01*
Y73981D02*X73619Y73854D01*
X73873D01*
X74000Y73981D01*
Y74743D01*
X73873Y74870D02*X74000Y74743D01*
X73619Y74870D02*X73873D01*
X73492Y74616D02*X74000Y74108D01*
X61000Y67754D02*X61508D01*
X61254D02*Y68770D01*
X61940Y67754D02*Y68770D01*
X61813Y67754D02*X62321D01*
X62448Y67881D01*
Y68135D01*
X62321Y68262D02*X62448Y68135D01*
X61940Y68262D02*X62321D01*
X62753Y68389D02*X63261Y67754D01*
X62753Y68389D02*X63388D01*
X63261Y67754D02*Y68770D01*
X64073Y67754D02*X64200Y67881D01*
X63819Y67754D02*X64073D01*
X63692Y67881D02*X63819Y67754D01*
X63692Y67881D02*Y68643D01*
X63819Y68770D01*
X64073Y68211D02*X64200Y68338D01*
X63692Y68211D02*X64073D01*
X63819Y68770D02*X64073D01*
X64200Y68643D01*
Y68338D02*Y68643D01*
X60500Y78154D02*X61008D01*
X60754D02*Y79170D01*
X61440Y78154D02*Y79170D01*
X61313Y78154D02*X61821D01*
X61948Y78281D01*
Y78535D01*
X61821Y78662D02*X61948Y78535D01*
X61440Y78662D02*X61821D01*
X62253Y78154D02*X62761D01*
X62253D02*Y78662D01*
X62380Y78535D01*
X62634D01*
X62761Y78662D01*
Y79043D01*
X62634Y79170D02*X62761Y79043D01*
X62380Y79170D02*X62634D01*
X62253Y79043D02*X62380Y79170D01*
X63065Y78281D02*X63192Y78154D01*
X63573D01*
X63700Y78281D01*
Y78535D01*
X63065Y79170D02*X63700Y78535D01*
X63065Y79170D02*X63700D01*
X61000Y72354D02*X61508D01*
X61254D02*Y73370D01*
X61940Y72354D02*Y73370D01*
X61813Y72354D02*X62321D01*
X62448Y72481D01*
Y72735D01*
X62321Y72862D02*X62448Y72735D01*
X61940Y72862D02*X62321D01*
X62753Y72481D02*X62880Y72354D01*
X63261D01*
X63388Y72481D01*
Y72735D01*
X62753Y73370D02*X63388Y72735D01*
X62753Y73370D02*X63388D01*
X63819D02*X64327Y72354D01*
X63692D02*X64327D01*
X64000Y74254D02*X64508D01*
X64254D02*Y75270D01*
X64940Y74254D02*Y75270D01*
X64813Y74254D02*X65321D01*
X65448Y74381D01*
Y74635D01*
X65321Y74762D02*X65448Y74635D01*
X64940Y74762D02*X65321D01*
X65753Y74381D02*X65880Y74254D01*
X66261D01*
X66388Y74381D01*
Y74635D01*
X65753Y75270D02*X66388Y74635D01*
X65753Y75270D02*X66388D01*
X66692Y75143D02*X66819Y75270D01*
X66692Y74940D02*Y75143D01*
Y74940D02*X66870Y74762D01*
X67023D01*
X67200Y74940D01*
Y75143D01*
X67073Y75270D02*X67200Y75143D01*
X66819Y75270D02*X67073D01*
X66692Y74584D02*X66870Y74762D01*
X66692Y74381D02*Y74584D01*
Y74381D02*X66819Y74254D01*
X67073D01*
X67200Y74381D01*
Y74584D01*
X67023Y74762D02*X67200Y74584D01*
M02*
