G04 start of page 12 for group -4079 idx -4079 *
G04 Title: (unknown), topsilk *
G04 Creator: pcb 1.99z *
G04 CreationDate: Tue 02 Sep 2014 22:09:50 GMT UTC *
G04 For: rbarlow *
G04 Format: Gerber/RS-274X *
G04 PCB-Dimensions (mm): 85.00 105.00 *
G04 PCB-Coordinate-Origin: lower left *
%MOMM*%
%FSLAX43Y43*%
%LNTOPSILK*%
%ADD201C,0.350*%
%ADD200C,0.250*%
%ADD199C,0.300*%
%ADD198C,0.200*%
%ADD197C,0.500*%
%ADD196C,0.150*%
%ADD195C,0.002*%
G54D195*G36*
X64694Y29903D02*X65193D01*
X65388Y29863D01*
X65547Y29754D01*
X65656Y29594D01*
X65696Y29400D01*
Y27407D01*
X65656Y27212D01*
X65547Y27052D01*
X65388Y26943D01*
X65193Y26904D01*
X64694D01*
Y27495D01*
X65317D01*
Y27734D01*
X64760D01*
Y28042D01*
X65317D01*
Y28289D01*
X64694D01*
Y28500D01*
X64700Y28500D01*
X64977Y28524D01*
X65175Y28598D01*
X65294Y28726D01*
X65334Y28907D01*
X65294Y29086D01*
X65175Y29215D01*
X64977Y29288D01*
X64700Y29312D01*
X64694Y29311D01*
Y29903D01*
G37*
G36*
X63694Y27407D02*Y29400D01*
X63732Y29594D01*
X63842Y29754D01*
X64001Y29863D01*
X64197Y29903D01*
X64694D01*
Y29311D01*
X64416Y29288D01*
X64215Y29215D01*
X64093Y29086D01*
X64055Y28907D01*
X64093Y28726D01*
X64215Y28598D01*
X64416Y28524D01*
X64694Y28500D01*
Y28289D01*
X64082D01*
Y28042D01*
X64550D01*
Y27734D01*
X64082D01*
Y27495D01*
X64694D01*
Y26904D01*
X64197D01*
X64001Y26943D01*
X63842Y27052D01*
X63732Y27212D01*
X63694Y27407D01*
G37*
G36*
X64695Y29073D02*X64700Y29073D01*
X64893Y29061D01*
X65025Y29029D01*
X65104Y28980D01*
X65131Y28907D01*
X65104Y28832D01*
X65025Y28783D01*
X64893Y28755D01*
X64700Y28748D01*
X64695Y28748D01*
Y28811D01*
X64700Y28809D01*
X64770Y28836D01*
X64796Y28907D01*
X64770Y28977D01*
X64700Y29013D01*
X64695Y29011D01*
Y29073D01*
G37*
G36*
X64267Y28907D02*X64289Y28980D01*
X64364Y29029D01*
X64500Y29061D01*
X64695Y29073D01*
Y29011D01*
X64620Y28977D01*
X64594Y28907D01*
X64620Y28836D01*
X64695Y28811D01*
Y28748D01*
X64500Y28755D01*
X64364Y28783D01*
X64289Y28832D01*
X64267Y28907D01*
G37*
G36*
X35316Y87345D02*X35691D01*
X35885Y87307D01*
X36045Y87203D01*
X36152Y87046D01*
X36193Y86851D01*
Y85942D01*
X36152Y85749D01*
X36045Y85592D01*
X35885Y85487D01*
X35691Y85448D01*
X35316D01*
Y85793D01*
X35487D01*
X35779Y87028D01*
X35531D01*
X35320Y85995D01*
X35316Y86014D01*
Y87345D01*
G37*
G36*
X34301Y86370D02*X34394Y86339D01*
X34456Y86190D01*
X34394Y86030D01*
X34307Y85987D01*
X34301Y85986D01*
Y86370D01*
G37*
G36*
Y87345D02*X35316D01*
Y86014D01*
X35100Y87028D01*
X34853D01*
X35152Y85793D01*
X35316D01*
Y85448D01*
X34301D01*
Y85776D01*
X34425Y85796D01*
X34571Y85881D01*
X34663Y86015D01*
X34693Y86190D01*
X34664Y86357D01*
X34579Y86489D01*
X34445Y86576D01*
X34301Y86600D01*
Y86807D01*
X34623D01*
Y87028D01*
X34301D01*
Y87345D01*
G37*
G36*
Y86600D02*X34280Y86603D01*
X34208Y86595D01*
X34147Y86577D01*
Y86807D01*
X34301D01*
Y86600D01*
G37*
G36*
X33997Y87345D02*X34301D01*
Y87028D01*
X33953D01*
Y86339D01*
X34085Y86383D01*
X34208Y86401D01*
X34301Y86370D01*
Y85986D01*
X34192Y85969D01*
X34050Y85986D01*
X33909Y86040D01*
Y85819D01*
X34076Y85783D01*
X34236Y85765D01*
X34301Y85776D01*
Y85448D01*
X33997D01*
X33802Y85487D01*
X33642Y85592D01*
X33533Y85749D01*
X33494Y85942D01*
Y86851D01*
X33533Y87046D01*
X33642Y87203D01*
X33802Y87307D01*
X33997Y87345D01*
G37*
G36*
X21195Y73551D02*Y71558D01*
X21157Y71364D01*
X21048Y71204D01*
X20888Y71095D01*
X20692Y71055D01*
X20181D01*
Y71838D01*
X20207Y71815D01*
X20349Y71727D01*
X20482Y71699D01*
X20626Y71729D01*
X20737Y71815D01*
X20804Y71948D01*
X20825Y72123D01*
X20808Y72282D01*
X20754Y72458D01*
X20534D01*
X20604Y72290D01*
X20632Y72140D01*
X20588Y71999D01*
X20464Y71947D01*
X20349Y71973D01*
X20225Y72061D01*
X20181Y72103D01*
Y73164D01*
X20799D01*
Y73411D01*
X20181D01*
Y74054D01*
X20692D01*
X20888Y74015D01*
X21048Y73907D01*
X21157Y73747D01*
X21195Y73551D01*
G37*
G36*
X20181Y71055D02*X19696D01*
X19502Y71095D01*
X19342Y71204D01*
X19233Y71364D01*
X19193Y71558D01*
Y73551D01*
X19233Y73747D01*
X19342Y73907D01*
X19502Y74015D01*
X19696Y74054D01*
X20181D01*
Y73411D01*
X19564D01*
Y72643D01*
X19784D01*
Y73164D01*
X20181D01*
Y72103D01*
X20119Y72161D01*
X19916Y72352D01*
X19776Y72484D01*
X19564D01*
Y71699D01*
X19784D01*
Y72220D01*
X19953Y72052D01*
X20115Y71896D01*
X20181Y71838D01*
Y71055D01*
G37*
G36*
X21200Y38551D02*Y36558D01*
X21161Y36364D01*
X21052Y36204D01*
X20892Y36095D01*
X20697Y36056D01*
X20194D01*
Y36903D01*
X20811D01*
Y37140D01*
X20751Y37396D01*
X20530D01*
X20591Y37140D01*
X20194D01*
Y37687D01*
X20811D01*
Y37926D01*
X20344D01*
Y38234D01*
X20811D01*
Y38481D01*
X20194D01*
Y39054D01*
X20697D01*
X20892Y39015D01*
X21052Y38907D01*
X21161Y38747D01*
X21200Y38551D01*
G37*
G36*
X20194Y36056D02*X19700D01*
X19506Y36095D01*
X19346Y36204D01*
X19238Y36364D01*
X19198Y36558D01*
Y38551D01*
X19238Y38747D01*
X19346Y38907D01*
X19506Y39015D01*
X19700Y39054D01*
X20194D01*
Y38481D01*
X19577D01*
Y38234D01*
X20124D01*
Y37926D01*
X19577D01*
Y37687D01*
X20194D01*
Y37140D01*
X19797D01*
Y37414D01*
X19577D01*
Y36638D01*
X19797D01*
Y36903D01*
X20194D01*
Y36056D01*
G37*
G36*
X21195Y56559D02*Y54557D01*
X21157Y54363D01*
X21048Y54203D01*
X20888Y54094D01*
X20692Y54054D01*
X20199D01*
Y54870D01*
X20243Y54954D01*
X20340Y54777D01*
X20516Y54715D01*
X20653Y54741D01*
X20754Y54822D01*
X20816Y54955D01*
X20834Y55130D01*
X20825Y55289D01*
X20781Y55457D01*
X20560D01*
X20614Y55289D01*
X20632Y55140D01*
X20588Y54998D01*
X20482Y54945D01*
X20384Y54998D01*
X20349Y55140D01*
Y55272D01*
X20199D01*
Y56180D01*
X20816D01*
Y56427D01*
X20199D01*
Y57053D01*
X20692D01*
X20888Y57015D01*
X21048Y56911D01*
X21157Y56753D01*
X21195Y56559D01*
G37*
G36*
X20199Y54054D02*X19696D01*
X19502Y54094D01*
X19342Y54203D01*
X19233Y54363D01*
X19193Y54557D01*
Y56559D01*
X19233Y56753D01*
X19342Y56911D01*
X19502Y57015D01*
X19696Y57053D01*
X20199D01*
Y56427D01*
X19582D01*
Y55659D01*
X19794D01*
Y56180D01*
X20199D01*
Y55272D01*
X20129D01*
Y55140D01*
X20120Y55048D01*
X20085Y54980D01*
X19935Y54919D01*
X19811Y54980D01*
X19766Y55130D01*
X19784Y55324D01*
X19846Y55492D01*
X19618D01*
X19574Y55316D01*
X19556Y55130D01*
X19582Y54937D01*
X19652Y54795D01*
X19769Y54710D01*
X19926Y54681D01*
X20137Y54751D01*
X20199Y54870D01*
Y54054D01*
G37*
G36*
X27327Y71401D02*X27543D01*
X27738Y71362D01*
X27897Y71253D01*
X28006Y71094D01*
X28046Y70898D01*
Y69892D01*
X28006Y69699D01*
X27897Y69542D01*
X27738Y69437D01*
X27543Y69398D01*
X27327D01*
Y70404D01*
X27666D01*
Y70625D01*
X27327D01*
Y70890D01*
X27710D01*
Y71100D01*
X27327D01*
Y71401D01*
G37*
G36*
Y70625D02*X27190D01*
Y70890D01*
X27327D01*
Y70625D01*
G37*
G36*
X26313Y71401D02*X27327D01*
Y71100D01*
X26944D01*
Y69866D01*
X27190D01*
Y70404D01*
X27327D01*
Y69398D01*
X26313D01*
Y70404D01*
X26643D01*
Y70625D01*
X26313D01*
Y70890D01*
X26696D01*
Y71100D01*
X26313D01*
Y71401D01*
G37*
G36*
Y70625D02*X26166D01*
Y70890D01*
X26313D01*
Y70625D01*
G37*
G36*
X25267Y71401D02*X26313D01*
Y71100D01*
X25930D01*
Y69866D01*
X26166D01*
Y70404D01*
X26313D01*
Y69398D01*
X25267D01*
Y69848D01*
X25268Y69848D01*
X25452Y69888D01*
X25585Y70008D01*
X25669Y70207D01*
X25699Y70483D01*
X25669Y70765D01*
X25585Y70968D01*
X25452Y71089D01*
X25268Y71127D01*
X25267Y71126D01*
Y71401D01*
G37*
G36*
X24249D02*X25267D01*
Y71126D01*
X25078Y71089D01*
X24942Y70968D01*
X24860Y70765D01*
X24835Y70483D01*
X24860Y70207D01*
X24942Y70008D01*
X25078Y69888D01*
X25267Y69848D01*
Y69398D01*
X24249D01*
Y69663D01*
X24376D01*
Y71056D01*
X24249D01*
Y71401D01*
G37*
G36*
X23226D02*X24249D01*
Y71056D01*
X24122D01*
Y69663D01*
X24249D01*
Y69398D01*
X23226D01*
Y70269D01*
X23380Y69866D01*
X23636D01*
Y71100D01*
X23424D01*
Y70210D01*
X23226Y70723D01*
Y71401D01*
G37*
G36*
X22207D02*X23226D01*
Y70723D01*
X23080Y71100D01*
X22815D01*
Y69866D01*
X23036D01*
Y70765D01*
X23226Y70269D01*
Y69398D01*
X22207D01*
Y69848D01*
X22207Y69848D01*
X22396Y69888D01*
X22534Y70008D01*
X22613Y70207D01*
X22639Y70483D01*
X22613Y70765D01*
X22534Y70968D01*
X22396Y71089D01*
X22207Y71127D01*
X22207Y71126D01*
Y71401D01*
G37*
G36*
X21943D02*X22207D01*
Y71126D01*
X22017Y71089D01*
X21881Y70968D01*
X21800Y70765D01*
X21775Y70483D01*
X21800Y70207D01*
X21881Y70008D01*
X22017Y69888D01*
X22207Y69848D01*
Y69398D01*
X21943D01*
X21748Y69437D01*
X21592Y69542D01*
X21485Y69699D01*
X21448Y69892D01*
Y70898D01*
X21485Y71094D01*
X21592Y71253D01*
X21748Y71362D01*
X21943Y71401D01*
G37*
G36*
X25268Y70906D02*X25347Y70883D01*
X25400Y70810D01*
X25432Y70677D01*
X25444Y70483D01*
X25432Y70294D01*
X25400Y70166D01*
X25347Y70093D01*
X25268Y70068D01*
X25184Y70093D01*
X25126Y70166D01*
X25093Y70294D01*
X25082Y70483D01*
X25093Y70677D01*
X25126Y70810D01*
X25184Y70883D01*
X25268Y70906D01*
G37*
G36*
X22207D02*X22290Y70883D01*
X22348Y70810D01*
X22380Y70677D01*
X22392Y70483D01*
X22380Y70294D01*
X22348Y70166D01*
X22290Y70093D01*
X22207Y70068D01*
X22129Y70093D01*
X22075Y70166D01*
X22042Y70294D01*
X22031Y70483D01*
X22042Y70677D01*
X22075Y70810D01*
X22129Y70883D01*
X22207Y70906D01*
G37*
G36*
X64701Y47946D02*X65200D01*
X65394Y47906D01*
X65554Y47797D01*
X65662Y47638D01*
X65702Y47443D01*
Y45441D01*
X65662Y45246D01*
X65554Y45089D01*
X65394Y44985D01*
X65200Y44947D01*
X64701D01*
Y45573D01*
X65323D01*
Y46331D01*
X65103D01*
Y45812D01*
X64701D01*
Y46500D01*
X64706Y46499D01*
X64983Y46527D01*
X65181Y46605D01*
X65300Y46734D01*
X65340Y46914D01*
X65300Y47089D01*
X65181Y47213D01*
X64983Y47292D01*
X64706Y47319D01*
X64701Y47318D01*
Y47946D01*
G37*
G36*
X63700Y45441D02*Y47443D01*
X63739Y47638D01*
X63848Y47797D01*
X64007Y47906D01*
X64203Y47946D01*
X64701D01*
Y47318D01*
X64422Y47292D01*
X64221Y47213D01*
X64100Y47089D01*
X64061Y46914D01*
X64100Y46734D01*
X64221Y46605D01*
X64422Y46527D01*
X64701Y46500D01*
Y45812D01*
X64089D01*
Y45573D01*
X64701D01*
Y44947D01*
X64203D01*
X64007Y44985D01*
X63848Y45089D01*
X63739Y45246D01*
X63700Y45441D01*
G37*
G36*
X64701Y47072D02*X64706Y47072D01*
X64899Y47064D01*
X65031Y47037D01*
X65110Y46987D01*
X65138Y46914D01*
X65110Y46840D01*
X65031Y46790D01*
X64899Y46757D01*
X64706Y46746D01*
X64701Y46746D01*
Y46810D01*
X64706Y46808D01*
X64776Y46834D01*
X64802Y46914D01*
X64776Y46984D01*
X64706Y47010D01*
X64701Y47009D01*
Y47072D01*
G37*
G36*
X64273Y46914D02*X64296Y46987D01*
X64370Y47037D01*
X64506Y47064D01*
X64701Y47072D01*
Y47009D01*
X64626Y46984D01*
X64600Y46914D01*
X64626Y46834D01*
X64701Y46810D01*
Y46746D01*
X64506Y46757D01*
X64370Y46790D01*
X64296Y46840D01*
X64273Y46914D01*
G37*
G36*
X64701Y65943D02*X65204D01*
X65398Y65903D01*
X65558Y65794D01*
X65667Y65634D01*
X65707Y65440D01*
Y63447D01*
X65667Y63252D01*
X65558Y63092D01*
X65398Y62983D01*
X65204Y62944D01*
X64701D01*
Y63562D01*
X65318D01*
Y64320D01*
X65106D01*
Y63800D01*
X64701D01*
Y64823D01*
X65106D01*
Y64550D01*
X65318D01*
Y65326D01*
X65106D01*
Y65061D01*
X64701D01*
Y65943D01*
G37*
G36*
X63705Y63447D02*Y65440D01*
X63743Y65634D01*
X63852Y65794D01*
X64012Y65903D01*
X64207Y65943D01*
X64701D01*
Y65061D01*
X64084D01*
Y64823D01*
X64146Y64568D01*
X64366D01*
X64304Y64823D01*
X64701D01*
Y63800D01*
X64084D01*
Y63562D01*
X64701D01*
Y62944D01*
X64207D01*
X64012Y62983D01*
X63852Y63092D01*
X63743Y63252D01*
X63705Y63447D01*
G37*
G36*
X62466Y71396D02*X62844D01*
X63039Y71358D01*
X63198Y71249D01*
X63307Y71089D01*
X63347Y70894D01*
Y69897D01*
X63307Y69703D01*
X63198Y69543D01*
X63039Y69434D01*
X62844Y69394D01*
X62466D01*
Y69783D01*
X62589D01*
Y70805D01*
X62898D01*
Y71018D01*
X62466D01*
Y71396D01*
G37*
G36*
X61500D02*X62466D01*
Y71018D01*
X62034D01*
Y70805D01*
X62343D01*
Y69783D01*
X62466D01*
Y69394D01*
X61500D01*
Y70159D01*
X61521Y70126D01*
X61539Y70091D01*
X61689Y69783D01*
X61954D01*
X61734Y70224D01*
X61663Y70330D01*
X61601Y70364D01*
X61786Y70452D01*
X61848Y70655D01*
X61820Y70819D01*
X61742Y70929D01*
X61603Y70995D01*
X61500Y71007D01*
Y71396D01*
G37*
G36*
X60429D02*X61500D01*
Y71007D01*
X61399Y71018D01*
X61046D01*
Y69783D01*
X61293D01*
Y70268D01*
X61372D01*
X61452Y70232D01*
X61500Y70159D01*
Y69394D01*
X60429D01*
Y70082D01*
X60587D01*
X60667Y69783D01*
X60914D01*
X60579Y71018D01*
X60429D01*
Y71396D01*
G37*
G36*
X59410D02*X60429D01*
Y71018D01*
X60278D01*
X59943Y69783D01*
X60190D01*
X60260Y70082D01*
X60429D01*
Y69394D01*
X59410D01*
Y69783D01*
X59529D01*
Y70805D01*
X59846D01*
Y71018D01*
X59410D01*
Y71396D01*
G37*
G36*
X58391Y70289D02*X58426Y70276D01*
X58514Y70206D01*
X58550Y70118D01*
X58506Y69994D01*
X58391Y69966D01*
Y70289D01*
G37*
G36*
Y71396D02*X59410D01*
Y71018D01*
X58973D01*
Y70805D01*
X59290D01*
Y69783D01*
X59410D01*
Y69394D01*
X58391D01*
Y69761D01*
X58552Y69778D01*
X58691Y69845D01*
X58771Y69962D01*
X58797Y70126D01*
X58727Y70356D01*
X58506Y70497D01*
X58408Y70541D01*
X58391Y70549D01*
Y70827D01*
X58408Y70831D01*
X58567Y70805D01*
X58727Y70727D01*
Y70964D01*
X58559Y71018D01*
X58391Y71035D01*
Y71396D01*
G37*
G36*
Y70549D02*X58258Y70611D01*
X58224Y70699D01*
X58276Y70797D01*
X58391Y70827D01*
Y70549D01*
G37*
G36*
X58047Y71396D02*X58391D01*
Y71035D01*
X58390Y71035D01*
X58221Y71012D01*
X58092Y70938D01*
X58012Y70824D01*
X57985Y70673D01*
X58003Y70560D01*
X58056Y70470D01*
X58149Y70395D01*
X58302Y70320D01*
X58391Y70289D01*
Y69966D01*
X58364Y69959D01*
X58180Y69994D01*
X57994Y70091D01*
Y69845D01*
X58170Y69783D01*
X58356Y69757D01*
X58391Y69761D01*
Y69394D01*
X58047D01*
X57852Y69434D01*
X57692Y69543D01*
X57583Y69703D01*
X57544Y69897D01*
Y70894D01*
X57583Y71089D01*
X57692Y71249D01*
X57852Y71358D01*
X58047Y71396D01*
G37*
G36*
X60428Y70787D02*X60543Y70286D01*
X60314D01*
X60428Y70787D01*
G37*
G36*
X61293Y70805D02*X61407D01*
X61549Y70771D01*
X61593Y70638D01*
X61549Y70515D01*
X61407Y70470D01*
X61293D01*
Y70805D01*
G37*
G36*
X33894Y24789D02*X34087Y24752D01*
X34244Y24647D01*
X34349Y24490D01*
X34388Y24296D01*
Y23290D01*
X34349Y23097D01*
X34244Y22940D01*
X34087Y22835D01*
X33894Y22796D01*
X33426D01*
Y23255D01*
X33550D01*
Y24278D01*
X33858D01*
Y24490D01*
X33426D01*
Y24789D01*
X33894D01*
G37*
G36*
X33426Y22796D02*X32407D01*
Y23564D01*
X32571D01*
X32650Y23255D01*
X32888D01*
X32562Y24490D01*
X32407D01*
Y24789D01*
X33426D01*
Y24490D01*
X32994D01*
Y24278D01*
X33303D01*
Y23255D01*
X33426D01*
Y22796D01*
G37*
G36*
X32407D02*X31446D01*
Y23255D01*
X31830D01*
Y23466D01*
X31446D01*
Y24789D01*
X32407D01*
Y24490D01*
X32263D01*
X31926Y23255D01*
X32174D01*
X32245Y23564D01*
X32407D01*
Y22796D01*
G37*
G36*
X31446D02*X30397D01*
Y23793D01*
X30736D01*
Y24005D01*
X30397D01*
Y24278D01*
X30780D01*
Y24490D01*
X30397D01*
Y24789D01*
X31446D01*
Y23466D01*
X31309D01*
Y24490D01*
X31062D01*
Y23255D01*
X31446D01*
Y22796D01*
G37*
G36*
X30397Y24005D02*X30260D01*
Y24278D01*
X30397D01*
Y24005D01*
G37*
G36*
Y22796D02*X29356D01*
Y23053D01*
X29484D01*
Y24436D01*
X29356D01*
Y24789D01*
X30397D01*
Y24490D01*
X30014D01*
Y23255D01*
X30260D01*
Y23793D01*
X30397D01*
Y22796D01*
G37*
G36*
X29356D02*X28385D01*
Y23633D01*
X28408Y23598D01*
X28426Y23564D01*
X28575Y23255D01*
X28839D01*
X28619Y23696D01*
X28558Y23802D01*
X28487Y23837D01*
X28673Y23925D01*
X28735Y24128D01*
X28707Y24292D01*
X28629Y24402D01*
X28489Y24466D01*
X28385Y24478D01*
Y24789D01*
X29356D01*
Y24436D01*
X29228D01*
Y23053D01*
X29356D01*
Y22796D01*
G37*
G36*
X28385D02*X27314D01*
Y23898D01*
X27456Y23255D01*
X27685D01*
X27825Y24490D01*
X27614D01*
X27544Y23582D01*
X27420Y24172D01*
X27314D01*
Y24789D01*
X28385D01*
Y24478D01*
X28284Y24490D01*
X27931D01*
Y23255D01*
X28178D01*
Y23740D01*
X28258D01*
X28338Y23704D01*
X28385Y23633D01*
Y22796D01*
G37*
G36*
X27314D02*X26327D01*
Y23723D01*
X26476Y23740D01*
X26626Y23811D01*
X26706Y23928D01*
X26732Y24102D01*
X26706Y24281D01*
X26626Y24402D01*
X26476Y24469D01*
X26327Y24483D01*
Y24789D01*
X27314D01*
Y24172D01*
X27218D01*
X27111Y23582D01*
X27023Y24490D01*
X26803D01*
X26961Y23255D01*
X27182D01*
X27314Y23899D01*
X27314Y23898D01*
Y22796D01*
G37*
G36*
X26327D02*X25894D01*
X25699Y22835D01*
X25539Y22940D01*
X25430Y23097D01*
X25392Y23290D01*
Y24296D01*
X25430Y24490D01*
X25539Y24647D01*
X25699Y24752D01*
X25894Y24789D01*
X26327D01*
Y24483D01*
X26256Y24490D01*
X25921D01*
Y23255D01*
X26167D01*
Y23714D01*
X26256D01*
X26327Y23723D01*
Y22796D01*
G37*
G36*
X32527Y23758D02*X32297D01*
X32411Y24270D01*
X32527Y23758D01*
G37*
G36*
X28294Y24287D02*X28434Y24244D01*
X28478Y24119D01*
X28434Y23987D01*
X28294Y23943D01*
X28178D01*
Y24287D01*
X28294D01*
G37*
G36*
X26265D02*X26432Y24244D01*
X26486Y24102D01*
X26432Y23961D01*
X26265Y23925D01*
X26167D01*
Y24287D01*
X26265D01*
G37*
G54D196*X50600Y11000D02*Y20300D01*
X51100Y22000D02*X52100D01*
X50600Y12000D02*X52100D01*
X34600Y11000D02*X50600D01*
Y23000D02*X34600D01*
Y15000D01*
Y22000D02*X33100D01*
X50600Y23000D02*Y22700D01*
X34600Y11000D02*Y11400D01*
G54D197*X23400Y71800D02*Y73800D01*
X22700Y73100D01*
X23400Y73800D02*X24100Y73100D01*
X59300Y71800D02*Y73800D01*
X58600Y73100D01*
X59300Y73800D02*X60000Y73100D01*
G54D196*X72657Y92800D02*X72454Y93003D01*
X73470D01*
Y93181D02*Y92800D01*
X52400Y88943D02*X52603Y89146D01*
Y88130D01*
X52400D02*X52781D01*
X26600Y80246D02*X27108D01*
X27235Y80119D01*
Y79865D01*
X27108Y79738D02*X27235Y79865D01*
X26727Y79738D02*X27108D01*
X26727Y80246D02*Y79230D01*
X26930Y79738D02*X27235Y79230D01*
X26700Y72230D02*X27208D01*
X27335Y72357D01*
Y72662D02*Y72357D01*
X27208Y72789D02*X27335Y72662D01*
X26827Y72789D02*X27208D01*
X26827Y73246D02*Y72230D01*
X26700Y73246D02*X27208D01*
X27335Y73119D01*
Y72916D01*
X27208Y72789D02*X27335Y72916D01*
X60250Y75200D02*X62150D01*
X60250Y76200D02*X62150D01*
Y75200D01*
X60250Y76200D02*Y75200D01*
Y76200D02*X62150D01*
X60250Y77200D02*X62150D01*
Y76200D01*
X60250Y77200D02*Y76200D01*
X57350Y76100D02*X59250D01*
X57350Y77100D02*X59250D01*
Y76100D01*
X57350Y77100D02*Y76100D01*
X57300Y73650D02*Y71750D01*
X58300Y73650D02*Y71750D01*
X57300D02*X58300D01*
X57300Y73650D02*X58300D01*
X60250Y72200D02*X62150D01*
X60250Y73200D02*X62150D01*
Y72200D01*
X60250Y73200D02*Y72200D01*
Y74200D02*X62150D01*
X60250Y73200D02*X62150D01*
X60250Y74200D02*Y73200D01*
X62150Y74200D02*Y73200D01*
X60250Y74200D02*X62150D01*
X60250Y75200D02*X62150D01*
Y74200D01*
X60250Y75200D02*Y74200D01*
X67600Y61200D02*Y58800D01*
X68800Y61200D02*Y58800D01*
X67600D02*X68800D01*
X67600Y61200D02*X68800D01*
X67500Y61300D02*X68900D01*
X67500D02*Y60500D01*
X68900Y61300D02*Y60500D01*
X72300Y60950D02*Y59050D01*
X71300Y60950D02*Y59050D01*
Y60950D02*X72300D01*
X71300Y59050D02*X72300D01*
X71300Y60950D02*Y59050D01*
X70300Y60950D02*Y59050D01*
Y60950D02*X71300D01*
X70300Y59050D02*X71300D01*
X69300Y60950D02*Y59050D01*
X70300Y60950D02*Y59050D01*
X69300D02*X70300D01*
X69300Y60950D02*X70300D01*
X66900Y69950D02*Y68050D01*
X65900Y69950D02*Y68050D01*
Y69950D02*X66900D01*
X65900Y68050D02*X66900D01*
G54D198*X63700Y74250D02*Y70750D01*
X65700Y74250D02*Y70750D01*
X63700D02*X65700D01*
X63700Y74250D02*X65700D01*
X63700Y70750D02*Y67250D01*
X65700Y70750D02*Y67250D01*
X63700D02*X65700D01*
X63700Y70750D02*X65700D01*
G54D199*X64700Y67150D02*Y67000D01*
G54D198*X63700Y69000D02*X65700D01*
X64700D02*Y68700D01*
G54D200*X67000Y76500D02*X79000D01*
X67000Y61500D02*X79000D01*
X67000Y76500D02*Y61500D01*
X79000Y76500D02*Y61500D01*
X75000Y64500D02*Y61500D01*
Y70500D02*Y67500D01*
Y76500D02*Y73500D01*
G54D196*X53200Y85050D02*X55200D01*
X53200Y82550D02*X55200D01*
X53200Y85050D02*Y82550D01*
X55200Y85050D02*Y82550D01*
X44000Y86950D02*Y85050D01*
X43000Y86950D02*Y85050D01*
Y86950D02*X44000D01*
X43000Y85050D02*X44000D01*
G54D198*X62150Y89850D02*Y87150D01*
X58850Y89850D02*Y87150D01*
Y89850D02*X62150D01*
X58850Y87150D02*X62150D01*
G54D196*X51000Y87650D02*Y85750D01*
X52000Y87650D02*Y85750D01*
X51000D02*X52000D01*
X51000Y87650D02*X52000D01*
X43000Y85050D02*Y83150D01*
X44000Y85050D02*Y83150D01*
X43000D02*X44000D01*
X43000Y85050D02*X44000D01*
X45850Y82600D02*X47750D01*
X45850Y83600D02*X47750D01*
Y82600D01*
X45850Y83600D02*Y82600D01*
X57350Y75100D02*X59250D01*
X57350Y76100D02*X59250D01*
Y75100D01*
X57350Y76100D02*Y75100D01*
Y78100D02*X59250D01*
X57350Y79100D02*X59250D01*
Y78100D01*
X57350Y79100D02*Y78100D01*
Y77100D02*X59250D01*
X57350Y78100D02*X59250D01*
Y77100D01*
X57350Y78100D02*Y77100D01*
X57300Y81050D02*Y79150D01*
X58300Y81050D02*Y79150D01*
X57300D02*X58300D01*
X57300Y81050D02*X58300D01*
X60250Y77200D02*X62150D01*
X60250Y78200D02*X62150D01*
Y77200D01*
X60250Y78200D02*Y77200D01*
G54D198*X43950Y82550D02*Y69250D01*
X57250Y82550D02*Y69250D01*
X43950D02*X57250D01*
X43950Y82550D02*X57250D01*
G54D199*X43850Y69150D02*X45850D01*
X43850Y71150D02*Y69150D01*
G54D196*X50700Y68350D02*Y66450D01*
X51700Y68350D02*Y66450D01*
X50700D02*X51700D01*
X50700Y68350D02*X51700D01*
G54D200*X74270Y92010D02*Y76770D01*
X71730Y92010D02*Y76770D01*
Y92010D02*X74270D01*
X71730Y76770D02*X74270D01*
G54D197*X71730Y92010D02*Y89470D01*
Y92010D02*X74270D01*
Y89470D01*
G54D196*X69550Y83800D02*X71450D01*
X69550Y82800D02*X71450D01*
X69550Y83800D02*Y82800D01*
X71450Y83800D02*Y82800D01*
G54D198*X67550Y89200D02*X71050D01*
X67550Y87200D02*X71050D01*
X67550Y89200D02*Y87200D01*
X71050Y89200D02*Y87200D01*
G54D199*X67300Y88200D02*X67450D01*
G54D198*X69300Y89200D02*Y87200D01*
X69000Y88200D02*X69300D01*
X67750Y87150D02*Y83850D01*
X71250Y87150D02*Y83850D01*
X67750D02*X71250D01*
X67750Y87150D02*X71250D01*
G54D196*X70000Y78950D02*Y77050D01*
X71000Y78950D02*Y77050D01*
X70000D02*X71000D01*
X70000Y78950D02*X71000D01*
G54D200*X62490Y99000D02*Y89800D01*
X71510Y99000D02*Y89800D01*
X62490D02*X71510D01*
X62490Y99000D02*X71510D01*
X69989Y95000D02*X71510D01*
X65337D02*X68663D01*
X62490D02*X64011D01*
G54D196*X61000Y93950D02*Y92050D01*
X62000Y93950D02*Y92050D01*
X61000D02*X62000D01*
X61000Y93950D02*X62000D01*
G54D198*X59250Y94550D02*Y91450D01*
X60750Y94550D02*Y91450D01*
X59250D02*X60750D01*
X59250Y94550D02*X60750D01*
G54D196*X59600Y91100D02*X61500D01*
X59600Y90100D02*X61500D01*
X59600Y91100D02*Y90100D01*
X61500Y91100D02*Y90100D01*
X67550Y83800D02*X69450D01*
X67550Y82800D02*X69450D01*
X67550Y83800D02*Y82800D01*
X69450Y83800D02*Y82800D01*
G54D200*X67250Y86850D02*Y79150D01*
X58750Y86850D02*Y79150D01*
X67250D01*
X58750Y86850D02*X67250D01*
G54D196*X64450Y89350D02*X66850D01*
X64450Y88150D02*X66850D01*
X64450Y89350D02*Y88150D01*
X66850Y89350D02*Y88150D01*
X66950Y89450D02*Y88050D01*
X66150Y89450D02*X66950D01*
X66150Y88050D02*X66950D01*
G54D198*X66650Y78750D02*Y75450D01*
X63150Y78750D02*Y75450D01*
Y78750D02*X66650D01*
X63150Y75450D02*X66650D01*
G54D196*X62200Y89400D02*X64100D01*
X62200Y88400D02*X64100D01*
X62200Y89400D02*Y88400D01*
X64100Y89400D02*Y88400D01*
X62200D02*X64100D01*
X62200Y87400D02*X64100D01*
X62200Y88400D02*Y87400D01*
X64100Y88400D02*Y87400D01*
G54D198*X71250Y82750D02*Y79450D01*
X67750Y82750D02*Y79450D01*
Y82750D02*X71250D01*
X67750Y79450D02*X71250D01*
G54D196*X68000Y78950D02*Y77050D01*
X69000Y78950D02*Y77050D01*
X68000D02*X69000D01*
X68000Y78950D02*X69000D01*
Y77050D01*
X70000Y78950D02*Y77050D01*
X69000D02*X70000D01*
X69000Y78950D02*X70000D01*
X43700Y72150D02*Y70250D01*
X42700Y72150D02*Y70250D01*
Y72150D02*X43700D01*
X42700Y70250D02*X43700D01*
X37200Y66850D02*Y64950D01*
X38200Y66850D02*Y64950D01*
X37200D02*X38200D01*
X37200Y66850D02*X38200D01*
X36200D02*Y64950D01*
X35200Y66850D02*Y64950D01*
Y66850D02*X36200D01*
X35200Y64950D02*X36200D01*
Y66850D02*Y64950D01*
X37200Y66850D02*Y64950D01*
X36200D02*X37200D01*
X36200Y66850D02*X37200D01*
X36200Y64950D02*Y63050D01*
X35200Y64950D02*Y63050D01*
Y64950D02*X36200D01*
X35200Y63050D02*X36200D01*
X39350Y71600D02*X41250D01*
X39350Y70600D02*X41250D01*
X39350Y71600D02*Y70600D01*
X41250Y71600D02*Y70600D01*
X39350Y72600D02*X41250D01*
X39350Y71600D02*X41250D01*
X39350Y72600D02*Y71600D01*
X41250Y72600D02*Y71600D01*
G54D198*Y75350D02*Y72650D01*
X37950Y75350D02*Y72650D01*
Y75350D02*X41250D01*
X37950Y72650D02*X41250D01*
X25750Y49850D02*X30450D01*
X25750Y47550D02*X30450D01*
X25750Y49850D02*Y47550D01*
X30450Y49850D02*Y47550D01*
G54D196*X38800Y52450D02*Y50550D01*
X37800Y52450D02*Y50550D01*
Y52450D02*X38800D01*
X37800Y50550D02*X38800D01*
X13700Y60950D02*Y59050D01*
X12700Y60950D02*Y59050D01*
Y60950D02*X13700D01*
X12700Y59050D02*X13700D01*
X14700Y60950D02*Y59050D01*
X13700Y60950D02*Y59050D01*
Y60950D02*X14700D01*
X13700Y59050D02*X14700D01*
Y60950D02*Y59050D01*
X15700Y60950D02*Y59050D01*
X14700D02*X15700D01*
X14700Y60950D02*X15700D01*
X13700Y42950D02*Y41050D01*
X12700Y42950D02*Y41050D01*
Y42950D02*X13700D01*
X12700Y41050D02*X13700D01*
X14700Y42950D02*Y41050D01*
X13700Y42950D02*Y41050D01*
Y42950D02*X14700D01*
X13700Y41050D02*X14700D01*
Y42950D02*Y41050D01*
X15700Y42950D02*Y41050D01*
X14700D02*X15700D01*
X14700Y42950D02*X15700D01*
X16250Y43200D02*Y40800D01*
X17450Y43200D02*Y40800D01*
X16250D02*X17450D01*
X16250Y43200D02*X17450D01*
X16150Y43300D02*X17550D01*
X16150D02*Y42500D01*
X17550Y43300D02*Y42500D01*
X16200Y61200D02*Y58800D01*
X17400Y61200D02*Y58800D01*
X16200D02*X17400D01*
X16200Y61200D02*X17400D01*
X16100Y61300D02*X17500D01*
X16100D02*Y60500D01*
X17500Y61300D02*Y60500D01*
X18100Y51950D02*Y50050D01*
X19100Y51950D02*Y50050D01*
X18100D02*X19100D01*
X18100Y51950D02*X19100D01*
G54D198*X21200Y66750D02*Y63250D01*
X19200Y66750D02*Y63250D01*
Y66750D02*X21200D01*
X19200Y63250D02*X21200D01*
Y48750D02*Y45250D01*
X19200Y48750D02*Y45250D01*
Y48750D02*X21200D01*
X19200Y45250D02*X21200D01*
G54D196*X35200Y64950D02*Y63050D01*
X34200Y64950D02*Y63050D01*
Y64950D02*X35200D01*
X34200Y63050D02*X35200D01*
X32250Y63100D02*X34150D01*
X32250Y64100D02*X34150D01*
Y63100D01*
X32250Y64100D02*Y63100D01*
X28700Y65350D02*Y63450D01*
X27700Y65350D02*Y63450D01*
Y65350D02*X28700D01*
X27700Y63450D02*X28700D01*
G54D198*X22950Y79050D02*Y74350D01*
X20650Y79050D02*Y74350D01*
Y79050D02*X22950D01*
X20650Y74350D02*X22950D01*
G54D196*X18100Y69950D02*Y68050D01*
X19100Y69950D02*Y68050D01*
X18100D02*X19100D01*
X18100Y69950D02*X19100D01*
G54D200*X6000Y61500D02*X18000D01*
X6000Y76500D02*X18000D01*
Y61500D01*
X6000Y76500D02*Y61500D01*
X10000Y76500D02*Y73500D01*
Y70500D02*Y67500D01*
Y64500D02*Y61500D01*
G54D196*X18150Y78100D02*X20050D01*
X18150Y79100D02*X20050D01*
Y78100D01*
X18150Y79100D02*Y78100D01*
Y77100D02*X20050D01*
X18150Y76100D02*X20050D01*
X18150Y77100D02*Y76100D01*
X20050Y77100D02*Y76100D01*
X18150D02*X20050D01*
X18150Y75100D02*X20050D01*
X18150Y76100D02*Y75100D01*
X20050Y76100D02*Y75100D01*
X18150Y78100D02*X20050D01*
X18150Y77100D02*X20050D01*
X18150Y78100D02*Y77100D01*
X20050Y78100D02*Y77100D01*
G54D198*X31250Y68050D02*Y63350D01*
X28950Y68050D02*Y63350D01*
Y68050D02*X31250D01*
X28950Y63350D02*X31250D01*
G54D196*X36700Y80250D02*Y78350D01*
X35700Y80250D02*Y78350D01*
Y80250D02*X36700D01*
X35700Y78350D02*X36700D01*
X35700Y81650D02*Y79750D01*
X34700Y81650D02*Y79750D01*
Y81650D02*X35700D01*
X34700Y79750D02*X35700D01*
X34700Y81650D02*Y79750D01*
X33700Y81650D02*Y79750D01*
Y81650D02*X34700D01*
X33700Y79750D02*X34700D01*
Y77850D02*Y75950D01*
X35700Y77850D02*Y75950D01*
X34700D02*X35700D01*
X34700Y77850D02*X35700D01*
X27600Y81050D02*Y79150D01*
X28600Y81050D02*Y79150D01*
X27600D02*X28600D01*
X27600Y81050D02*X28600D01*
Y77300D02*X33000D01*
X28600Y81700D02*X33000D01*
Y77300D01*
X28600Y81700D02*Y77300D01*
G54D199*X33100Y79000D02*Y77200D01*
X31300D02*X33100D01*
G54D198*X25250Y79050D02*Y74350D01*
X22950Y79050D02*Y74350D01*
Y79050D02*X25250D01*
X22950Y74350D02*X25250D01*
G54D200*X28370Y78710D02*Y73630D01*
X25830Y78710D02*Y73630D01*
Y78710D02*X28370D01*
X25830Y73630D02*X28370D01*
G54D197*X25830Y78710D02*Y76170D01*
X28370Y78710D02*Y76170D01*
X25830Y78710D02*X28370D01*
G54D196*X34700Y75950D02*Y74050D01*
X33700Y75950D02*Y74050D01*
Y75950D02*X34700D01*
X33700Y74050D02*X34700D01*
X35200Y66850D02*Y64950D01*
X34200Y66850D02*Y64950D01*
Y66850D02*X35200D01*
X34200Y64950D02*X35200D01*
X28700Y67950D02*Y66050D01*
X27700Y67950D02*Y66050D01*
Y67950D02*X28700D01*
X27700Y66050D02*X28700D01*
G54D198*X28250Y71550D02*X30950D01*
X28250Y68250D02*X30950D01*
X28250Y71550D02*Y68250D01*
X30950Y71550D02*Y68250D01*
G54D196*X41450Y74900D02*X43350D01*
X41450Y75900D02*X43350D01*
Y74900D01*
X41450Y75900D02*Y74900D01*
Y75900D02*X43350D01*
X41450Y76900D02*X43350D01*
Y75900D01*
X41450Y76900D02*Y75900D01*
G54D198*X38950Y81050D02*Y76350D01*
X41250Y81050D02*Y76350D01*
X38950D02*X41250D01*
X38950Y81050D02*X41250D01*
G54D196*X31050Y68850D02*X34050D01*
X31050Y71350D02*X34050D01*
Y68850D01*
X31050Y71350D02*Y68850D01*
G54D198*X34500Y70350D02*Y66850D01*
X36500Y70350D02*Y66850D01*
X34500D02*X36500D01*
X34500Y70350D02*X36500D01*
X36700D02*Y66850D01*
X38700Y70350D02*Y66850D01*
X36700D02*X38700D01*
X36700Y70350D02*X38700D01*
G54D196*X36340Y74000D02*Y70800D01*
X34660Y74000D02*Y70800D01*
Y74000D02*X36340D01*
X34660Y70800D02*X36340D01*
X34560Y70700D02*X36440D01*
Y71900D02*Y70700D01*
G54D199*X36140Y71500D02*Y70800D01*
G54D196*X34560Y71900D02*Y70700D01*
G54D199*X34860Y71500D02*Y70800D01*
G54D196*X31250Y65600D02*X33150D01*
X31250Y64600D02*X33150D01*
X31250Y65600D02*Y64600D01*
X33150Y65600D02*Y64600D01*
X31550Y68800D02*Y65800D01*
X34050Y68800D02*Y65800D01*
X31550D02*X34050D01*
X31550Y68800D02*X34050D01*
G54D199*X31450Y65700D02*X32550D01*
X31450Y66800D02*Y65700D01*
G54D196*X32100Y27050D02*Y25150D01*
X33100Y27050D02*Y25150D01*
X32100D02*X33100D01*
X32100Y27050D02*X33100D01*
G54D198*X34950Y14750D02*Y11650D01*
X33450Y14750D02*Y11650D01*
Y14750D02*X34950D01*
X33450Y11650D02*X34950D01*
X28250Y27100D02*X31750D01*
X28250Y25100D02*X31750D01*
X28250Y27100D02*Y25100D01*
X31750Y27100D02*Y25100D01*
G54D199*X28000Y26100D02*X28150D01*
G54D198*X30000Y27100D02*Y25100D01*
X29700Y26100D02*X30000D01*
X18900Y26450D02*X24900D01*
X18900Y22950D02*X24900D01*
X18900Y26450D02*Y22950D01*
X24900Y26450D02*Y22950D01*
X25000Y26550D02*Y22850D01*
X22700Y26550D02*X25000D01*
G54D201*X23100Y26250D02*X24800D01*
G54D198*X22700Y22850D02*X25000D01*
G54D201*X23100Y23150D02*X24800D01*
G54D196*X16200Y25200D02*Y22800D01*
X17400Y25200D02*Y22800D01*
X16200D02*X17400D01*
X16200Y25200D02*X17400D01*
X16100Y25300D02*X17500D01*
X16100D02*Y24500D01*
X17500Y25300D02*Y24500D01*
G54D200*X10700Y22500D02*X21700D01*
X10700Y11500D02*X21700D01*
X10700Y22500D02*Y11500D01*
X21700Y22500D02*Y11500D01*
X33100Y22500D02*Y11500D01*
X22100Y22500D02*Y11500D01*
Y22500D02*X33100D01*
X22100Y11500D02*X33100D01*
G54D196*X13600Y24950D02*Y23050D01*
X12600Y24950D02*Y23050D01*
Y24950D02*X13600D01*
X12600Y23050D02*X13600D01*
X14600Y24950D02*Y23050D01*
X13600Y24950D02*Y23050D01*
Y24950D02*X14600D01*
X13600Y23050D02*X14600D01*
Y24950D02*Y23050D01*
X15600Y24950D02*Y23050D01*
X14600D02*X15600D01*
X14600Y24950D02*X15600D01*
G54D198*X35850Y30050D02*Y25350D01*
X38150Y30050D02*Y25350D01*
X35850D02*X38150D01*
X35850Y30050D02*X38150D01*
X44700Y29250D02*X53500D01*
X44700Y25350D02*X53500D01*
X44700Y29250D02*Y25350D01*
X53500Y29250D02*Y25350D01*
X44700Y33250D02*X53500D01*
X44700Y29350D02*X53500D01*
X44700Y33250D02*Y29350D01*
X53500Y33250D02*Y29350D01*
X39335Y11100D02*X46335D01*
X39335Y16700D02*X46335D01*
Y11100D01*
X39335Y16700D02*Y11100D01*
G54D199*X46435Y12000D02*Y11000D01*
X45435D02*X46435D01*
G54D198*X39335Y17300D02*X46335D01*
X39335Y22900D02*X46335D01*
Y17300D01*
X39335Y22900D02*Y17300D01*
G54D199*X46435Y18200D02*Y17200D01*
X45435D02*X46435D01*
G54D196*X40800Y22950D02*X44400D01*
X40800Y25250D02*X44400D01*
Y22950D01*
X40800Y25250D02*Y22950D01*
G54D199*X44500Y23850D02*Y22850D01*
X43100D02*X44500D01*
G54D196*X39600Y25050D02*Y23150D01*
X40600Y25050D02*Y23150D01*
X39600D02*X40600D01*
X39600Y25050D02*X40600D01*
X44000Y35750D02*Y33850D01*
X45000Y35750D02*Y33850D01*
X44000D02*X45000D01*
X44000Y35750D02*X45000D01*
X45300Y34800D02*X47200D01*
X45300Y33800D02*X47200D01*
X45300Y34800D02*Y33800D01*
X47200Y34800D02*Y33800D01*
X45300Y35800D02*X47200D01*
X45300Y34800D02*X47200D01*
X45300Y35800D02*Y34800D01*
X47200Y35800D02*Y34800D01*
X48300Y22600D02*Y20200D01*
X49500Y22600D02*Y20200D01*
X48300D02*X49500D01*
X48300Y22600D02*X49500D01*
X48200Y22700D02*X49600D01*
X48200D02*Y21900D01*
X49600Y22700D02*Y21900D01*
X49800Y22450D02*Y20550D01*
X50800Y22450D02*Y20550D01*
X49800D02*X50800D01*
X49800Y22450D02*X50800D01*
G54D198*X63450Y11300D02*X74350D01*
Y21700D01*
X72350Y23700D01*
X65450D02*X72350D01*
X63450Y11300D02*Y21700D01*
X65450Y23700D01*
G54D200*X63100Y22500D02*Y11500D01*
X52100Y22500D02*Y11500D01*
Y22500D02*X63100D01*
X52100Y11500D02*X63100D01*
G54D198*X59350Y46950D02*Y36050D01*
X47650Y46950D02*Y36050D01*
Y46950D02*X59350D01*
X47650Y36050D02*X59350D01*
G54D199*X47550Y47050D02*X49550D01*
X47550D02*Y45050D01*
G54D200*X67000Y40500D02*X79000D01*
X67000Y25500D02*X79000D01*
X67000Y40500D02*Y25500D01*
X79000Y40500D02*Y25500D01*
X75000Y28500D02*Y25500D01*
Y34500D02*Y31500D01*
Y40500D02*Y37500D01*
G54D196*X72300Y42950D02*Y41050D01*
X71300Y42950D02*Y41050D01*
Y42950D02*X72300D01*
X71300Y41050D02*X72300D01*
X71300Y42950D02*Y41050D01*
X70300Y42950D02*Y41050D01*
Y42950D02*X71300D01*
X70300Y41050D02*X71300D01*
X69300Y42950D02*Y41050D01*
X70300Y42950D02*Y41050D01*
X69300D02*X70300D01*
X69300Y42950D02*X70300D01*
X68000Y25200D02*X70400D01*
X68000Y24000D02*X70400D01*
X68000Y25200D02*Y24000D01*
X70400Y25200D02*Y24000D01*
X70500Y25300D02*Y23900D01*
X69700Y25300D02*X70500D01*
X69700Y23900D02*X70500D01*
X70650Y24300D02*X72550D01*
X70650Y25300D02*X72550D01*
Y24300D01*
X70650Y25300D02*Y24300D01*
X73600Y25350D02*Y23450D01*
X74600Y25350D02*Y23450D01*
X73600D02*X74600D01*
X73600Y25350D02*X74600D01*
X72600D02*Y23450D01*
X73600Y25350D02*Y23450D01*
X72600D02*X73600D01*
X72600Y25350D02*X73600D01*
G54D198*X53450Y33650D02*X58150D01*
X53450Y35950D02*X58150D01*
Y33650D01*
X53450Y35950D02*Y33650D01*
G54D196*X66900Y33950D02*Y32050D01*
X65900Y33950D02*Y32050D01*
Y33950D02*X66900D01*
X65900Y32050D02*X66900D01*
X67600Y43200D02*Y40800D01*
X68800Y43200D02*Y40800D01*
X67600D02*X68800D01*
X67600Y43200D02*X68800D01*
X67500Y43300D02*X68900D01*
X67500D02*Y42500D01*
X68900Y43300D02*Y42500D01*
G54D198*X63700Y38250D02*Y34750D01*
X65700Y38250D02*Y34750D01*
X63700D02*X65700D01*
X63700Y38250D02*X65700D01*
X63700Y34750D02*Y31250D01*
X65700Y34750D02*Y31250D01*
X63700D02*X65700D01*
X63700Y34750D02*X65700D01*
G54D199*X64700Y31150D02*Y31000D01*
G54D198*X63700Y33000D02*X65700D01*
X64700D02*Y32700D01*
X19200Y52750D02*Y49250D01*
X21200Y52750D02*Y49250D01*
X19200D02*X21200D01*
X19200Y52750D02*X21200D01*
G54D199*X20200Y49150D02*Y49000D01*
G54D198*X19200Y51000D02*X21200D01*
X20200D02*Y50700D01*
G54D200*X6000Y43500D02*X18000D01*
X6000Y58500D02*X18000D01*
Y43500D01*
X6000Y58500D02*Y43500D01*
X10000Y58500D02*Y55500D01*
Y52500D02*Y49500D01*
Y46500D02*Y43500D01*
G54D198*X19200Y70750D02*Y67250D01*
X21200Y70750D02*Y67250D01*
X19200D02*X21200D01*
X19200Y70750D02*X21200D01*
G54D199*X20200Y67150D02*Y67000D01*
G54D198*X19200Y69000D02*X21200D01*
X20200D02*Y68700D01*
X29650Y35950D02*X34350D01*
X29650Y33650D02*X34350D01*
X29650Y35950D02*Y33650D01*
X34350Y35950D02*Y33650D01*
X25650Y46950D02*Y36050D01*
X37350Y46950D02*Y36050D01*
X25650D02*X37350D01*
X25650Y46950D02*X37350D01*
G54D199*X35450Y35950D02*X37450D01*
Y37950D02*Y35950D01*
G54D198*X25650Y60950D02*Y50050D01*
X37350Y60950D02*Y50050D01*
X25650D02*X37350D01*
X25650Y60950D02*X37350D01*
G54D199*X35450Y49950D02*X37450D01*
Y51950D02*Y49950D01*
G54D196*X18100Y33950D02*Y32050D01*
X19100Y33950D02*Y32050D01*
X18100D02*X19100D01*
X18100Y33950D02*X19100D01*
G54D200*X6000Y25500D02*X18000D01*
X6000Y40500D02*X18000D01*
Y25500D01*
X6000Y40500D02*Y25500D01*
X10000Y40500D02*Y37500D01*
Y34500D02*Y31500D01*
Y28500D02*Y25500D01*
G54D198*X21200Y30750D02*Y27250D01*
X19200Y30750D02*Y27250D01*
Y30750D02*X21200D01*
X19200Y27250D02*X21200D01*
X19200Y34750D02*Y31250D01*
X21200Y34750D02*Y31250D01*
X19200D02*X21200D01*
X19200Y34750D02*X21200D01*
G54D199*X20200Y31150D02*Y31000D01*
G54D198*X19200Y33000D02*X21200D01*
X20200D02*Y32700D01*
X53350Y47550D02*X58050D01*
X53350Y49850D02*X58050D01*
Y47550D01*
X53350Y49850D02*Y47550D01*
X59350Y60950D02*Y50050D01*
X47650Y60950D02*Y50050D01*
Y60950D02*X59350D01*
X47650Y50050D02*X59350D01*
G54D199*X47550Y61050D02*X49550D01*
X47550D02*Y59050D01*
G54D198*X22500Y30500D02*Y28500D01*
X24500D01*
X22500Y68500D02*Y66500D01*
Y68500D02*X24500D01*
X62500Y30500D02*Y28500D01*
X60500D02*X62500D01*
Y68500D02*Y66500D01*
X60500Y68500D02*X62500D01*
X26500Y29300D02*X26769Y29312D01*
X27035Y29347D01*
X27298Y29406D01*
X27555Y29488D01*
X27804Y29592D01*
X28043Y29717D01*
X28271Y29863D01*
X28486Y30029D01*
X28686Y30213D01*
X28870Y30414D01*
X29036Y30630D01*
X29184Y30860D01*
X29311Y31103D01*
X29418Y31355D01*
X29504Y31616D01*
X29567Y31884D01*
X29607Y32156D01*
X29624Y32431D01*
X29618Y32706D01*
X29590Y32980D01*
X29538Y33250D01*
X29464Y33515D01*
X29367Y33772D01*
X29250Y34020D01*
X29112Y34256D01*
X28955Y34480D01*
X28780Y34689D01*
X28588Y34881D01*
X28380Y35056D01*
X28159Y35212D01*
X27925Y35348D01*
X27680Y35463D01*
X27427Y35556D01*
X27167Y35626D01*
X26902Y35673D01*
X26634Y35697D01*
X26366D01*
X26098Y35673D01*
X25833Y35626D01*
X25573Y35556D01*
X25320Y35463D01*
X25075Y35348D01*
X24841Y35212D01*
X24620Y35056D01*
X24412Y34881D01*
X24220Y34689D01*
X24045Y34480D01*
X23888Y34256D01*
X23750Y34020D01*
X23633Y33772D01*
X23536Y33515D01*
X23462Y33250D01*
X23410Y32980D01*
X23382Y32706D01*
X23376Y32431D01*
X23393Y32156D01*
X23433Y31884D01*
X23496Y31616D01*
X23582Y31355D01*
X23689Y31103D01*
X23816Y30860D01*
X23964Y30630D01*
X24130Y30414D01*
X24314Y30213D01*
X24514Y30029D01*
X24729Y29863D01*
X24957Y29717D01*
X25196Y29592D01*
X25445Y29488D01*
X25702Y29406D01*
X25965Y29347D01*
X26231Y29312D01*
X26500Y29300D01*
X58500Y61300D02*X58769Y61312D01*
X59035Y61347D01*
X59298Y61406D01*
X59555Y61488D01*
X59804Y61592D01*
X60043Y61717D01*
X60271Y61863D01*
X60486Y62029D01*
X60686Y62213D01*
X60870Y62414D01*
X61036Y62630D01*
X61184Y62860D01*
X61311Y63103D01*
X61418Y63355D01*
X61504Y63616D01*
X61567Y63884D01*
X61607Y64156D01*
X61624Y64431D01*
X61618Y64706D01*
X61590Y64980D01*
X61538Y65250D01*
X61464Y65515D01*
X61367Y65772D01*
X61250Y66020D01*
X61112Y66256D01*
X60955Y66480D01*
X60780Y66689D01*
X60588Y66881D01*
X60380Y67056D01*
X60159Y67212D01*
X59925Y67348D01*
X59680Y67463D01*
X59427Y67556D01*
X59167Y67626D01*
X58902Y67673D01*
X58634Y67697D01*
X58366D01*
X58098Y67673D01*
X57833Y67626D01*
X57573Y67556D01*
X57320Y67463D01*
X57075Y67348D01*
X56841Y67212D01*
X56620Y67056D01*
X56412Y66881D01*
X56220Y66689D01*
X56045Y66480D01*
X55888Y66256D01*
X55750Y66020D01*
X55633Y65772D01*
X55536Y65515D01*
X55462Y65250D01*
X55410Y64980D01*
X55382Y64706D01*
X55376Y64431D01*
X55393Y64156D01*
X55433Y63884D01*
X55496Y63616D01*
X55582Y63355D01*
X55689Y63103D01*
X55816Y62860D01*
X55964Y62630D01*
X56130Y62414D01*
X56314Y62213D01*
X56514Y62029D01*
X56729Y61863D01*
X56957Y61717D01*
X57196Y61592D01*
X57445Y61488D01*
X57702Y61406D01*
X57965Y61347D01*
X58231Y61312D01*
X58500Y61300D01*
G54D196*X46450Y63100D02*Y61100D01*
X43950Y63100D02*Y61100D01*
Y63100D02*X46450D01*
X43950Y61100D02*X46450D01*
X40050Y63100D02*Y61100D01*
X37550Y63100D02*Y61100D01*
Y63100D02*X40050D01*
X37550Y61100D02*X40050D01*
X40100Y63050D02*Y61150D01*
X41100Y63050D02*Y61150D01*
X40100D02*X41100D01*
X40100Y63050D02*X41100D01*
X42900D02*Y61150D01*
X43900Y63050D02*Y61150D01*
X42900D02*X43900D01*
X42900Y63050D02*X43900D01*
X46200Y60450D02*Y58550D01*
X47200Y60450D02*Y58550D01*
X46200D02*X47200D01*
X46200Y60450D02*X47200D01*
X46200Y46450D02*Y44550D01*
X47200Y46450D02*Y44550D01*
X46200D02*X47200D01*
X46200Y46450D02*X47200D01*
X42650Y41000D02*X44550D01*
X42650Y40000D02*X44550D01*
X42650Y41000D02*Y40000D01*
X44550Y41000D02*Y40000D01*
X38800Y38450D02*Y36550D01*
X37800Y38450D02*Y36550D01*
Y38450D02*X38800D01*
X37800Y36550D02*X38800D01*
G54D198*X40400Y36225D02*X44600D01*
X40400Y39725D02*X44600D01*
Y36225D01*
X40400Y39725D02*Y36225D01*
G54D199*X44700Y37125D02*Y36125D01*
X43700D02*X44700D01*
G54D196*X44900Y39750D02*Y37850D01*
X45900Y39750D02*Y37850D01*
X44900D02*X45900D01*
X44900Y39750D02*X45900D01*
X43900Y66950D02*Y65050D01*
X42900Y66950D02*Y65050D01*
Y66950D02*X43900D01*
X42900Y65050D02*X43900D01*
G54D198*X40250Y69600D02*X43750D01*
X40250Y67600D02*X43750D01*
X40250Y69600D02*Y67600D01*
X43750Y69600D02*Y67600D01*
G54D196*X44000Y88850D02*Y86950D01*
X43000Y88850D02*Y86950D01*
Y88850D02*X44000D01*
X43000Y86950D02*X44000D01*
G54D198*X48150Y94700D02*Y88700D01*
X44650Y94700D02*Y88700D01*
Y94700D02*X48150D01*
X44650Y88700D02*X48150D01*
X44550Y88600D02*X48250D01*
Y90900D02*Y88600D01*
G54D201*X47950Y90500D02*Y88800D01*
G54D198*X44550Y90900D02*Y88600D01*
G54D201*X44850Y90500D02*Y88800D01*
G54D198*X44270Y84550D02*X50740D01*
X44270Y88000D02*X50740D01*
Y84550D01*
X44270Y88000D02*Y84550D01*
G54D199*X49400Y88100D02*X50790D01*
Y86260D01*
G54D200*X26490Y99000D02*Y89800D01*
X35510Y99000D02*Y89800D01*
X26490D02*X35510D01*
X26490Y99000D02*X35510D01*
X33989Y95000D02*X35510D01*
X29337D02*X32663D01*
X26490D02*X28011D01*
X35490Y99000D02*Y89800D01*
X44510Y99000D02*Y89800D01*
X35490D02*X44510D01*
X35490Y99000D02*X44510D01*
X42989Y95000D02*X44510D01*
X38337D02*X41663D01*
X35490D02*X37011D01*
G54D196*X36350Y86600D02*X38250D01*
X36350Y87600D02*X38250D01*
Y86600D01*
X36350Y87600D02*Y86600D01*
Y85600D02*X38250D01*
X36350Y86600D02*X38250D01*
Y85600D01*
X36350Y86600D02*Y85600D01*
G54D198*X34350Y87600D02*X37850D01*
X34350Y89600D02*X37850D01*
Y87600D01*
X34350Y89600D02*Y87600D01*
G54D196*X48400Y89400D02*X50800D01*
X48400Y88200D02*X50800D01*
X48400Y89400D02*Y88200D01*
X50800Y89400D02*Y88200D01*
X50900Y89500D02*Y88100D01*
X50100Y89500D02*X50900D01*
X50100Y88100D02*X50900D01*
X51000Y89550D02*Y87650D01*
X52000Y89550D02*Y87650D01*
X51000D02*X52000D01*
X51000Y89550D02*X52000D01*
G54D198*X53250Y85050D02*X57150D01*
X53250Y88550D02*X57150D01*
Y85050D01*
X53250Y88550D02*Y85050D01*
G54D199*X57250Y85950D02*Y84950D01*
X56250D02*X57250D01*
G54D198*X48300Y96530D02*Y89600D01*
X58700Y96530D02*Y89600D01*
X48300D02*X58700D01*
X48300Y96530D02*X58700D01*
X56620Y95000D02*X58700D01*
X52460D02*X54540D01*
X48300D02*X50380D01*
X16600Y86200D02*Y77200D01*
X10800Y86200D02*Y77200D01*
Y86200D02*X16600D01*
X10800Y77200D02*X16600D01*
X10150Y86950D02*X13450D01*
X10150Y90450D02*X13450D01*
Y86950D01*
X10150Y90450D02*Y86950D01*
G54D200*X26250Y86850D02*Y79150D01*
X17750Y86850D02*Y79150D01*
X26250D01*
X17750Y86850D02*X26250D01*
X13500Y99000D02*Y87000D01*
X24700Y99000D02*Y87000D01*
X13500D02*X24700D01*
X13500Y99000D02*X24700D01*
X22460Y95000D02*X24700D01*
X17980D02*X20220D01*
X13500D02*X15740D01*
G54D198*X39250Y87600D02*X42750D01*
X39250Y89600D02*X42750D01*
Y87600D01*
X39250Y89600D02*Y87600D01*
G54D196*X39300Y86350D02*Y84450D01*
X38300Y86350D02*Y84450D01*
Y86350D02*X39300D01*
X38300Y84450D02*X39300D01*
G54D198*X39450Y87500D02*Y83300D01*
X42950Y87500D02*Y83300D01*
X39450D02*X42950D01*
X39450Y87500D02*X42950D01*
G54D199*X39350Y83200D02*X40350D01*
X39350Y84200D02*Y83200D01*
G54D198*X35800Y85100D02*Y80300D01*
X38000Y85100D02*Y80300D01*
X35800D02*X38000D01*
X35800Y85100D02*X38000D01*
X35700Y85200D02*X38100D01*
X35700D02*Y83500D01*
G54D201*X35950Y85000D02*Y83900D01*
G54D198*X38100Y85200D02*Y83500D01*
G54D201*X37850Y85000D02*Y83900D01*
G54D198*X31300Y89450D02*Y85950D01*
X33300Y89450D02*Y85950D01*
X31300D02*X33300D01*
X31300Y89450D02*X33300D01*
G54D199*X32300Y85850D02*Y85700D01*
G54D198*X31300Y87825D02*X33300D01*
X32300D02*Y87525D01*
G54D196*X34300Y89450D02*Y87550D01*
X33300Y89450D02*Y87550D01*
Y89450D02*X34300D01*
X33300Y87550D02*X34300D01*
G54D198*X27650Y89400D02*X31150D01*
X27650Y87400D02*X31150D01*
X27650Y89400D02*Y87400D01*
X31150Y89400D02*Y87400D01*
G54D196*X31300Y87100D02*Y81700D01*
X27100Y87100D02*Y81700D01*
Y87100D02*X31300D01*
X27100Y81700D02*X31300D01*
G54D198*Y85250D02*Y81750D01*
X33300Y85250D02*Y81750D01*
X31300D02*X33300D01*
X31300Y85250D02*X33300D01*
Y81750D01*
X35300Y85250D02*Y81750D01*
X33300D02*X35300D01*
X33300Y85250D02*X35300D01*
G54D196*X37600Y79850D02*Y77950D01*
X38600Y79850D02*Y77950D01*
X37600D02*X38600D01*
X37600Y79850D02*X38600D01*
X35700Y79750D02*Y77850D01*
X34700Y79750D02*Y77850D01*
Y79750D02*X35700D01*
X34700Y77850D02*X35700D01*
G54D198*X28650Y73950D02*X33350D01*
X28650Y76250D02*X33350D01*
Y73950D01*
X28650Y76250D02*Y73950D01*
G54D196*X33700Y79750D02*Y77850D01*
X34700Y79750D02*Y77850D01*
X33700D02*X34700D01*
X33700Y79750D02*X34700D01*
X29150Y76300D02*X31050D01*
X29150Y77300D02*X31050D01*
Y76300D01*
X29150Y77300D02*Y76300D01*
X33700Y77850D02*Y75950D01*
X34700Y77850D02*Y75950D01*
X33700D02*X34700D01*
X33700Y77850D02*X34700D01*
G54D198*X28650Y71650D02*X33350D01*
X28650Y73950D02*X33350D01*
Y71650D01*
X28650Y73950D02*Y71650D01*
X42500Y82200D02*G75*G03X42500Y82200I0J-6300D01*G01*
Y79650D02*G75*G03X42500Y79650I0J-1250D01*G01*
Y74650D02*G75*G03X42500Y74650I0J-1250D01*G01*
X46250Y76400D02*G75*G03X46250Y76400I0J-500D01*G01*
X38750D02*G75*G03X38750Y76400I0J-500D01*G01*
G54D196*X66900Y51950D02*Y50050D01*
X65900Y51950D02*Y50050D01*
Y51950D02*X66900D01*
X65900Y50050D02*X66900D01*
G54D198*X63700Y56250D02*Y52750D01*
X65700Y56250D02*Y52750D01*
X63700D02*X65700D01*
X63700Y56250D02*X65700D01*
G54D200*X67000Y58500D02*X79000D01*
X67000Y43500D02*X79000D01*
X67000Y58500D02*Y43500D01*
X79000Y58500D02*Y43500D01*
X75000Y46500D02*Y43500D01*
Y52500D02*Y49500D01*
Y58500D02*Y55500D01*
G54D198*X63700Y52750D02*Y49250D01*
X65700Y52750D02*Y49250D01*
X63700D02*X65700D01*
X63700Y52750D02*X65700D01*
G54D199*X64700Y49150D02*Y49000D01*
G54D198*X63700Y51000D02*X65700D01*
X64700D02*Y50700D01*
G54D196*X51750Y68200D02*X53650D01*
X51750Y67200D02*X53650D01*
X51750Y68200D02*Y67200D01*
X53650Y68200D02*Y67200D01*
X51750Y69200D02*X53650D01*
X51750Y68200D02*X53650D01*
X51750Y69200D02*Y68200D01*
X53650Y69200D02*Y68200D01*
X55550D01*
X53650Y69200D02*X55550D01*
Y68200D01*
X53650Y69200D02*Y68200D01*
X52750Y67000D02*X54650D01*
X52750Y66000D02*X54650D01*
X52750Y67000D02*Y66000D01*
X54650Y67000D02*Y66000D01*
X52750Y63300D02*X54650D01*
X52750Y62300D02*X54650D01*
X52750Y63300D02*Y62300D01*
X54650Y63300D02*Y62300D01*
X52750Y63300D02*X54650D01*
X52750Y64300D02*X54650D01*
Y63300D01*
X52750Y64300D02*Y63300D01*
Y65000D02*X54650D01*
X52750Y66000D02*X54650D01*
Y65000D01*
X52750Y66000D02*Y65000D01*
X50700Y66450D02*Y64550D01*
X51700Y66450D02*Y64550D01*
X50700D02*X51700D01*
X50700Y66450D02*X51700D01*
Y64250D02*Y62350D01*
X52700Y64250D02*Y62350D01*
X51700D02*X52700D01*
X51700Y64250D02*X52700D01*
Y66950D02*Y65050D01*
X51700Y66950D02*Y65050D01*
Y66950D02*X52700D01*
X51700Y65050D02*X52700D01*
G54D198*X43950Y64550D02*X50650D01*
X43950Y68850D02*X50650D01*
Y64550D01*
X43950Y68850D02*Y64550D01*
M02*
