M48
METRIC,000.000
T142C0.300
T141C0.900
T140C1.450
T139C0.700
T138C1.000
T137C0.800
T136C1.200
T135C0.650
T134C1.600
%
T142
X011400Y076700
X011600Y075500
X011800Y088650
X012200Y083600
X012200Y024400
X012300Y042400
X012400Y093600
X012800Y087700
X012800Y077000
X013200Y083600
X013200Y061300
X013600Y077000
X014200Y083600
X014400Y093600
X014400Y077000
X014400Y058700
X014400Y040700
X015200Y083600
X015200Y077000
X015200Y058700
X015200Y040700
X016000Y069000
X016000Y058700
X016000Y051000
X016000Y040700
X016000Y033000
X016000Y022900
X016400Y093600
X016900Y077400
X017500Y074300
X017800Y077400
X017800Y076500
X017800Y075600
X017800Y024400
X017800Y023600
X018200Y074800
X018400Y093600
X018500Y024000
X018600Y067700
X018600Y067100
X018600Y049700
X018600Y049100
X018600Y031700
X018600Y031100
X020400Y093600
X020400Y076200
X020400Y075300
X021200Y024200
X021300Y076400
X021900Y077100
X022400Y093600
X023600Y076200
X024100Y076700
X024400Y093600
X024600Y076200
X024600Y059500
X024600Y058700
X024600Y057900
X024600Y057100
X024600Y056300
X024600Y054700
X024600Y053900
X024600Y053100
X024600Y052300
X024600Y051500
X024600Y045500
X024600Y044700
X024600Y043900
X024600Y043100
X024600Y042300
X024600Y041500
X024600Y040700
X024600Y039900
X024600Y039100
X024600Y038300
X024600Y037500
X024800Y049100
X024800Y048300
X025300Y059900
X025300Y059100
X025300Y058300
X025300Y057500
X025300Y056700
X025300Y054300
X025300Y053500
X025300Y052700
X025300Y051900
X025300Y051100
X025300Y045900
X025300Y045100
X025300Y044300
X025300Y043500
X025300Y042700
X025300Y041900
X025300Y041100
X025300Y040300
X025300Y039500
X025300Y038700
X025300Y037900
X025300Y037100
X025300Y023500
X025300Y022500
X025500Y049500
X025500Y048700
X025500Y047900
X026000Y080000
X026100Y023900
X026400Y093600
X026900Y024300
X027600Y022500
X028400Y093600
X028700Y035200
X028700Y034400
X029100Y059700
X029100Y051300
X029100Y045700
X029100Y037300
X029400Y035600
X029400Y034800
X029400Y034000
X029500Y060400
X029500Y050600
X029500Y046400
X029500Y036600
X029900Y059700
X029900Y051300
X029900Y045700
X029900Y037300
X029950Y065550
X030100Y022500
X030300Y060400
X030300Y050600
X030300Y046400
X030300Y036600
X030400Y093600
X030400Y065150
X030500Y074500
X030500Y073800
X030500Y073100
X030500Y072400
X030600Y071200
X030600Y070500
X030700Y059700
X030700Y051300
X030700Y045700
X030700Y037300
X030850Y065550
X031100Y060400
X031100Y050600
X031100Y046400
X031100Y036600
X031300Y081800
X031300Y077200
X031500Y074500
X031500Y073800
X031500Y073100
X031500Y072400
X031500Y067400
X031500Y066700
X031500Y059700
X031500Y051300
X031500Y045700
X031500Y037300
X031900Y060400
X031900Y050600
X031900Y046400
X031900Y036600
X032000Y081600
X032000Y077200
X032100Y062800
X032300Y059700
X032300Y051300
X032300Y045700
X032300Y037300
X032400Y093600
X032700Y060400
X032700Y050600
X032700Y046400
X032700Y036600
X032700Y022500
X033100Y059700
X033100Y051300
X033100Y045700
X033100Y037300
X033300Y078900
X033300Y078000
X033500Y060400
X033500Y050600
X033500Y046400
X033500Y036600
X033650Y064450
X033700Y087100
X033900Y059700
X033900Y051300
X033900Y045700
X033900Y037300
X033950Y065450
X034200Y067400
X034250Y068600
X034400Y093600
X034900Y026600
X034900Y025800
X035100Y075200
X035100Y074200
X035600Y027000
X035600Y026200
X035800Y085700
X035900Y074200
X036200Y078000
X036300Y070500
X036400Y093600
X036500Y082000
X036600Y069800
X036600Y069200
X036600Y068000
X036600Y067350
X036800Y076000
X036800Y064450
X036800Y063550
X036900Y070500
X037100Y079800
X037100Y078600
X037200Y074800
X037200Y073400
X037200Y062700
X037300Y082000
X037400Y077800
X037500Y051900
X037500Y037900
X037800Y022500
X037800Y021700
X037800Y020900
X037800Y020100
X037800Y019300
X037800Y018500
X037800Y017700
X037800Y016300
X037800Y015500
X037800Y014700
X037800Y013900
X037800Y013100
X037800Y012300
X037800Y011500
X038000Y088600
X038000Y080300
X038000Y076000
X038100Y064200
X038300Y077600
X038400Y093600
X038400Y027000
X038400Y026200
X038400Y022100
X038400Y021300
X038400Y020500
X038400Y019700
X038400Y018900
X038400Y018100
X038400Y015900
X038400Y015100
X038400Y014300
X038400Y013500
X038400Y012700
X038400Y011900
X038600Y065700
X038600Y059900
X038600Y059000
X038800Y087500
X038800Y082100
X039000Y072400
X039000Y022500
X039000Y021700
X039000Y020900
X039000Y020100
X039000Y019300
X039000Y018500
X039000Y017700
X039000Y016300
X039000Y015500
X039000Y014700
X039000Y013900
X039000Y013100
X039000Y012300
X039000Y011500
X039100Y063400
X039100Y026600
X039100Y025800
X039300Y066500
X039400Y086700
X039400Y079000
X039400Y045600
X039400Y044700
X039500Y068500
X039500Y067600
X039700Y082100
X039800Y070200
X039800Y064000
X039900Y037400
X040400Y093600
X040500Y063400
X040700Y069900
X041000Y079100
X041000Y065500
X041200Y017600
X041200Y016400
X041300Y085600
X041500Y069900
X041600Y072100
X041600Y017000
X041700Y066100
X041700Y064900
X041800Y059000
X041800Y045600
X041900Y074600
X042000Y079600
X042000Y017600
X042000Y016400
X042200Y085600
X042200Y082400
X042200Y059900
X042200Y044700
X042200Y040500
X042400Y093600
X042400Y032500
X042400Y031700
X042400Y030900
X042400Y030100
X042400Y029300
X042400Y028500
X042400Y027700
X042400Y017000
X042500Y069900
X042700Y063300
X042800Y017600
X042800Y016400
X042900Y089200
X042900Y036100
X043100Y032900
X043100Y032100
X043100Y031300
X043100Y030500
X043100Y029700
X043100Y028900
X043100Y028100
X043100Y027300
X043200Y089700
X043200Y017000
X043300Y069900
X043500Y089200
X043500Y072500
X043600Y077100
X043600Y063400
X043700Y075100
X043700Y074000
X043800Y045600
X043800Y044700
X043800Y032500
X043800Y031700
X043800Y030900
X043800Y030100
X043800Y029300
X043800Y028500
X043800Y027700
X044100Y082000
X044200Y069500
X044300Y084600
X044300Y083600
X044400Y093600
X044500Y080400
X044500Y036100
X044500Y032900
X044500Y032100
X044500Y031300
X044500Y030500
X044500Y029700
X044500Y028900
X044500Y028100
X044500Y027300
X044800Y063500
X044900Y070200
X045000Y059900
X045000Y059000
X045100Y066700
X045400Y037500
X045700Y063600
X046000Y091700
X046000Y081700
X046000Y078100
X046000Y077200
X046000Y072500
X046000Y071100
X046100Y075700
X046700Y073200
X046700Y071800
X046700Y063400
X046700Y022500
X046700Y021700
X046700Y020900
X046700Y020100
X046700Y019300
X046700Y018500
X046700Y017700
X046700Y016300
X046700Y015500
X046700Y014700
X046700Y013900
X046700Y013100
X046700Y012300
X046700Y011500
X046800Y076200
X047300Y083900
X047300Y080500
X047300Y029300
X047400Y023100
X047400Y022100
X047400Y021300
X047400Y020500
X047400Y019700
X047400Y018900
X047400Y018100
X047400Y015900
X047400Y015100
X047400Y014300
X047400Y013500
X047400Y012700
X047400Y011900
X047500Y045100
X047700Y077800
X047800Y091700
X048100Y089200
X048100Y088400
X048100Y022500
X048100Y021700
X048100Y020900
X048100Y020100
X048100Y019300
X048100Y018500
X048100Y017700
X048100Y016300
X048100Y015500
X048100Y014700
X048100Y013900
X048100Y013100
X048100Y012300
X048100Y011500
X048200Y080500
X048900Y078900
X048900Y077800
X049200Y071500
X049500Y082800
X049500Y066700
X049900Y072100
X049900Y059100
X050200Y083300
X050200Y072900
X050400Y080100
X050400Y079200
X050400Y063600
X050900Y029300
X051100Y085400
X051100Y059700
X051100Y051300
X051100Y045700
X051100Y037300
X051300Y077300
X051300Y062800
X051400Y068900
X051500Y060400
X051500Y050600
X051500Y046400
X051500Y036600
X051900Y080000
X051900Y059700
X051900Y051300
X051900Y045700
X051900Y037300
X052000Y079000
X052200Y077300
X052200Y064700
X052300Y087600
X052300Y060400
X052300Y050600
X052300Y046400
X052300Y036600
X052400Y073100
X052700Y071500
X052700Y059700
X052700Y051300
X052700Y045700
X052700Y037300
X052800Y079400
X053000Y072400
X053100Y080300
X053100Y060400
X053100Y050600
X053100Y046400
X053100Y036600
X053500Y074800
X053500Y073900
X053500Y059700
X053500Y051300
X053500Y045700
X053500Y037300
X053600Y071600
X053700Y032900
X053700Y032100
X053700Y031300
X053700Y030500
X053700Y029700
X053700Y028900
X053700Y028100
X053700Y027300
X053800Y077200
X053900Y060400
X053900Y050600
X053900Y046400
X053900Y036600
X054100Y067700
X054300Y072700
X054300Y059700
X054300Y051300
X054300Y045700
X054300Y037300
X054400Y032500
X054400Y031700
X054400Y030900
X054400Y030100
X054400Y029300
X054400Y028500
X054400Y027700
X054500Y077800
X054700Y071300
X054700Y060400
X054700Y050600
X054700Y046400
X054700Y036600
X054800Y092100
X055000Y067700
X055100Y079100
X055100Y075500
X055100Y059700
X055100Y051300
X055100Y045700
X055100Y037300
X055100Y032900
X055100Y032100
X055100Y031300
X055100Y030500
X055100Y029700
X055100Y028900
X055100Y028100
X055100Y027300
X055200Y086300
X055200Y085600
X055200Y072700
X055500Y084100
X055500Y080300
X055500Y061600
X055500Y060400
X055500Y050600
X055500Y046400
X055500Y036600
X055800Y082600
X055800Y032500
X055800Y031700
X055800Y030900
X055800Y030100
X055800Y029300
X055800Y028500
X055800Y027700
X055900Y084900
X055900Y067700
X055900Y059700
X055900Y051300
X055900Y045700
X055900Y037300
X056100Y083400
X056400Y088800
X056400Y080400
X056600Y068700
X057400Y069800
X058000Y085200
X058000Y084300
X058200Y082900
X058200Y074700
X058300Y088800
X058300Y049500
X058300Y048700
X058300Y047900
X058400Y035600
X058400Y034800
X058400Y034000
X058600Y073900
X058800Y083600
X058800Y082100
X058900Y091600
X059000Y049100
X059000Y048300
X059100Y035200
X059100Y034400
X059200Y090200
X059400Y081400
X059700Y077800
X059700Y076100
X059700Y059900
X059700Y059100
X059700Y058300
X059700Y057500
X059700Y056700
X059700Y054300
X059700Y053500
X059700Y052700
X059700Y051900
X059700Y051100
X059700Y045900
X059700Y045100
X059700Y044300
X059700Y043500
X059700Y042700
X059700Y041900
X059700Y041100
X059700Y040300
X059700Y039500
X059700Y038700
X059700Y037900
X059700Y037100
X059900Y075000
X059900Y073200
X059900Y067800
X060000Y076900
X060400Y059500
X060400Y058700
X060400Y057900
X060400Y057100
X060400Y056300
X060400Y054700
X060400Y053900
X060400Y053100
X060400Y052300
X060400Y051500
X060400Y045500
X060400Y044700
X060400Y043900
X060400Y043100
X060400Y042300
X060400Y041500
X060400Y040700
X060400Y039900
X060400Y039100
X060400Y038300
X060400Y037500
X060600Y087600
X061000Y091800
X061700Y071700
X061800Y082300
X062600Y077500
X062700Y093600
X062700Y089700
X062700Y087100
X062700Y076600
X064600Y093600
X064900Y077500
X065100Y087900
X065200Y075800
X065200Y067000
X065200Y049000
X065200Y031000
X065500Y082300
X065600Y078100
X066100Y075800
X066200Y070900
X066200Y070300
X066200Y052900
X066200Y052300
X066200Y034900
X066200Y034300
X066400Y078600
X066600Y093600
X066600Y042600
X066700Y059400
X066800Y023100
X066800Y022300
X066800Y021500
X066800Y020700
X066800Y019900
X066800Y015200
X066800Y014400
X066800Y013600
X066800Y012800
X066800Y012000
X067000Y092000
X067000Y075800
X067100Y079300
X067200Y085500
X067200Y083300
X067300Y043000
X067300Y042200
X067400Y059800
X067400Y059000
X067500Y023500
X067500Y022700
X067500Y021900
X067500Y021100
X067500Y020300
X067500Y019500
X067500Y015600
X067500Y014800
X067500Y014000
X067500Y013200
X067500Y012400
X067500Y011600
X068100Y025400
X068500Y086400
X068500Y084600
X068500Y081100
X068500Y076800
X068500Y026100
X068600Y093600
X068900Y025400
X069500Y076800
X070300Y023500
X070300Y022700
X070300Y021900
X070300Y021100
X070300Y020300
X070300Y019500
X070300Y015600
X070300Y014800
X070300Y014000
X070300Y013200
X070300Y012400
X070300Y011600
X070500Y089700
X070500Y080100
X070500Y076800
X070600Y093600
X070600Y069000
X070600Y051000
X070600Y033000
X070800Y061300
X070800Y043300
X071000Y023100
X071000Y022300
X071000Y021500
X071000Y020700
X071000Y019900
X071000Y015200
X071000Y014400
X071000Y013600
X071000Y012800
X071000Y012000
X071500Y088700
X071500Y079300
X072200Y023900
X072600Y093600
X073600Y092600
X073600Y086900
X073600Y084400
X073600Y081800
X073600Y079300
X073600Y076700
T135
X044960Y086900
X044960Y085630
X046230Y086900
X046230Y085630
X047500Y086900
X047500Y085630
X048770Y086900
X048770Y085630
X050040Y086900
X050040Y085630
T139
X042500Y078400
X042500Y073400
T137
X051075Y090670
X055925Y090670
T141
X019500Y085700
X019500Y080300
X022000Y085700
X022000Y080300
X024500Y085700
X024500Y080300
X060500Y085700
X060500Y080300
X063000Y085700
X063000Y080300
X065500Y085700
X065500Y080300
T138
X027100Y077440
X027100Y074900
X073000Y090740
X073000Y088200
X073000Y085660
X073000Y083120
X073000Y080580
X073000Y078040
T136
X029095Y091000
X032905Y091000
X038095Y091000
X041905Y091000
X049400Y093750
X057600Y093750
X065095Y091000
X068905Y091000
T140
X012390Y020810
X012390Y018270
X012390Y015730
X012390Y013190
X020010Y020810
X020010Y018270
X020010Y015730
X020010Y013190
X023790Y020810
X023790Y013190
X026330Y020810
X026330Y013190
X028870Y020810
X028870Y013190
X031410Y020810
X031410Y013190
X053790Y020810
X053790Y013190
X056330Y020810
X056330Y013190
X058870Y020810
X058870Y013190
X061410Y020810
X061410Y013190
T134
X016000Y072750
X016000Y065250
X016000Y054750
X016000Y047250
X016000Y036750
X016000Y029250
X016600Y089000
X021600Y089000
X069000Y072750
X069000Y065250
X069000Y054750
X069000Y047250
X069000Y036750
X069000Y029250
M30
