G04 start of page 14 for group -4015 idx -4015 *
G04 Title: (unknown), toppaste *
G04 Creator: pcb 1.99z *
G04 CreationDate: Tue 11 Feb 2014 00:02:27 GMT UTC *
G04 For: rbarlow *
G04 Format: Gerber/RS-274X *
G04 PCB-Dimensions (mm): 85.00 105.00 *
G04 PCB-Coordinate-Origin: lower left *
%MOMM*%
%FSLAX43Y43*%
%LNTOPPASTE*%
%ADD228R,0.850X0.850*%
%ADD227R,0.650X0.650*%
%ADD226R,0.250X0.250*%
%ADD225R,1.650X1.650*%
%ADD224R,0.910X0.910*%
%ADD223R,1.500X1.500*%
%ADD222R,0.450X0.450*%
%ADD221R,1.460X1.460*%
%ADD220R,1.350X1.350*%
%ADD219R,1.625X1.625*%
%ADD218R,1.375X1.375*%
%ADD217R,1.300X1.300*%
%ADD216R,0.300X0.300*%
%ADD215R,0.400X0.400*%
%ADD214R,0.700X0.700*%
%ADD213R,2.000X2.000*%
%ADD212R,1.400X1.400*%
%ADD211R,0.950X0.950*%
%ADD210R,1.600X1.600*%
%ADD209R,2.700X2.700*%
%ADD208R,0.800X0.800*%
%ADD207R,1.150X1.150*%
%ADD206R,0.600X0.600*%
%ADD205R,0.620X0.620*%
G54D205*X58749Y75600D02*X58751D01*
X57849D02*X57851D01*
G54D206*X50050Y88800D02*X50250D01*
X48950D02*X49150D01*
G54D205*X43500Y88351D02*Y88349D01*
Y87451D02*Y87449D01*
X66400Y33451D02*Y33449D01*
Y32551D02*Y32549D01*
G54D207*X26600Y49025D02*Y48375D01*
X29600Y49025D02*Y48375D01*
G54D205*X38300Y51951D02*Y51949D01*
Y51051D02*Y51049D01*
G54D207*X57200Y49025D02*Y48375D01*
X54200Y49025D02*Y48375D01*
G54D205*X32600Y25651D02*Y25649D01*
Y26551D02*Y26549D01*
G54D207*X36675Y26200D02*X37325D01*
X36675Y29200D02*X37325D01*
G54D206*X48900Y22050D02*Y21850D01*
Y20950D02*Y20750D01*
G54D205*X43149Y40500D02*X43151D01*
X44049D02*X44051D01*
X50300Y21051D02*Y21049D01*
Y21951D02*Y21949D01*
G54D208*X12750Y89750D02*Y89650D01*
X10850Y89750D02*Y89650D01*
X11800Y87750D02*Y87650D01*
G54D209*X46275Y27675D02*Y26925D01*
X51925Y27675D02*Y26925D01*
X46275Y31675D02*Y30925D01*
X51925Y31675D02*Y30925D01*
G54D210*X68900Y22600D02*Y20300D01*
Y14700D02*Y12400D01*
G54D211*X34175Y14000D02*X34225D01*
X34175Y12400D02*X34225D01*
G54D212*X23900Y24820D02*Y24580D01*
X19900Y24820D02*Y24580D01*
G54D205*X66400Y69451D02*Y69449D01*
Y68551D02*Y68549D01*
G54D207*X64550Y71600D02*X64850D01*
X64550Y73400D02*X64850D01*
G54D205*X66400Y51451D02*Y51449D01*
Y50551D02*Y50549D01*
X18600Y32551D02*Y32549D01*
Y33451D02*Y33449D01*
G54D213*X12050Y85000D02*X15350D01*
X12050Y78400D02*X15350D01*
G54D207*X21475Y78200D02*X22125D01*
X21475Y75200D02*X22125D01*
G54D205*X38100Y78451D02*Y78449D01*
Y79351D02*Y79349D01*
G54D212*X46280Y89700D02*X46520D01*
X46280Y93700D02*X46520D01*
G54D205*X51500Y88151D02*Y88149D01*
Y89051D02*Y89049D01*
G54D214*X56250Y85850D02*X56550D01*
X56250Y86800D02*X56550D01*
X56250Y87750D02*X56550D01*
X53850D02*X54150D01*
X53850Y86800D02*X54150D01*
X53850Y85850D02*X54150D01*
G54D215*X53650Y84600D02*X53750D01*
G54D216*X53600Y84050D02*X53800D01*
X53600Y83550D02*X53800D01*
G54D215*X53650Y83000D02*X53750D01*
X54650Y84600D02*X54750D01*
G54D216*X54600Y84050D02*X54800D01*
X54600Y83550D02*X54800D01*
G54D215*X54650Y83000D02*X54750D01*
X46000Y62650D02*Y62550D01*
G54D216*X45450Y62700D02*Y62500D01*
X44950Y62700D02*Y62500D01*
G54D215*X44400Y62650D02*Y62550D01*
X46000Y61650D02*Y61550D01*
G54D216*X45450Y61700D02*Y61500D01*
X44950Y61700D02*Y61500D01*
G54D215*X44400Y61650D02*Y61550D01*
X39600Y62650D02*Y62550D01*
G54D216*X39050Y62700D02*Y62500D01*
X38550Y62700D02*Y62500D01*
G54D215*X38000Y62650D02*Y62550D01*
X39600Y61650D02*Y61550D01*
G54D216*X39050Y61700D02*Y61500D01*
X38550Y61700D02*Y61500D01*
G54D215*X38000Y61650D02*Y61550D01*
G54D206*X16850Y42650D02*Y42450D01*
Y41550D02*Y41350D01*
X16800Y60650D02*Y60450D01*
Y59550D02*Y59350D01*
X68200Y60650D02*Y60450D01*
Y59550D02*Y59350D01*
Y42650D02*Y42450D01*
Y41550D02*Y41350D01*
X16800Y24650D02*Y24450D01*
Y23550D02*Y23350D01*
X69650Y24600D02*X69850D01*
X68550D02*X68750D01*
G54D205*X40600Y61651D02*Y61649D01*
Y62551D02*Y62549D01*
X43400Y61651D02*Y61649D01*
Y62551D02*Y62549D01*
X18600Y50551D02*Y50549D01*
Y51451D02*Y51449D01*
Y68551D02*Y68549D01*
Y69451D02*Y69449D01*
G54D207*X20050Y65900D02*X20350D01*
X20050Y64100D02*X20350D01*
G54D206*X30600Y26575D02*X31200D01*
X28800D02*X29400D01*
X28800Y25625D02*X29400D01*
X30600D02*X31200D01*
G54D205*X43500Y86451D02*Y86449D01*
Y85551D02*Y85549D01*
G54D214*X59450Y89150D02*X59650D01*
X59450Y87850D02*X59650D01*
X61350Y88500D02*X61550D01*
G54D205*X51500Y86251D02*Y86249D01*
Y87151D02*Y87149D01*
G54D206*X19725Y52200D02*Y51600D01*
Y50400D02*Y49800D01*
X20675Y50400D02*Y49800D01*
Y52200D02*Y51600D01*
X19725Y70200D02*Y69600D01*
Y68400D02*Y67800D01*
X20675Y68400D02*Y67800D01*
Y70200D02*Y69600D01*
X64225Y70200D02*Y69600D01*
Y68400D02*Y67800D01*
X65175Y68400D02*Y67800D01*
Y70200D02*Y69600D01*
G54D205*X46700Y59051D02*Y59049D01*
Y59951D02*Y59949D01*
G54D207*X30500Y35125D02*Y34475D01*
X33500Y35125D02*Y34475D01*
G54D205*X38300Y37951D02*Y37949D01*
Y37051D02*Y37049D01*
G54D207*X57300Y35125D02*Y34475D01*
X54300Y35125D02*Y34475D01*
G54D205*X46700Y45051D02*Y45049D01*
Y45951D02*Y45949D01*
G54D206*X48267Y45900D02*X48867D01*
X48267Y45100D02*X48867D01*
X48267Y44300D02*X48867D01*
X48267Y43500D02*X48867D01*
X48267Y42700D02*X48867D01*
X48267Y41900D02*X48867D01*
X48267Y41100D02*X48867D01*
X48267Y40300D02*X48867D01*
X48267Y39500D02*X48867D01*
X48267Y38700D02*X48867D01*
X48267Y37900D02*X48867D01*
X48267Y37100D02*X48867D01*
X58133D02*X58733D01*
X58133Y37900D02*X58733D01*
X58133Y38700D02*X58733D01*
X58133Y39500D02*X58733D01*
X58133Y40300D02*X58733D01*
X58133Y41100D02*X58733D01*
X58133Y41900D02*X58733D01*
X58133Y42700D02*X58733D01*
X58133Y43500D02*X58733D01*
X58133Y44300D02*X58733D01*
X58133Y45100D02*X58733D01*
X58133Y45900D02*X58733D01*
G54D217*X51550Y44600D02*Y43900D01*
Y41850D02*Y41150D01*
Y39100D02*Y38400D01*
X53500Y44600D02*Y43900D01*
Y41850D02*Y41150D01*
Y39100D02*Y38400D01*
X55450Y44600D02*Y43900D01*
Y41850D02*Y41150D01*
Y39100D02*Y38400D01*
G54D206*X36133Y51100D02*X36733D01*
X36133Y51900D02*X36733D01*
X36133Y52700D02*X36733D01*
X36133Y53500D02*X36733D01*
X36133Y54300D02*X36733D01*
X36133Y55100D02*X36733D01*
X36133Y55900D02*X36733D01*
X36133Y56700D02*X36733D01*
X36133Y57500D02*X36733D01*
X36133Y58300D02*X36733D01*
X36133Y59100D02*X36733D01*
X36133Y59900D02*X36733D01*
X26267D02*X26867D01*
X26267Y59100D02*X26867D01*
X26267Y58300D02*X26867D01*
X26267Y57500D02*X26867D01*
X26267Y56700D02*X26867D01*
X26267Y55900D02*X26867D01*
X26267Y55100D02*X26867D01*
X26267Y54300D02*X26867D01*
X26267Y53500D02*X26867D01*
X26267Y52700D02*X26867D01*
X26267Y51900D02*X26867D01*
X26267Y51100D02*X26867D01*
G54D217*X33450Y53100D02*Y52400D01*
Y55850D02*Y55150D01*
Y58600D02*Y57900D01*
X31500Y53100D02*Y52400D01*
Y55850D02*Y55150D01*
Y58600D02*Y57900D01*
X29550Y53100D02*Y52400D01*
Y55850D02*Y55150D01*
Y58600D02*Y57900D01*
G54D206*X48267Y59900D02*X48867D01*
X48267Y59100D02*X48867D01*
X48267Y58300D02*X48867D01*
X48267Y57500D02*X48867D01*
X48267Y56700D02*X48867D01*
X48267Y55900D02*X48867D01*
X48267Y55100D02*X48867D01*
X48267Y54300D02*X48867D01*
X48267Y53500D02*X48867D01*
X48267Y52700D02*X48867D01*
X48267Y51900D02*X48867D01*
X48267Y51100D02*X48867D01*
X58133D02*X58733D01*
X58133Y51900D02*X58733D01*
X58133Y52700D02*X58733D01*
X58133Y53500D02*X58733D01*
X58133Y54300D02*X58733D01*
X58133Y55100D02*X58733D01*
X58133Y55900D02*X58733D01*
X58133Y56700D02*X58733D01*
X58133Y57500D02*X58733D01*
X58133Y58300D02*X58733D01*
X58133Y59100D02*X58733D01*
X58133Y59900D02*X58733D01*
G54D217*X51550Y58600D02*Y57900D01*
Y55850D02*Y55150D01*
Y53100D02*Y52400D01*
X53500Y58600D02*Y57900D01*
Y55850D02*Y55150D01*
Y53100D02*Y52400D01*
X55450Y58600D02*Y57900D01*
Y55850D02*Y55150D01*
Y53100D02*Y52400D01*
G54D206*X36133Y37100D02*X36733D01*
X36133Y37900D02*X36733D01*
X36133Y38700D02*X36733D01*
X36133Y39500D02*X36733D01*
X36133Y40300D02*X36733D01*
X36133Y41100D02*X36733D01*
X36133Y41900D02*X36733D01*
X36133Y42700D02*X36733D01*
X36133Y43500D02*X36733D01*
X36133Y44300D02*X36733D01*
X36133Y45100D02*X36733D01*
X36133Y45900D02*X36733D01*
X26267D02*X26867D01*
X26267Y45100D02*X26867D01*
X26267Y44300D02*X26867D01*
X26267Y43500D02*X26867D01*
X26267Y42700D02*X26867D01*
X26267Y41900D02*X26867D01*
X26267Y41100D02*X26867D01*
X26267Y40300D02*X26867D01*
X26267Y39500D02*X26867D01*
X26267Y38700D02*X26867D01*
X26267Y37900D02*X26867D01*
X26267Y37100D02*X26867D01*
G54D217*X33450Y39100D02*Y38400D01*
Y41850D02*Y41150D01*
Y44600D02*Y43900D01*
X31500Y39100D02*Y38400D01*
Y41850D02*Y41150D01*
Y44600D02*Y43900D01*
X29550Y39100D02*Y38400D01*
Y41850D02*Y41150D01*
Y44600D02*Y43900D01*
G54D218*X54437Y94113D02*Y93387D01*
X52563Y94113D02*Y93387D01*
G54D219*X57437Y93988D02*Y93513D01*
X49563Y93988D02*Y93513D01*
G54D220*X56387Y92325D02*X56862D01*
X50138D02*X50613D01*
G54D221*X56130Y90670D02*X56670D01*
X50330D02*X50870D01*
G54D215*X52200Y91400D02*Y90200D01*
X52850Y91400D02*Y90200D01*
X53500Y91400D02*Y90200D01*
X54150Y91400D02*Y90200D01*
X54800Y91400D02*Y90200D01*
G54D207*X64550Y35600D02*X64850D01*
X64550Y37400D02*X64850D01*
X64550Y53600D02*X64850D01*
X64550Y55400D02*X64850D01*
G54D206*X64225Y52200D02*Y51600D01*
Y50400D02*Y49800D01*
X65175Y50400D02*Y49800D01*
Y52200D02*Y51600D01*
X64225Y34200D02*Y33600D01*
Y32400D02*Y31800D01*
X65175Y32400D02*Y31800D01*
Y34200D02*Y33600D01*
G54D207*X20050Y29900D02*X20350D01*
X20050Y28100D02*X20350D01*
G54D206*X19725Y34200D02*Y33600D01*
Y32400D02*Y31800D01*
X20675Y32400D02*Y31800D01*
Y34200D02*Y33600D01*
G54D207*X20050Y47900D02*X20350D01*
X20050Y46100D02*X20350D01*
G54D222*X45230Y11995D02*X45860D01*
X45230Y13265D02*X45860D01*
X45230Y14535D02*X45860D01*
X45230Y15805D02*X45860D01*
X39805D02*X40355D01*
X39805Y14535D02*X40355D01*
X39805Y13265D02*X40355D01*
X39805Y11995D02*X40355D01*
G54D223*X42995Y12900D02*Y12530D01*
Y15270D02*Y14900D01*
X40995Y12900D02*Y12530D01*
Y15270D02*Y14900D01*
G54D222*X45230Y18195D02*X45860D01*
X45230Y19465D02*X45860D01*
X45230Y20735D02*X45860D01*
X45230Y22005D02*X45860D01*
X39805D02*X40355D01*
X39805Y20735D02*X40355D01*
X39805Y19465D02*X40355D01*
X39805Y18195D02*X40355D01*
G54D223*X42995Y19100D02*Y18730D01*
Y21470D02*Y21100D01*
X40995Y19100D02*Y18730D01*
Y21470D02*Y21100D01*
G54D207*X32150Y86800D02*X32450D01*
X32150Y88600D02*X32450D01*
G54D205*X33800Y88951D02*Y88949D01*
Y88051D02*Y88049D01*
G54D207*X41900Y88750D02*Y88450D01*
X40100Y88750D02*Y88450D01*
X28500Y88550D02*Y88250D01*
X30300Y88550D02*Y88250D01*
G54D205*X43500Y83651D02*Y83649D01*
Y84551D02*Y84549D01*
X38800Y85851D02*Y85849D01*
Y84951D02*Y84949D01*
X37749Y87100D02*X37751D01*
X36849D02*X36851D01*
X37749Y86100D02*X37751D01*
X36849D02*X36851D01*
G54D222*X40225Y84425D02*Y83775D01*
X40875Y84425D02*Y83775D01*
X41525Y84425D02*Y83775D01*
X42175Y84425D02*Y83775D01*
X40225Y87025D02*Y86375D01*
X40875Y87025D02*Y86375D01*
X41525Y87025D02*Y86375D01*
X42175Y87025D02*Y86375D01*
G54D207*X37000Y88750D02*Y88450D01*
X35200Y88750D02*Y88450D01*
G54D224*X36745Y84335D02*X37055D01*
X36745Y81065D02*X37055D01*
G54D225*X28875Y82750D02*X29525D01*
X28875Y86050D02*X29525D01*
G54D205*X36200Y79751D02*Y79749D01*
Y78851D02*Y78849D01*
X35200Y81151D02*Y81149D01*
Y80251D02*Y80249D01*
Y79251D02*Y79249D01*
Y78351D02*Y78349D01*
G54D207*X32150Y82600D02*X32450D01*
X32150Y84400D02*X32450D01*
X32500Y75425D02*Y74775D01*
X29500Y75425D02*Y74775D01*
G54D205*X34200Y78351D02*Y78349D01*
Y79251D02*Y79249D01*
X28100Y79651D02*Y79649D01*
Y80551D02*Y80549D01*
X34200Y81151D02*Y81149D01*
Y80251D02*Y80249D01*
G54D207*X34150Y82600D02*X34450D01*
X34150Y84400D02*X34450D01*
G54D205*X30549Y76800D02*X30551D01*
X29649D02*X29651D01*
G54D226*X31975Y78500D02*X32575D01*
X31975Y79000D02*X32575D01*
X31975Y79500D02*X32575D01*
X31975Y80000D02*X32575D01*
X31975Y80500D02*X32575D01*
X29025Y78500D02*X29625D01*
X29025Y79000D02*X29625D01*
X29025Y79500D02*X29625D01*
X29025Y80000D02*X29625D01*
X29025Y80500D02*X29625D01*
G54D227*X31250Y79050D02*Y78700D01*
X30350Y79050D02*Y78700D01*
X31250Y80300D02*Y79950D01*
X30350Y80300D02*Y79950D01*
G54D226*X31050Y78025D02*Y77775D01*
X30550Y78025D02*Y77775D01*
X31050Y81225D02*Y80975D01*
X30550Y81225D02*Y80975D01*
G54D205*X34200Y77351D02*Y77349D01*
Y76451D02*Y76449D01*
G54D207*X32500Y73125D02*Y72475D01*
X29500Y73125D02*Y72475D01*
G54D222*X43475Y37000D02*X44125D01*
X43475Y37650D02*X44125D01*
X43475Y38300D02*X44125D01*
X43475Y38950D02*X44125D01*
X40875Y37000D02*X41525D01*
X40875Y37650D02*X41525D01*
X40875Y38300D02*X41525D01*
X40875Y38950D02*X41525D01*
G54D205*X45400Y38351D02*Y38349D01*
Y39251D02*Y39249D01*
X44500Y34351D02*Y34349D01*
Y35251D02*Y35249D01*
X45799Y34300D02*X45801D01*
X46699D02*X46701D01*
X45799Y35300D02*X45801D01*
X46699D02*X46701D01*
G54D228*X31725Y70675D02*Y69525D01*
X33375Y70675D02*Y69525D01*
G54D205*X37700Y65451D02*Y65449D01*
Y66351D02*Y66349D01*
X35700Y66351D02*Y66349D01*
Y65451D02*Y65449D01*
X36700Y65451D02*Y65449D01*
Y66351D02*Y66349D01*
G54D207*X35350Y67700D02*X35650D01*
X35350Y69500D02*X35650D01*
X29775Y67200D02*X30425D01*
X29775Y64200D02*X30425D01*
X37550Y67700D02*X37850D01*
X37550Y69500D02*X37850D01*
G54D205*X31749Y65100D02*X31751D01*
X32649D02*X32651D01*
G54D206*X35500Y71301D02*Y71299D01*
Y73501D02*Y73499D01*
G54D226*X32050Y66475D02*Y66225D01*
X32550Y66475D02*Y66225D01*
X33050Y66475D02*Y66225D01*
X33550Y66475D02*Y66225D01*
X32050Y68375D02*Y68125D01*
X32550Y68375D02*Y68125D01*
X33050Y68375D02*Y68125D01*
X33550Y68375D02*Y68125D01*
G54D214*X32500Y67300D02*X33100D01*
G54D205*X61500Y92551D02*Y92549D01*
Y93451D02*Y93449D01*
G54D211*X59975Y92200D02*X60025D01*
X59975Y93800D02*X60025D01*
G54D205*X40100Y23651D02*Y23649D01*
Y24551D02*Y24549D01*
G54D222*X43450Y23450D02*X43950D01*
X43450Y24100D02*X43950D01*
X43450Y24750D02*X43950D01*
X41250Y23450D02*X41750D01*
X41250Y24750D02*X41750D01*
G54D205*X47249Y83100D02*X47251D01*
X46349D02*X46351D01*
X72049Y24800D02*X72051D01*
X71149D02*X71151D01*
X74100Y23951D02*Y23949D01*
Y24851D02*Y24849D01*
X73100Y23951D02*Y23949D01*
Y24851D02*Y24849D01*
X13100Y24451D02*Y24449D01*
Y23551D02*Y23549D01*
X14100Y24451D02*Y24449D01*
Y23551D02*Y23549D01*
X15100Y23551D02*Y23549D01*
Y24451D02*Y24449D01*
X71800Y60451D02*Y60449D01*
Y59551D02*Y59549D01*
X70800Y60451D02*Y60449D01*
Y59551D02*Y59549D01*
X69800Y59551D02*Y59549D01*
Y60451D02*Y60449D01*
X13200Y42451D02*Y42449D01*
Y41551D02*Y41549D01*
X14200Y42451D02*Y42449D01*
Y41551D02*Y41549D01*
X15200Y41551D02*Y41549D01*
Y42451D02*Y42449D01*
X13200Y60451D02*Y60449D01*
Y59551D02*Y59549D01*
X14200Y60451D02*Y60449D01*
Y59551D02*Y59549D01*
X15200Y59551D02*Y59549D01*
Y60451D02*Y60449D01*
G54D207*X23775Y78200D02*X24425D01*
X23775Y75200D02*X24425D01*
G54D205*X71800Y42451D02*Y42449D01*
Y41551D02*Y41549D01*
X70800Y42451D02*Y42449D01*
Y41551D02*Y41549D01*
X69800Y41551D02*Y41549D01*
Y42451D02*Y42449D01*
X58749Y78600D02*X58751D01*
X57849D02*X57851D01*
X58749Y77600D02*X58751D01*
X57849D02*X57851D01*
X58749Y76600D02*X58751D01*
X57849D02*X57851D01*
X60749Y73700D02*X60751D01*
X61649D02*X61651D01*
X70049Y83300D02*X70051D01*
X70949D02*X70951D01*
X68049D02*X68051D01*
X68949D02*X68951D01*
X43400Y66451D02*Y66449D01*
Y65551D02*Y65549D01*
X51200Y65051D02*Y65049D01*
Y65951D02*Y65949D01*
G54D212*X49300Y67900D02*X49700D01*
X44900D02*X45300D01*
X44900Y65500D02*X45300D01*
X49300D02*X49700D01*
G54D207*X41100Y68750D02*Y68450D01*
X42900Y68750D02*Y68450D01*
G54D216*X46850Y70600D02*Y69700D01*
X47350Y70600D02*Y69700D01*
X47850Y70600D02*Y69700D01*
X48350Y70600D02*Y69700D01*
X48850Y70600D02*Y69700D01*
X49350Y70600D02*Y69700D01*
X49850Y70600D02*Y69700D01*
X50350Y70600D02*Y69700D01*
X50850Y70600D02*Y69700D01*
X51350Y70600D02*Y69700D01*
X51850Y70600D02*Y69700D01*
X52350Y70600D02*Y69700D01*
X52850Y70600D02*Y69700D01*
X53350Y70600D02*Y69700D01*
X53850Y70600D02*Y69700D01*
X54350Y70600D02*Y69700D01*
X55900Y72150D02*X56800D01*
X55900Y72650D02*X56800D01*
X55900Y73150D02*X56800D01*
X55900Y73650D02*X56800D01*
X55900Y74150D02*X56800D01*
X55900Y74650D02*X56800D01*
X55900Y75150D02*X56800D01*
X55900Y75650D02*X56800D01*
X55900Y76150D02*X56800D01*
X55900Y76650D02*X56800D01*
X55900Y77150D02*X56800D01*
X55900Y77650D02*X56800D01*
X55900Y78150D02*X56800D01*
X55900Y78650D02*X56800D01*
X55900Y79150D02*X56800D01*
X55900Y79650D02*X56800D01*
X54350Y82100D02*Y81200D01*
X53850Y82100D02*Y81200D01*
X53350Y82100D02*Y81200D01*
X52850Y82100D02*Y81200D01*
X52350Y82100D02*Y81200D01*
X51850Y82100D02*Y81200D01*
X51350Y82100D02*Y81200D01*
X50850Y82100D02*Y81200D01*
X50350Y82100D02*Y81200D01*
X49850Y82100D02*Y81200D01*
X49350Y82100D02*Y81200D01*
X48850Y82100D02*Y81200D01*
X48350Y82100D02*Y81200D01*
X47850Y82100D02*Y81200D01*
X47350Y82100D02*Y81200D01*
X46850Y82100D02*Y81200D01*
X44400Y79650D02*X45300D01*
X44400Y79150D02*X45300D01*
X44400Y78650D02*X45300D01*
X44400Y78150D02*X45300D01*
X44400Y77650D02*X45300D01*
X44400Y77150D02*X45300D01*
X44400Y76650D02*X45300D01*
X44400Y76150D02*X45300D01*
X44400Y75650D02*X45300D01*
X44400Y75150D02*X45300D01*
X44400Y74650D02*X45300D01*
X44400Y74150D02*X45300D01*
X44400Y73650D02*X45300D01*
X44400Y73150D02*X45300D01*
X44400Y72650D02*X45300D01*
X44400Y72150D02*X45300D01*
G54D205*X55049Y68700D02*X55051D01*
X54149D02*X54151D01*
X52249Y67700D02*X52251D01*
X53149D02*X53151D01*
X52249Y68700D02*X52251D01*
X53149D02*X53151D01*
X43200Y71651D02*Y71649D01*
Y70751D02*Y70749D01*
X57800Y72251D02*Y72249D01*
Y73151D02*Y73149D01*
Y79651D02*Y79649D01*
Y80551D02*Y80549D01*
X42849Y75400D02*X42851D01*
X41949D02*X41951D01*
X42849Y76400D02*X42851D01*
X41949D02*X41951D01*
X53249Y62800D02*X53251D01*
X54149D02*X54151D01*
X54149Y63800D02*X54151D01*
X53249D02*X53251D01*
X52200Y62851D02*Y62849D01*
Y63751D02*Y63749D01*
X53249Y66500D02*X53251D01*
X54149D02*X54151D01*
X54149Y65500D02*X54151D01*
X53249D02*X53251D01*
X52200Y66451D02*Y66449D01*
Y65551D02*Y65549D01*
X39849Y71100D02*X39851D01*
X40749D02*X40751D01*
G54D207*X39775Y77200D02*X40425D01*
X39775Y80200D02*X40425D01*
G54D205*X39849Y72100D02*X39851D01*
X40749D02*X40751D01*
G54D214*X38550Y74650D02*X38750D01*
X38550Y73350D02*X38750D01*
X40450Y74000D02*X40650D01*
G54D205*X61649Y72700D02*X61651D01*
X60749D02*X60751D01*
X35700Y64451D02*Y64449D01*
Y63551D02*Y63549D01*
X34700Y66351D02*Y66349D01*
Y65451D02*Y65449D01*
Y64451D02*Y64449D01*
Y63551D02*Y63549D01*
X33649Y63600D02*X33651D01*
X32749D02*X32751D01*
X19549Y78600D02*X19551D01*
X18649D02*X18651D01*
X18649Y76600D02*X18651D01*
X19549D02*X19551D01*
X18649Y75600D02*X18651D01*
X19549D02*X19551D01*
X18649Y77600D02*X18651D01*
X19549D02*X19551D01*
X28100Y67451D02*Y67449D01*
Y66551D02*Y66549D01*
G54D214*X28950Y69050D02*Y68850D01*
X30250Y69050D02*Y68850D01*
X29600Y70950D02*Y70750D01*
G54D206*X69900Y88675D02*X70500D01*
X68100D02*X68700D01*
X68100Y87725D02*X68700D01*
X69900D02*X70500D01*
X66100Y88750D02*X66300D01*
X65000D02*X65200D01*
G54D208*X63850Y78050D02*X63950D01*
X63850Y76150D02*X63950D01*
X65850Y77100D02*X65950D01*
X70450Y84550D02*X70550D01*
X70450Y86450D02*X70550D01*
X68450Y85500D02*X68550D01*
X68450Y82050D02*X68550D01*
X68450Y80150D02*X68550D01*
X70450Y81100D02*X70550D01*
G54D205*X60099Y90600D02*X60101D01*
X60999D02*X61001D01*
X68500Y77551D02*Y77549D01*
Y78451D02*Y78449D01*
X69500Y77551D02*Y77549D01*
Y78451D02*Y78449D01*
X70500Y77551D02*Y77549D01*
Y78451D02*Y78449D01*
X62699Y88900D02*X62701D01*
X63599D02*X63601D01*
X62699Y87900D02*X62701D01*
X63599D02*X63601D01*
X61649Y75700D02*X61651D01*
X60749D02*X60751D01*
X61649Y76700D02*X61651D01*
X60749D02*X60751D01*
X61649Y77700D02*X61651D01*
X60749D02*X60751D01*
X61649Y74700D02*X61651D01*
X60749D02*X60751D01*
X51200Y66951D02*Y66949D01*
Y67851D02*Y67849D01*
M02*
