G04 start of page 15 for group -3984 idx -3984 *
G04 Title: (unknown), fab *
G04 Creator: pcb 1.99z *
G04 CreationDate: Tue 11 Feb 2014 00:02:27 GMT UTC *
G04 For: rbarlow *
G04 Format: Gerber/RS-274X *
G04 PCB-Dimensions (mm): 85.00 105.00 *
G04 PCB-Coordinate-Origin: lower left *
%MOMM*%
%FSLAX43Y43*%
%LNFAB*%
%ADD233C,0.254*%
%ADD232C,0.191*%
%ADD231C,0.152*%
%ADD230C,0.002*%
%ADD229R,0.203X0.203*%
G54D229*X26500Y32500D02*Y31281D01*
G54D230*G36*
X26361Y32537D02*X27594Y33248D01*
X27695Y33072D01*
X26463Y32361D01*
X26361Y32537D01*
G37*
G36*
X26537Y32361D02*X25305Y33072D01*
X25406Y33248D01*
X26639Y32537D01*
X26537Y32361D01*
G37*
G54D229*X26094Y32500D02*G75*G03X26906Y32500I406J0D01*G01*
G75*G03X26094Y32500I-406J0D01*G01*
X25687D02*G75*G03X27313Y32500I813J0D01*G01*
G75*G03X25687Y32500I-813J0D01*G01*
X58500Y64500D02*Y63281D01*
G54D230*G36*
X58361Y64537D02*X59594Y65248D01*
X59695Y65072D01*
X58463Y64361D01*
X58361Y64537D01*
G37*
G36*
X58537Y64361D02*X57305Y65072D01*
X57406Y65248D01*
X58639Y64537D01*
X58537Y64361D01*
G37*
G54D229*X58094Y64500D02*G75*G03X58906Y64500I406J0D01*G01*
G75*G03X58094Y64500I-406J0D01*G01*
X57687D02*G75*G03X59313Y64500I813J0D01*G01*
G75*G03X57687Y64500I-813J0D01*G01*
X3810Y107858D02*Y106638D01*
G54D230*G36*
X3671Y107895D02*X4904Y108606D01*
X5005Y108430D01*
X3773Y107719D01*
X3671Y107895D01*
G37*
G36*
X3847Y107719D02*X2615Y108430D01*
X2716Y108606D01*
X3949Y107895D01*
X3847Y107719D01*
G37*
G54D229*X3404Y107858D02*G75*G03X4216Y107858I406J0D01*G01*
G75*G03X3404Y107858I-406J0D01*G01*
X2997D02*G75*G03X4623Y107858I813J0D01*G01*
G75*G03X2997Y107858I-813J0D01*G01*
G54D231*X35560Y108429D02*Y106905D01*
Y108429D02*X36512Y106905D01*
Y108429D02*Y106905D01*
X36970Y108238D02*Y107096D01*
Y108238D02*X37160Y108429D01*
X37541D01*
X37732Y108238D01*
Y107096D01*
X37541Y106905D02*X37732Y107096D01*
X37160Y106905D02*X37541D01*
X36970Y107096D02*X37160Y106905D01*
X24892Y108238D02*X25082Y108429D01*
X25654D01*
X25844Y108238D01*
Y107858D01*
X24892Y106905D02*X25844Y107858D01*
X24892Y106905D02*X25844D01*
X11430Y107096D02*X11620Y106905D01*
X11430Y108238D02*Y107096D01*
Y108238D02*X11620Y108429D01*
X12002D01*
X12192Y108238D01*
Y107096D01*
X12002Y106905D02*X12192Y107096D01*
X11620Y106905D02*X12002D01*
X11430Y107286D02*X12192Y108048D01*
X12649Y106905D02*X12840D01*
X13297Y108124D02*X13602Y108429D01*
Y106905D01*
X13297D02*X13868D01*
X14326Y108238D02*X14516Y108429D01*
X15088D01*
X15278Y108238D01*
Y107858D01*
X14326Y106905D02*X15278Y107858D01*
X14326Y106905D02*X15278D01*
X16307Y108429D02*X16497Y108238D01*
X15926Y108429D02*X16307D01*
X15735Y108238D02*X15926Y108429D01*
X15735Y108238D02*Y107096D01*
X15926Y106905D01*
X16307Y107743D02*X16497Y107553D01*
X15735Y107743D02*X16307D01*
X15926Y106905D02*X16307D01*
X16497Y107096D01*
Y107553D02*Y107096D01*
X68594Y29656D02*X69406D01*
X68594D02*Y28844D01*
X69406D01*
Y29656D02*Y28844D01*
X68187Y30063D02*X69813D01*
X68187D02*Y28437D01*
X69813D01*
Y30063D02*Y28437D01*
X68594Y37156D02*X69406D01*
X68594D02*Y36344D01*
X69406D01*
Y37156D02*Y36344D01*
X68187Y37563D02*X69813D01*
X68187D02*Y35937D01*
X69813D01*
Y37563D02*Y35937D01*
X68594Y65656D02*X69406D01*
X68594D02*Y64844D01*
X69406D01*
Y65656D02*Y64844D01*
X68187Y66063D02*X69813D01*
X68187D02*Y64437D01*
X69813D01*
Y66063D02*Y64437D01*
X68594Y73156D02*X69406D01*
X68594D02*Y72344D01*
X69406D01*
Y73156D02*Y72344D01*
X68187Y73563D02*X69813D01*
X68187D02*Y71937D01*
X69813D01*
Y73563D02*Y71937D01*
X68594Y47656D02*X69406D01*
X68594D02*Y46844D01*
X69406D01*
Y47656D02*Y46844D01*
X68187Y48063D02*X69813D01*
X68187D02*Y46437D01*
X69813D01*
Y48063D02*Y46437D01*
X68594Y55156D02*X69406D01*
X68594D02*Y54344D01*
X69406D01*
Y55156D02*Y54344D01*
X68187Y55563D02*X69813D01*
X68187D02*Y53937D01*
X69813D01*
Y55563D02*Y53937D01*
X15594Y37156D02*X16406D01*
X15594D02*Y36344D01*
X16406D01*
Y37156D02*Y36344D01*
X15187Y37563D02*X16813D01*
X15187D02*Y35937D01*
X16813D01*
Y37563D02*Y35937D01*
X15594Y29656D02*X16406D01*
X15594D02*Y28844D01*
X16406D01*
Y29656D02*Y28844D01*
X15187Y30063D02*X16813D01*
X15187D02*Y28437D01*
X16813D01*
Y30063D02*Y28437D01*
X15594Y55156D02*X16406D01*
X15594D02*Y54344D01*
X16406D01*
Y55156D02*Y54344D01*
X15187Y55563D02*X16813D01*
X15187D02*Y53937D01*
X16813D01*
Y55563D02*Y53937D01*
X15594Y47656D02*X16406D01*
X15594D02*Y46844D01*
X16406D01*
Y47656D02*Y46844D01*
X15187Y48063D02*X16813D01*
X15187D02*Y46437D01*
X16813D01*
Y48063D02*Y46437D01*
X15594Y73156D02*X16406D01*
X15594D02*Y72344D01*
X16406D01*
Y73156D02*Y72344D01*
X15187Y73563D02*X16813D01*
X15187D02*Y71937D01*
X16813D01*
Y73563D02*Y71937D01*
X15594Y65656D02*X16406D01*
X15594D02*Y64844D01*
X16406D01*
Y65656D02*Y64844D01*
X15187Y66063D02*X16813D01*
X15187D02*Y64437D01*
X16813D01*
Y66063D02*Y64437D01*
X21194Y89406D02*X22006D01*
X21194D02*Y88594D01*
X22006D01*
Y89406D02*Y88594D01*
X20787Y89813D02*X22413D01*
X20787D02*Y88187D01*
X22413D01*
Y89813D02*Y88187D01*
X16194Y89406D02*X17006D01*
X16194D02*Y88594D01*
X17006D01*
Y89406D02*Y88594D01*
X15787Y89813D02*X17413D01*
X15787D02*Y88187D01*
X17413D01*
Y89813D02*Y88187D01*
X3404Y112074D02*X4216D01*
X3404D02*Y111261D01*
X4216D01*
Y112074D02*Y111261D01*
X2997Y112480D02*X4623D01*
X2997D02*Y110855D01*
X4623D01*
Y112480D02*Y110855D01*
X34290Y112239D02*X34671Y111477D01*
X35052Y112239D01*
X34671Y111477D02*Y110715D01*
X35509Y111553D02*X36081D01*
X35509Y110715D02*X36271D01*
X35509Y112239D02*Y110715D01*
Y112239D02*X36271D01*
X37490D02*X37681Y112048D01*
X36919Y112239D02*X37490D01*
X36728Y112048D02*X36919Y112239D01*
X36728Y112048D02*Y111668D01*
X36919Y111477D01*
X37490D01*
X37681Y111286D01*
Y110906D01*
X37490Y110715D02*X37681Y110906D01*
X36919Y110715D02*X37490D01*
X36728Y110906D02*X36919Y110715D01*
X24892Y111934D02*X25197Y112239D01*
Y110715D01*
X24892D02*X25464D01*
X25921Y111286D02*X26683Y112239D01*
X25921Y111286D02*X26873D01*
X26683Y112239D02*Y110715D01*
X11430Y110906D02*X11620Y110715D01*
X11430Y112048D02*Y110906D01*
Y112048D02*X11620Y112239D01*
X12002D01*
X12192Y112048D01*
Y110906D01*
X12002Y110715D02*X12192Y110906D01*
X11620Y110715D02*X12002D01*
X11430Y111096D02*X12192Y111858D01*
X12649Y110715D02*X12840D01*
X13297Y110906D02*X13487Y110715D01*
X13297Y112048D02*Y110906D01*
Y112048D02*X13487Y112239D01*
X13868D01*
X14059Y112048D01*
Y110906D01*
X13868Y110715D02*X14059Y110906D01*
X13487Y110715D02*X13868D01*
X13297Y111096D02*X14059Y111858D01*
X15088Y112239D02*X15278Y112048D01*
X14707Y112239D02*X15088D01*
X14516Y112048D02*X14707Y112239D01*
X14516Y112048D02*Y110906D01*
X14707Y110715D01*
X15088Y111553D02*X15278Y111363D01*
X14516Y111553D02*X15088D01*
X14707Y110715D02*X15088D01*
X15278Y110906D01*
Y111363D02*Y110906D01*
X15735Y112048D02*X15926Y112239D01*
X16307D01*
X16497Y112048D01*
X16307Y110715D02*X16497Y110906D01*
X15926Y110715D02*X16307D01*
X15735Y110906D02*X15926Y110715D01*
Y111553D02*X16307D01*
X16497Y112048D02*Y111744D01*
Y111363D02*Y110906D01*
Y111363D02*X16307Y111553D01*
X16497Y111744D02*X16307Y111553D01*
X12187Y13190D02*G75*G03X12593Y13190I203J0D01*G01*
G75*G03X12187Y13190I-203J0D01*G01*
X11780D02*G75*G03X13000Y13190I610J0D01*G01*
G75*G03X11780Y13190I-610J0D01*G01*
X12187Y15730D02*G75*G03X12593Y15730I203J0D01*G01*
G75*G03X12187Y15730I-203J0D01*G01*
X11780D02*G75*G03X13000Y15730I610J0D01*G01*
G75*G03X11780Y15730I-610J0D01*G01*
X12187Y18270D02*G75*G03X12593Y18270I203J0D01*G01*
G75*G03X12187Y18270I-203J0D01*G01*
X11780D02*G75*G03X13000Y18270I610J0D01*G01*
G75*G03X11780Y18270I-610J0D01*G01*
X12187Y20810D02*G75*G03X12593Y20810I203J0D01*G01*
G75*G03X12187Y20810I-203J0D01*G01*
X11780D02*G75*G03X13000Y20810I610J0D01*G01*
G75*G03X11780Y20810I-610J0D01*G01*
X19807Y13190D02*G75*G03X20213Y13190I203J0D01*G01*
G75*G03X19807Y13190I-203J0D01*G01*
X19400D02*G75*G03X20620Y13190I610J0D01*G01*
G75*G03X19400Y13190I-610J0D01*G01*
X19807Y15730D02*G75*G03X20213Y15730I203J0D01*G01*
G75*G03X19807Y15730I-203J0D01*G01*
X19400D02*G75*G03X20620Y15730I610J0D01*G01*
G75*G03X19400Y15730I-610J0D01*G01*
X19807Y18270D02*G75*G03X20213Y18270I203J0D01*G01*
G75*G03X19807Y18270I-203J0D01*G01*
X19400D02*G75*G03X20620Y18270I610J0D01*G01*
G75*G03X19400Y18270I-610J0D01*G01*
X19807Y20810D02*G75*G03X20213Y20810I203J0D01*G01*
G75*G03X19807Y20810I-203J0D01*G01*
X19400D02*G75*G03X20620Y20810I610J0D01*G01*
G75*G03X19400Y20810I-610J0D01*G01*
X53587D02*G75*G03X53993Y20810I203J0D01*G01*
G75*G03X53587Y20810I-203J0D01*G01*
X53180D02*G75*G03X54400Y20810I610J0D01*G01*
G75*G03X53180Y20810I-610J0D01*G01*
X56127D02*G75*G03X56533Y20810I203J0D01*G01*
G75*G03X56127Y20810I-203J0D01*G01*
X55720D02*G75*G03X56940Y20810I610J0D01*G01*
G75*G03X55720Y20810I-610J0D01*G01*
X58667D02*G75*G03X59073Y20810I203J0D01*G01*
G75*G03X58667Y20810I-203J0D01*G01*
X58260D02*G75*G03X59480Y20810I610J0D01*G01*
G75*G03X58260Y20810I-610J0D01*G01*
X61207D02*G75*G03X61613Y20810I203J0D01*G01*
G75*G03X61207Y20810I-203J0D01*G01*
X60800D02*G75*G03X62020Y20810I610J0D01*G01*
G75*G03X60800Y20810I-610J0D01*G01*
X53587Y13190D02*G75*G03X53993Y13190I203J0D01*G01*
G75*G03X53587Y13190I-203J0D01*G01*
X53180D02*G75*G03X54400Y13190I610J0D01*G01*
G75*G03X53180Y13190I-610J0D01*G01*
X56127D02*G75*G03X56533Y13190I203J0D01*G01*
G75*G03X56127Y13190I-203J0D01*G01*
X55720D02*G75*G03X56940Y13190I610J0D01*G01*
G75*G03X55720Y13190I-610J0D01*G01*
X58667D02*G75*G03X59073Y13190I203J0D01*G01*
G75*G03X58667Y13190I-203J0D01*G01*
X58260D02*G75*G03X59480Y13190I610J0D01*G01*
G75*G03X58260Y13190I-610J0D01*G01*
X61207D02*G75*G03X61613Y13190I203J0D01*G01*
G75*G03X61207Y13190I-203J0D01*G01*
X60800D02*G75*G03X62020Y13190I610J0D01*G01*
G75*G03X60800Y13190I-610J0D01*G01*
X23587Y20810D02*G75*G03X23993Y20810I203J0D01*G01*
G75*G03X23587Y20810I-203J0D01*G01*
X23180D02*G75*G03X24400Y20810I610J0D01*G01*
G75*G03X23180Y20810I-610J0D01*G01*
X26127D02*G75*G03X26533Y20810I203J0D01*G01*
G75*G03X26127Y20810I-203J0D01*G01*
X25720D02*G75*G03X26940Y20810I610J0D01*G01*
G75*G03X25720Y20810I-610J0D01*G01*
X28667D02*G75*G03X29073Y20810I203J0D01*G01*
G75*G03X28667Y20810I-203J0D01*G01*
X28260D02*G75*G03X29480Y20810I610J0D01*G01*
G75*G03X28260Y20810I-610J0D01*G01*
X31207D02*G75*G03X31613Y20810I203J0D01*G01*
G75*G03X31207Y20810I-203J0D01*G01*
X30800D02*G75*G03X32020Y20810I610J0D01*G01*
G75*G03X30800Y20810I-610J0D01*G01*
X23587Y13190D02*G75*G03X23993Y13190I203J0D01*G01*
G75*G03X23587Y13190I-203J0D01*G01*
X23180D02*G75*G03X24400Y13190I610J0D01*G01*
G75*G03X23180Y13190I-610J0D01*G01*
X26127D02*G75*G03X26533Y13190I203J0D01*G01*
G75*G03X26127Y13190I-203J0D01*G01*
X25720D02*G75*G03X26940Y13190I610J0D01*G01*
G75*G03X25720Y13190I-610J0D01*G01*
X28667D02*G75*G03X29073Y13190I203J0D01*G01*
G75*G03X28667Y13190I-203J0D01*G01*
X28260D02*G75*G03X29480Y13190I610J0D01*G01*
G75*G03X28260Y13190I-610J0D01*G01*
X31207D02*G75*G03X31613Y13190I203J0D01*G01*
G75*G03X31207Y13190I-203J0D01*G01*
X30800D02*G75*G03X32020Y13190I610J0D01*G01*
G75*G03X30800Y13190I-610J0D01*G01*
X3607Y115478D02*G75*G03X4013Y115478I203J0D01*G01*
G75*G03X3607Y115478I-203J0D01*G01*
X3200D02*G75*G03X4420Y115478I610J0D01*G01*
G75*G03X3200Y115478I-610J0D01*G01*
X34290Y116049D02*X34671Y115287D01*
X35052Y116049D01*
X34671Y115287D02*Y114525D01*
X35509Y115363D02*X36081D01*
X35509Y114525D02*X36271D01*
X35509Y116049D02*Y114525D01*
Y116049D02*X36271D01*
X37490D02*X37681Y115858D01*
X36919Y116049D02*X37490D01*
X36728Y115858D02*X36919Y116049D01*
X36728Y115858D02*Y115478D01*
X36919Y115287D01*
X37490D01*
X37681Y115096D01*
Y114716D01*
X37490Y114525D02*X37681Y114716D01*
X36919Y114525D02*X37490D01*
X36728Y114716D02*X36919Y114525D01*
X24892Y115858D02*X25082Y116049D01*
X25654D01*
X25844Y115858D01*
Y115478D01*
X24892Y114525D02*X25844Y115478D01*
X24892Y114525D02*X25844D01*
X26302Y115096D02*X27064Y116049D01*
X26302Y115096D02*X27254D01*
X27064Y116049D02*Y114525D01*
X11430Y114716D02*X11620Y114525D01*
X11430Y115858D02*Y114716D01*
Y115858D02*X11620Y116049D01*
X12002D01*
X12192Y115858D01*
Y114716D01*
X12002Y114525D02*X12192Y114716D01*
X11620Y114525D02*X12002D01*
X11430Y114906D02*X12192Y115668D01*
X12649Y114525D02*X12840D01*
X13297Y114716D02*X13487Y114525D01*
X13297Y115858D02*Y114716D01*
Y115858D02*X13487Y116049D01*
X13868D01*
X14059Y115858D01*
Y114716D01*
X13868Y114525D02*X14059Y114716D01*
X13487Y114525D02*X13868D01*
X13297Y114906D02*X14059Y115668D01*
X14516Y116049D02*X15278D01*
X14516D02*Y115287D01*
X14707Y115478D01*
X15088D01*
X15278Y115287D01*
Y114716D01*
X15088Y114525D02*X15278Y114716D01*
X14707Y114525D02*X15088D01*
X14516Y114716D02*X14707Y114525D01*
X15926D02*X16688Y116049D01*
X15735D02*X16688D01*
X56990Y94360D02*X58210Y93140D01*
X56990D02*X58210Y94360D01*
X57194Y94156D02*X58006D01*
X57194D02*Y93344D01*
X58006D01*
Y94156D02*Y93344D01*
X48790Y94360D02*X50010Y93140D01*
X48790D02*X50010Y94360D01*
X48994Y94156D02*X49806D01*
X48994D02*Y93344D01*
X49806D01*
Y94156D02*Y93344D01*
X32295Y91610D02*X33515Y90390D01*
X32295D02*X33515Y91610D01*
X32499Y91406D02*X33311D01*
X32499D02*Y90594D01*
X33311D01*
Y91406D02*Y90594D01*
X28485Y91610D02*X29705Y90390D01*
X28485D02*X29705Y91610D01*
X28689Y91406D02*X29501D01*
X28689D02*Y90594D01*
X29501D01*
Y91406D02*Y90594D01*
X41295Y91610D02*X42515Y90390D01*
X41295D02*X42515Y91610D01*
X41499Y91406D02*X42311D01*
X41499D02*Y90594D01*
X42311D01*
Y91406D02*Y90594D01*
X37485Y91610D02*X38705Y90390D01*
X37485D02*X38705Y91610D01*
X37689Y91406D02*X38501D01*
X37689D02*Y90594D01*
X38501D01*
Y91406D02*Y90594D01*
X68295Y91610D02*X69515Y90390D01*
X68295D02*X69515Y91610D01*
X68499Y91406D02*X69311D01*
X68499D02*Y90594D01*
X69311D01*
Y91406D02*Y90594D01*
X64485Y91610D02*X65705Y90390D01*
X64485D02*X65705Y91610D01*
X64689Y91406D02*X65501D01*
X64689D02*Y90594D01*
X65501D01*
Y91406D02*Y90594D01*
X60000Y83813D02*Y82187D01*
X59187Y83000D02*X60813D01*
X59594Y83406D02*X60406D01*
X59594D02*Y82594D01*
X60406D01*
Y83406D02*Y82594D01*
X19000Y83813D02*Y82187D01*
X18187Y83000D02*X19813D01*
X18594Y83406D02*X19406D01*
X18594D02*Y82594D01*
X19406D01*
Y83406D02*Y82594D01*
X3200Y119897D02*X4420Y118678D01*
X3200D02*X4420Y119897D01*
X3404Y119694D02*X4216D01*
X3404D02*Y118881D01*
X4216D01*
Y119694D02*Y118881D01*
X34290Y119859D02*X34671Y119097D01*
X35052Y119859D01*
X34671Y119097D02*Y118335D01*
X35509Y119173D02*X36081D01*
X35509Y118335D02*X36271D01*
X35509Y119859D02*Y118335D01*
Y119859D02*X36271D01*
X37490D02*X37681Y119668D01*
X36919Y119859D02*X37490D01*
X36728Y119668D02*X36919Y119859D01*
X36728Y119668D02*Y119288D01*
X36919Y119097D01*
X37490D01*
X37681Y118906D01*
Y118526D01*
X37490Y118335D02*X37681Y118526D01*
X36919Y118335D02*X37490D01*
X36728Y118526D02*X36919Y118335D01*
X24892Y118526D02*X25082Y118335D01*
X24892Y118830D02*Y118526D01*
Y118830D02*X25159Y119097D01*
X25387D01*
X25654Y118830D01*
Y118526D01*
X25464Y118335D02*X25654Y118526D01*
X25082Y118335D02*X25464D01*
X24892Y119364D02*X25159Y119097D01*
X24892Y119668D02*Y119364D01*
Y119668D02*X25082Y119859D01*
X25464D01*
X25654Y119668D01*
Y119364D01*
X25387Y119097D02*X25654Y119364D01*
X3810Y123910D02*Y122285D01*
X2997Y123098D02*X4623D01*
X3404Y123504D02*X4216D01*
X3404D02*Y122691D01*
X4216D01*
Y123504D02*Y122691D01*
X35560Y123669D02*Y122145D01*
Y123669D02*X36512Y122145D01*
Y123669D02*Y122145D01*
X36970Y123478D02*Y122336D01*
Y123478D02*X37160Y123669D01*
X37541D01*
X37732Y123478D01*
Y122336D01*
X37541Y122145D02*X37732Y122336D01*
X37160Y122145D02*X37541D01*
X36970Y122336D02*X37160Y122145D01*
X24892Y123478D02*X25082Y123669D01*
X25654D01*
X25844Y123478D01*
Y123098D01*
X24892Y122145D02*X25844Y123098D01*
X24892Y122145D02*X25844D01*
X11430Y122336D02*X11620Y122145D01*
X11430Y123478D02*Y122336D01*
Y123478D02*X11620Y123669D01*
X12002D01*
X12192Y123478D01*
Y122336D01*
X12002Y122145D02*X12192Y122336D01*
X11620Y122145D02*X12002D01*
X11430Y122526D02*X12192Y123288D01*
X12649Y122145D02*X12840D01*
X13297Y122336D02*X13487Y122145D01*
X13297Y123478D02*Y122336D01*
Y123478D02*X13487Y123669D01*
X13868D01*
X14059Y123478D01*
Y122336D01*
X13868Y122145D02*X14059Y122336D01*
X13487Y122145D02*X13868D01*
X13297Y122526D02*X14059Y123288D01*
X14516Y122716D02*X15278Y123669D01*
X14516Y122716D02*X15469D01*
X15278Y123669D02*Y122145D01*
X16116D02*X16878Y123669D01*
X15926D02*X16878D01*
X11430Y118526D02*X11620Y118335D01*
X11430Y119668D02*Y118526D01*
Y119668D02*X11620Y119859D01*
X12002D01*
X12192Y119668D01*
Y118526D01*
X12002Y118335D02*X12192Y118526D01*
X11620Y118335D02*X12002D01*
X11430Y118716D02*X12192Y119478D01*
X12649Y118335D02*X12840D01*
X13297Y118526D02*X13487Y118335D01*
X13297Y119668D02*Y118526D01*
Y119668D02*X13487Y119859D01*
X13868D01*
X14059Y119668D01*
Y118526D01*
X13868Y118335D02*X14059Y118526D01*
X13487Y118335D02*X13868D01*
X13297Y118716D02*X14059Y119478D01*
X14516Y118906D02*X15278Y119859D01*
X14516Y118906D02*X15469D01*
X15278Y119859D02*Y118335D01*
X16116D02*X16878Y119859D01*
X15926D02*X16878D01*
X73000Y90740D02*Y89927D01*
Y90740D02*X73704Y91146D01*
X73000Y90740D02*X72296Y91146D01*
X72594Y90740D02*G75*G03X73406Y90740I406J0D01*G01*
G75*G03X72594Y90740I-406J0D01*G01*
X73000Y88200D02*Y87387D01*
Y88200D02*X73704Y88606D01*
X73000Y88200D02*X72296Y88606D01*
X72594Y88200D02*G75*G03X73406Y88200I406J0D01*G01*
G75*G03X72594Y88200I-406J0D01*G01*
X73000Y85660D02*Y84847D01*
Y85660D02*X73704Y86066D01*
X73000Y85660D02*X72296Y86066D01*
X72594Y85660D02*G75*G03X73406Y85660I406J0D01*G01*
G75*G03X72594Y85660I-406J0D01*G01*
X73000Y83120D02*Y82307D01*
Y83120D02*X73704Y83526D01*
X73000Y83120D02*X72296Y83526D01*
X72594Y83120D02*G75*G03X73406Y83120I406J0D01*G01*
G75*G03X72594Y83120I-406J0D01*G01*
X73000Y80580D02*Y79767D01*
Y80580D02*X73704Y80986D01*
X73000Y80580D02*X72296Y80986D01*
X72594Y80580D02*G75*G03X73406Y80580I406J0D01*G01*
G75*G03X72594Y80580I-406J0D01*G01*
X73000Y78040D02*Y77227D01*
Y78040D02*X73704Y78446D01*
X73000Y78040D02*X72296Y78446D01*
X72594Y78040D02*G75*G03X73406Y78040I406J0D01*G01*
G75*G03X72594Y78040I-406J0D01*G01*
X27100Y77440D02*Y76627D01*
Y77440D02*X27804Y77846D01*
X27100Y77440D02*X26396Y77846D01*
X26694Y77440D02*G75*G03X27506Y77440I406J0D01*G01*
G75*G03X26694Y77440I-406J0D01*G01*
X27100Y74900D02*Y74087D01*
Y74900D02*X27804Y75306D01*
X27100Y74900D02*X26396Y75306D01*
X26694Y74900D02*G75*G03X27506Y74900I406J0D01*G01*
G75*G03X26694Y74900I-406J0D01*G01*
X3810Y126908D02*Y126095D01*
Y126908D02*X4514Y127314D01*
X3810Y126908D02*X3106Y127314D01*
X3404Y126908D02*G75*G03X4216Y126908I406J0D01*G01*
G75*G03X3404Y126908I-406J0D01*G01*
X34290Y127479D02*X34671Y126717D01*
X35052Y127479D01*
X34671Y126717D02*Y125955D01*
X35509Y126793D02*X36081D01*
X35509Y125955D02*X36271D01*
X35509Y127479D02*Y125955D01*
Y127479D02*X36271D01*
X37490D02*X37681Y127288D01*
X36919Y127479D02*X37490D01*
X36728Y127288D02*X36919Y127479D01*
X36728Y127288D02*Y126908D01*
X36919Y126717D01*
X37490D01*
X37681Y126526D01*
Y126146D01*
X37490Y125955D02*X37681Y126146D01*
X36919Y125955D02*X37490D01*
X36728Y126146D02*X36919Y125955D01*
X24892Y126146D02*X25082Y125955D01*
X24892Y126450D02*Y126146D01*
Y126450D02*X25159Y126717D01*
X25387D01*
X25654Y126450D01*
Y126146D01*
X25464Y125955D02*X25654Y126146D01*
X25082Y125955D02*X25464D01*
X24892Y126984D02*X25159Y126717D01*
X24892Y127288D02*Y126984D01*
Y127288D02*X25082Y127479D01*
X25464D01*
X25654Y127288D01*
Y126984D01*
X25387Y126717D02*X25654Y126984D01*
X11430Y126146D02*X11620Y125955D01*
X11430Y127288D02*Y126146D01*
Y127288D02*X11620Y127479D01*
X12002D01*
X12192Y127288D01*
Y126146D01*
X12002Y125955D02*X12192Y126146D01*
X11620Y125955D02*X12002D01*
X11430Y126336D02*X12192Y127098D01*
X12649Y125955D02*X12840D01*
X13297Y126146D02*X13487Y125955D01*
X13297Y127288D02*Y126146D01*
Y127288D02*X13487Y127479D01*
X13868D01*
X14059Y127288D01*
Y126146D01*
X13868Y125955D02*X14059Y126146D01*
X13487Y125955D02*X13868D01*
X13297Y126336D02*X14059Y127098D01*
X14516Y127288D02*X14707Y127479D01*
X15088D01*
X15278Y127288D01*
X15088Y125955D02*X15278Y126146D01*
X14707Y125955D02*X15088D01*
X14516Y126146D02*X14707Y125955D01*
Y126793D02*X15088D01*
X15278Y127288D02*Y126984D01*
Y126603D02*Y126146D01*
Y126603D02*X15088Y126793D01*
X15278Y126984D02*X15088Y126793D01*
X15926Y125955D02*X16497Y126717D01*
Y127288D02*Y126717D01*
X16307Y127479D02*X16497Y127288D01*
X15926Y127479D02*X16307D01*
X15735Y127288D02*X15926Y127479D01*
X15735Y127288D02*Y126908D01*
X15926Y126717D01*
X16497D01*
X65094Y80706D02*X65906D01*
X65094D02*Y79894D01*
X65906D01*
Y80706D02*Y79894D01*
X62594Y80706D02*X63406D01*
X62594D02*Y79894D01*
X63406D01*
Y80706D02*Y79894D01*
X60094Y80706D02*X60906D01*
X60094D02*Y79894D01*
X60906D01*
Y80706D02*Y79894D01*
X65094Y86106D02*X65906D01*
X65094D02*Y85294D01*
X65906D01*
Y86106D02*Y85294D01*
X62594Y86106D02*X63406D01*
X62594D02*Y85294D01*
X63406D01*
Y86106D02*Y85294D01*
X60094Y86106D02*X60906D01*
X60094D02*Y85294D01*
X60906D01*
Y86106D02*Y85294D01*
X24094Y80706D02*X24906D01*
X24094D02*Y79894D01*
X24906D01*
Y80706D02*Y79894D01*
X21594Y80706D02*X22406D01*
X21594D02*Y79894D01*
X22406D01*
Y80706D02*Y79894D01*
X19094Y80706D02*X19906D01*
X19094D02*Y79894D01*
X19906D01*
Y80706D02*Y79894D01*
X24094Y86106D02*X24906D01*
X24094D02*Y85294D01*
X24906D01*
Y86106D02*Y85294D01*
X21594Y86106D02*X22406D01*
X21594D02*Y85294D01*
X22406D01*
Y86106D02*Y85294D01*
X19094Y86106D02*X19906D01*
X19094D02*Y85294D01*
X19906D01*
Y86106D02*Y85294D01*
X3404Y131124D02*X4216D01*
X3404D02*Y130311D01*
X4216D01*
Y131124D02*Y130311D01*
X34290Y131289D02*X34671Y130527D01*
X35052Y131289D01*
X34671Y130527D02*Y129765D01*
X35509Y130603D02*X36081D01*
X35509Y129765D02*X36271D01*
X35509Y131289D02*Y129765D01*
Y131289D02*X36271D01*
X37490D02*X37681Y131098D01*
X36919Y131289D02*X37490D01*
X36728Y131098D02*X36919Y131289D01*
X36728Y131098D02*Y130718D01*
X36919Y130527D01*
X37490D01*
X37681Y130336D01*
Y129956D01*
X37490Y129765D02*X37681Y129956D01*
X36919Y129765D02*X37490D01*
X36728Y129956D02*X36919Y129765D01*
X24892Y130984D02*X25197Y131289D01*
Y129765D01*
X24892D02*X25464D01*
X25921Y131098D02*X26111Y131289D01*
X26683D01*
X26873Y131098D01*
Y130718D01*
X25921Y129765D02*X26873Y130718D01*
X25921Y129765D02*X26873D01*
X11430Y129956D02*X11620Y129765D01*
X11430Y131098D02*Y129956D01*
Y131098D02*X11620Y131289D01*
X12002D01*
X12192Y131098D01*
Y129956D01*
X12002Y129765D02*X12192Y129956D01*
X11620Y129765D02*X12002D01*
X11430Y130146D02*X12192Y130908D01*
X12649Y129765D02*X12840D01*
X13297Y129956D02*X13487Y129765D01*
X13297Y131098D02*Y129956D01*
Y131098D02*X13487Y131289D01*
X13868D01*
X14059Y131098D01*
Y129956D01*
X13868Y129765D02*X14059Y129956D01*
X13487Y129765D02*X13868D01*
X13297Y130146D02*X14059Y130908D01*
X14516Y131098D02*X14707Y131289D01*
X15088D01*
X15278Y131098D01*
X15088Y129765D02*X15278Y129956D01*
X14707Y129765D02*X15088D01*
X14516Y129956D02*X14707Y129765D01*
Y130603D02*X15088D01*
X15278Y131098D02*Y130794D01*
Y130413D02*Y129956D01*
Y130413D02*X15088Y130603D01*
X15278Y130794D02*X15088Y130603D01*
X15735Y131289D02*X16497D01*
X15735D02*Y130527D01*
X15926Y130718D01*
X16307D01*
X16497Y130527D01*
Y129956D01*
X16307Y129765D02*X16497Y129956D01*
X15926Y129765D02*X16307D01*
X15735Y129956D02*X15926Y129765D01*
X55722Y90670D02*G75*G03X56128Y90670I203J0D01*G01*
G75*G03X55722Y90670I-203J0D01*G01*
X50872D02*G75*G03X51278Y90670I203J0D01*G01*
G75*G03X50872Y90670I-203J0D01*G01*
X3607Y134528D02*G75*G03X4013Y134528I203J0D01*G01*
G75*G03X3607Y134528I-203J0D01*G01*
X34290Y135099D02*X34671Y134337D01*
X35052Y135099D01*
X34671Y134337D02*Y133575D01*
X35509Y134413D02*X36081D01*
X35509Y133575D02*X36271D01*
X35509Y135099D02*Y133575D01*
Y135099D02*X36271D01*
X37490D02*X37681Y134908D01*
X36919Y135099D02*X37490D01*
X36728Y134908D02*X36919Y135099D01*
X36728Y134908D02*Y134528D01*
X36919Y134337D01*
X37490D01*
X37681Y134146D01*
Y133766D01*
X37490Y133575D02*X37681Y133766D01*
X36919Y133575D02*X37490D01*
X36728Y133766D02*X36919Y133575D01*
X24892Y134908D02*X25082Y135099D01*
X25654D01*
X25844Y134908D01*
Y134528D01*
X24892Y133575D02*X25844Y134528D01*
X24892Y133575D02*X25844D01*
X11430Y133766D02*X11620Y133575D01*
X11430Y134908D02*Y133766D01*
Y134908D02*X11620Y135099D01*
X12002D01*
X12192Y134908D01*
Y133766D01*
X12002Y133575D02*X12192Y133766D01*
X11620Y133575D02*X12002D01*
X11430Y133956D02*X12192Y134718D01*
X12649Y133575D02*X12840D01*
X13297Y133766D02*X13487Y133575D01*
X13297Y134908D02*Y133766D01*
Y134908D02*X13487Y135099D01*
X13868D01*
X14059Y134908D01*
Y133766D01*
X13868Y133575D02*X14059Y133766D01*
X13487Y133575D02*X13868D01*
X13297Y133956D02*X14059Y134718D01*
X14516Y134908D02*X14707Y135099D01*
X15088D01*
X15278Y134908D01*
X15088Y133575D02*X15278Y133766D01*
X14707Y133575D02*X15088D01*
X14516Y133766D02*X14707Y133575D01*
Y134413D02*X15088D01*
X15278Y134908D02*Y134604D01*
Y134223D02*Y133766D01*
Y134223D02*X15088Y134413D01*
X15278Y134604D02*X15088Y134413D01*
X15735Y134794D02*X16040Y135099D01*
Y133575D01*
X15735D02*X16307D01*
X42195Y78705D02*X42805Y78095D01*
X42195D02*X42805Y78705D01*
X42195Y73705D02*X42805Y73095D01*
X42195D02*X42805Y73705D01*
X3505Y138642D02*X4115Y138033D01*
X3505D02*X4115Y138642D01*
X34290Y138909D02*X34671Y138147D01*
X35052Y138909D01*
X34671Y138147D02*Y137385D01*
X35509Y138223D02*X36081D01*
X35509Y137385D02*X36271D01*
X35509Y138909D02*Y137385D01*
Y138909D02*X36271D01*
X37490D02*X37681Y138718D01*
X36919Y138909D02*X37490D01*
X36728Y138718D02*X36919Y138909D01*
X36728Y138718D02*Y138338D01*
X36919Y138147D01*
X37490D01*
X37681Y137956D01*
Y137576D01*
X37490Y137385D02*X37681Y137576D01*
X36919Y137385D02*X37490D01*
X36728Y137576D02*X36919Y137385D01*
X24892Y138718D02*X25082Y138909D01*
X25654D01*
X25844Y138718D01*
Y138338D01*
X24892Y137385D02*X25844Y138338D01*
X24892Y137385D02*X25844D01*
X11430Y137576D02*X11620Y137385D01*
X11430Y138718D02*Y137576D01*
Y138718D02*X11620Y138909D01*
X12002D01*
X12192Y138718D01*
Y137576D01*
X12002Y137385D02*X12192Y137576D01*
X11620Y137385D02*X12002D01*
X11430Y137766D02*X12192Y138528D01*
X12649Y137385D02*X12840D01*
X13297Y137576D02*X13487Y137385D01*
X13297Y138718D02*Y137576D01*
Y138718D02*X13487Y138909D01*
X13868D01*
X14059Y138718D01*
Y137576D01*
X13868Y137385D02*X14059Y137576D01*
X13487Y137385D02*X13868D01*
X13297Y137766D02*X14059Y138528D01*
X14516Y138718D02*X14707Y138909D01*
X15278D01*
X15469Y138718D01*
Y138338D01*
X14516Y137385D02*X15469Y138338D01*
X14516Y137385D02*X15469D01*
X15926Y137576D02*X16116Y137385D01*
X15926Y137880D02*Y137576D01*
Y137880D02*X16193Y138147D01*
X16421D01*
X16688Y137880D01*
Y137576D01*
X16497Y137385D02*X16688Y137576D01*
X16116Y137385D02*X16497D01*
X15926Y138414D02*X16193Y138147D01*
X15926Y138718D02*Y138414D01*
Y138718D02*X16116Y138909D01*
X16497D01*
X16688Y138718D01*
Y138414D01*
X16421Y138147D02*X16688Y138414D01*
X50040Y87306D02*Y86494D01*
X49634Y86900D02*X50446D01*
X50040Y86036D02*Y85224D01*
X49634Y85630D02*X50446D01*
X48770Y87306D02*Y86494D01*
X48364Y86900D02*X49176D01*
X48770Y86036D02*Y85224D01*
X48364Y85630D02*X49176D01*
X47500Y87306D02*Y86494D01*
X47094Y86900D02*X47906D01*
X47500Y86036D02*Y85224D01*
X47094Y85630D02*X47906D01*
X46230Y87306D02*Y86494D01*
X45824Y86900D02*X46636D01*
X46230Y86036D02*Y85224D01*
X45824Y85630D02*X46636D01*
X44960Y87306D02*Y86494D01*
X44554Y86900D02*X45366D01*
X44960Y86036D02*Y85224D01*
X44554Y85630D02*X45366D01*
X3810Y142554D02*Y141741D01*
X3404Y142148D02*X4216D01*
X34290Y142719D02*X34671Y141957D01*
X35052Y142719D01*
X34671Y141957D02*Y141195D01*
X35509Y142033D02*X36081D01*
X35509Y141195D02*X36271D01*
X35509Y142719D02*Y141195D01*
Y142719D02*X36271D01*
X37490D02*X37681Y142528D01*
X36919Y142719D02*X37490D01*
X36728Y142528D02*X36919Y142719D01*
X36728Y142528D02*Y142148D01*
X36919Y141957D01*
X37490D01*
X37681Y141766D01*
Y141386D01*
X37490Y141195D02*X37681Y141386D01*
X36919Y141195D02*X37490D01*
X36728Y141386D02*X36919Y141195D01*
X24892Y142414D02*X25197Y142719D01*
Y141195D01*
X24892D02*X25464D01*
X25921Y141386D02*X26111Y141195D01*
X25921Y142528D02*Y141386D01*
Y142528D02*X26111Y142719D01*
X26492D01*
X26683Y142528D01*
Y141386D01*
X26492Y141195D02*X26683Y141386D01*
X26111Y141195D02*X26492D01*
X25921Y141576D02*X26683Y142338D01*
X11430Y141386D02*X11620Y141195D01*
X11430Y142528D02*Y141386D01*
Y142528D02*X11620Y142719D01*
X12002D01*
X12192Y142528D01*
Y141386D01*
X12002Y141195D02*X12192Y141386D01*
X11620Y141195D02*X12002D01*
X11430Y141576D02*X12192Y142338D01*
X12649Y141195D02*X12840D01*
X13297Y141386D02*X13487Y141195D01*
X13297Y142528D02*Y141386D01*
Y142528D02*X13487Y142719D01*
X13868D01*
X14059Y142528D01*
Y141386D01*
X13868Y141195D02*X14059Y141386D01*
X13487Y141195D02*X13868D01*
X13297Y141576D02*X14059Y142338D01*
X14516Y142528D02*X14707Y142719D01*
X15278D01*
X15469Y142528D01*
Y142148D01*
X14516Y141195D02*X15469Y142148D01*
X14516Y141195D02*X15469D01*
X16497Y142719D02*X16688Y142528D01*
X16116Y142719D02*X16497D01*
X15926Y142528D02*X16116Y142719D01*
X15926Y142528D02*Y141386D01*
X16116Y141195D01*
X16497Y142033D02*X16688Y141843D01*
X15926Y142033D02*X16497D01*
X16116Y141195D02*X16497D01*
X16688Y141386D01*
Y141843D02*Y141386D01*
X39000Y11500D02*Y11094D01*
Y11500D02*X39352Y11703D01*
X39000Y11500D02*X38648Y11703D01*
X39000Y12300D02*Y11894D01*
Y12300D02*X39352Y12503D01*
X39000Y12300D02*X38648Y12503D01*
X39000Y13100D02*Y12694D01*
Y13100D02*X39352Y13303D01*
X39000Y13100D02*X38648Y13303D01*
X39000Y13900D02*Y13494D01*
Y13900D02*X39352Y14103D01*
X39000Y13900D02*X38648Y14103D01*
X39000Y14700D02*Y14294D01*
Y14700D02*X39352Y14903D01*
X39000Y14700D02*X38648Y14903D01*
X39000Y15500D02*Y15094D01*
Y15500D02*X39352Y15703D01*
X39000Y15500D02*X38648Y15703D01*
X39000Y16300D02*Y15894D01*
Y16300D02*X39352Y16503D01*
X39000Y16300D02*X38648Y16503D01*
X38400Y11900D02*Y11494D01*
Y11900D02*X38752Y12103D01*
X38400Y11900D02*X38048Y12103D01*
X38400Y12700D02*Y12294D01*
Y12700D02*X38752Y12903D01*
X38400Y12700D02*X38048Y12903D01*
X38400Y13500D02*Y13094D01*
Y13500D02*X38752Y13703D01*
X38400Y13500D02*X38048Y13703D01*
X38400Y14300D02*Y13894D01*
Y14300D02*X38752Y14503D01*
X38400Y14300D02*X38048Y14503D01*
X38400Y15100D02*Y14694D01*
Y15100D02*X38752Y15303D01*
X38400Y15100D02*X38048Y15303D01*
X38400Y15900D02*Y15494D01*
Y15900D02*X38752Y16103D01*
X38400Y15900D02*X38048Y16103D01*
X37800Y16300D02*Y15894D01*
Y16300D02*X38152Y16503D01*
X37800Y16300D02*X37448Y16503D01*
X37800Y15500D02*Y15094D01*
Y15500D02*X38152Y15703D01*
X37800Y15500D02*X37448Y15703D01*
X37800Y14700D02*Y14294D01*
Y14700D02*X38152Y14903D01*
X37800Y14700D02*X37448Y14903D01*
X37800Y13900D02*Y13494D01*
Y13900D02*X38152Y14103D01*
X37800Y13900D02*X37448Y14103D01*
X37800Y13100D02*Y12694D01*
Y13100D02*X38152Y13303D01*
X37800Y13100D02*X37448Y13303D01*
X37800Y12300D02*Y11894D01*
Y12300D02*X38152Y12503D01*
X37800Y12300D02*X37448Y12503D01*
X37800Y11500D02*Y11094D01*
Y11500D02*X38152Y11703D01*
X37800Y11500D02*X37448Y11703D01*
X41600Y17000D02*Y16594D01*
Y17000D02*X41952Y17203D01*
X41600Y17000D02*X41248Y17203D01*
X42400Y17000D02*Y16594D01*
Y17000D02*X42752Y17203D01*
X42400Y17000D02*X42048Y17203D01*
X43200Y17000D02*Y16594D01*
Y17000D02*X43552Y17203D01*
X43200Y17000D02*X42848Y17203D01*
X42800Y17600D02*Y17194D01*
Y17600D02*X43152Y17803D01*
X42800Y17600D02*X42448Y17803D01*
X42000Y17600D02*Y17194D01*
Y17600D02*X42352Y17803D01*
X42000Y17600D02*X41648Y17803D01*
X42000Y16400D02*Y15994D01*
Y16400D02*X42352Y16603D01*
X42000Y16400D02*X41648Y16603D01*
X42800Y16400D02*Y15994D01*
Y16400D02*X43152Y16603D01*
X42800Y16400D02*X42448Y16603D01*
X41200Y16400D02*Y15994D01*
Y16400D02*X41552Y16603D01*
X41200Y16400D02*X40848Y16603D01*
X41200Y17600D02*Y17194D01*
Y17600D02*X41552Y17803D01*
X41200Y17600D02*X40848Y17803D01*
X39000Y17700D02*Y17294D01*
Y17700D02*X39352Y17903D01*
X39000Y17700D02*X38648Y17903D01*
X39000Y18500D02*Y18094D01*
Y18500D02*X39352Y18703D01*
X39000Y18500D02*X38648Y18703D01*
X39000Y19300D02*Y18894D01*
Y19300D02*X39352Y19503D01*
X39000Y19300D02*X38648Y19503D01*
X39000Y20100D02*Y19694D01*
Y20100D02*X39352Y20303D01*
X39000Y20100D02*X38648Y20303D01*
X39000Y20900D02*Y20494D01*
Y20900D02*X39352Y21103D01*
X39000Y20900D02*X38648Y21103D01*
X39000Y21700D02*Y21294D01*
Y21700D02*X39352Y21903D01*
X39000Y21700D02*X38648Y21903D01*
X39000Y22500D02*Y22094D01*
Y22500D02*X39352Y22703D01*
X39000Y22500D02*X38648Y22703D01*
X38400Y18100D02*Y17694D01*
Y18100D02*X38752Y18303D01*
X38400Y18100D02*X38048Y18303D01*
X38400Y18900D02*Y18494D01*
Y18900D02*X38752Y19103D01*
X38400Y18900D02*X38048Y19103D01*
X38400Y19700D02*Y19294D01*
Y19700D02*X38752Y19903D01*
X38400Y19700D02*X38048Y19903D01*
X38400Y20500D02*Y20094D01*
Y20500D02*X38752Y20703D01*
X38400Y20500D02*X38048Y20703D01*
X38400Y21300D02*Y20894D01*
Y21300D02*X38752Y21503D01*
X38400Y21300D02*X38048Y21503D01*
X38400Y22100D02*Y21694D01*
Y22100D02*X38752Y22303D01*
X38400Y22100D02*X38048Y22303D01*
X37800Y22500D02*Y22094D01*
Y22500D02*X38152Y22703D01*
X37800Y22500D02*X37448Y22703D01*
X37800Y21700D02*Y21294D01*
Y21700D02*X38152Y21903D01*
X37800Y21700D02*X37448Y21903D01*
X37800Y20900D02*Y20494D01*
Y20900D02*X38152Y21103D01*
X37800Y20900D02*X37448Y21103D01*
X37800Y20100D02*Y19694D01*
Y20100D02*X38152Y20303D01*
X37800Y20100D02*X37448Y20303D01*
X37800Y19300D02*Y18894D01*
Y19300D02*X38152Y19503D01*
X37800Y19300D02*X37448Y19503D01*
X37800Y18500D02*Y18094D01*
Y18500D02*X38152Y18703D01*
X37800Y18500D02*X37448Y18703D01*
X37800Y17700D02*Y17294D01*
Y17700D02*X38152Y17903D01*
X37800Y17700D02*X37448Y17903D01*
X27600Y22500D02*Y22094D01*
Y22500D02*X27952Y22703D01*
X27600Y22500D02*X27248Y22703D01*
X30100Y22500D02*Y22094D01*
Y22500D02*X30452Y22703D01*
X30100Y22500D02*X29748Y22703D01*
X32700Y22500D02*Y22094D01*
Y22500D02*X33052Y22703D01*
X32700Y22500D02*X32348Y22703D01*
X46700Y22500D02*Y22094D01*
Y22500D02*X47052Y22703D01*
X46700Y22500D02*X46348Y22703D01*
X46700Y21700D02*Y21294D01*
Y21700D02*X47052Y21903D01*
X46700Y21700D02*X46348Y21903D01*
X46700Y20900D02*Y20494D01*
Y20900D02*X47052Y21103D01*
X46700Y20900D02*X46348Y21103D01*
X46700Y20100D02*Y19694D01*
Y20100D02*X47052Y20303D01*
X46700Y20100D02*X46348Y20303D01*
X46700Y19300D02*Y18894D01*
Y19300D02*X47052Y19503D01*
X46700Y19300D02*X46348Y19503D01*
X46700Y18500D02*Y18094D01*
Y18500D02*X47052Y18703D01*
X46700Y18500D02*X46348Y18703D01*
X46700Y17700D02*Y17294D01*
Y17700D02*X47052Y17903D01*
X46700Y17700D02*X46348Y17903D01*
X47400Y18100D02*Y17694D01*
Y18100D02*X47752Y18303D01*
X47400Y18100D02*X47048Y18303D01*
X47400Y18900D02*Y18494D01*
Y18900D02*X47752Y19103D01*
X47400Y18900D02*X47048Y19103D01*
X47400Y19700D02*Y19294D01*
Y19700D02*X47752Y19903D01*
X47400Y19700D02*X47048Y19903D01*
X47400Y20500D02*Y20094D01*
Y20500D02*X47752Y20703D01*
X47400Y20500D02*X47048Y20703D01*
X47400Y21300D02*Y20894D01*
Y21300D02*X47752Y21503D01*
X47400Y21300D02*X47048Y21503D01*
X47400Y22100D02*Y21694D01*
Y22100D02*X47752Y22303D01*
X47400Y22100D02*X47048Y22303D01*
X48100Y22500D02*Y22094D01*
Y22500D02*X48452Y22703D01*
X48100Y22500D02*X47748Y22703D01*
X48100Y21700D02*Y21294D01*
Y21700D02*X48452Y21903D01*
X48100Y21700D02*X47748Y21903D01*
X48100Y20900D02*Y20494D01*
Y20900D02*X48452Y21103D01*
X48100Y20900D02*X47748Y21103D01*
X48100Y20100D02*Y19694D01*
Y20100D02*X48452Y20303D01*
X48100Y20100D02*X47748Y20303D01*
X48100Y19300D02*Y18894D01*
Y19300D02*X48452Y19503D01*
X48100Y19300D02*X47748Y19503D01*
X48100Y18500D02*Y18094D01*
Y18500D02*X48452Y18703D01*
X48100Y18500D02*X47748Y18703D01*
X48100Y17700D02*Y17294D01*
Y17700D02*X48452Y17903D01*
X48100Y17700D02*X47748Y17903D01*
X46700Y16300D02*Y15894D01*
Y16300D02*X47052Y16503D01*
X46700Y16300D02*X46348Y16503D01*
X46700Y15500D02*Y15094D01*
Y15500D02*X47052Y15703D01*
X46700Y15500D02*X46348Y15703D01*
X46700Y14700D02*Y14294D01*
Y14700D02*X47052Y14903D01*
X46700Y14700D02*X46348Y14903D01*
X46700Y13900D02*Y13494D01*
Y13900D02*X47052Y14103D01*
X46700Y13900D02*X46348Y14103D01*
X46700Y13100D02*Y12694D01*
Y13100D02*X47052Y13303D01*
X46700Y13100D02*X46348Y13303D01*
X46700Y12300D02*Y11894D01*
Y12300D02*X47052Y12503D01*
X46700Y12300D02*X46348Y12503D01*
X46700Y11500D02*Y11094D01*
Y11500D02*X47052Y11703D01*
X46700Y11500D02*X46348Y11703D01*
X47400Y11900D02*Y11494D01*
Y11900D02*X47752Y12103D01*
X47400Y11900D02*X47048Y12103D01*
X47400Y12700D02*Y12294D01*
Y12700D02*X47752Y12903D01*
X47400Y12700D02*X47048Y12903D01*
X47400Y13500D02*Y13094D01*
Y13500D02*X47752Y13703D01*
X47400Y13500D02*X47048Y13703D01*
X47400Y14300D02*Y13894D01*
Y14300D02*X47752Y14503D01*
X47400Y14300D02*X47048Y14503D01*
X47400Y15100D02*Y14694D01*
Y15100D02*X47752Y15303D01*
X47400Y15100D02*X47048Y15303D01*
X47400Y15900D02*Y15494D01*
Y15900D02*X47752Y16103D01*
X47400Y15900D02*X47048Y16103D01*
X48100Y16300D02*Y15894D01*
Y16300D02*X48452Y16503D01*
X48100Y16300D02*X47748Y16503D01*
X48100Y15500D02*Y15094D01*
Y15500D02*X48452Y15703D01*
X48100Y15500D02*X47748Y15703D01*
X48100Y14700D02*Y14294D01*
Y14700D02*X48452Y14903D01*
X48100Y14700D02*X47748Y14903D01*
X48100Y13900D02*Y13494D01*
Y13900D02*X48452Y14103D01*
X48100Y13900D02*X47748Y14103D01*
X48100Y13100D02*Y12694D01*
Y13100D02*X48452Y13303D01*
X48100Y13100D02*X47748Y13303D01*
X48100Y12300D02*Y11894D01*
Y12300D02*X48452Y12503D01*
X48100Y12300D02*X47748Y12503D01*
X48100Y11500D02*Y11094D01*
Y11500D02*X48452Y11703D01*
X48100Y11500D02*X47748Y11703D01*
X47400Y23100D02*Y22694D01*
Y23100D02*X47752Y23303D01*
X47400Y23100D02*X47048Y23303D01*
X66800Y15200D02*Y14794D01*
Y15200D02*X67152Y15403D01*
X66800Y15200D02*X66448Y15403D01*
X66800Y14400D02*Y13994D01*
Y14400D02*X67152Y14603D01*
X66800Y14400D02*X66448Y14603D01*
X66800Y13600D02*Y13194D01*
Y13600D02*X67152Y13803D01*
X66800Y13600D02*X66448Y13803D01*
X66800Y12800D02*Y12394D01*
Y12800D02*X67152Y13003D01*
X66800Y12800D02*X66448Y13003D01*
X66800Y12000D02*Y11594D01*
Y12000D02*X67152Y12203D01*
X66800Y12000D02*X66448Y12203D01*
X67500Y11600D02*Y11194D01*
Y11600D02*X67852Y11803D01*
X67500Y11600D02*X67148Y11803D01*
X67500Y12400D02*Y11994D01*
Y12400D02*X67852Y12603D01*
X67500Y12400D02*X67148Y12603D01*
X67500Y13200D02*Y12794D01*
Y13200D02*X67852Y13403D01*
X67500Y13200D02*X67148Y13403D01*
X67500Y14000D02*Y13594D01*
Y14000D02*X67852Y14203D01*
X67500Y14000D02*X67148Y14203D01*
X67500Y14800D02*Y14394D01*
Y14800D02*X67852Y15003D01*
X67500Y14800D02*X67148Y15003D01*
X67500Y15600D02*Y15194D01*
Y15600D02*X67852Y15803D01*
X67500Y15600D02*X67148Y15803D01*
X70300Y15600D02*Y15194D01*
Y15600D02*X70652Y15803D01*
X70300Y15600D02*X69948Y15803D01*
X70300Y14800D02*Y14394D01*
Y14800D02*X70652Y15003D01*
X70300Y14800D02*X69948Y15003D01*
X70300Y14000D02*Y13594D01*
Y14000D02*X70652Y14203D01*
X70300Y14000D02*X69948Y14203D01*
X70300Y13200D02*Y12794D01*
Y13200D02*X70652Y13403D01*
X70300Y13200D02*X69948Y13403D01*
X70300Y12400D02*Y11994D01*
Y12400D02*X70652Y12603D01*
X70300Y12400D02*X69948Y12603D01*
X70300Y11600D02*Y11194D01*
Y11600D02*X70652Y11803D01*
X70300Y11600D02*X69948Y11803D01*
X71000Y15200D02*Y14794D01*
Y15200D02*X71352Y15403D01*
X71000Y15200D02*X70648Y15403D01*
X71000Y14400D02*Y13994D01*
Y14400D02*X71352Y14603D01*
X71000Y14400D02*X70648Y14603D01*
X71000Y13600D02*Y13194D01*
Y13600D02*X71352Y13803D01*
X71000Y13600D02*X70648Y13803D01*
X71000Y12800D02*Y12394D01*
Y12800D02*X71352Y13003D01*
X71000Y12800D02*X70648Y13003D01*
X71000Y12000D02*Y11594D01*
Y12000D02*X71352Y12203D01*
X71000Y12000D02*X70648Y12203D01*
X53700Y32900D02*Y32494D01*
Y32900D02*X54052Y33103D01*
X53700Y32900D02*X53348Y33103D01*
X53700Y32100D02*Y31694D01*
Y32100D02*X54052Y32303D01*
X53700Y32100D02*X53348Y32303D01*
X53700Y31300D02*Y30894D01*
Y31300D02*X54052Y31503D01*
X53700Y31300D02*X53348Y31503D01*
X53700Y30500D02*Y30094D01*
Y30500D02*X54052Y30703D01*
X53700Y30500D02*X53348Y30703D01*
X53700Y29700D02*Y29294D01*
Y29700D02*X54052Y29903D01*
X53700Y29700D02*X53348Y29903D01*
X54400Y32500D02*Y32094D01*
Y32500D02*X54752Y32703D01*
X54400Y32500D02*X54048Y32703D01*
X54400Y31700D02*Y31294D01*
Y31700D02*X54752Y31903D01*
X54400Y31700D02*X54048Y31903D01*
X54400Y30900D02*Y30494D01*
Y30900D02*X54752Y31103D01*
X54400Y30900D02*X54048Y31103D01*
X54400Y30100D02*Y29694D01*
Y30100D02*X54752Y30303D01*
X54400Y30100D02*X54048Y30303D01*
X55100Y32900D02*Y32494D01*
Y32900D02*X55452Y33103D01*
X55100Y32900D02*X54748Y33103D01*
X55100Y32100D02*Y31694D01*
Y32100D02*X55452Y32303D01*
X55100Y32100D02*X54748Y32303D01*
X55100Y31300D02*Y30894D01*
Y31300D02*X55452Y31503D01*
X55100Y31300D02*X54748Y31503D01*
X55100Y30500D02*Y30094D01*
Y30500D02*X55452Y30703D01*
X55100Y30500D02*X54748Y30703D01*
X55100Y29700D02*Y29294D01*
Y29700D02*X55452Y29903D01*
X55100Y29700D02*X54748Y29903D01*
X53700Y28900D02*Y28494D01*
Y28900D02*X54052Y29103D01*
X53700Y28900D02*X53348Y29103D01*
X53700Y28100D02*Y27694D01*
Y28100D02*X54052Y28303D01*
X53700Y28100D02*X53348Y28303D01*
X53700Y27300D02*Y26894D01*
Y27300D02*X54052Y27503D01*
X53700Y27300D02*X53348Y27503D01*
X55800Y29300D02*Y28894D01*
Y29300D02*X56152Y29503D01*
X55800Y29300D02*X55448Y29503D01*
X55800Y30100D02*Y29694D01*
Y30100D02*X56152Y30303D01*
X55800Y30100D02*X55448Y30303D01*
X55100Y28900D02*Y28494D01*
Y28900D02*X55452Y29103D01*
X55100Y28900D02*X54748Y29103D01*
X55100Y28100D02*Y27694D01*
Y28100D02*X55452Y28303D01*
X55100Y28100D02*X54748Y28303D01*
X55100Y27300D02*Y26894D01*
Y27300D02*X55452Y27503D01*
X55100Y27300D02*X54748Y27503D01*
X55800Y30900D02*Y30494D01*
Y30900D02*X56152Y31103D01*
X55800Y30900D02*X55448Y31103D01*
X55800Y32500D02*Y32094D01*
Y32500D02*X56152Y32703D01*
X55800Y32500D02*X55448Y32703D01*
X54400Y28500D02*Y28094D01*
Y28500D02*X54752Y28703D01*
X54400Y28500D02*X54048Y28703D01*
X54400Y27700D02*Y27294D01*
Y27700D02*X54752Y27903D01*
X54400Y27700D02*X54048Y27903D01*
X55800Y28500D02*Y28094D01*
Y28500D02*X56152Y28703D01*
X55800Y28500D02*X55448Y28703D01*
X55800Y31700D02*Y31294D01*
Y31700D02*X56152Y31903D01*
X55800Y31700D02*X55448Y31903D01*
X50900Y29300D02*Y28894D01*
Y29300D02*X51252Y29503D01*
X50900Y29300D02*X50548Y29503D01*
X54400Y29300D02*Y28894D01*
Y29300D02*X54752Y29503D01*
X54400Y29300D02*X54048Y29503D01*
X43100Y32900D02*Y32494D01*
Y32900D02*X43452Y33103D01*
X43100Y32900D02*X42748Y33103D01*
X43100Y32100D02*Y31694D01*
Y32100D02*X43452Y32303D01*
X43100Y32100D02*X42748Y32303D01*
X43100Y31300D02*Y30894D01*
Y31300D02*X43452Y31503D01*
X43100Y31300D02*X42748Y31503D01*
X43100Y30500D02*Y30094D01*
Y30500D02*X43452Y30703D01*
X43100Y30500D02*X42748Y30703D01*
X43100Y29700D02*Y29294D01*
Y29700D02*X43452Y29903D01*
X43100Y29700D02*X42748Y29903D01*
X43800Y32500D02*Y32094D01*
Y32500D02*X44152Y32703D01*
X43800Y32500D02*X43448Y32703D01*
X43800Y31700D02*Y31294D01*
Y31700D02*X44152Y31903D01*
X43800Y31700D02*X43448Y31903D01*
X43800Y30900D02*Y30494D01*
Y30900D02*X44152Y31103D01*
X43800Y30900D02*X43448Y31103D01*
X43800Y30100D02*Y29694D01*
Y30100D02*X44152Y30303D01*
X43800Y30100D02*X43448Y30303D01*
X44500Y32900D02*Y32494D01*
Y32900D02*X44852Y33103D01*
X44500Y32900D02*X44148Y33103D01*
X44500Y32100D02*Y31694D01*
Y32100D02*X44852Y32303D01*
X44500Y32100D02*X44148Y32303D01*
X44500Y31300D02*Y30894D01*
Y31300D02*X44852Y31503D01*
X44500Y31300D02*X44148Y31503D01*
X44500Y30500D02*Y30094D01*
Y30500D02*X44852Y30703D01*
X44500Y30500D02*X44148Y30703D01*
X44500Y29700D02*Y29294D01*
Y29700D02*X44852Y29903D01*
X44500Y29700D02*X44148Y29903D01*
X43100Y28900D02*Y28494D01*
Y28900D02*X43452Y29103D01*
X43100Y28900D02*X42748Y29103D01*
X43100Y28100D02*Y27694D01*
Y28100D02*X43452Y28303D01*
X43100Y28100D02*X42748Y28303D01*
X42400Y30100D02*Y29694D01*
Y30100D02*X42752Y30303D01*
X42400Y30100D02*X42048Y30303D01*
X42400Y30900D02*Y30494D01*
Y30900D02*X42752Y31103D01*
X42400Y30900D02*X42048Y31103D01*
X42400Y32500D02*Y32094D01*
Y32500D02*X42752Y32703D01*
X42400Y32500D02*X42048Y32703D01*
X44500Y28900D02*Y28494D01*
Y28900D02*X44852Y29103D01*
X44500Y28900D02*X44148Y29103D01*
X44500Y28100D02*Y27694D01*
Y28100D02*X44852Y28303D01*
X44500Y28100D02*X44148Y28303D01*
X44500Y27300D02*Y26894D01*
Y27300D02*X44852Y27503D01*
X44500Y27300D02*X44148Y27503D01*
X42400Y27700D02*Y27294D01*
Y27700D02*X42752Y27903D01*
X42400Y27700D02*X42048Y27903D01*
X42400Y28500D02*Y28094D01*
Y28500D02*X42752Y28703D01*
X42400Y28500D02*X42048Y28703D01*
X43800Y28500D02*Y28094D01*
Y28500D02*X44152Y28703D01*
X43800Y28500D02*X43448Y28703D01*
X43800Y27700D02*Y27294D01*
Y27700D02*X44152Y27903D01*
X43800Y27700D02*X43448Y27903D01*
X42400Y29300D02*Y28894D01*
Y29300D02*X42752Y29503D01*
X42400Y29300D02*X42048Y29503D01*
X42400Y31700D02*Y31294D01*
Y31700D02*X42752Y31903D01*
X42400Y31700D02*X42048Y31903D01*
X43800Y29300D02*Y28894D01*
Y29300D02*X44152Y29503D01*
X43800Y29300D02*X43448Y29503D01*
X47300Y29300D02*Y28894D01*
Y29300D02*X47652Y29503D01*
X47300Y29300D02*X46948Y29503D01*
X70300Y23500D02*Y23094D01*
Y23500D02*X70652Y23703D01*
X70300Y23500D02*X69948Y23703D01*
X70300Y22700D02*Y22294D01*
Y22700D02*X70652Y22903D01*
X70300Y22700D02*X69948Y22903D01*
X70300Y21900D02*Y21494D01*
Y21900D02*X70652Y22103D01*
X70300Y21900D02*X69948Y22103D01*
X70300Y21100D02*Y20694D01*
Y21100D02*X70652Y21303D01*
X70300Y21100D02*X69948Y21303D01*
X70300Y20300D02*Y19894D01*
Y20300D02*X70652Y20503D01*
X70300Y20300D02*X69948Y20503D01*
X70300Y19500D02*Y19094D01*
Y19500D02*X70652Y19703D01*
X70300Y19500D02*X69948Y19703D01*
X71000Y19900D02*Y19494D01*
Y19900D02*X71352Y20103D01*
X71000Y19900D02*X70648Y20103D01*
X71000Y20700D02*Y20294D01*
Y20700D02*X71352Y20903D01*
X71000Y20700D02*X70648Y20903D01*
X71000Y21500D02*Y21094D01*
Y21500D02*X71352Y21703D01*
X71000Y21500D02*X70648Y21703D01*
X71000Y22300D02*Y21894D01*
Y22300D02*X71352Y22503D01*
X71000Y22300D02*X70648Y22503D01*
X71000Y23100D02*Y22694D01*
Y23100D02*X71352Y23303D01*
X71000Y23100D02*X70648Y23303D01*
X67500Y23500D02*Y23094D01*
Y23500D02*X67852Y23703D01*
X67500Y23500D02*X67148Y23703D01*
X67500Y22700D02*Y22294D01*
Y22700D02*X67852Y22903D01*
X67500Y22700D02*X67148Y22903D01*
X67500Y21900D02*Y21494D01*
Y21900D02*X67852Y22103D01*
X67500Y21900D02*X67148Y22103D01*
X67500Y21100D02*Y20694D01*
Y21100D02*X67852Y21303D01*
X67500Y21100D02*X67148Y21303D01*
X67500Y20300D02*Y19894D01*
Y20300D02*X67852Y20503D01*
X67500Y20300D02*X67148Y20503D01*
X67500Y19500D02*Y19094D01*
Y19500D02*X67852Y19703D01*
X67500Y19500D02*X67148Y19703D01*
X66800Y19900D02*Y19494D01*
Y19900D02*X67152Y20103D01*
X66800Y19900D02*X66448Y20103D01*
X66800Y20700D02*Y20294D01*
Y20700D02*X67152Y20903D01*
X66800Y20700D02*X66448Y20903D01*
X66800Y21500D02*Y21094D01*
Y21500D02*X67152Y21703D01*
X66800Y21500D02*X66448Y21703D01*
X66800Y22300D02*Y21894D01*
Y22300D02*X67152Y22503D01*
X66800Y22300D02*X66448Y22503D01*
X66800Y23100D02*Y22694D01*
Y23100D02*X67152Y23303D01*
X66800Y23100D02*X66448Y23303D01*
X53500Y37300D02*Y36894D01*
Y37300D02*X53852Y37503D01*
X53500Y37300D02*X53148Y37503D01*
X52700Y37300D02*Y36894D01*
Y37300D02*X53052Y37503D01*
X52700Y37300D02*X52348Y37503D01*
X54300Y37300D02*Y36894D01*
Y37300D02*X54652Y37503D01*
X54300Y37300D02*X53948Y37503D01*
X51900Y37300D02*Y36894D01*
Y37300D02*X52252Y37503D01*
X51900Y37300D02*X51548Y37503D01*
X55100Y37300D02*Y36894D01*
Y37300D02*X55452Y37503D01*
X55100Y37300D02*X54748Y37503D01*
X51100Y37300D02*Y36894D01*
Y37300D02*X51452Y37503D01*
X51100Y37300D02*X50748Y37503D01*
X55900Y37300D02*Y36894D01*
Y37300D02*X56252Y37503D01*
X55900Y37300D02*X55548Y37503D01*
X51500Y36600D02*Y36194D01*
Y36600D02*X51852Y36803D01*
X51500Y36600D02*X51148Y36803D01*
X52300Y36600D02*Y36194D01*
Y36600D02*X52652Y36803D01*
X52300Y36600D02*X51948Y36803D01*
X53100Y36600D02*Y36194D01*
Y36600D02*X53452Y36803D01*
X53100Y36600D02*X52748Y36803D01*
X53900Y36600D02*Y36194D01*
Y36600D02*X54252Y36803D01*
X53900Y36600D02*X53548Y36803D01*
X54700Y36600D02*Y36194D01*
Y36600D02*X55052Y36803D01*
X54700Y36600D02*X54348Y36803D01*
X55500Y36600D02*Y36194D01*
Y36600D02*X55852Y36803D01*
X55500Y36600D02*X55148Y36803D01*
X31500Y37300D02*Y36894D01*
Y37300D02*X31852Y37503D01*
X31500Y37300D02*X31148Y37503D01*
X30700Y37300D02*Y36894D01*
Y37300D02*X31052Y37503D01*
X30700Y37300D02*X30348Y37503D01*
X32300Y37300D02*Y36894D01*
Y37300D02*X32652Y37503D01*
X32300Y37300D02*X31948Y37503D01*
X29900Y37300D02*Y36894D01*
Y37300D02*X30252Y37503D01*
X29900Y37300D02*X29548Y37503D01*
X33100Y37300D02*Y36894D01*
Y37300D02*X33452Y37503D01*
X33100Y37300D02*X32748Y37503D01*
X29100Y37300D02*Y36894D01*
Y37300D02*X29452Y37503D01*
X29100Y37300D02*X28748Y37503D01*
X33900Y37300D02*Y36894D01*
Y37300D02*X34252Y37503D01*
X33900Y37300D02*X33548Y37503D01*
X29500Y36600D02*Y36194D01*
Y36600D02*X29852Y36803D01*
X29500Y36600D02*X29148Y36803D01*
X30300Y36600D02*Y36194D01*
Y36600D02*X30652Y36803D01*
X30300Y36600D02*X29948Y36803D01*
X31100Y36600D02*Y36194D01*
Y36600D02*X31452Y36803D01*
X31100Y36600D02*X30748Y36803D01*
X31900Y36600D02*Y36194D01*
Y36600D02*X32252Y36803D01*
X31900Y36600D02*X31548Y36803D01*
X32700Y36600D02*Y36194D01*
Y36600D02*X33052Y36803D01*
X32700Y36600D02*X32348Y36803D01*
X33500Y36600D02*Y36194D01*
Y36600D02*X33852Y36803D01*
X33500Y36600D02*X33148Y36803D01*
X31500Y51300D02*Y50894D01*
Y51300D02*X31852Y51503D01*
X31500Y51300D02*X31148Y51503D01*
X30700Y51300D02*Y50894D01*
Y51300D02*X31052Y51503D01*
X30700Y51300D02*X30348Y51503D01*
X32300Y51300D02*Y50894D01*
Y51300D02*X32652Y51503D01*
X32300Y51300D02*X31948Y51503D01*
X29900Y51300D02*Y50894D01*
Y51300D02*X30252Y51503D01*
X29900Y51300D02*X29548Y51503D01*
X33100Y51300D02*Y50894D01*
Y51300D02*X33452Y51503D01*
X33100Y51300D02*X32748Y51503D01*
X29100Y51300D02*Y50894D01*
Y51300D02*X29452Y51503D01*
X29100Y51300D02*X28748Y51503D01*
X33900Y51300D02*Y50894D01*
Y51300D02*X34252Y51503D01*
X33900Y51300D02*X33548Y51503D01*
X29500Y50600D02*Y50194D01*
Y50600D02*X29852Y50803D01*
X29500Y50600D02*X29148Y50803D01*
X30300Y50600D02*Y50194D01*
Y50600D02*X30652Y50803D01*
X30300Y50600D02*X29948Y50803D01*
X31100Y50600D02*Y50194D01*
Y50600D02*X31452Y50803D01*
X31100Y50600D02*X30748Y50803D01*
X31900Y50600D02*Y50194D01*
Y50600D02*X32252Y50803D01*
X31900Y50600D02*X31548Y50803D01*
X32700Y50600D02*Y50194D01*
Y50600D02*X33052Y50803D01*
X32700Y50600D02*X32348Y50803D01*
X33500Y50600D02*Y50194D01*
Y50600D02*X33852Y50803D01*
X33500Y50600D02*X33148Y50803D01*
X53500Y51300D02*Y50894D01*
Y51300D02*X53852Y51503D01*
X53500Y51300D02*X53148Y51503D01*
X52700Y51300D02*Y50894D01*
Y51300D02*X53052Y51503D01*
X52700Y51300D02*X52348Y51503D01*
X54300Y51300D02*Y50894D01*
Y51300D02*X54652Y51503D01*
X54300Y51300D02*X53948Y51503D01*
X51900Y51300D02*Y50894D01*
Y51300D02*X52252Y51503D01*
X51900Y51300D02*X51548Y51503D01*
X55100Y51300D02*Y50894D01*
Y51300D02*X55452Y51503D01*
X55100Y51300D02*X54748Y51503D01*
X51100Y51300D02*Y50894D01*
Y51300D02*X51452Y51503D01*
X51100Y51300D02*X50748Y51503D01*
X55900Y51300D02*Y50894D01*
Y51300D02*X56252Y51503D01*
X55900Y51300D02*X55548Y51503D01*
X51500Y50600D02*Y50194D01*
Y50600D02*X51852Y50803D01*
X51500Y50600D02*X51148Y50803D01*
X52300Y50600D02*Y50194D01*
Y50600D02*X52652Y50803D01*
X52300Y50600D02*X51948Y50803D01*
X53100Y50600D02*Y50194D01*
Y50600D02*X53452Y50803D01*
X53100Y50600D02*X52748Y50803D01*
X53900Y50600D02*Y50194D01*
Y50600D02*X54252Y50803D01*
X53900Y50600D02*X53548Y50803D01*
X54700Y50600D02*Y50194D01*
Y50600D02*X55052Y50803D01*
X54700Y50600D02*X54348Y50803D01*
X55500Y50600D02*Y50194D01*
Y50600D02*X55852Y50803D01*
X55500Y50600D02*X55148Y50803D01*
X53500Y45700D02*Y45294D01*
Y45700D02*X53852Y45903D01*
X53500Y45700D02*X53148Y45903D01*
X52700Y45700D02*Y45294D01*
Y45700D02*X53052Y45903D01*
X52700Y45700D02*X52348Y45903D01*
X54300Y45700D02*Y45294D01*
Y45700D02*X54652Y45903D01*
X54300Y45700D02*X53948Y45903D01*
X51900Y45700D02*Y45294D01*
Y45700D02*X52252Y45903D01*
X51900Y45700D02*X51548Y45903D01*
X55100Y45700D02*Y45294D01*
Y45700D02*X55452Y45903D01*
X55100Y45700D02*X54748Y45903D01*
X51100Y45700D02*Y45294D01*
Y45700D02*X51452Y45903D01*
X51100Y45700D02*X50748Y45903D01*
X55900Y45700D02*Y45294D01*
Y45700D02*X56252Y45903D01*
X55900Y45700D02*X55548Y45903D01*
X51500Y46400D02*Y45994D01*
Y46400D02*X51852Y46603D01*
X51500Y46400D02*X51148Y46603D01*
X52300Y46400D02*Y45994D01*
Y46400D02*X52652Y46603D01*
X52300Y46400D02*X51948Y46603D01*
X53100Y46400D02*Y45994D01*
Y46400D02*X53452Y46603D01*
X53100Y46400D02*X52748Y46603D01*
X53900Y46400D02*Y45994D01*
Y46400D02*X54252Y46603D01*
X53900Y46400D02*X53548Y46603D01*
X54700Y46400D02*Y45994D01*
Y46400D02*X55052Y46603D01*
X54700Y46400D02*X54348Y46603D01*
X55500Y46400D02*Y45994D01*
Y46400D02*X55852Y46603D01*
X55500Y46400D02*X55148Y46603D01*
X31500Y45700D02*Y45294D01*
Y45700D02*X31852Y45903D01*
X31500Y45700D02*X31148Y45903D01*
X30700Y45700D02*Y45294D01*
Y45700D02*X31052Y45903D01*
X30700Y45700D02*X30348Y45903D01*
X32300Y45700D02*Y45294D01*
Y45700D02*X32652Y45903D01*
X32300Y45700D02*X31948Y45903D01*
X29900Y45700D02*Y45294D01*
Y45700D02*X30252Y45903D01*
X29900Y45700D02*X29548Y45903D01*
X33100Y45700D02*Y45294D01*
Y45700D02*X33452Y45903D01*
X33100Y45700D02*X32748Y45903D01*
X29100Y45700D02*Y45294D01*
Y45700D02*X29452Y45903D01*
X29100Y45700D02*X28748Y45903D01*
X33900Y45700D02*Y45294D01*
Y45700D02*X34252Y45903D01*
X33900Y45700D02*X33548Y45903D01*
X29500Y46400D02*Y45994D01*
Y46400D02*X29852Y46603D01*
X29500Y46400D02*X29148Y46603D01*
X30300Y46400D02*Y45994D01*
Y46400D02*X30652Y46603D01*
X30300Y46400D02*X29948Y46603D01*
X31100Y46400D02*Y45994D01*
Y46400D02*X31452Y46603D01*
X31100Y46400D02*X30748Y46603D01*
X31900Y46400D02*Y45994D01*
Y46400D02*X32252Y46603D01*
X31900Y46400D02*X31548Y46603D01*
X32700Y46400D02*Y45994D01*
Y46400D02*X33052Y46603D01*
X32700Y46400D02*X32348Y46603D01*
X33500Y46400D02*Y45994D01*
Y46400D02*X33852Y46603D01*
X33500Y46400D02*X33148Y46603D01*
X31500Y59700D02*Y59294D01*
Y59700D02*X31852Y59903D01*
X31500Y59700D02*X31148Y59903D01*
X30700Y59700D02*Y59294D01*
Y59700D02*X31052Y59903D01*
X30700Y59700D02*X30348Y59903D01*
X32300Y59700D02*Y59294D01*
Y59700D02*X32652Y59903D01*
X32300Y59700D02*X31948Y59903D01*
X29900Y59700D02*Y59294D01*
Y59700D02*X30252Y59903D01*
X29900Y59700D02*X29548Y59903D01*
X33100Y59700D02*Y59294D01*
Y59700D02*X33452Y59903D01*
X33100Y59700D02*X32748Y59903D01*
X29100Y59700D02*Y59294D01*
Y59700D02*X29452Y59903D01*
X29100Y59700D02*X28748Y59903D01*
X33900Y59700D02*Y59294D01*
Y59700D02*X34252Y59903D01*
X33900Y59700D02*X33548Y59903D01*
X29500Y60400D02*Y59994D01*
Y60400D02*X29852Y60603D01*
X29500Y60400D02*X29148Y60603D01*
X30300Y60400D02*Y59994D01*
Y60400D02*X30652Y60603D01*
X30300Y60400D02*X29948Y60603D01*
X31100Y60400D02*Y59994D01*
Y60400D02*X31452Y60603D01*
X31100Y60400D02*X30748Y60603D01*
X31900Y60400D02*Y59994D01*
Y60400D02*X32252Y60603D01*
X31900Y60400D02*X31548Y60603D01*
X32700Y60400D02*Y59994D01*
Y60400D02*X33052Y60603D01*
X32700Y60400D02*X32348Y60603D01*
X33500Y60400D02*Y59994D01*
Y60400D02*X33852Y60603D01*
X33500Y60400D02*X33148Y60603D01*
X53500Y59700D02*Y59294D01*
Y59700D02*X53852Y59903D01*
X53500Y59700D02*X53148Y59903D01*
X52700Y59700D02*Y59294D01*
Y59700D02*X53052Y59903D01*
X52700Y59700D02*X52348Y59903D01*
X54300Y59700D02*Y59294D01*
Y59700D02*X54652Y59903D01*
X54300Y59700D02*X53948Y59903D01*
X51900Y59700D02*Y59294D01*
Y59700D02*X52252Y59903D01*
X51900Y59700D02*X51548Y59903D01*
X55100Y59700D02*Y59294D01*
Y59700D02*X55452Y59903D01*
X55100Y59700D02*X54748Y59903D01*
X51100Y59700D02*Y59294D01*
Y59700D02*X51452Y59903D01*
X51100Y59700D02*X50748Y59903D01*
X55900Y59700D02*Y59294D01*
Y59700D02*X56252Y59903D01*
X55900Y59700D02*X55548Y59903D01*
X51500Y60400D02*Y59994D01*
Y60400D02*X51852Y60603D01*
X51500Y60400D02*X51148Y60603D01*
X52300Y60400D02*Y59994D01*
Y60400D02*X52652Y60603D01*
X52300Y60400D02*X51948Y60603D01*
X53100Y60400D02*Y59994D01*
Y60400D02*X53452Y60603D01*
X53100Y60400D02*X52748Y60603D01*
X53900Y60400D02*Y59994D01*
Y60400D02*X54252Y60603D01*
X53900Y60400D02*X53548Y60603D01*
X54700Y60400D02*Y59994D01*
Y60400D02*X55052Y60603D01*
X54700Y60400D02*X54348Y60603D01*
X55500Y60400D02*Y59994D01*
Y60400D02*X55852Y60603D01*
X55500Y60400D02*X55148Y60603D01*
X43100Y27300D02*Y26894D01*
Y27300D02*X43452Y27503D01*
X43100Y27300D02*X42748Y27503D01*
X55800Y27700D02*Y27294D01*
Y27700D02*X56152Y27903D01*
X55800Y27700D02*X55448Y27903D01*
X29400Y35600D02*Y35194D01*
Y35600D02*X29752Y35803D01*
X29400Y35600D02*X29048Y35803D01*
X29400Y34800D02*Y34394D01*
Y34800D02*X29752Y35003D01*
X29400Y34800D02*X29048Y35003D01*
X29400Y34000D02*Y33594D01*
Y34000D02*X29752Y34203D01*
X29400Y34000D02*X29048Y34203D01*
X28700Y35200D02*Y34794D01*
Y35200D02*X29052Y35403D01*
X28700Y35200D02*X28348Y35403D01*
X28700Y34400D02*Y33994D01*
Y34400D02*X29052Y34603D01*
X28700Y34400D02*X28348Y34603D01*
X25500Y49500D02*Y49094D01*
Y49500D02*X25852Y49703D01*
X25500Y49500D02*X25148Y49703D01*
X25500Y48700D02*Y48294D01*
Y48700D02*X25852Y48903D01*
X25500Y48700D02*X25148Y48903D01*
X25500Y47900D02*Y47494D01*
Y47900D02*X25852Y48103D01*
X25500Y47900D02*X25148Y48103D01*
X24800Y49100D02*Y48694D01*
Y49100D02*X25152Y49303D01*
X24800Y49100D02*X24448Y49303D01*
X24800Y48300D02*Y47894D01*
Y48300D02*X25152Y48503D01*
X24800Y48300D02*X24448Y48503D01*
X58400Y35600D02*Y35194D01*
Y35600D02*X58752Y35803D01*
X58400Y35600D02*X58048Y35803D01*
X58400Y34800D02*Y34394D01*
Y34800D02*X58752Y35003D01*
X58400Y34800D02*X58048Y35003D01*
X58400Y34000D02*Y33594D01*
Y34000D02*X58752Y34203D01*
X58400Y34000D02*X58048Y34203D01*
X59100Y35200D02*Y34794D01*
Y35200D02*X59452Y35403D01*
X59100Y35200D02*X58748Y35403D01*
X59100Y34400D02*Y33994D01*
Y34400D02*X59452Y34603D01*
X59100Y34400D02*X58748Y34603D01*
X58300Y49500D02*Y49094D01*
Y49500D02*X58652Y49703D01*
X58300Y49500D02*X57948Y49703D01*
X58300Y48700D02*Y48294D01*
Y48700D02*X58652Y48903D01*
X58300Y48700D02*X57948Y48903D01*
X58300Y47900D02*Y47494D01*
Y47900D02*X58652Y48103D01*
X58300Y47900D02*X57948Y48103D01*
X59000Y49100D02*Y48694D01*
Y49100D02*X59352Y49303D01*
X59000Y49100D02*X58648Y49303D01*
X59000Y48300D02*Y47894D01*
Y48300D02*X59352Y48503D01*
X59000Y48300D02*X58648Y48503D01*
X38400Y26200D02*Y25794D01*
Y26200D02*X38752Y26403D01*
X38400Y26200D02*X38048Y26403D01*
X38400Y27000D02*Y26594D01*
Y27000D02*X38752Y27203D01*
X38400Y27000D02*X38048Y27203D01*
X39100Y25800D02*Y25394D01*
Y25800D02*X39452Y26003D01*
X39100Y25800D02*X38748Y26003D01*
X39100Y26600D02*Y26194D01*
Y26600D02*X39452Y26803D01*
X39100Y26600D02*X38748Y26803D01*
X35600Y26200D02*Y25794D01*
Y26200D02*X35952Y26403D01*
X35600Y26200D02*X35248Y26403D01*
X35600Y27000D02*Y26594D01*
Y27000D02*X35952Y27203D01*
X35600Y27000D02*X35248Y27203D01*
X34900Y26600D02*Y26194D01*
Y26600D02*X35252Y26803D01*
X34900Y26600D02*X34548Y26803D01*
X34900Y25800D02*Y25394D01*
Y25800D02*X35252Y26003D01*
X34900Y25800D02*X34548Y26003D01*
X37500Y37900D02*Y37494D01*
Y37900D02*X37852Y38103D01*
X37500Y37900D02*X37148Y38103D01*
X47500Y45100D02*Y44694D01*
Y45100D02*X47852Y45303D01*
X47500Y45100D02*X47148Y45303D01*
X37500Y51900D02*Y51494D01*
Y51900D02*X37852Y52103D01*
X37500Y51900D02*X37148Y52103D01*
X59700Y45900D02*Y45494D01*
Y45900D02*X60052Y46103D01*
X59700Y45900D02*X59348Y46103D01*
X59700Y45100D02*Y44694D01*
Y45100D02*X60052Y45303D01*
X59700Y45100D02*X59348Y45303D01*
X59700Y44300D02*Y43894D01*
Y44300D02*X60052Y44503D01*
X59700Y44300D02*X59348Y44503D01*
X59700Y43500D02*Y43094D01*
Y43500D02*X60052Y43703D01*
X59700Y43500D02*X59348Y43703D01*
X59700Y42700D02*Y42294D01*
Y42700D02*X60052Y42903D01*
X59700Y42700D02*X59348Y42903D01*
X59700Y41900D02*Y41494D01*
Y41900D02*X60052Y42103D01*
X59700Y41900D02*X59348Y42103D01*
X59700Y41100D02*Y40694D01*
Y41100D02*X60052Y41303D01*
X59700Y41100D02*X59348Y41303D01*
X59700Y40300D02*Y39894D01*
Y40300D02*X60052Y40503D01*
X59700Y40300D02*X59348Y40503D01*
X59700Y39500D02*Y39094D01*
Y39500D02*X60052Y39703D01*
X59700Y39500D02*X59348Y39703D01*
X59700Y38700D02*Y38294D01*
Y38700D02*X60052Y38903D01*
X59700Y38700D02*X59348Y38903D01*
X59700Y37900D02*Y37494D01*
Y37900D02*X60052Y38103D01*
X59700Y37900D02*X59348Y38103D01*
X59700Y37100D02*Y36694D01*
Y37100D02*X60052Y37303D01*
X59700Y37100D02*X59348Y37303D01*
X60400Y45500D02*Y45094D01*
Y45500D02*X60752Y45703D01*
X60400Y45500D02*X60048Y45703D01*
X60400Y44700D02*Y44294D01*
Y44700D02*X60752Y44903D01*
X60400Y44700D02*X60048Y44903D01*
X60400Y43900D02*Y43494D01*
Y43900D02*X60752Y44103D01*
X60400Y43900D02*X60048Y44103D01*
X60400Y43100D02*Y42694D01*
Y43100D02*X60752Y43303D01*
X60400Y43100D02*X60048Y43303D01*
X60400Y42300D02*Y41894D01*
Y42300D02*X60752Y42503D01*
X60400Y42300D02*X60048Y42503D01*
X60400Y41500D02*Y41094D01*
Y41500D02*X60752Y41703D01*
X60400Y41500D02*X60048Y41703D01*
X60400Y40700D02*Y40294D01*
Y40700D02*X60752Y40903D01*
X60400Y40700D02*X60048Y40903D01*
X60400Y39900D02*Y39494D01*
Y39900D02*X60752Y40103D01*
X60400Y39900D02*X60048Y40103D01*
X60400Y39100D02*Y38694D01*
Y39100D02*X60752Y39303D01*
X60400Y39100D02*X60048Y39303D01*
X60400Y38300D02*Y37894D01*
Y38300D02*X60752Y38503D01*
X60400Y38300D02*X60048Y38503D01*
X60400Y37500D02*Y37094D01*
Y37500D02*X60752Y37703D01*
X60400Y37500D02*X60048Y37703D01*
X66200Y34300D02*Y33894D01*
Y34300D02*X66552Y34503D01*
X66200Y34300D02*X65848Y34503D01*
X66200Y34900D02*Y34494D01*
Y34900D02*X66552Y35103D01*
X66200Y34900D02*X65848Y35103D01*
X65200Y31000D02*Y30594D01*
Y31000D02*X65552Y31203D01*
X65200Y31000D02*X64848Y31203D01*
X68900Y25400D02*Y24994D01*
Y25400D02*X69252Y25603D01*
X68900Y25400D02*X68548Y25603D01*
X72200Y23900D02*Y23494D01*
Y23900D02*X72552Y24103D01*
X72200Y23900D02*X71848Y24103D01*
X59700Y51100D02*Y50694D01*
Y51100D02*X60052Y51303D01*
X59700Y51100D02*X59348Y51303D01*
X59700Y51900D02*Y51494D01*
Y51900D02*X60052Y52103D01*
X59700Y51900D02*X59348Y52103D01*
X59700Y52700D02*Y52294D01*
Y52700D02*X60052Y52903D01*
X59700Y52700D02*X59348Y52903D01*
X59700Y53500D02*Y53094D01*
Y53500D02*X60052Y53703D01*
X59700Y53500D02*X59348Y53703D01*
X59700Y54300D02*Y53894D01*
Y54300D02*X60052Y54503D01*
X59700Y54300D02*X59348Y54503D01*
X60400Y51500D02*Y51094D01*
Y51500D02*X60752Y51703D01*
X60400Y51500D02*X60048Y51703D01*
X60400Y52300D02*Y51894D01*
Y52300D02*X60752Y52503D01*
X60400Y52300D02*X60048Y52503D01*
X60400Y53100D02*Y52694D01*
Y53100D02*X60752Y53303D01*
X60400Y53100D02*X60048Y53303D01*
X60400Y53900D02*Y53494D01*
Y53900D02*X60752Y54103D01*
X60400Y53900D02*X60048Y54103D01*
X60400Y54700D02*Y54294D01*
Y54700D02*X60752Y54903D01*
X60400Y54700D02*X60048Y54903D01*
X66200Y52300D02*Y51894D01*
Y52300D02*X66552Y52503D01*
X66200Y52300D02*X65848Y52503D01*
X66200Y52900D02*Y52494D01*
Y52900D02*X66552Y53103D01*
X66200Y52900D02*X65848Y53103D01*
X65200Y49000D02*Y48594D01*
Y49000D02*X65552Y49203D01*
X65200Y49000D02*X64848Y49203D01*
X68100Y25400D02*Y24994D01*
Y25400D02*X68452Y25603D01*
X68100Y25400D02*X67748Y25603D01*
X68500Y26100D02*Y25694D01*
Y26100D02*X68852Y26303D01*
X68500Y26100D02*X68148Y26303D01*
X67300Y42200D02*Y41794D01*
Y42200D02*X67652Y42403D01*
X67300Y42200D02*X66948Y42403D01*
X67300Y43000D02*Y42594D01*
Y43000D02*X67652Y43203D01*
X67300Y43000D02*X66948Y43203D01*
X66600Y42600D02*Y42194D01*
Y42600D02*X66952Y42803D01*
X66600Y42600D02*X66248Y42803D01*
X70800Y43300D02*Y42894D01*
Y43300D02*X71152Y43503D01*
X70800Y43300D02*X70448Y43503D01*
X59700Y56700D02*Y56294D01*
Y56700D02*X60052Y56903D01*
X59700Y56700D02*X59348Y56903D01*
X59700Y57500D02*Y57094D01*
Y57500D02*X60052Y57703D01*
X59700Y57500D02*X59348Y57703D01*
X59700Y58300D02*Y57894D01*
Y58300D02*X60052Y58503D01*
X59700Y58300D02*X59348Y58503D01*
X59700Y59100D02*Y58694D01*
Y59100D02*X60052Y59303D01*
X59700Y59100D02*X59348Y59303D01*
X59700Y59900D02*Y59494D01*
Y59900D02*X60052Y60103D01*
X59700Y59900D02*X59348Y60103D01*
X60400Y59500D02*Y59094D01*
Y59500D02*X60752Y59703D01*
X60400Y59500D02*X60048Y59703D01*
X60400Y58700D02*Y58294D01*
Y58700D02*X60752Y58903D01*
X60400Y58700D02*X60048Y58903D01*
X60400Y57900D02*Y57494D01*
Y57900D02*X60752Y58103D01*
X60400Y57900D02*X60048Y58103D01*
X60400Y57100D02*Y56694D01*
Y57100D02*X60752Y57303D01*
X60400Y57100D02*X60048Y57303D01*
X60400Y56300D02*Y55894D01*
Y56300D02*X60752Y56503D01*
X60400Y56300D02*X60048Y56503D01*
X67400Y59000D02*Y58594D01*
Y59000D02*X67752Y59203D01*
X67400Y59000D02*X67048Y59203D01*
X67400Y59800D02*Y59394D01*
Y59800D02*X67752Y60003D01*
X67400Y59800D02*X67048Y60003D01*
X66700Y59400D02*Y58994D01*
Y59400D02*X67052Y59603D01*
X66700Y59400D02*X66348Y59603D01*
X70800Y61300D02*Y60894D01*
Y61300D02*X71152Y61503D01*
X70800Y61300D02*X70448Y61503D01*
X65200Y67000D02*Y66594D01*
Y67000D02*X65552Y67203D01*
X65200Y67000D02*X64848Y67203D01*
X66200Y70300D02*Y69894D01*
Y70300D02*X66552Y70503D01*
X66200Y70300D02*X65848Y70503D01*
X66200Y70900D02*Y70494D01*
Y70900D02*X66552Y71103D01*
X66200Y70900D02*X65848Y71103D01*
X18600Y31700D02*Y31294D01*
Y31700D02*X18952Y31903D01*
X18600Y31700D02*X18248Y31903D01*
X18600Y31100D02*Y30694D01*
Y31100D02*X18952Y31303D01*
X18600Y31100D02*X18248Y31303D01*
X25300Y45900D02*Y45494D01*
Y45900D02*X25652Y46103D01*
X25300Y45900D02*X24948Y46103D01*
X25300Y45100D02*Y44694D01*
Y45100D02*X25652Y45303D01*
X25300Y45100D02*X24948Y45303D01*
X25300Y44300D02*Y43894D01*
Y44300D02*X25652Y44503D01*
X25300Y44300D02*X24948Y44503D01*
X25300Y43500D02*Y43094D01*
Y43500D02*X25652Y43703D01*
X25300Y43500D02*X24948Y43703D01*
X25300Y42700D02*Y42294D01*
Y42700D02*X25652Y42903D01*
X25300Y42700D02*X24948Y42903D01*
X25300Y41900D02*Y41494D01*
Y41900D02*X25652Y42103D01*
X25300Y41900D02*X24948Y42103D01*
X25300Y41100D02*Y40694D01*
Y41100D02*X25652Y41303D01*
X25300Y41100D02*X24948Y41303D01*
X25300Y40300D02*Y39894D01*
Y40300D02*X25652Y40503D01*
X25300Y40300D02*X24948Y40503D01*
X25300Y39500D02*Y39094D01*
Y39500D02*X25652Y39703D01*
X25300Y39500D02*X24948Y39703D01*
X25300Y38700D02*Y38294D01*
Y38700D02*X25652Y38903D01*
X25300Y38700D02*X24948Y38903D01*
X25300Y37900D02*Y37494D01*
Y37900D02*X25652Y38103D01*
X25300Y37900D02*X24948Y38103D01*
X25300Y37100D02*Y36694D01*
Y37100D02*X25652Y37303D01*
X25300Y37100D02*X24948Y37303D01*
X24600Y37500D02*Y37094D01*
Y37500D02*X24952Y37703D01*
X24600Y37500D02*X24248Y37703D01*
X24600Y38300D02*Y37894D01*
Y38300D02*X24952Y38503D01*
X24600Y38300D02*X24248Y38503D01*
X24600Y39100D02*Y38694D01*
Y39100D02*X24952Y39303D01*
X24600Y39100D02*X24248Y39303D01*
X24600Y39900D02*Y39494D01*
Y39900D02*X24952Y40103D01*
X24600Y39900D02*X24248Y40103D01*
X24600Y40700D02*Y40294D01*
Y40700D02*X24952Y40903D01*
X24600Y40700D02*X24248Y40903D01*
X24600Y41500D02*Y41094D01*
Y41500D02*X24952Y41703D01*
X24600Y41500D02*X24248Y41703D01*
X24600Y42300D02*Y41894D01*
Y42300D02*X24952Y42503D01*
X24600Y42300D02*X24248Y42503D01*
X24600Y43100D02*Y42694D01*
Y43100D02*X24952Y43303D01*
X24600Y43100D02*X24248Y43303D01*
X24600Y43900D02*Y43494D01*
Y43900D02*X24952Y44103D01*
X24600Y43900D02*X24248Y44103D01*
X24600Y44700D02*Y44294D01*
Y44700D02*X24952Y44903D01*
X24600Y44700D02*X24248Y44903D01*
X24600Y45500D02*Y45094D01*
Y45500D02*X24952Y45703D01*
X24600Y45500D02*X24248Y45703D01*
X17800Y23600D02*Y23194D01*
Y23600D02*X18152Y23803D01*
X17800Y23600D02*X17448Y23803D01*
X17800Y24400D02*Y23994D01*
Y24400D02*X18152Y24603D01*
X17800Y24400D02*X17448Y24603D01*
X18500Y24000D02*Y23594D01*
Y24000D02*X18852Y24203D01*
X18500Y24000D02*X18148Y24203D01*
X12200Y24400D02*Y23994D01*
Y24400D02*X12552Y24603D01*
X12200Y24400D02*X11848Y24603D01*
X16000Y40700D02*Y40294D01*
Y40700D02*X16352Y40903D01*
X16000Y40700D02*X15648Y40903D01*
X15200Y40700D02*Y40294D01*
Y40700D02*X15552Y40903D01*
X15200Y40700D02*X14848Y40903D01*
X14400Y40700D02*Y40294D01*
Y40700D02*X14752Y40903D01*
X14400Y40700D02*X14048Y40903D01*
X12300Y42400D02*Y41994D01*
Y42400D02*X12652Y42603D01*
X12300Y42400D02*X11948Y42603D01*
X18600Y49700D02*Y49294D01*
Y49700D02*X18952Y49903D01*
X18600Y49700D02*X18248Y49903D01*
X18600Y49100D02*Y48694D01*
Y49100D02*X18952Y49303D01*
X18600Y49100D02*X18248Y49303D01*
X25300Y59900D02*Y59494D01*
Y59900D02*X25652Y60103D01*
X25300Y59900D02*X24948Y60103D01*
X25300Y59100D02*Y58694D01*
Y59100D02*X25652Y59303D01*
X25300Y59100D02*X24948Y59303D01*
X25300Y58300D02*Y57894D01*
Y58300D02*X25652Y58503D01*
X25300Y58300D02*X24948Y58503D01*
X25300Y57500D02*Y57094D01*
Y57500D02*X25652Y57703D01*
X25300Y57500D02*X24948Y57703D01*
X25300Y56700D02*Y56294D01*
Y56700D02*X25652Y56903D01*
X25300Y56700D02*X24948Y56903D01*
X25300Y54300D02*Y53894D01*
Y54300D02*X25652Y54503D01*
X25300Y54300D02*X24948Y54503D01*
X25300Y53500D02*Y53094D01*
Y53500D02*X25652Y53703D01*
X25300Y53500D02*X24948Y53703D01*
X25300Y52700D02*Y52294D01*
Y52700D02*X25652Y52903D01*
X25300Y52700D02*X24948Y52903D01*
X25300Y51900D02*Y51494D01*
Y51900D02*X25652Y52103D01*
X25300Y51900D02*X24948Y52103D01*
X25300Y51100D02*Y50694D01*
Y51100D02*X25652Y51303D01*
X25300Y51100D02*X24948Y51303D01*
X24600Y51500D02*Y51094D01*
Y51500D02*X24952Y51703D01*
X24600Y51500D02*X24248Y51703D01*
X24600Y52300D02*Y51894D01*
Y52300D02*X24952Y52503D01*
X24600Y52300D02*X24248Y52503D01*
X24600Y53100D02*Y52694D01*
Y53100D02*X24952Y53303D01*
X24600Y53100D02*X24248Y53303D01*
X24600Y53900D02*Y53494D01*
Y53900D02*X24952Y54103D01*
X24600Y53900D02*X24248Y54103D01*
X24600Y54700D02*Y54294D01*
Y54700D02*X24952Y54903D01*
X24600Y54700D02*X24248Y54903D01*
X24600Y56300D02*Y55894D01*
Y56300D02*X24952Y56503D01*
X24600Y56300D02*X24248Y56503D01*
X24600Y57100D02*Y56694D01*
Y57100D02*X24952Y57303D01*
X24600Y57100D02*X24248Y57303D01*
X24600Y57900D02*Y57494D01*
Y57900D02*X24952Y58103D01*
X24600Y57900D02*X24248Y58103D01*
X24600Y58700D02*Y58294D01*
Y58700D02*X24952Y58903D01*
X24600Y58700D02*X24248Y58903D01*
X24600Y59500D02*Y59094D01*
Y59500D02*X24952Y59703D01*
X24600Y59500D02*X24248Y59703D01*
X18600Y67700D02*Y67294D01*
Y67700D02*X18952Y67903D01*
X18600Y67700D02*X18248Y67903D01*
X18600Y67100D02*Y66694D01*
Y67100D02*X18952Y67303D01*
X18600Y67100D02*X18248Y67303D01*
X16000Y58700D02*Y58294D01*
Y58700D02*X16352Y58903D01*
X16000Y58700D02*X15648Y58903D01*
X15200Y58700D02*Y58294D01*
Y58700D02*X15552Y58903D01*
X15200Y58700D02*X14848Y58903D01*
X14400Y58700D02*Y58294D01*
Y58700D02*X14752Y58903D01*
X14400Y58700D02*X14048Y58903D01*
X13200Y61300D02*Y60894D01*
Y61300D02*X13552Y61503D01*
X13200Y61300D02*X12848Y61503D01*
X49500Y66700D02*Y66294D01*
Y66700D02*X49852Y66903D01*
X49500Y66700D02*X49148Y66903D01*
X45100Y66700D02*Y66294D01*
Y66700D02*X45452Y66903D01*
X45100Y66700D02*X44748Y66903D01*
X53000Y72400D02*Y71994D01*
Y72400D02*X53352Y72603D01*
X53000Y72400D02*X52648Y72603D01*
X54100Y67700D02*Y67294D01*
Y67700D02*X54452Y67903D01*
X54100Y67700D02*X53748Y67903D01*
X55200Y72700D02*Y72294D01*
Y72700D02*X55552Y72903D01*
X55200Y72700D02*X54848Y72903D01*
X55100Y79100D02*Y78694D01*
Y79100D02*X55452Y79303D01*
X55100Y79100D02*X54748Y79303D01*
X47300Y83900D02*Y83494D01*
Y83900D02*X47652Y84103D01*
X47300Y83900D02*X46948Y84103D01*
X43500Y72500D02*Y72094D01*
Y72500D02*X43852Y72703D01*
X43500Y72500D02*X43148Y72703D01*
X59700Y77800D02*Y77394D01*
Y77800D02*X60052Y78003D01*
X59700Y77800D02*X59348Y78003D01*
X59700Y76100D02*Y75694D01*
Y76100D02*X60052Y76303D01*
X59700Y76100D02*X59348Y76303D01*
X61700Y71700D02*Y71294D01*
Y71700D02*X62052Y71903D01*
X61700Y71700D02*X61348Y71903D01*
X62600Y77500D02*Y77094D01*
Y77500D02*X62952Y77703D01*
X62600Y77500D02*X62248Y77703D01*
X64900Y77500D02*Y77094D01*
Y77500D02*X65252Y77703D01*
X64900Y77500D02*X64548Y77703D01*
X60600Y87600D02*Y87194D01*
Y87600D02*X60952Y87803D01*
X60600Y87600D02*X60248Y87803D01*
X32400Y93600D02*Y93194D01*
Y93600D02*X32752Y93803D01*
X32400Y93600D02*X32048Y93803D01*
X34400Y93600D02*Y93194D01*
Y93600D02*X34752Y93803D01*
X34400Y93600D02*X34048Y93803D01*
X36400Y93600D02*Y93194D01*
Y93600D02*X36752Y93803D01*
X36400Y93600D02*X36048Y93803D01*
X38400Y93600D02*Y93194D01*
Y93600D02*X38752Y93803D01*
X38400Y93600D02*X38048Y93803D01*
X40400Y93600D02*Y93194D01*
Y93600D02*X40752Y93803D01*
X40400Y93600D02*X40048Y93803D01*
X42400Y93600D02*Y93194D01*
Y93600D02*X42752Y93803D01*
X42400Y93600D02*X42048Y93803D01*
X44400Y93600D02*Y93194D01*
Y93600D02*X44752Y93803D01*
X44400Y93600D02*X44048Y93803D01*
X43200Y89700D02*Y89294D01*
Y89700D02*X43552Y89903D01*
X43200Y89700D02*X42848Y89903D01*
X43500Y89200D02*Y88794D01*
Y89200D02*X43852Y89403D01*
X43500Y89200D02*X43148Y89403D01*
X42900Y89200D02*Y88794D01*
Y89200D02*X43252Y89403D01*
X42900Y89200D02*X42548Y89403D01*
X44300Y83600D02*Y83194D01*
Y83600D02*X44652Y83803D01*
X44300Y83600D02*X43948Y83803D01*
X37200Y73400D02*Y72994D01*
Y73400D02*X37552Y73603D01*
X37200Y73400D02*X36848Y73603D01*
X39800Y70200D02*Y69794D01*
Y70200D02*X40152Y70403D01*
X39800Y70200D02*X39448Y70403D01*
X40700Y69900D02*Y69494D01*
Y69900D02*X41052Y70103D01*
X40700Y69900D02*X40348Y70103D01*
X41500Y69900D02*Y69494D01*
Y69900D02*X41852Y70103D01*
X41500Y69900D02*X41148Y70103D01*
X68500Y84600D02*Y84194D01*
Y84600D02*X68852Y84803D01*
X68500Y84600D02*X68148Y84803D01*
X65100Y87900D02*Y87494D01*
Y87900D02*X65452Y88103D01*
X65100Y87900D02*X64748Y88103D01*
X11800Y88650D02*Y88244D01*
Y88650D02*X12152Y88853D01*
X11800Y88650D02*X11448Y88853D01*
X12800Y87700D02*Y87294D01*
Y87700D02*X13152Y87903D01*
X12800Y87700D02*X12448Y87903D01*
X68500Y86400D02*Y85994D01*
Y86400D02*X68852Y86603D01*
X68500Y86400D02*X68148Y86603D01*
X45400Y37500D02*Y37094D01*
Y37500D02*X45752Y37703D01*
X45400Y37500D02*X45048Y37703D01*
X39900Y37400D02*Y36994D01*
Y37400D02*X40252Y37603D01*
X39900Y37400D02*X39548Y37603D01*
X42200Y40500D02*Y40094D01*
Y40500D02*X42552Y40703D01*
X42200Y40500D02*X41848Y40703D01*
X39400Y45600D02*Y45194D01*
Y45600D02*X39752Y45803D01*
X39400Y45600D02*X39048Y45803D01*
X41800Y45600D02*Y45194D01*
Y45600D02*X42152Y45803D01*
X41800Y45600D02*X41448Y45803D01*
X43800Y45600D02*Y45194D01*
Y45600D02*X44152Y45803D01*
X43800Y45600D02*X43448Y45803D01*
X43800Y44700D02*Y44294D01*
Y44700D02*X44152Y44903D01*
X43800Y44700D02*X43448Y44903D01*
X49900Y59100D02*Y58694D01*
Y59100D02*X50252Y59303D01*
X49900Y59100D02*X49548Y59303D01*
X39400Y44700D02*Y44294D01*
Y44700D02*X39752Y44903D01*
X39400Y44700D02*X39048Y44903D01*
X38600Y59900D02*Y59494D01*
Y59900D02*X38952Y60103D01*
X38600Y59900D02*X38248Y60103D01*
X38600Y59000D02*Y58594D01*
Y59000D02*X38952Y59203D01*
X38600Y59000D02*X38248Y59203D01*
X42200Y44700D02*Y44294D01*
Y44700D02*X42552Y44903D01*
X42200Y44700D02*X41848Y44903D01*
X45000Y59900D02*Y59494D01*
Y59900D02*X45352Y60103D01*
X45000Y59900D02*X44648Y60103D01*
X45000Y59000D02*Y58594D01*
Y59000D02*X45352Y59203D01*
X45000Y59000D02*X44648Y59203D01*
X41800Y59000D02*Y58594D01*
Y59000D02*X42152Y59203D01*
X41800Y59000D02*X41448Y59203D01*
X42200Y59900D02*Y59494D01*
Y59900D02*X42552Y60103D01*
X42200Y59900D02*X41848Y60103D01*
X37200Y62700D02*Y62294D01*
Y62700D02*X37552Y62903D01*
X37200Y62700D02*X36848Y62903D01*
X38100Y64200D02*Y63794D01*
Y64200D02*X38452Y64403D01*
X38100Y64200D02*X37748Y64403D01*
X39100Y63400D02*Y62994D01*
Y63400D02*X39452Y63603D01*
X39100Y63400D02*X38748Y63603D01*
X39800Y64000D02*Y63594D01*
Y64000D02*X40152Y64203D01*
X39800Y64000D02*X39448Y64203D01*
X40500Y63400D02*Y62994D01*
Y63400D02*X40852Y63603D01*
X40500Y63400D02*X40148Y63603D01*
X42700Y63300D02*Y62894D01*
Y63300D02*X43052Y63503D01*
X42700Y63300D02*X42348Y63503D01*
X43600Y63400D02*Y62994D01*
Y63400D02*X43952Y63603D01*
X43600Y63400D02*X43248Y63603D01*
X44800Y63500D02*Y63094D01*
Y63500D02*X45152Y63703D01*
X44800Y63500D02*X44448Y63703D01*
X45700Y63600D02*Y63194D01*
Y63600D02*X46052Y63803D01*
X45700Y63600D02*X45348Y63803D01*
X46700Y63400D02*Y62994D01*
Y63400D02*X47052Y63603D01*
X46700Y63400D02*X46348Y63603D01*
X52200Y64700D02*Y64294D01*
Y64700D02*X52552Y64903D01*
X52200Y64700D02*X51848Y64903D01*
X50400Y63600D02*Y63194D01*
Y63600D02*X50752Y63803D01*
X50400Y63600D02*X50048Y63803D01*
X58900Y91600D02*Y91194D01*
Y91600D02*X59252Y91803D01*
X58900Y91600D02*X58548Y91803D01*
X61000Y91800D02*Y91394D01*
Y91800D02*X61352Y92003D01*
X61000Y91800D02*X60648Y92003D01*
X54800Y92100D02*Y91694D01*
Y92100D02*X55152Y92303D01*
X54800Y92100D02*X54448Y92303D01*
X48100Y88400D02*Y87994D01*
Y88400D02*X48452Y88603D01*
X48100Y88400D02*X47748Y88603D01*
X48100Y89200D02*Y88794D01*
Y89200D02*X48452Y89403D01*
X48100Y89200D02*X47748Y89403D01*
X55200Y86300D02*Y85894D01*
Y86300D02*X55552Y86503D01*
X55200Y86300D02*X54848Y86503D01*
X55200Y85600D02*Y85194D01*
Y85600D02*X55552Y85803D01*
X55200Y85600D02*X54848Y85803D01*
X51100Y85400D02*Y84994D01*
Y85400D02*X51452Y85603D01*
X51100Y85400D02*X50748Y85603D01*
X50200Y83300D02*Y82894D01*
Y83300D02*X50552Y83503D01*
X50200Y83300D02*X49848Y83503D01*
X55900Y84900D02*Y84494D01*
Y84900D02*X56252Y85103D01*
X55900Y84900D02*X55548Y85103D01*
X55100Y75500D02*Y75094D01*
Y75500D02*X55452Y75703D01*
X55100Y75500D02*X54748Y75703D01*
X52300Y87600D02*Y87194D01*
Y87600D02*X52652Y87803D01*
X52300Y87600D02*X51948Y87803D01*
X62700Y76600D02*Y76194D01*
Y76600D02*X63052Y76803D01*
X62700Y76600D02*X62348Y76803D01*
X70600Y33000D02*Y32594D01*
Y33000D02*X70952Y33203D01*
X70600Y33000D02*X70248Y33203D01*
X70600Y51000D02*Y50594D01*
Y51000D02*X70952Y51203D01*
X70600Y51000D02*X70248Y51203D01*
X70600Y69000D02*Y68594D01*
Y69000D02*X70952Y69203D01*
X70600Y69000D02*X70248Y69203D01*
X68500Y76800D02*Y76394D01*
Y76800D02*X68852Y77003D01*
X68500Y76800D02*X68148Y77003D01*
X69500Y76800D02*Y76394D01*
Y76800D02*X69852Y77003D01*
X69500Y76800D02*X69148Y77003D01*
X70500Y76800D02*Y76394D01*
Y76800D02*X70852Y77003D01*
X70500Y76800D02*X70148Y77003D01*
X55000Y67700D02*Y67294D01*
Y67700D02*X55352Y67903D01*
X55000Y67700D02*X54648Y67903D01*
X55900Y67700D02*Y67294D01*
Y67700D02*X56252Y67903D01*
X55900Y67700D02*X55548Y67903D01*
X54700Y71300D02*Y70894D01*
Y71300D02*X55052Y71503D01*
X54700Y71300D02*X54348Y71503D01*
X53600Y71600D02*Y71194D01*
Y71600D02*X53952Y71803D01*
X53600Y71600D02*X53248Y71803D01*
X39400Y86700D02*Y86294D01*
Y86700D02*X39752Y86903D01*
X39400Y86700D02*X39048Y86903D01*
X42200Y85600D02*Y85194D01*
Y85600D02*X42552Y85803D01*
X42200Y85600D02*X41848Y85803D01*
X41300Y85600D02*Y85194D01*
Y85600D02*X41652Y85803D01*
X41300Y85600D02*X40948Y85803D01*
X33700Y87100D02*Y86694D01*
Y87100D02*X34052Y87303D01*
X33700Y87100D02*X33348Y87303D01*
X25300Y23500D02*Y23094D01*
Y23500D02*X25652Y23703D01*
X25300Y23500D02*X24948Y23703D01*
X26100Y23900D02*Y23494D01*
Y23900D02*X26452Y24103D01*
X26100Y23900D02*X25748Y24103D01*
X25300Y22500D02*Y22094D01*
Y22500D02*X25652Y22703D01*
X25300Y22500D02*X24948Y22703D01*
X26900Y24300D02*Y23894D01*
Y24300D02*X27252Y24503D01*
X26900Y24300D02*X26548Y24503D01*
X16000Y22900D02*Y22494D01*
Y22900D02*X16352Y23103D01*
X16000Y22900D02*X15648Y23103D01*
X21200Y24200D02*Y23794D01*
Y24200D02*X21552Y24403D01*
X21200Y24200D02*X20848Y24403D01*
X16000Y33000D02*Y32594D01*
Y33000D02*X16352Y33203D01*
X16000Y33000D02*X15648Y33203D01*
X16000Y51000D02*Y50594D01*
Y51000D02*X16352Y51203D01*
X16000Y51000D02*X15648Y51203D01*
X16000Y69000D02*Y68594D01*
Y69000D02*X16352Y69203D01*
X16000Y69000D02*X15648Y69203D01*
X31300Y77200D02*Y76794D01*
Y77200D02*X31652Y77403D01*
X31300Y77200D02*X30948Y77403D01*
X32000Y77200D02*Y76794D01*
Y77200D02*X32352Y77403D01*
X32000Y77200D02*X31648Y77403D01*
X32000Y81600D02*Y81194D01*
Y81600D02*X32352Y81803D01*
X32000Y81600D02*X31648Y81803D01*
X31300Y81800D02*Y81394D01*
Y81800D02*X31652Y82003D01*
X31300Y81800D02*X30948Y82003D01*
X31500Y73100D02*Y72694D01*
Y73100D02*X31852Y73303D01*
X31500Y73100D02*X31148Y73303D01*
X31500Y72400D02*Y71994D01*
Y72400D02*X31852Y72603D01*
X31500Y72400D02*X31148Y72603D01*
X36500Y82000D02*Y81594D01*
Y82000D02*X36852Y82203D01*
X36500Y82000D02*X36148Y82203D01*
X37300Y82000D02*Y81594D01*
Y82000D02*X37652Y82203D01*
X37300Y82000D02*X36948Y82203D01*
X33300Y78900D02*Y78494D01*
Y78900D02*X33652Y79103D01*
X33300Y78900D02*X32948Y79103D01*
X36200Y78000D02*Y77594D01*
Y78000D02*X36552Y78203D01*
X36200Y78000D02*X35848Y78203D01*
X37100Y79800D02*Y79394D01*
Y79800D02*X37452Y80003D01*
X37100Y79800D02*X36748Y80003D01*
X38000Y80300D02*Y79894D01*
Y80300D02*X38352Y80503D01*
X38000Y80300D02*X37648Y80503D01*
X33300Y78000D02*Y77594D01*
Y78000D02*X33652Y78203D01*
X33300Y78000D02*X32948Y78203D01*
X12800Y77000D02*Y76594D01*
Y77000D02*X13152Y77203D01*
X12800Y77000D02*X12448Y77203D01*
X13600Y77000D02*Y76594D01*
Y77000D02*X13952Y77203D01*
X13600Y77000D02*X13248Y77203D01*
X14400Y77000D02*Y76594D01*
Y77000D02*X14752Y77203D01*
X14400Y77000D02*X14048Y77203D01*
X15200Y77000D02*Y76594D01*
Y77000D02*X15552Y77203D01*
X15200Y77000D02*X14848Y77203D01*
X23600Y76200D02*Y75794D01*
Y76200D02*X23952Y76403D01*
X23600Y76200D02*X23248Y76403D01*
X24600Y76200D02*Y75794D01*
Y76200D02*X24952Y76403D01*
X24600Y76200D02*X24248Y76403D01*
X16900Y77400D02*Y76994D01*
Y77400D02*X17252Y77603D01*
X16900Y77400D02*X16548Y77603D01*
X17800Y77400D02*Y76994D01*
Y77400D02*X18152Y77603D01*
X17800Y77400D02*X17448Y77603D01*
X17800Y76500D02*Y76094D01*
Y76500D02*X18152Y76703D01*
X17800Y76500D02*X17448Y76703D01*
X17800Y75600D02*Y75194D01*
Y75600D02*X18152Y75803D01*
X17800Y75600D02*X17448Y75803D01*
X12200Y83600D02*Y83194D01*
Y83600D02*X12552Y83803D01*
X12200Y83600D02*X11848Y83803D01*
X13200Y83600D02*Y83194D01*
Y83600D02*X13552Y83803D01*
X13200Y83600D02*X12848Y83803D01*
X14200Y83600D02*Y83194D01*
Y83600D02*X14552Y83803D01*
X14200Y83600D02*X13848Y83803D01*
X15200Y83600D02*Y83194D01*
Y83600D02*X15552Y83803D01*
X15200Y83600D02*X14848Y83803D01*
X30500Y74500D02*Y74094D01*
Y74500D02*X30852Y74703D01*
X30500Y74500D02*X30148Y74703D01*
X30500Y73800D02*Y73394D01*
Y73800D02*X30852Y74003D01*
X30500Y73800D02*X30148Y74003D01*
X30500Y73100D02*Y72694D01*
Y73100D02*X30852Y73303D01*
X30500Y73100D02*X30148Y73303D01*
X30500Y72400D02*Y71994D01*
Y72400D02*X30852Y72603D01*
X30500Y72400D02*X30148Y72603D01*
X38600Y65700D02*Y65294D01*
Y65700D02*X38952Y65903D01*
X38600Y65700D02*X38248Y65903D01*
X34250Y68600D02*Y68194D01*
Y68600D02*X34602Y68803D01*
X34250Y68600D02*X33898Y68803D01*
X30600Y70500D02*Y70094D01*
Y70500D02*X30952Y70703D01*
X30600Y70500D02*X30248Y70703D01*
X30600Y71200D02*Y70794D01*
Y71200D02*X30952Y71403D01*
X30600Y71200D02*X30248Y71403D01*
X36600Y69200D02*Y68794D01*
Y69200D02*X36952Y69403D01*
X36600Y69200D02*X36248Y69403D01*
X36600Y69800D02*Y69394D01*
Y69800D02*X36952Y70003D01*
X36600Y69800D02*X36248Y70003D01*
X54300Y72700D02*Y72294D01*
Y72700D02*X54652Y72903D01*
X54300Y72700D02*X53948Y72903D01*
X42500Y69900D02*Y69494D01*
Y69900D02*X42852Y70103D01*
X42500Y69900D02*X42148Y70103D01*
X46000Y81700D02*Y81294D01*
Y81700D02*X46352Y81903D01*
X46000Y81700D02*X45648Y81903D01*
X56600Y68700D02*Y68294D01*
Y68700D02*X56952Y68903D01*
X56600Y68700D02*X56248Y68903D01*
X70500Y80100D02*Y79694D01*
Y80100D02*X70852Y80303D01*
X70500Y80100D02*X70148Y80303D01*
X71500Y88700D02*Y88294D01*
Y88700D02*X71852Y88903D01*
X71500Y88700D02*X71148Y88903D01*
X59200Y90200D02*Y89794D01*
Y90200D02*X59552Y90403D01*
X59200Y90200D02*X58848Y90403D01*
X44300Y84600D02*Y84194D01*
Y84600D02*X44652Y84803D01*
X44300Y84600D02*X43948Y84803D01*
X41900Y74600D02*Y74194D01*
Y74600D02*X42252Y74803D01*
X41900Y74600D02*X41548Y74803D01*
X36000Y75700D02*Y75294D01*
Y75700D02*X36352Y75903D01*
X36000Y75700D02*X35648Y75903D01*
X39300Y66500D02*Y66094D01*
Y66500D02*X39652Y66703D01*
X39300Y66500D02*X38948Y66703D01*
X38800Y87500D02*Y87094D01*
Y87500D02*X39152Y87703D01*
X38800Y87500D02*X38448Y87703D01*
X41700Y64900D02*Y64494D01*
Y64900D02*X42052Y65103D01*
X41700Y64900D02*X41348Y65103D01*
X34200Y67400D02*Y66994D01*
Y67400D02*X34552Y67603D01*
X34200Y67400D02*X33848Y67603D01*
X31500Y67400D02*Y66994D01*
Y67400D02*X31852Y67603D01*
X31500Y67400D02*X31148Y67603D01*
X31500Y66700D02*Y66294D01*
Y66700D02*X31852Y66903D01*
X31500Y66700D02*X31148Y66903D01*
X36600Y68000D02*Y67594D01*
Y68000D02*X36952Y68203D01*
X36600Y68000D02*X36248Y68203D01*
X36600Y67350D02*Y66944D01*
Y67350D02*X36952Y67553D01*
X36600Y67350D02*X36248Y67553D01*
X36300Y70500D02*Y70094D01*
Y70500D02*X36652Y70703D01*
X36300Y70500D02*X35948Y70703D01*
X36900Y70500D02*Y70094D01*
Y70500D02*X37252Y70703D01*
X36900Y70500D02*X36548Y70703D01*
X29950Y65550D02*Y65144D01*
Y65550D02*X30302Y65753D01*
X29950Y65550D02*X29598Y65753D01*
X30400Y65150D02*Y64744D01*
Y65150D02*X30752Y65353D01*
X30400Y65150D02*X30048Y65353D01*
X30850Y65550D02*Y65144D01*
Y65550D02*X31202Y65753D01*
X30850Y65550D02*X30498Y65753D01*
X36800Y63550D02*Y63144D01*
Y63550D02*X37152Y63753D01*
X36800Y63550D02*X36448Y63753D01*
X36800Y64450D02*Y64044D01*
Y64450D02*X37152Y64653D01*
X36800Y64450D02*X36448Y64653D01*
X35100Y74200D02*Y73794D01*
Y74200D02*X35452Y74403D01*
X35100Y74200D02*X34748Y74403D01*
X35900Y74200D02*Y73794D01*
Y74200D02*X36252Y74403D01*
X35900Y74200D02*X35548Y74403D01*
X34100Y75300D02*Y74894D01*
Y75300D02*X34452Y75503D01*
X34100Y75300D02*X33748Y75503D01*
X50200Y72900D02*Y72494D01*
Y72900D02*X50552Y73103D01*
X50200Y72900D02*X49848Y73103D01*
X54500Y77800D02*Y77394D01*
Y77800D02*X54852Y78003D01*
X54500Y77800D02*X54148Y78003D01*
X53800Y77200D02*Y76794D01*
Y77200D02*X54152Y77403D01*
X53800Y77200D02*X53448Y77403D01*
X50400Y79200D02*Y78794D01*
Y79200D02*X50752Y79403D01*
X50400Y79200D02*X50048Y79403D01*
X52400Y73100D02*Y72694D01*
Y73100D02*X52752Y73303D01*
X52400Y73100D02*X52048Y73303D01*
X43700Y74000D02*Y73594D01*
Y74000D02*X44052Y74203D01*
X43700Y74000D02*X43348Y74203D01*
X41000Y65500D02*Y65094D01*
Y65500D02*X41352Y65703D01*
X41000Y65500D02*X40648Y65703D01*
X41700Y66100D02*Y65694D01*
Y66100D02*X42052Y66303D01*
X41700Y66100D02*X41348Y66303D01*
X42200Y82400D02*Y81994D01*
Y82400D02*X42552Y82603D01*
X42200Y82400D02*X41848Y82603D01*
X44500Y80400D02*Y79994D01*
Y80400D02*X44852Y80603D01*
X44500Y80400D02*X44148Y80603D01*
X46800Y76200D02*Y75794D01*
Y76200D02*X47152Y76403D01*
X46800Y76200D02*X46448Y76403D01*
X46100Y75700D02*Y75294D01*
Y75700D02*X46452Y75903D01*
X46100Y75700D02*X45748Y75903D01*
X46000Y77200D02*Y76794D01*
Y77200D02*X46352Y77403D01*
X46000Y77200D02*X45648Y77403D01*
X39400Y79000D02*Y78594D01*
Y79000D02*X39752Y79203D01*
X39400Y79000D02*X39048Y79203D01*
X47700Y77800D02*Y77394D01*
Y77800D02*X48052Y78003D01*
X47700Y77800D02*X47348Y78003D01*
X46000Y78100D02*Y77694D01*
Y78100D02*X46352Y78303D01*
X46000Y78100D02*X45648Y78303D01*
X20400Y75300D02*Y74894D01*
Y75300D02*X20752Y75503D01*
X20400Y75300D02*X20048Y75503D01*
X20400Y76200D02*Y75794D01*
Y76200D02*X20752Y76403D01*
X20400Y76200D02*X20048Y76403D01*
X21300Y76400D02*Y75994D01*
Y76400D02*X21652Y76603D01*
X21300Y76400D02*X20948Y76603D01*
X21900Y77100D02*Y76694D01*
Y77100D02*X22252Y77303D01*
X21900Y77100D02*X21548Y77303D01*
X43700Y75100D02*Y74694D01*
Y75100D02*X44052Y75303D01*
X43700Y75100D02*X43348Y75303D01*
X31500Y73800D02*Y73394D01*
Y73800D02*X31852Y74003D01*
X31500Y73800D02*X31148Y74003D01*
X31500Y74500D02*Y74094D01*
Y74500D02*X31852Y74703D01*
X31500Y74500D02*X31148Y74703D01*
X48900Y77800D02*Y77394D01*
Y77800D02*X49252Y78003D01*
X48900Y77800D02*X48548Y78003D01*
X58200Y82900D02*Y82494D01*
Y82900D02*X58552Y83103D01*
X58200Y82900D02*X57848Y83103D01*
X65600Y78100D02*Y77694D01*
Y78100D02*X65952Y78303D01*
X65600Y78100D02*X65248Y78303D01*
X66400Y78600D02*Y78194D01*
Y78600D02*X66752Y78803D01*
X66400Y78600D02*X66048Y78803D01*
X58800Y82100D02*Y81694D01*
Y82100D02*X59152Y82303D01*
X58800Y82100D02*X58448Y82303D01*
X67100Y79300D02*Y78894D01*
Y79300D02*X67452Y79503D01*
X67100Y79300D02*X66748Y79503D01*
X59400Y81400D02*Y80994D01*
Y81400D02*X59752Y81603D01*
X59400Y81400D02*X59048Y81603D01*
X65200Y75800D02*Y75394D01*
Y75800D02*X65552Y76003D01*
X65200Y75800D02*X64848Y76003D01*
X66100Y75800D02*Y75394D01*
Y75800D02*X66452Y76003D01*
X66100Y75800D02*X65748Y76003D01*
X67000Y75800D02*Y75394D01*
Y75800D02*X67352Y76003D01*
X67000Y75800D02*X66648Y76003D01*
X58600Y73900D02*Y73494D01*
Y73900D02*X58952Y74103D01*
X58600Y73900D02*X58248Y74103D01*
X58200Y74700D02*Y74294D01*
Y74700D02*X58552Y74903D01*
X58200Y74700D02*X57848Y74903D01*
X57400Y69800D02*Y69394D01*
Y69800D02*X57752Y70003D01*
X57400Y69800D02*X57048Y70003D01*
X59900Y75000D02*Y74594D01*
Y75000D02*X60252Y75203D01*
X59900Y75000D02*X59548Y75203D01*
X60000Y76900D02*Y76494D01*
Y76900D02*X60352Y77103D01*
X60000Y76900D02*X59648Y77103D01*
X53500Y73900D02*Y73494D01*
Y73900D02*X53852Y74103D01*
X53500Y73900D02*X53148Y74103D01*
X53500Y74800D02*Y74394D01*
Y74800D02*X53852Y75003D01*
X53500Y74800D02*X53148Y75003D01*
X43300Y69900D02*Y69494D01*
Y69900D02*X43652Y70103D01*
X43300Y69900D02*X42948Y70103D01*
X43600Y77100D02*Y76694D01*
Y77100D02*X43952Y77303D01*
X43600Y77100D02*X43248Y77303D01*
X44900Y70200D02*Y69794D01*
Y70200D02*X45252Y70403D01*
X44900Y70200D02*X44548Y70403D01*
X51400Y68900D02*Y68494D01*
Y68900D02*X51752Y69103D01*
X51400Y68900D02*X51048Y69103D01*
X50400Y80100D02*Y79694D01*
Y80100D02*X50752Y80303D01*
X50400Y80100D02*X50048Y80303D01*
X52000Y79000D02*Y78594D01*
Y79000D02*X52352Y79203D01*
X52000Y79000D02*X51648Y79203D01*
X51900Y80000D02*Y79594D01*
Y80000D02*X52252Y80203D01*
X51900Y80000D02*X51548Y80203D01*
X55500Y80300D02*Y79894D01*
Y80300D02*X55852Y80503D01*
X55500Y80300D02*X55148Y80503D01*
X59900Y73200D02*Y72794D01*
Y73200D02*X60252Y73403D01*
X59900Y73200D02*X59548Y73403D01*
X51300Y77300D02*Y76894D01*
Y77300D02*X51652Y77503D01*
X51300Y77300D02*X50948Y77503D01*
X52200Y77300D02*Y76894D01*
Y77300D02*X52552Y77503D01*
X52200Y77300D02*X51848Y77503D01*
X56400Y80400D02*Y79994D01*
Y80400D02*X56752Y80603D01*
X56400Y80400D02*X56048Y80603D01*
X56400Y88800D02*Y88394D01*
Y88800D02*X56752Y89003D01*
X56400Y88800D02*X56048Y89003D01*
X58800Y83600D02*Y83194D01*
Y83600D02*X59152Y83803D01*
X58800Y83600D02*X58448Y83803D01*
X62700Y89700D02*Y89294D01*
Y89700D02*X63052Y89903D01*
X62700Y89700D02*X62348Y89903D01*
X62700Y87100D02*Y86694D01*
Y87100D02*X63052Y87303D01*
X62700Y87100D02*X62348Y87303D01*
X46000Y71100D02*Y70694D01*
Y71100D02*X46352Y71303D01*
X46000Y71100D02*X45648Y71303D01*
X46700Y71800D02*Y71394D01*
Y71800D02*X47052Y72003D01*
X46700Y71800D02*X46348Y72003D01*
X46000Y72500D02*Y72094D01*
Y72500D02*X46352Y72703D01*
X46000Y72500D02*X45648Y72703D01*
X46700Y73200D02*Y72794D01*
Y73200D02*X47052Y73403D01*
X46700Y73200D02*X46348Y73403D01*
X41600Y72100D02*Y71694D01*
Y72100D02*X41952Y72303D01*
X41600Y72100D02*X41248Y72303D01*
X32100Y62800D02*Y62394D01*
Y62800D02*X32452Y63003D01*
X32100Y62800D02*X31748Y63003D01*
X11400Y76700D02*Y76294D01*
Y76700D02*X11752Y76903D01*
X11400Y76700D02*X11048Y76903D01*
X11600Y75500D02*Y75094D01*
Y75500D02*X11952Y75703D01*
X11600Y75500D02*X11248Y75703D01*
X42000Y79600D02*Y79194D01*
Y79600D02*X42352Y79803D01*
X42000Y79600D02*X41648Y79803D01*
X41000Y79100D02*Y78694D01*
Y79100D02*X41352Y79303D01*
X41000Y79100D02*X40648Y79303D01*
X38800Y82100D02*Y81694D01*
Y82100D02*X39152Y82303D01*
X38800Y82100D02*X38448Y82303D01*
X39700Y82100D02*Y81694D01*
Y82100D02*X40052Y82303D01*
X39700Y82100D02*X39348Y82303D01*
X53100Y80300D02*Y79894D01*
Y80300D02*X53452Y80503D01*
X53100Y80300D02*X52748Y80503D01*
X52800Y79400D02*Y78994D01*
Y79400D02*X53152Y79603D01*
X52800Y79400D02*X52448Y79603D01*
X49500Y82800D02*Y82394D01*
Y82800D02*X49852Y83003D01*
X49500Y82800D02*X49148Y83003D01*
X48200Y80500D02*Y80094D01*
Y80500D02*X48552Y80703D01*
X48200Y80500D02*X47848Y80703D01*
X44100Y82000D02*Y81594D01*
Y82000D02*X44452Y82203D01*
X44100Y82000D02*X43748Y82203D01*
X37200Y74800D02*Y74394D01*
Y74800D02*X37552Y75003D01*
X37200Y74800D02*X36848Y75003D01*
X37100Y78600D02*Y78194D01*
Y78600D02*X37452Y78803D01*
X37100Y78600D02*X36748Y78803D01*
X37400Y77800D02*Y77394D01*
Y77800D02*X37752Y78003D01*
X37400Y77800D02*X37048Y78003D01*
X55500Y84100D02*Y83694D01*
Y84100D02*X55852Y84303D01*
X55500Y84100D02*X55148Y84303D01*
X55800Y82600D02*Y82194D01*
Y82600D02*X56152Y82803D01*
X55800Y82600D02*X55448Y82803D01*
X56100Y83400D02*Y82994D01*
Y83400D02*X56452Y83603D01*
X56100Y83400D02*X55748Y83603D01*
X58000Y84300D02*Y83894D01*
Y84300D02*X58352Y84503D01*
X58000Y84300D02*X57648Y84503D01*
X58000Y85200D02*Y84794D01*
Y85200D02*X58352Y85403D01*
X58000Y85200D02*X57648Y85403D01*
X68500Y81100D02*Y80694D01*
Y81100D02*X68852Y81303D01*
X68500Y81100D02*X68148Y81303D01*
X67200Y83300D02*Y82894D01*
Y83300D02*X67552Y83503D01*
X67200Y83300D02*X66848Y83503D01*
X39000Y72400D02*Y71994D01*
Y72400D02*X39352Y72603D01*
X39000Y72400D02*X38648Y72603D01*
X36800Y76000D02*Y75594D01*
Y76000D02*X37152Y76203D01*
X36800Y76000D02*X36448Y76203D01*
X51300Y62800D02*Y62394D01*
Y62800D02*X51652Y63003D01*
X51300Y62800D02*X50948Y63003D01*
X39500Y68500D02*Y68094D01*
Y68500D02*X39852Y68703D01*
X39500Y68500D02*X39148Y68703D01*
X39500Y67600D02*Y67194D01*
Y67600D02*X39852Y67803D01*
X39500Y67600D02*X39148Y67803D01*
X17500Y74300D02*Y73894D01*
Y74300D02*X17852Y74503D01*
X17500Y74300D02*X17148Y74503D01*
X18200Y74800D02*Y74394D01*
Y74800D02*X18552Y75003D01*
X18200Y74800D02*X17848Y75003D01*
X26000Y80000D02*Y79594D01*
Y80000D02*X26352Y80203D01*
X26000Y80000D02*X25648Y80203D01*
X44200Y69500D02*Y69094D01*
Y69500D02*X44552Y69703D01*
X44200Y69500D02*X43848Y69703D01*
X38300Y77600D02*Y77194D01*
Y77600D02*X38652Y77803D01*
X38300Y77600D02*X37948Y77803D01*
X38000Y76000D02*Y75594D01*
Y76000D02*X38352Y76203D01*
X38000Y76000D02*X37648Y76203D01*
X49200Y71500D02*Y71094D01*
Y71500D02*X49552Y71703D01*
X49200Y71500D02*X48848Y71703D01*
X49900Y72100D02*Y71694D01*
Y72100D02*X50252Y72303D01*
X49900Y72100D02*X49548Y72303D01*
X48900Y78900D02*Y78494D01*
Y78900D02*X49252Y79103D01*
X48900Y78900D02*X48548Y79103D01*
X47300Y80500D02*Y80094D01*
Y80500D02*X47652Y80703D01*
X47300Y80500D02*X46948Y80703D01*
X52700Y71500D02*Y71094D01*
Y71500D02*X53052Y71703D01*
X52700Y71500D02*X52348Y71703D01*
X35800Y85700D02*Y85294D01*
Y85700D02*X36152Y85903D01*
X35800Y85700D02*X35448Y85903D01*
X38000Y88600D02*Y88194D01*
Y88600D02*X38352Y88803D01*
X38000Y88600D02*X37648Y88803D01*
X44500Y36100D02*Y35694D01*
Y36100D02*X44852Y36303D01*
X44500Y36100D02*X44148Y36303D01*
X42900Y36100D02*Y35694D01*
Y36100D02*X43252Y36303D01*
X42900Y36100D02*X42548Y36303D01*
X33950Y65450D02*Y65044D01*
Y65450D02*X34302Y65653D01*
X33950Y65450D02*X33598Y65653D01*
X33650Y64450D02*Y64044D01*
Y64450D02*X34002Y64653D01*
X33650Y64450D02*X33298Y64653D01*
X24100Y76700D02*Y76294D01*
Y76700D02*X24452Y76903D01*
X24100Y76700D02*X23748Y76903D01*
X55500Y61600D02*Y61194D01*
Y61600D02*X55852Y61803D01*
X55500Y61600D02*X55148Y61803D01*
X59900Y67800D02*Y67394D01*
Y67800D02*X60252Y68003D01*
X59900Y67800D02*X59548Y68003D01*
X30400Y93600D02*Y93194D01*
Y93600D02*X30752Y93803D01*
X30400Y93600D02*X30048Y93803D01*
X28400Y93600D02*Y93194D01*
Y93600D02*X28752Y93803D01*
X28400Y93600D02*X28048Y93803D01*
X26400Y93600D02*Y93194D01*
Y93600D02*X26752Y93803D01*
X26400Y93600D02*X26048Y93803D01*
X24400Y93600D02*Y93194D01*
Y93600D02*X24752Y93803D01*
X24400Y93600D02*X24048Y93803D01*
X22400Y93600D02*Y93194D01*
Y93600D02*X22752Y93803D01*
X22400Y93600D02*X22048Y93803D01*
X20400Y93600D02*Y93194D01*
Y93600D02*X20752Y93803D01*
X20400Y93600D02*X20048Y93803D01*
X18400Y93600D02*Y93194D01*
Y93600D02*X18752Y93803D01*
X18400Y93600D02*X18048Y93803D01*
X16400Y93600D02*Y93194D01*
Y93600D02*X16752Y93803D01*
X16400Y93600D02*X16048Y93803D01*
X14400Y93600D02*Y93194D01*
Y93600D02*X14752Y93803D01*
X14400Y93600D02*X14048Y93803D01*
X12400Y93600D02*Y93194D01*
Y93600D02*X12752Y93803D01*
X12400Y93600D02*X12048Y93803D01*
X73600Y92600D02*Y92194D01*
Y92600D02*X73952Y92803D01*
X73600Y92600D02*X73248Y92803D01*
X72600Y93600D02*Y93194D01*
Y93600D02*X72952Y93803D01*
X72600Y93600D02*X72248Y93803D01*
X70600Y93600D02*Y93194D01*
Y93600D02*X70952Y93803D01*
X70600Y93600D02*X70248Y93803D01*
X62700Y93600D02*Y93194D01*
Y93600D02*X63052Y93803D01*
X62700Y93600D02*X62348Y93803D01*
X68600Y93600D02*Y93194D01*
Y93600D02*X68952Y93803D01*
X68600Y93600D02*X68248Y93803D01*
X66600Y93600D02*Y93194D01*
Y93600D02*X66952Y93803D01*
X66600Y93600D02*X66248Y93803D01*
X64600Y93600D02*Y93194D01*
Y93600D02*X64952Y93803D01*
X64600Y93600D02*X64248Y93803D01*
X67000Y92000D02*Y91594D01*
Y92000D02*X67352Y92203D01*
X67000Y92000D02*X66648Y92203D01*
X70500Y89700D02*Y89294D01*
Y89700D02*X70852Y89903D01*
X70500Y89700D02*X70148Y89903D01*
X73600Y86900D02*Y86494D01*
Y86900D02*X73952Y87103D01*
X73600Y86900D02*X73248Y87103D01*
X73600Y84400D02*Y83994D01*
Y84400D02*X73952Y84603D01*
X73600Y84400D02*X73248Y84603D01*
X73600Y81800D02*Y81394D01*
Y81800D02*X73952Y82003D01*
X73600Y81800D02*X73248Y82003D01*
X73600Y79300D02*Y78894D01*
Y79300D02*X73952Y79503D01*
X73600Y79300D02*X73248Y79503D01*
X73600Y76700D02*Y76294D01*
Y76700D02*X73952Y76903D01*
X73600Y76700D02*X73248Y76903D01*
X71500Y79300D02*Y78894D01*
Y79300D02*X71852Y79503D01*
X71500Y79300D02*X71148Y79503D01*
X65500Y82300D02*Y81894D01*
Y82300D02*X65852Y82503D01*
X65500Y82300D02*X65148Y82503D01*
X61800Y82300D02*Y81894D01*
Y82300D02*X62152Y82503D01*
X61800Y82300D02*X61448Y82503D01*
X67200Y85500D02*Y85094D01*
Y85500D02*X67552Y85703D01*
X67200Y85500D02*X66848Y85703D01*
X58300Y88800D02*Y88394D01*
Y88800D02*X58652Y89003D01*
X58300Y88800D02*X57948Y89003D01*
X47800Y91700D02*Y91294D01*
Y91700D02*X48152Y91903D01*
X47800Y91700D02*X47448Y91903D01*
X46000Y91700D02*Y91294D01*
Y91700D02*X46352Y91903D01*
X46000Y91700D02*X45648Y91903D01*
X3810Y145958D02*Y145551D01*
Y145958D02*X4162Y146161D01*
X3810Y145958D02*X3458Y146161D01*
X34290Y146529D02*X34671Y145767D01*
X35052Y146529D01*
X34671Y145767D02*Y145005D01*
X35509Y145843D02*X36081D01*
X35509Y145005D02*X36271D01*
X35509Y146529D02*Y145005D01*
Y146529D02*X36271D01*
X37490D02*X37681Y146338D01*
X36919Y146529D02*X37490D01*
X36728Y146338D02*X36919Y146529D01*
X36728Y146338D02*Y145958D01*
X36919Y145767D01*
X37490D01*
X37681Y145576D01*
Y145196D01*
X37490Y145005D02*X37681Y145196D01*
X36919Y145005D02*X37490D01*
X36728Y145196D02*X36919Y145005D01*
X25082D02*X25844Y146529D01*
X24892D02*X25844D01*
X26873D02*X27064Y146338D01*
X26492Y146529D02*X26873D01*
X26302Y146338D02*X26492Y146529D01*
X26302Y146338D02*Y145196D01*
X26492Y145005D01*
X26873Y145843D02*X27064Y145653D01*
X26302Y145843D02*X26873D01*
X26492Y145005D02*X26873D01*
X27064Y145196D01*
Y145653D02*Y145196D01*
X27521Y146224D02*X27826Y146529D01*
Y145005D01*
X27521D02*X28092D01*
X11430Y145196D02*X11620Y145005D01*
X11430Y146338D02*Y145196D01*
Y146338D02*X11620Y146529D01*
X12002D01*
X12192Y146338D01*
Y145196D01*
X12002Y145005D02*X12192Y145196D01*
X11620Y145005D02*X12002D01*
X11430Y145386D02*X12192Y146148D01*
X12649Y145005D02*X12840D01*
X13297Y145196D02*X13487Y145005D01*
X13297Y146338D02*Y145196D01*
Y146338D02*X13487Y146529D01*
X13868D01*
X14059Y146338D01*
Y145196D01*
X13868Y145005D02*X14059Y145196D01*
X13487Y145005D02*X13868D01*
X13297Y145386D02*X14059Y146148D01*
X14516Y146224D02*X14821Y146529D01*
Y145005D01*
X14516D02*X15088D01*
X15545Y146338D02*X15735Y146529D01*
X16307D01*
X16497Y146338D01*
Y145958D01*
X15545Y145005D02*X16497Y145958D01*
X15545Y145005D02*X16497D01*
X762Y150339D02*X952Y150148D01*
X190Y150339D02*X762D01*
X0Y150148D02*X190Y150339D01*
X0Y150148D02*Y149768D01*
X190Y149577D01*
X762D01*
X952Y149386D01*
Y149006D01*
X762Y148815D02*X952Y149006D01*
X190Y148815D02*X762D01*
X0Y149006D02*X190Y148815D01*
X1410Y149577D02*Y149006D01*
X1600Y148815D01*
X2172Y149577D02*Y148434D01*
X1981Y148244D02*X2172Y148434D01*
X1600Y148244D02*X1981D01*
X1410Y148434D02*X1600Y148244D01*
Y148815D02*X1981D01*
X2172Y149006D01*
X2819Y149386D02*Y148815D01*
Y149386D02*X3010Y149577D01*
X3200D01*
X3391Y149386D01*
Y148815D01*
Y149386D02*X3581Y149577D01*
X3772D01*
X3962Y149386D01*
Y148815D01*
X2629Y149577D02*X2819Y149386D01*
X4420Y150339D02*Y148815D01*
Y149006D02*X4610Y148815D01*
X4991D01*
X5182Y149006D01*
Y149386D02*Y149006D01*
X4991Y149577D02*X5182Y149386D01*
X4610Y149577D02*X4991D01*
X4420Y149386D02*X4610Y149577D01*
X5639Y149386D02*Y149006D01*
Y149386D02*X5829Y149577D01*
X6210D01*
X6401Y149386D01*
Y149006D01*
X6210Y148815D02*X6401Y149006D01*
X5829Y148815D02*X6210D01*
X5639Y149006D02*X5829Y148815D01*
X6858Y150339D02*Y149006D01*
X7049Y148815D01*
X0Y147989D02*X7430D01*
X10604Y150339D02*Y148815D01*
X11100Y150339D02*X11366Y150072D01*
Y149082D01*
X11100Y148815D02*X11366Y149082D01*
X10414Y148815D02*X11100D01*
X10414Y150339D02*X11100D01*
G54D232*X11824Y149958D02*Y149920D01*
G54D231*Y149386D02*Y148815D01*
X12776Y149577D02*X12967Y149386D01*
X12395Y149577D02*X12776D01*
X12205Y149386D02*X12395Y149577D01*
X12205Y149386D02*Y149006D01*
X12395Y148815D01*
X12967Y149577D02*Y149006D01*
X13157Y148815D01*
X12395D02*X12776D01*
X12967Y149006D01*
X13805Y149386D02*Y148815D01*
Y149386D02*X13995Y149577D01*
X14186D01*
X14376Y149386D01*
Y148815D01*
Y149386D02*X14567Y149577D01*
X14757D01*
X14948Y149386D01*
Y148815D01*
X13614Y149577D02*X13805Y149386D01*
X15405Y148815D02*X15596D01*
X16739Y149006D02*X16929Y148815D01*
X16739Y150148D02*X16929Y150339D01*
X16739Y150148D02*Y149006D01*
X17386Y150339D02*X17767D01*
X17577D02*Y148815D01*
X17386D02*X17767D01*
X18415Y149386D02*Y148815D01*
Y149386D02*X18606Y149577D01*
X18796D01*
X18987Y149386D01*
Y148815D01*
X18225Y149577D02*X18415Y149386D01*
X19634Y149577D02*X20206D01*
X19444Y149386D02*X19634Y149577D01*
X19444Y149386D02*Y149006D01*
X19634Y148815D01*
X20206D01*
X20663Y150339D02*Y148815D01*
Y149386D02*X20853Y149577D01*
X21234D01*
X21425Y149386D01*
Y148815D01*
X21882Y150339D02*X22073Y150148D01*
Y149006D01*
X21882Y148815D02*X22073Y149006D01*
X10414Y147989D02*X22530D01*
X24397Y148815D02*X24892D01*
X24130Y149082D02*X24397Y148815D01*
X24130Y150072D02*Y149082D01*
Y150072D02*X24397Y150339D01*
X24892D01*
X25349Y149386D02*Y149006D01*
Y149386D02*X25540Y149577D01*
X25921D01*
X26111Y149386D01*
Y149006D01*
X25921Y148815D02*X26111Y149006D01*
X25540Y148815D02*X25921D01*
X25349Y149006D02*X25540Y148815D01*
X26568Y149577D02*Y149006D01*
X26759Y148815D01*
X27140D01*
X27330Y149006D01*
Y149577D02*Y149006D01*
X27978Y149386D02*Y148815D01*
Y149386D02*X28169Y149577D01*
X28359D01*
X28550Y149386D01*
Y148815D01*
X27788Y149577D02*X27978Y149386D01*
X29197Y150339D02*Y149006D01*
X29388Y148815D01*
X29007Y149768D02*X29388D01*
X24130Y147989D02*X29769D01*
X33210Y150339D02*Y148815D01*
X33020Y150339D02*X33782D01*
X33972Y150148D01*
Y149768D01*
X33782Y149577D02*X33972Y149768D01*
X33210Y149577D02*X33782D01*
X34430Y150339D02*Y149006D01*
X34620Y148815D01*
X35573Y149577D02*X35763Y149386D01*
X35192Y149577D02*X35573D01*
X35001Y149386D02*X35192Y149577D01*
X35001Y149386D02*Y149006D01*
X35192Y148815D01*
X35763Y149577D02*Y149006D01*
X35954Y148815D01*
X35192D02*X35573D01*
X35763Y149006D01*
X36601Y150339D02*Y149006D01*
X36792Y148815D01*
X36411Y149768D02*X36792D01*
X37363Y148815D02*X37935D01*
X37173Y149006D02*X37363Y148815D01*
X37173Y149386D02*Y149006D01*
Y149386D02*X37363Y149577D01*
X37744D01*
X37935Y149386D01*
X37173Y149196D02*X37935D01*
Y149386D02*Y149196D01*
X39154Y150339D02*Y148815D01*
X38964D02*X39154Y149006D01*
X38583Y148815D02*X38964D01*
X38392Y149006D02*X38583Y148815D01*
X38392Y149386D02*Y149006D01*
Y149386D02*X38583Y149577D01*
X38964D01*
X39154Y149386D01*
X39992Y149577D02*Y149386D01*
Y149006D02*Y148815D01*
X39611Y150148D02*Y149958D01*
Y150148D02*X39802Y150339D01*
X40183D01*
X40373Y150148D01*
Y149958D01*
X39992Y149577D02*X40373Y149958D01*
X33020Y147989D02*X40831D01*
X0Y154149D02*X762D01*
X381D02*Y152625D01*
X1219Y154149D02*Y152625D01*
Y153196D02*X1410Y153387D01*
X1791D01*
X1981Y153196D01*
Y152625D01*
X2629D02*X3200D01*
X2438Y152816D02*X2629Y152625D01*
X2438Y153196D02*Y152816D01*
Y153196D02*X2629Y153387D01*
X3010D01*
X3200Y153196D01*
X2438Y153006D02*X3200D01*
Y153196D02*Y153006D01*
X3848Y153196D02*Y152625D01*
Y153196D02*X4039Y153387D01*
X4420D01*
X3658D02*X3848Y153196D01*
X5067Y152625D02*X5639D01*
X4877Y152816D02*X5067Y152625D01*
X4877Y153196D02*Y152816D01*
Y153196D02*X5067Y153387D01*
X5448D01*
X5639Y153196D01*
X4877Y153006D02*X5639D01*
Y153196D02*Y153006D01*
X7353Y153387D02*X7544Y153196D01*
X6972Y153387D02*X7353D01*
X6782Y153196D02*X6972Y153387D01*
X6782Y153196D02*Y152816D01*
X6972Y152625D01*
X7544Y153387D02*Y152816D01*
X7734Y152625D01*
X6972D02*X7353D01*
X7544Y152816D01*
X8382Y153196D02*Y152625D01*
Y153196D02*X8573Y153387D01*
X8954D01*
X8192D02*X8382Y153196D01*
X9601Y152625D02*X10173D01*
X9411Y152816D02*X9601Y152625D01*
X9411Y153196D02*Y152816D01*
Y153196D02*X9601Y153387D01*
X9982D01*
X10173Y153196D01*
X9411Y153006D02*X10173D01*
Y153196D02*Y153006D01*
X11316Y153844D02*X11621Y154149D01*
Y152625D01*
X11316D02*X11887D01*
X12344Y152816D02*X12535Y152625D01*
X12344Y153958D02*Y152816D01*
Y153958D02*X12535Y154149D01*
X12916D01*
X13106Y153958D01*
Y152816D01*
X12916Y152625D02*X13106Y152816D01*
X12535Y152625D02*X12916D01*
X12344Y153006D02*X13106Y153768D01*
X15011Y154149D02*Y152625D01*
X14821D02*X15011Y152816D01*
X14440Y152625D02*X14821D01*
X14249Y152816D02*X14440Y152625D01*
X14249Y153196D02*Y152816D01*
Y153196D02*X14440Y153387D01*
X14821D01*
X15011Y153196D01*
G54D232*X15469Y153768D02*Y153730D01*
G54D231*Y153196D02*Y152625D01*
X16040Y153958D02*Y152625D01*
Y153958D02*X16231Y154149D01*
X16421D01*
X15850Y153387D02*X16231D01*
X16993Y153958D02*Y152625D01*
Y153958D02*X17183Y154149D01*
X17374D01*
X16802Y153387D02*X17183D01*
X17945Y152625D02*X18517D01*
X17755Y152816D02*X17945Y152625D01*
X17755Y153196D02*Y152816D01*
Y153196D02*X17945Y153387D01*
X18326D01*
X18517Y153196D01*
X17755Y153006D02*X18517D01*
Y153196D02*Y153006D01*
X19164Y153196D02*Y152625D01*
Y153196D02*X19355Y153387D01*
X19736D01*
X18974D02*X19164Y153196D01*
X20384Y152625D02*X20955D01*
X20193Y152816D02*X20384Y152625D01*
X20193Y153196D02*Y152816D01*
Y153196D02*X20384Y153387D01*
X20765D01*
X20955Y153196D01*
X20193Y153006D02*X20955D01*
Y153196D02*Y153006D01*
X21603Y153196D02*Y152625D01*
Y153196D02*X21793Y153387D01*
X21984D01*
X22174Y153196D01*
Y152625D01*
X21412Y153387D02*X21603Y153196D01*
X22822Y154149D02*Y152816D01*
X23012Y152625D01*
X22631Y153578D02*X23012D01*
X24841Y154149D02*Y152625D01*
X24651D02*X24841Y152816D01*
X24270Y152625D02*X24651D01*
X24079Y152816D02*X24270Y152625D01*
X24079Y153196D02*Y152816D01*
Y153196D02*X24270Y153387D01*
X24651D01*
X24841Y153196D01*
X25489D02*Y152625D01*
Y153196D02*X25679Y153387D01*
X26060D01*
X25298D02*X25489Y153196D01*
G54D232*X26518Y153768D02*Y153730D01*
G54D231*Y153196D02*Y152625D01*
X26899Y154149D02*Y152816D01*
X27089Y152625D01*
X27470Y154149D02*Y152816D01*
X27661Y152625D01*
X28918D02*X29489D01*
X29680Y152816D01*
X29489Y153006D02*X29680Y152816D01*
X28918Y153006D02*X29489D01*
X28727Y153196D02*X28918Y153006D01*
X28727Y153196D02*X28918Y153387D01*
X29489D01*
X29680Y153196D01*
X28727Y152816D02*X28918Y152625D01*
G54D232*X30137Y153768D02*Y153730D01*
G54D231*Y153196D02*Y152625D01*
X30518Y153387D02*X31280D01*
X30518Y152625D02*X31280Y153387D01*
X30518Y152625D02*X31280D01*
X31928D02*X32499D01*
X31737Y152816D02*X31928Y152625D01*
X31737Y153196D02*Y152816D01*
Y153196D02*X31928Y153387D01*
X32309D01*
X32499Y153196D01*
X31737Y153006D02*X32499D01*
Y153196D02*Y153006D01*
X33147Y152625D02*X33719D01*
X33909Y152816D01*
X33719Y153006D02*X33909Y152816D01*
X33147Y153006D02*X33719D01*
X32957Y153196D02*X33147Y153006D01*
X32957Y153196D02*X33147Y153387D01*
X33719D01*
X33909Y153196D01*
X32957Y152816D02*X33147Y152625D01*
X35052Y153387D02*Y152816D01*
X35243Y152625D01*
X35624D01*
X35814Y152816D01*
Y153387D02*Y152816D01*
X36462Y152625D02*X37033D01*
X37224Y152816D01*
X37033Y153006D02*X37224Y152816D01*
X36462Y153006D02*X37033D01*
X36271Y153196D02*X36462Y153006D01*
X36271Y153196D02*X36462Y153387D01*
X37033D01*
X37224Y153196D01*
X36271Y152816D02*X36462Y152625D01*
X37871D02*X38443D01*
X37681Y152816D02*X37871Y152625D01*
X37681Y153196D02*Y152816D01*
Y153196D02*X37871Y153387D01*
X38252D01*
X38443Y153196D01*
X37681Y153006D02*X38443D01*
Y153196D02*Y153006D01*
X39662Y154149D02*Y152625D01*
X39472D02*X39662Y152816D01*
X39091Y152625D02*X39472D01*
X38900Y152816D02*X39091Y152625D01*
X38900Y153196D02*Y152816D01*
Y153196D02*X39091Y153387D01*
X39472D01*
X39662Y153196D01*
G54D232*X40805Y153768D02*Y153730D01*
G54D231*Y153196D02*Y152625D01*
X41377Y153196D02*Y152625D01*
Y153196D02*X41567Y153387D01*
X41758D01*
X41948Y153196D01*
Y152625D01*
X41186Y153387D02*X41377Y153196D01*
X43282Y154149D02*Y152816D01*
X43472Y152625D01*
X43091Y153578D02*X43472D01*
X43853Y154149D02*Y152625D01*
Y153196D02*X44044Y153387D01*
X44425D01*
X44615Y153196D01*
Y152625D01*
G54D232*X45072Y153768D02*Y153730D01*
G54D231*Y153196D02*Y152625D01*
X45644D02*X46215D01*
X46406Y152816D01*
X46215Y153006D02*X46406Y152816D01*
X45644Y153006D02*X46215D01*
X45453Y153196D02*X45644Y153006D01*
X45453Y153196D02*X45644Y153387D01*
X46215D01*
X46406Y153196D01*
X45453Y152816D02*X45644Y152625D01*
X47549Y154149D02*Y152816D01*
X47739Y152625D01*
X48692Y153387D02*X48882Y153196D01*
X48311Y153387D02*X48692D01*
X48120Y153196D02*X48311Y153387D01*
X48120Y153196D02*Y152816D01*
X48311Y152625D01*
X48882Y153387D02*Y152816D01*
X49073Y152625D01*
X48311D02*X48692D01*
X48882Y152816D01*
X49530Y153387D02*Y152816D01*
X49721Y152625D01*
X50292Y153387D02*Y152244D01*
X50102Y152054D02*X50292Y152244D01*
X49721Y152054D02*X50102D01*
X49530Y152244D02*X49721Y152054D01*
Y152625D02*X50102D01*
X50292Y152816D01*
X50749Y153196D02*Y152816D01*
Y153196D02*X50940Y153387D01*
X51321D01*
X51511Y153196D01*
Y152816D01*
X51321Y152625D02*X51511Y152816D01*
X50940Y152625D02*X51321D01*
X50749Y152816D02*X50940Y152625D01*
X51968Y153387D02*Y152816D01*
X52159Y152625D01*
X52540D01*
X52730Y152816D01*
Y153387D02*Y152816D01*
X53378Y154149D02*Y152816D01*
X53569Y152625D01*
X53188Y153578D02*X53569D01*
X53950Y152244D02*X54331Y152625D01*
X55474Y152816D02*X55664Y152625D01*
X55474Y153120D02*Y152816D01*
Y153120D02*X55740Y153387D01*
X55969D01*
X56236Y153120D01*
Y152816D01*
X56045Y152625D02*X56236Y152816D01*
X55664Y152625D02*X56045D01*
X55474Y153654D02*X55740Y153387D01*
X55474Y153958D02*Y153654D01*
Y153958D02*X55664Y154149D01*
X56045D01*
X56236Y153958D01*
Y153654D01*
X55969Y153387D02*X56236Y153654D01*
X56693Y153196D02*X57455Y154149D01*
X56693Y153196D02*X57645D01*
X57455Y154149D02*Y152625D01*
X58103Y154149D02*X58865D01*
X58103D02*Y153387D01*
X58293Y153578D01*
X58674D01*
X58865Y153387D01*
Y152816D01*
X58674Y152625D02*X58865Y152816D01*
X58293Y152625D02*X58674D01*
X58103Y152816D02*X58293Y152625D01*
X60008Y154149D02*Y152625D01*
Y153196D02*X60198Y153387D01*
X60579D01*
X60770Y153196D01*
Y152625D01*
X61227Y153196D02*Y152816D01*
Y153196D02*X61417Y153387D01*
X61798D01*
X61989Y153196D01*
Y152816D01*
X61798Y152625D02*X61989Y152816D01*
X61417Y152625D02*X61798D01*
X61227Y152816D02*X61417Y152625D01*
X62446Y154149D02*Y152816D01*
X62636Y152625D01*
X63208D02*X63779D01*
X63017Y152816D02*X63208Y152625D01*
X63017Y153196D02*Y152816D01*
Y153196D02*X63208Y153387D01*
X63589D01*
X63779Y153196D01*
X63017Y153006D02*X63779D01*
Y153196D02*Y153006D01*
X64427Y152625D02*X64999D01*
X65189Y152816D01*
X64999Y153006D02*X65189Y152816D01*
X64427Y153006D02*X64999D01*
X64237Y153196D02*X64427Y153006D01*
X64237Y153196D02*X64427Y153387D01*
X64999D01*
X65189Y153196D01*
X64237Y152816D02*X64427Y152625D01*
X66523Y154149D02*Y152816D01*
X66713Y152625D01*
X66332Y153578D02*X66713D01*
X67094Y153196D02*Y152816D01*
Y153196D02*X67285Y153387D01*
X67666D01*
X67856Y153196D01*
Y152816D01*
X67666Y152625D02*X67856Y152816D01*
X67285Y152625D02*X67666D01*
X67094Y152816D02*X67285Y152625D01*
X68504Y154149D02*Y152816D01*
X68694Y152625D01*
X68313Y153578D02*X68694D01*
X69647Y153387D02*X69837Y153196D01*
X69266Y153387D02*X69647D01*
X69075Y153196D02*X69266Y153387D01*
X69075Y153196D02*Y152816D01*
X69266Y152625D01*
X69837Y153387D02*Y152816D01*
X70028Y152625D01*
X69266D02*X69647D01*
X69837Y152816D01*
X70485Y154149D02*Y152816D01*
X70676Y152625D01*
G54D233*X13500Y10000D02*X71500D01*
X75000Y13500D02*Y91500D01*
X71500Y95000D02*X13500D01*
X10000Y91500D02*Y13500D01*
X71500Y10000D02*G75*G03X75000Y13500I0J3500D01*G01*
X10000D02*G75*G03X13500Y10000I3500J0D01*G01*
X10000Y91500D02*G75*G02X13500Y95000I3500J0D01*G01*
X71500D02*G75*G02X75000Y91500I0J-3500D01*G01*
G54D231*X20573Y-2413D02*X21335D01*
X21526Y-2222D01*
Y-1765D02*Y-2222D01*
X21335Y-1575D02*X21526Y-1765D01*
X20764Y-1575D02*X21335D01*
X20764Y-889D02*Y-2413D01*
X20573Y-889D02*X21335D01*
X21526Y-1080D01*
Y-1384D01*
X21335Y-1575D02*X21526Y-1384D01*
X21983Y-1842D02*Y-2222D01*
Y-1842D02*X22174Y-1651D01*
X22555D01*
X22745Y-1842D01*
Y-2222D01*
X22555Y-2413D02*X22745Y-2222D01*
X22174Y-2413D02*X22555D01*
X21983Y-2222D02*X22174Y-2413D01*
X23774Y-1651D02*X23964Y-1842D01*
X23393Y-1651D02*X23774D01*
X23202Y-1842D02*X23393Y-1651D01*
X23202Y-1842D02*Y-2222D01*
X23393Y-2413D01*
X23964Y-1651D02*Y-2222D01*
X24155Y-2413D01*
X23393D02*X23774D01*
X23964Y-2222D01*
X24803Y-1842D02*Y-2413D01*
Y-1842D02*X24993Y-1651D01*
X25374D01*
X24612D02*X24803Y-1842D01*
X26593Y-889D02*Y-2413D01*
X26403D02*X26593Y-2222D01*
X26022Y-2413D02*X26403D01*
X25831Y-2222D02*X26022Y-2413D01*
X25831Y-1842D02*Y-2222D01*
Y-1842D02*X26022Y-1651D01*
X26403D01*
X26593Y-1842D01*
X27736D02*Y-2222D01*
Y-1842D02*X27927Y-1651D01*
X28308D01*
X28498Y-1842D01*
Y-2222D01*
X28308Y-2413D02*X28498Y-2222D01*
X27927Y-2413D02*X28308D01*
X27736Y-2222D02*X27927Y-2413D01*
X28955Y-1651D02*Y-2222D01*
X29146Y-2413D01*
X29527D01*
X29717Y-2222D01*
Y-1651D02*Y-2222D01*
X30365Y-889D02*Y-2222D01*
X30556Y-2413D01*
X30175Y-1460D02*X30556D01*
X30937Y-889D02*Y-2222D01*
X31127Y-2413D01*
G54D232*X31508Y-1270D02*Y-1308D01*
G54D231*Y-1842D02*Y-2413D01*
X32080Y-1842D02*Y-2413D01*
Y-1842D02*X32270Y-1651D01*
X32461D01*
X32651Y-1842D01*
Y-2413D01*
X31889Y-1651D02*X32080Y-1842D01*
X33299Y-2413D02*X33870D01*
X33108Y-2222D02*X33299Y-2413D01*
X33108Y-1842D02*Y-2222D01*
Y-1842D02*X33299Y-1651D01*
X33680D01*
X33870Y-1842D01*
X33108Y-2032D02*X33870D01*
Y-1842D02*Y-2032D01*
G54D232*X35013Y-1270D02*Y-1308D01*
G54D231*Y-1842D02*Y-2413D01*
X35585D02*X36156D01*
X36347Y-2222D01*
X36156Y-2032D02*X36347Y-2222D01*
X35585Y-2032D02*X36156D01*
X35394Y-1842D02*X35585Y-2032D01*
X35394Y-1842D02*X35585Y-1651D01*
X36156D01*
X36347Y-1842D01*
X35394Y-2222D02*X35585Y-2413D01*
X37680Y-889D02*Y-2222D01*
X37871Y-2413D01*
X37490Y-1460D02*X37871D01*
X38252Y-889D02*Y-2413D01*
Y-1842D02*X38442Y-1651D01*
X38823D01*
X39014Y-1842D01*
Y-2413D01*
X39662D02*X40233D01*
X39471Y-2222D02*X39662Y-2413D01*
X39471Y-1842D02*Y-2222D01*
Y-1842D02*X39662Y-1651D01*
X40043D01*
X40233Y-1842D01*
X39471Y-2032D02*X40233D01*
Y-1842D02*Y-2032D01*
X41567Y-1651D02*X42138D01*
X41376Y-1842D02*X41567Y-1651D01*
X41376Y-1842D02*Y-2222D01*
X41567Y-2413D01*
X42138D01*
X42786D02*X43357D01*
X42595Y-2222D02*X42786Y-2413D01*
X42595Y-1842D02*Y-2222D01*
Y-1842D02*X42786Y-1651D01*
X43167D01*
X43357Y-1842D01*
X42595Y-2032D02*X43357D01*
Y-1842D02*Y-2032D01*
X44005Y-1842D02*Y-2413D01*
Y-1842D02*X44195Y-1651D01*
X44386D01*
X44576Y-1842D01*
Y-2413D01*
X43814Y-1651D02*X44005Y-1842D01*
X45224Y-889D02*Y-2222D01*
X45415Y-2413D01*
X45034Y-1460D02*X45415D01*
X45986Y-2413D02*X46558D01*
X45796Y-2222D02*X45986Y-2413D01*
X45796Y-1842D02*Y-2222D01*
Y-1842D02*X45986Y-1651D01*
X46367D01*
X46558Y-1842D01*
X45796Y-2032D02*X46558D01*
Y-1842D02*Y-2032D01*
X47205Y-1842D02*Y-2413D01*
Y-1842D02*X47396Y-1651D01*
X47777D01*
X47015D02*X47205Y-1842D01*
X48234Y-889D02*Y-2222D01*
X48425Y-2413D01*
G54D232*X48806Y-1270D02*Y-1308D01*
G54D231*Y-1842D02*Y-2413D01*
X49377Y-1842D02*Y-2413D01*
Y-1842D02*X49568Y-1651D01*
X49758D01*
X49949Y-1842D01*
Y-2413D01*
X49187Y-1651D02*X49377Y-1842D01*
X50596Y-2413D02*X51168D01*
X50406Y-2222D02*X50596Y-2413D01*
X50406Y-1842D02*Y-2222D01*
Y-1842D02*X50596Y-1651D01*
X50977D01*
X51168Y-1842D01*
X50406Y-2032D02*X51168D01*
Y-1842D02*Y-2032D01*
X52311Y-1842D02*Y-2222D01*
Y-1842D02*X52501Y-1651D01*
X52882D01*
X53073Y-1842D01*
Y-2222D01*
X52882Y-2413D02*X53073Y-2222D01*
X52501Y-2413D02*X52882D01*
X52311Y-2222D02*X52501Y-2413D01*
X53720Y-1080D02*Y-2413D01*
Y-1080D02*X53911Y-889D01*
X54101D01*
X53530Y-1651D02*X53911D01*
X55359Y-889D02*Y-2222D01*
X55549Y-2413D01*
X55168Y-1460D02*X55549D01*
X55930Y-889D02*Y-2413D01*
Y-1842D02*X56121Y-1651D01*
X56502D01*
X56692Y-1842D01*
Y-2413D01*
G54D232*X57149Y-1270D02*Y-1308D01*
G54D231*Y-1842D02*Y-2413D01*
X57721D02*X58292D01*
X58483Y-2222D01*
X58292Y-2032D02*X58483Y-2222D01*
X57721Y-2032D02*X58292D01*
X57530Y-1842D02*X57721Y-2032D01*
X57530Y-1842D02*X57721Y-1651D01*
X58292D01*
X58483Y-1842D01*
X57530Y-2222D02*X57721Y-2413D01*
X59816Y-1842D02*Y-2984D01*
X59626Y-1651D02*X59816Y-1842D01*
X60007Y-1651D01*
X60388D01*
X60578Y-1842D01*
Y-2222D01*
X60388Y-2413D02*X60578Y-2222D01*
X60007Y-2413D02*X60388D01*
X59816Y-2222D02*X60007Y-2413D01*
X61607Y-1651D02*X61798Y-1842D01*
X61226Y-1651D02*X61607D01*
X61036Y-1842D02*X61226Y-1651D01*
X61036Y-1842D02*Y-2222D01*
X61226Y-2413D01*
X61798Y-1651D02*Y-2222D01*
X61988Y-2413D01*
X61226D02*X61607D01*
X61798Y-2222D01*
X62636Y-889D02*Y-2222D01*
X62826Y-2413D01*
X62445Y-1460D02*X62826D01*
X63207Y-889D02*Y-2413D01*
Y-1842D02*X63398Y-1651D01*
X63779D01*
X63969Y-1842D01*
Y-2413D01*
X50990Y112239D02*Y110715D01*
X51486Y112239D02*X51752Y111972D01*
Y110982D01*
X51486Y110715D02*X51752Y110982D01*
X50800Y110715D02*X51486D01*
X50800Y112239D02*X51486D01*
X52781Y111477D02*X52972Y111286D01*
X52400Y111477D02*X52781D01*
X52210Y111286D02*X52400Y111477D01*
X52210Y111286D02*Y110906D01*
X52400Y110715D01*
X52972Y111477D02*Y110906D01*
X53162Y110715D01*
X52400D02*X52781D01*
X52972Y110906D01*
X53810Y112239D02*Y110906D01*
X54000Y110715D01*
X53619Y111668D02*X54000D01*
X54572Y110715D02*X55143D01*
X54381Y110906D02*X54572Y110715D01*
X54381Y111286D02*Y110906D01*
Y111286D02*X54572Y111477D01*
X54953D01*
X55143Y111286D01*
X54381Y111096D02*X55143D01*
Y111286D02*Y111096D01*
X55601Y111668D02*X55791D01*
X55601Y111286D02*X55791D01*
X56934Y112239D02*X57696D01*
X57315D02*Y110715D01*
X58153Y111477D02*Y110906D01*
X58344Y110715D01*
X58725D01*
X58915Y110906D01*
Y111477D02*Y110906D01*
X59563Y110715D02*X60135D01*
X59373Y110906D02*X59563Y110715D01*
X59373Y111286D02*Y110906D01*
Y111286D02*X59563Y111477D01*
X59944D01*
X60135Y111286D01*
X59373Y111096D02*X60135D01*
Y111286D02*Y111096D01*
X61278Y111934D02*X61582Y112239D01*
Y110715D01*
X61278D02*X61849D01*
X62306Y111934D02*X62611Y112239D01*
Y110715D01*
X62306D02*X62878D01*
X64021Y112239D02*Y110715D01*
Y112239D02*X64783D01*
X64021Y111553D02*X64592D01*
X65430Y110715D02*X66002D01*
X65240Y110906D02*X65430Y110715D01*
X65240Y111286D02*Y110906D01*
Y111286D02*X65430Y111477D01*
X65811D01*
X66002Y111286D01*
X65240Y111096D02*X66002D01*
Y111286D02*Y111096D01*
X66459Y112239D02*Y110715D01*
Y110906D02*X66650Y110715D01*
X67031D01*
X67221Y110906D01*
Y111286D02*Y110906D01*
X67031Y111477D02*X67221Y111286D01*
X66650Y111477D02*X67031D01*
X66459Y111286D02*X66650Y111477D01*
X68364Y112048D02*X68555Y112239D01*
X69126D01*
X69317Y112048D01*
Y111668D01*
X68364Y110715D02*X69317Y111668D01*
X68364Y110715D02*X69317D01*
X69774Y110906D02*X69964Y110715D01*
X69774Y112048D02*Y110906D01*
Y112048D02*X69964Y112239D01*
X70345D01*
X70536Y112048D01*
Y110906D01*
X70345Y110715D02*X70536Y110906D01*
X69964Y110715D02*X70345D01*
X69774Y111096D02*X70536Y111858D01*
X70993Y111934D02*X71298Y112239D01*
Y110715D01*
X70993D02*X71565D01*
X72022Y111286D02*X72784Y112239D01*
X72022Y111286D02*X72974D01*
X72784Y112239D02*Y110715D01*
X74117Y110906D02*X74308Y110715D01*
X74117Y112048D02*Y110906D01*
Y112048D02*X74308Y112239D01*
X74689D01*
X74879Y112048D01*
Y110906D01*
X74689Y110715D02*X74879Y110906D01*
X74308Y110715D02*X74689D01*
X74117Y111096D02*X74879Y111858D01*
X75336Y110906D02*X75527Y110715D01*
X75336Y112048D02*Y110906D01*
Y112048D02*X75527Y112239D01*
X75908D01*
X76098Y112048D01*
Y110906D01*
X75908Y110715D02*X76098Y110906D01*
X75527Y110715D02*X75908D01*
X75336Y111096D02*X76098Y111858D01*
X76556Y111668D02*X76746D01*
X76556Y111286D02*X76746D01*
X77203Y110906D02*X77394Y110715D01*
X77203Y112048D02*Y110906D01*
Y112048D02*X77394Y112239D01*
X77775D01*
X77965Y112048D01*
Y110906D01*
X77775Y110715D02*X77965Y110906D01*
X77394Y110715D02*X77775D01*
X77203Y111096D02*X77965Y111858D01*
X78423Y112048D02*X78613Y112239D01*
X79185D01*
X79375Y112048D01*
Y111668D01*
X78423Y110715D02*X79375Y111668D01*
X78423Y110715D02*X79375D01*
X79832Y111668D02*X80023D01*
X79832Y111286D02*X80023D01*
X80480Y112048D02*X80670Y112239D01*
X81242D01*
X81432Y112048D01*
Y111668D01*
X80480Y110715D02*X81432Y111668D01*
X80480Y110715D02*X81432D01*
X82080D02*X82842Y112239D01*
X81890D02*X82842D01*
X84747D02*X84938Y112048D01*
X84176Y112239D02*X84747D01*
X83985Y112048D02*X84176Y112239D01*
X83985Y112048D02*Y110906D01*
X84176Y110715D01*
X84747D01*
X84938Y110906D01*
Y111286D02*Y110906D01*
X84747Y111477D02*X84938Y111286D01*
X84366Y111477D02*X84747D01*
X85395Y112239D02*Y110715D01*
Y112239D02*X85966Y111477D01*
X86538Y112239D01*
Y110715D01*
X86995Y112239D02*X87757D01*
X87376D02*Y110715D01*
X88900Y112239D02*Y110906D01*
X89091Y110715D01*
X89472D01*
X89662Y110906D01*
Y112239D02*Y110906D01*
X90119Y112239D02*X90881D01*
X90500D02*Y110715D01*
X91605D02*X92100D01*
X91338Y110982D02*X91605Y110715D01*
X91338Y111972D02*Y110982D01*
Y111972D02*X91605Y112239D01*
X92100D01*
X50800Y115668D02*Y114525D01*
Y115668D02*X51067Y116049D01*
X51486D01*
X51752Y115668D01*
Y114525D01*
X50800Y115287D02*X51752D01*
X52210D02*Y114716D01*
X52400Y114525D01*
X52781D01*
X52972Y114716D01*
Y115287D02*Y114716D01*
X53619Y116049D02*Y114716D01*
X53810Y114525D01*
X53429Y115478D02*X53810D01*
X54191Y116049D02*Y114525D01*
Y115096D02*X54381Y115287D01*
X54762D01*
X54953Y115096D01*
Y114525D01*
X55410Y115096D02*Y114716D01*
Y115096D02*X55601Y115287D01*
X55982D01*
X56172Y115096D01*
Y114716D01*
X55982Y114525D02*X56172Y114716D01*
X55601Y114525D02*X55982D01*
X55410Y114716D02*X55601Y114525D01*
X56820Y115096D02*Y114525D01*
Y115096D02*X57010Y115287D01*
X57391D01*
X56629D02*X56820Y115096D01*
X57849Y115478D02*X58039D01*
X57849Y115096D02*X58039D01*
X59182Y116049D02*X59944D01*
X60135Y115858D01*
Y115478D01*
X59944Y115287D02*X60135Y115478D01*
X59373Y115287D02*X59944D01*
X59373Y116049D02*Y114525D01*
X59677Y115287D02*X60135Y114525D01*
G54D232*X60592Y115668D02*Y115630D01*
G54D231*Y115096D02*Y114525D01*
X61163Y115287D02*X61735D01*
X60973Y115096D02*X61163Y115287D01*
X60973Y115096D02*Y114716D01*
X61163Y114525D01*
X61735D01*
X62192Y116049D02*Y114525D01*
Y115096D02*X62382Y115287D01*
X62763D01*
X62954Y115096D01*
Y114525D01*
X63983Y115287D02*X64173Y115096D01*
X63602Y115287D02*X63983D01*
X63411Y115096D02*X63602Y115287D01*
X63411Y115096D02*Y114716D01*
X63602Y114525D01*
X64173Y115287D02*Y114716D01*
X64364Y114525D01*
X63602D02*X63983D01*
X64173Y114716D01*
X65011Y115096D02*Y114525D01*
Y115096D02*X65202Y115287D01*
X65583D01*
X64821D02*X65011Y115096D01*
X66802Y116049D02*Y114525D01*
X66612D02*X66802Y114716D01*
X66231Y114525D02*X66612D01*
X66040Y114716D02*X66231Y114525D01*
X66040Y115096D02*Y114716D01*
Y115096D02*X66231Y115287D01*
X66612D01*
X66802Y115096D01*
X67945Y114525D02*X68707D01*
X68898Y114716D01*
Y115173D02*Y114716D01*
X68707Y115363D02*X68898Y115173D01*
X68136Y115363D02*X68707D01*
X68136Y116049D02*Y114525D01*
X67945Y116049D02*X68707D01*
X68898Y115858D01*
Y115554D01*
X68707Y115363D02*X68898Y115554D01*
X69926Y115287D02*X70117Y115096D01*
X69545Y115287D02*X69926D01*
X69355Y115096D02*X69545Y115287D01*
X69355Y115096D02*Y114716D01*
X69545Y114525D01*
X70117Y115287D02*Y114716D01*
X70307Y114525D01*
X69545D02*X69926D01*
X70117Y114716D01*
X70955Y115096D02*Y114525D01*
Y115096D02*X71145Y115287D01*
X71526D01*
X70764D02*X70955Y115096D01*
X71984Y116049D02*Y114716D01*
X72174Y114525D01*
X72555Y115096D02*Y114716D01*
Y115096D02*X72746Y115287D01*
X73127D01*
X73317Y115096D01*
Y114716D01*
X73127Y114525D02*X73317Y114716D01*
X72746Y114525D02*X73127D01*
X72555Y114716D02*X72746Y114525D01*
X73774Y115287D02*Y114716D01*
X73965Y114525D01*
X74155D01*
X74346Y114716D01*
Y115287D02*Y114716D01*
X74536Y114525D01*
X74727D01*
X74917Y114716D01*
Y115287D02*Y114716D01*
X50800Y119859D02*X51562D01*
X51181D02*Y118335D01*
G54D232*X52019Y119478D02*Y119440D01*
G54D231*Y118906D02*Y118335D01*
X52591Y119859D02*Y118526D01*
X52781Y118335D01*
X52400Y119288D02*X52781D01*
X53162Y119859D02*Y118526D01*
X53353Y118335D01*
X53924D02*X54496D01*
X53734Y118526D02*X53924Y118335D01*
X53734Y118906D02*Y118526D01*
Y118906D02*X53924Y119097D01*
X54305D01*
X54496Y118906D01*
X53734Y118716D02*X54496D01*
Y118906D02*Y118716D01*
X54953Y119288D02*X55143D01*
X54953Y118906D02*X55143D01*
X56286Y118526D02*X56477Y118335D01*
X56286Y119668D02*X56477Y119859D01*
X56286Y119668D02*Y118526D01*
X56934Y119097D02*Y118526D01*
X57125Y118335D01*
X57506D01*
X57696Y118526D01*
Y119097D02*Y118526D01*
X58344Y118906D02*Y118335D01*
Y118906D02*X58534Y119097D01*
X58725D01*
X58915Y118906D01*
Y118335D01*
X58153Y119097D02*X58344Y118906D01*
X59373Y119859D02*Y118335D01*
Y118906D02*X59944Y118335D01*
X59373Y118906D02*X59754Y119288D01*
X60592Y118906D02*Y118335D01*
Y118906D02*X60782Y119097D01*
X60973D01*
X61163Y118906D01*
Y118335D01*
X60401Y119097D02*X60592Y118906D01*
X61620D02*Y118526D01*
Y118906D02*X61811Y119097D01*
X62192D01*
X62382Y118906D01*
Y118526D01*
X62192Y118335D02*X62382Y118526D01*
X61811Y118335D02*X62192D01*
X61620Y118526D02*X61811Y118335D01*
X62840Y119097D02*Y118526D01*
X63030Y118335D01*
X63221D01*
X63411Y118526D01*
Y119097D02*Y118526D01*
X63602Y118335D01*
X63792D01*
X63983Y118526D01*
Y119097D02*Y118526D01*
X64630Y118906D02*Y118335D01*
Y118906D02*X64821Y119097D01*
X65011D01*
X65202Y118906D01*
Y118335D01*
X64440Y119097D02*X64630Y118906D01*
X65659Y119859D02*X65850Y119668D01*
Y118526D01*
X65659Y118335D02*X65850Y118526D01*
X66993Y119097D02*X67755D01*
X68898Y119859D02*Y118335D01*
Y119859D02*X69660D01*
X68898Y119173D02*X69469D01*
X70688Y119097D02*X70879Y118906D01*
X70307Y119097D02*X70688D01*
X70117Y118906D02*X70307Y119097D01*
X70117Y118906D02*Y118526D01*
X70307Y118335D01*
X70879Y119097D02*Y118526D01*
X71069Y118335D01*
X70307D02*X70688D01*
X70879Y118526D01*
X71526Y119859D02*Y118335D01*
Y118526D02*X71717Y118335D01*
X72098D01*
X72288Y118526D01*
Y118906D02*Y118526D01*
X72098Y119097D02*X72288Y118906D01*
X71717Y119097D02*X72098D01*
X71526Y118906D02*X71717Y119097D01*
X72936Y118906D02*Y118335D01*
Y118906D02*X73127Y119097D01*
X73508D01*
X72746D02*X72936Y118906D01*
G54D232*X73965Y119478D02*Y119440D01*
G54D231*Y118906D02*Y118335D01*
X74536Y119097D02*X75108D01*
X74346Y118906D02*X74536Y119097D01*
X74346Y118906D02*Y118526D01*
X74536Y118335D01*
X75108D01*
X76137Y119097D02*X76327Y118906D01*
X75756Y119097D02*X76137D01*
X75565Y118906D02*X75756Y119097D01*
X75565Y118906D02*Y118526D01*
X75756Y118335D01*
X76327Y119097D02*Y118526D01*
X76518Y118335D01*
X75756D02*X76137D01*
X76327Y118526D01*
X77165Y119859D02*Y118526D01*
X77356Y118335D01*
X76975Y119288D02*X77356D01*
G54D232*X77737Y119478D02*Y119440D01*
G54D231*Y118906D02*Y118335D01*
X78118Y118906D02*Y118526D01*
Y118906D02*X78308Y119097D01*
X78689D01*
X78880Y118906D01*
Y118526D01*
X78689Y118335D02*X78880Y118526D01*
X78308Y118335D02*X78689D01*
X78118Y118526D02*X78308Y118335D01*
X79527Y118906D02*Y118335D01*
Y118906D02*X79718Y119097D01*
X79908D01*
X80099Y118906D01*
Y118335D01*
X79337Y119097D02*X79527Y118906D01*
X81432Y119859D02*Y118335D01*
X81928Y119859D02*X82194Y119592D01*
Y118602D01*
X81928Y118335D02*X82194Y118602D01*
X81242Y118335D02*X81928D01*
X81242Y119859D02*X81928D01*
X82842Y118906D02*Y118335D01*
Y118906D02*X83033Y119097D01*
X83414D01*
X82652D02*X82842Y118906D01*
X84442Y119097D02*X84633Y118906D01*
X84061Y119097D02*X84442D01*
X83871Y118906D02*X84061Y119097D01*
X83871Y118906D02*Y118526D01*
X84061Y118335D01*
X84633Y119097D02*Y118526D01*
X84823Y118335D01*
X84061D02*X84442D01*
X84633Y118526D01*
X85281Y119097D02*Y118526D01*
X85471Y118335D01*
X85662D01*
X85852Y118526D01*
Y119097D02*Y118526D01*
X86043Y118335D01*
X86233D01*
X86424Y118526D01*
Y119097D02*Y118526D01*
G54D232*X86881Y119478D02*Y119440D01*
G54D231*Y118906D02*Y118335D01*
X87452Y118906D02*Y118335D01*
Y118906D02*X87643Y119097D01*
X87833D01*
X88024Y118906D01*
Y118335D01*
X87262Y119097D02*X87452Y118906D01*
X89052Y119097D02*X89243Y118906D01*
X88671Y119097D02*X89052D01*
X88481Y118906D02*X88671Y119097D01*
X88481Y118906D02*Y118526D01*
X88671Y118335D01*
X89052D01*
X89243Y118526D01*
X88481Y117954D02*X88671Y117764D01*
X89052D01*
X89243Y117954D01*
Y119097D02*Y117954D01*
M02*
